%TF.GenerationSoftware,Altium Limited,Altium Designer,19.0.15 (446)*%
G04 Layer_Color=8388736*
%FSLAX45Y45*%
%MOMM*%
%TF.FileFunction,Soldermask,Top*%
%TF.Part,Single*%
G01*
G75*
%TA.AperFunction,SMDPad,CuDef*%
%ADD11R,0.80000X0.80000*%
%ADD12R,1.15776X1.36062*%
%ADD15R,0.55000X0.80000*%
%ADD18R,0.90000X2.00000*%
%ADD19R,2.00000X0.90000*%
%TA.AperFunction,BGAPad,CuDef*%
%ADD20R,1.33000X1.33000*%
%TA.AperFunction,SMDPad,CuDef*%
%ADD21R,1.10550X1.65822*%
%ADD22R,1.65822X1.10550*%
%ADD24R,1.36062X1.15776*%
%ADD25R,1.26062X0.95776*%
%ADD26R,0.80000X1.70000*%
G04:AMPARAMS|DCode=31|XSize=1.65543mm|YSize=0.38077mm|CornerRadius=0.19038mm|HoleSize=0mm|Usage=FLASHONLY|Rotation=270.000|XOffset=0mm|YOffset=0mm|HoleType=Round|Shape=RoundedRectangle|*
%AMROUNDEDRECTD31*
21,1,1.65543,0.00000,0,0,270.0*
21,1,1.27467,0.38077,0,0,270.0*
1,1,0.38077,0.00000,-0.63733*
1,1,0.38077,0.00000,0.63733*
1,1,0.38077,0.00000,0.63733*
1,1,0.38077,0.00000,-0.63733*
%
%ADD31ROUNDEDRECTD31*%
%ADD32R,0.38077X1.65543*%
%ADD36R,1.50000X1.30000*%
%ADD37R,1.30000X1.50000*%
%ADD40R,1.98000X0.53000*%
%ADD41R,1.72000X3.20000*%
G04:AMPARAMS|DCode=43|XSize=1.00429mm|YSize=3.18213mm|CornerRadius=0.43687mm|HoleSize=0mm|Usage=FLASHONLY|Rotation=90.000|XOffset=0mm|YOffset=0mm|HoleType=Round|Shape=RoundedRectangle|*
%AMROUNDEDRECTD43*
21,1,1.00429,2.30840,0,0,90.0*
21,1,0.13056,3.18213,0,0,90.0*
1,1,0.87373,1.15420,0.06528*
1,1,0.87373,1.15420,-0.06528*
1,1,0.87373,-1.15420,-0.06528*
1,1,0.87373,-1.15420,0.06528*
%
%ADD43ROUNDEDRECTD43*%
G04:AMPARAMS|DCode=44|XSize=1.00429mm|YSize=0.87213mm|CornerRadius=0.43606mm|HoleSize=0mm|Usage=FLASHONLY|Rotation=90.000|XOffset=0mm|YOffset=0mm|HoleType=Round|Shape=RoundedRectangle|*
%AMROUNDEDRECTD44*
21,1,1.00429,0.00000,0,0,90.0*
21,1,0.13216,0.87213,0,0,90.0*
1,1,0.87213,0.00000,0.06608*
1,1,0.87213,0.00000,-0.06608*
1,1,0.87213,0.00000,-0.06608*
1,1,0.87213,0.00000,0.06608*
%
%ADD44ROUNDEDRECTD44*%
%ADD45R,0.87213X1.00429*%
%TA.AperFunction,ComponentPad*%
%ADD56C,1.39000*%
%ADD62C,1.84000*%
%ADD63R,1.84000X1.84000*%
%ADD64C,1.57000*%
%ADD65R,1.57000X1.57000*%
%ADD66R,1.57000X1.57000*%
%ADD67C,1.66680*%
%ADD68R,1.66680X1.66680*%
%ADD71C,1.65320*%
%ADD72R,2.00320X2.00320*%
%ADD73C,2.00320*%
%ADD74C,1.55320*%
%ADD75R,1.55320X1.55320*%
%ADD76C,1.75320*%
%ADD77R,1.75320X1.75320*%
%ADD78C,1.72720*%
%TA.AperFunction,SMDPad,CuDef*%
%ADD79R,1.40320X2.40320*%
%ADD80R,1.80320X1.60320*%
%ADD81R,1.40320X1.60320*%
%ADD82R,0.90320X1.80320*%
%TA.AperFunction,ViaPad*%
%ADD83C,1.47320*%
%ADD84C,0.70320*%
%TA.AperFunction,Conductor*%
%ADD89C,0.70320*%
%TA.AperFunction,SMDPad,CuDef*%
%ADD90R,1.55320X1.05320*%
%ADD91R,2.00320X1.45320*%
%TA.AperFunction,ConnectorPad*%
%ADD92R,1.70320X2.10320*%
%ADD93R,0.60320X1.55320*%
%TA.AperFunction,SMDPad,CuDef*%
%ADD94R,1.05320X1.55320*%
%ADD95R,3.33320X3.33320*%
%ADD96O,1.15320X0.40320*%
%ADD97O,0.40320X1.15320*%
%ADD98R,1.00320X1.10320*%
%ADD99R,2.90320X2.80320*%
%ADD100R,1.00320X0.55320*%
%ADD101R,0.55320X1.05320*%
%ADD102R,2.10320X1.70320*%
%ADD103O,0.80320X2.40320*%
%ADD104R,2.20320X3.70320*%
G36*
X2785229Y839995D02*
X2786535Y839735D01*
X2787796Y839307D01*
X2788991Y838718D01*
X2790098Y837978D01*
X2791100Y837100D01*
X2791978Y836098D01*
X2792718Y834991D01*
X2793307Y833796D01*
X2793735Y832535D01*
X2793995Y831229D01*
X2794082Y829900D01*
Y639900D01*
X2793995Y638571D01*
X2793735Y637265D01*
X2793307Y636004D01*
X2792718Y634809D01*
X2791978Y633702D01*
X2791100Y632700D01*
X2790098Y631822D01*
X2788991Y631082D01*
X2787796Y630493D01*
X2786535Y630065D01*
X2785229Y629805D01*
X2783900Y629718D01*
X2653900D01*
X2652571Y629805D01*
X2651265Y630065D01*
X2650004Y630493D01*
X2648809Y631082D01*
X2647702Y631822D01*
X2646700Y632700D01*
X2645822Y633702D01*
X2645082Y634809D01*
X2644493Y636004D01*
X2644065Y637265D01*
X2643805Y638571D01*
X2643718Y639900D01*
Y679715D01*
X2603902D01*
X2602573Y679803D01*
X2601267Y680062D01*
X2600006Y680490D01*
X2599417Y680781D01*
X2598811Y681079D01*
X2597704Y681819D01*
X2596703Y682697D01*
Y682698D01*
X2596702D01*
X2595824Y683699D01*
X2595084Y684806D01*
X2594786Y685411D01*
X2594495Y686001D01*
X2594067Y687262D01*
X2593807Y688568D01*
X2593720Y689897D01*
X2593718Y779900D01*
Y779900D01*
D01*
X2593805Y781229D01*
X2594065Y782535D01*
X2594493Y783796D01*
X2594783Y784385D01*
X2595082Y784991D01*
X2595822Y786098D01*
X2596700Y787099D01*
X2596700D01*
Y787100D01*
X2597701Y787978D01*
X2598809Y788717D01*
X2599414Y789016D01*
X2600003Y789307D01*
X2601264Y789735D01*
X2602571Y789995D01*
X2603900Y790082D01*
X2603900D01*
D01*
X2643718D01*
Y829900D01*
X2643805Y831229D01*
X2644065Y832535D01*
X2644493Y833796D01*
X2645082Y834991D01*
X2645822Y836098D01*
X2646700Y837100D01*
X2647702Y837978D01*
X2648809Y838718D01*
X2650004Y839307D01*
X2651265Y839735D01*
X2652571Y839995D01*
X2653900Y840082D01*
X2783900D01*
X2785229Y839995D01*
D02*
G37*
G36*
X3375229D02*
X3376535Y839735D01*
X3377796Y839307D01*
X3378991Y838718D01*
X3380098Y837978D01*
X3381100Y837100D01*
X3381978Y836098D01*
X3382718Y834991D01*
X3383307Y833796D01*
X3383735Y832535D01*
X3383995Y831229D01*
X3384082Y829900D01*
Y790085D01*
X3423898D01*
X3425227Y789997D01*
X3426533Y789738D01*
X3427794Y789310D01*
X3428383Y789019D01*
X3428989Y788721D01*
X3430096Y787981D01*
X3431097Y787103D01*
Y787102D01*
X3431098D01*
X3431976Y786101D01*
X3432716Y784994D01*
X3433014Y784389D01*
X3433305Y783799D01*
X3433733Y782538D01*
X3433993Y781232D01*
X3434080Y779903D01*
X3434082Y689900D01*
Y689900D01*
D01*
X3433995Y688571D01*
X3433735Y687265D01*
X3433307Y686004D01*
X3433017Y685415D01*
X3432718Y684809D01*
X3431978Y683702D01*
X3431100Y682701D01*
X3431100D01*
Y682700D01*
X3430099Y681822D01*
X3428991Y681082D01*
X3428386Y680784D01*
X3427797Y680493D01*
X3426536Y680065D01*
X3425229Y679805D01*
X3423900Y679718D01*
X3423900D01*
D01*
X3384082D01*
Y639900D01*
X3383995Y638571D01*
X3383735Y637265D01*
X3383307Y636004D01*
X3382718Y634809D01*
X3381978Y633702D01*
X3381100Y632700D01*
X3380098Y631822D01*
X3378991Y631082D01*
X3377796Y630493D01*
X3376535Y630065D01*
X3375229Y629805D01*
X3373900Y629718D01*
X3243900D01*
X3242571Y629805D01*
X3241265Y630065D01*
X3240004Y630493D01*
X3238809Y631082D01*
X3237702Y631822D01*
X3236700Y632700D01*
X3235822Y633702D01*
X3235082Y634809D01*
X3234493Y636004D01*
X3234065Y637265D01*
X3233805Y638571D01*
X3233718Y639900D01*
Y829900D01*
X3233805Y831229D01*
X3234065Y832535D01*
X3234493Y833796D01*
X3235082Y834991D01*
X3235822Y836098D01*
X3236700Y837100D01*
X3237702Y837978D01*
X3238809Y838718D01*
X3240004Y839307D01*
X3241265Y839735D01*
X3242571Y839995D01*
X3243900Y840082D01*
X3373900D01*
X3375229Y839995D01*
D02*
G37*
D11*
X7504500Y6172200D02*
D03*
X7354500D02*
D03*
X4776400Y5156200D02*
D03*
X4926400D02*
D03*
X4763700Y4699000D02*
D03*
X4913700D02*
D03*
D12*
X3714918Y1752600D02*
D03*
X3549482D02*
D03*
X8921918Y889000D02*
D03*
X8756482D02*
D03*
X4357000Y4089400D02*
D03*
X4522437D02*
D03*
X3562182Y2143900D02*
D03*
X3727618D02*
D03*
X9544218Y2717800D02*
D03*
X9378782D02*
D03*
D15*
X3295900Y7258700D02*
D03*
X3390900D02*
D03*
X3485900D02*
D03*
Y7498700D02*
D03*
X3390900D02*
D03*
X3295900D02*
D03*
D18*
X8013700Y4811500D02*
D03*
X7886700D02*
D03*
X7759700D02*
D03*
X7632700D02*
D03*
X7505700D02*
D03*
X7378700D02*
D03*
X7251700D02*
D03*
X7124700D02*
D03*
X6997700D02*
D03*
X6870700D02*
D03*
X6743700D02*
D03*
X6616700D02*
D03*
X6489700D02*
D03*
X6362700D02*
D03*
Y3111500D02*
D03*
X6489700D02*
D03*
X6616700D02*
D03*
X6743700D02*
D03*
X6870700D02*
D03*
X6997700D02*
D03*
X7124700D02*
D03*
X7251700D02*
D03*
X7378700D02*
D03*
X7505700D02*
D03*
X7632700D02*
D03*
X7759700D02*
D03*
X7886700D02*
D03*
X8013700D02*
D03*
D19*
X6262700Y4533000D02*
D03*
Y4406000D02*
D03*
Y4279000D02*
D03*
Y4152000D02*
D03*
Y4025000D02*
D03*
Y3898000D02*
D03*
Y3771000D02*
D03*
Y3644000D02*
D03*
Y3517000D02*
D03*
Y3390000D02*
D03*
D20*
X7447200Y4245000D02*
D03*
Y4061500D02*
D03*
Y3878000D02*
D03*
X7263700Y4245000D02*
D03*
Y4061500D02*
D03*
Y3878000D02*
D03*
X7080200Y4245000D02*
D03*
Y4061500D02*
D03*
Y3878000D02*
D03*
D21*
X8694664Y1117600D02*
D03*
X8949936D02*
D03*
X3485900Y7937500D02*
D03*
X3230628D02*
D03*
D22*
X9093200Y5574664D02*
D03*
Y5829936D02*
D03*
X6273800Y7263764D02*
D03*
Y7519036D02*
D03*
D24*
X7993500Y6648618D02*
D03*
Y6483182D02*
D03*
X9017000Y7029618D02*
D03*
Y6864182D02*
D03*
X9664700Y7016918D02*
D03*
Y6851482D02*
D03*
X9994900Y7016918D02*
D03*
Y6851482D02*
D03*
X9334500Y7029618D02*
D03*
Y6864182D02*
D03*
X6870700Y7483818D02*
D03*
Y7318382D02*
D03*
X8458200Y5775168D02*
D03*
Y5609731D02*
D03*
X8140700Y5772318D02*
D03*
Y5606882D02*
D03*
X10069900Y1079500D02*
D03*
Y914063D02*
D03*
D25*
X9664700Y5629582D02*
D03*
Y5775018D02*
D03*
X9372600Y5620363D02*
D03*
Y5765800D02*
D03*
D26*
X2540799Y3619500D02*
D03*
X2200799D02*
D03*
X2540799Y2997200D02*
D03*
X2200799D02*
D03*
X5164000Y3378200D02*
D03*
X5504000D02*
D03*
X5176700Y4127500D02*
D03*
X5516700D02*
D03*
D31*
X6659300Y1266862D02*
D03*
X6594300D02*
D03*
X6529300D02*
D03*
X6464300D02*
D03*
X6399300D02*
D03*
X6334300D02*
D03*
X6269300D02*
D03*
Y1831938D02*
D03*
X6334300D02*
D03*
X6399300D02*
D03*
X6464300D02*
D03*
X6529300D02*
D03*
X6594300D02*
D03*
D32*
X6659300D02*
D03*
D36*
X6794500Y5501700D02*
D03*
Y5191700D02*
D03*
D37*
X6317100Y5181600D02*
D03*
X6007100D02*
D03*
X4226500Y5486400D02*
D03*
X4536500D02*
D03*
D40*
X7993500Y7607300D02*
D03*
Y7480300D02*
D03*
Y7353300D02*
D03*
Y7226300D02*
D03*
X7500500D02*
D03*
Y7353300D02*
D03*
Y7480300D02*
D03*
Y7607300D02*
D03*
D41*
X4683300Y7848600D02*
D03*
X5324300D02*
D03*
D43*
X6858000Y6565200D02*
D03*
D44*
X7087000Y5906200D02*
D03*
X6858000D02*
D03*
D45*
X6629000D02*
D03*
D56*
X5982300Y6616700D02*
D03*
D62*
X8140700Y1712500D02*
D03*
X7886700D02*
D03*
X7632700D02*
D03*
D63*
X7378700D02*
D03*
D64*
X7581900Y2463800D02*
D03*
X2476500Y6159500D02*
D03*
D65*
X7835900Y2463800D02*
D03*
D66*
X2476500Y6413500D02*
D03*
D67*
X2540799Y7866380D02*
D03*
Y7546340D02*
D03*
D68*
Y7226300D02*
D03*
D71*
X2763900Y1004900D02*
D03*
X3263900D02*
D03*
D72*
X9702800Y4762500D02*
D03*
X1261900Y1942600D02*
D03*
X9715500Y3835400D02*
D03*
D73*
X9956800Y4762500D02*
D03*
X10210800D02*
D03*
X753900Y1942600D02*
D03*
X1007900D02*
D03*
X10223500Y3835400D02*
D03*
X9969500D02*
D03*
D74*
X4763700Y6273800D02*
D03*
X5017700Y6527800D02*
D03*
D75*
X5271700Y6273800D02*
D03*
D76*
X3263900Y4737100D02*
D03*
D77*
X4025900D02*
D03*
D78*
X4420700Y957300D02*
D03*
X5218700D02*
D03*
D79*
X4106200Y1002300D02*
D03*
X5721200D02*
D03*
D80*
X5568700Y1954800D02*
D03*
D81*
X4106200Y1944800D02*
D03*
D82*
X5073700Y2064800D02*
D03*
X5183700D02*
D03*
X4853700D02*
D03*
X4523700D02*
D03*
X4413700D02*
D03*
X4303700D02*
D03*
X4743700D02*
D03*
X4633700D02*
D03*
X4963700D02*
D03*
D83*
X5073700Y1790600D02*
D03*
X2921000Y1485900D02*
D03*
X2703500Y1346200D02*
D03*
X2553500Y1460500D02*
D03*
X2108200Y1625600D02*
D03*
X2120900Y2425700D02*
D03*
X9834572Y1854200D02*
D03*
X9376535Y6324600D02*
D03*
X10185400Y6515100D02*
D03*
X8915400Y6527800D02*
D03*
X9753600Y6426200D02*
D03*
X9220200Y1016000D02*
D03*
X9029700Y1487100D02*
D03*
X9283700Y4051300D02*
D03*
X8432800Y2743200D02*
D03*
X9766300Y2507100D02*
D03*
X6743700Y977900D02*
D03*
X5130800Y1524000D02*
D03*
X6870700Y1955800D02*
D03*
X3505200Y7696200D02*
D03*
X4724400Y7160665D02*
D03*
X3546800Y7048500D02*
D03*
X5257800Y7226300D02*
D03*
X5472160Y7188200D02*
D03*
X5791200Y7696200D02*
D03*
X1663700Y2743200D02*
D03*
X9207500Y1562100D02*
D03*
X8597900Y1422400D02*
D03*
X9258300Y1814200D02*
D03*
X8420100Y1968500D02*
D03*
X3429000Y1942000D02*
D03*
X3009900Y1727200D02*
D03*
X3467100Y5092700D02*
D03*
X3365500Y5486400D02*
D03*
X2284900Y4457700D02*
D03*
X4800600Y3441700D02*
D03*
X4978400Y2819400D02*
D03*
X9652000Y1536700D02*
D03*
X5969000Y3314700D02*
D03*
X7416800Y5600700D02*
D03*
X7315200Y2743200D02*
D03*
X5600700Y2870200D02*
D03*
X5721200Y3187700D02*
D03*
X6553200Y5156200D02*
D03*
X6972300Y5067300D02*
D03*
X7289800Y5016500D02*
D03*
X7518400Y5930900D02*
D03*
X5537200Y7607300D02*
D03*
X3581400Y8191500D02*
D03*
X4394200Y8077200D02*
D03*
X5486400Y6934200D02*
D03*
X4127500Y8089900D02*
D03*
X4420700Y5130800D02*
D03*
X5842000Y4610100D02*
D03*
X5778500Y4127500D02*
D03*
X8216900Y2616200D02*
D03*
X6248400Y2082800D02*
D03*
X4699000Y2336800D02*
D03*
X6629400Y2324100D02*
D03*
X7200900Y2311400D02*
D03*
X2959100Y4305300D02*
D03*
X2794000Y2984500D02*
D03*
X4318000Y2972600D02*
D03*
X3365500Y1358900D02*
D03*
D84*
X2713500Y2103900D02*
D03*
Y1993900D02*
D03*
Y1883900D02*
D03*
X2603500Y2103900D02*
D03*
Y1993900D02*
D03*
Y1883900D02*
D03*
X2493500Y2103900D02*
D03*
Y1993900D02*
D03*
Y1883900D02*
D03*
X8822300Y1896500D02*
D03*
X8932300D02*
D03*
Y1786500D02*
D03*
X8822300D02*
D03*
D89*
X3398900Y689900D02*
G03*
X3398900Y689900I-25000J0D01*
G01*
X2678900Y689900D02*
G03*
X2678900Y689900I-25000J0D01*
G01*
X2663900Y756987D02*
G03*
X2678900Y779900I-10000J22913D01*
G01*
X3363900Y756987D02*
G03*
X3398900Y779900I10000J22913D01*
G01*
X3363900Y802813D02*
G03*
X3363900Y756987I10000J-22913D01*
G01*
X3398900Y779900D02*
G03*
X3363900Y802813I-25000J0D01*
G01*
X2678900Y779900D02*
G03*
X2664588Y802500I-25000J0D01*
G01*
D02*
G03*
X2663900Y802813I-10688J-22600D01*
G01*
X2651800Y754988D02*
G03*
X2663900Y756987I2100J24912D01*
G01*
X2651800Y804811D02*
G03*
X2651800Y754988I2100J-24912D01*
G01*
X2663900Y802813D02*
G03*
X2651800Y804811I-10000J-22913D01*
G01*
D90*
X7696200Y2254200D02*
D03*
Y2089200D02*
D03*
X3101800Y1949500D02*
D03*
Y2114500D02*
D03*
X2108200Y2254200D02*
D03*
Y2089200D02*
D03*
Y1761400D02*
D03*
Y1926400D02*
D03*
X10325100Y6851700D02*
D03*
Y7016700D02*
D03*
X4624700Y2844900D02*
D03*
Y3009900D02*
D03*
X6972300Y2533600D02*
D03*
Y2368600D02*
D03*
X9603100Y1695500D02*
D03*
Y1860500D02*
D03*
X6350000Y2559000D02*
D03*
Y2394000D02*
D03*
X10083800Y1695500D02*
D03*
Y1860500D02*
D03*
X5803900Y2533600D02*
D03*
Y2368600D02*
D03*
X9448800Y844600D02*
D03*
Y1009600D02*
D03*
D91*
X5778500Y7251200D02*
D03*
Y7506200D02*
D03*
D92*
X3113900Y734900D02*
D03*
X2913900D02*
D03*
D93*
X3143900Y1004900D02*
D03*
X3078900D02*
D03*
X3013900D02*
D03*
X2948900D02*
D03*
X2883900D02*
D03*
D94*
X3098700Y5480910D02*
D03*
X2933700D02*
D03*
X5505400Y5410200D02*
D03*
X5340400D02*
D03*
X5391100Y4972600D02*
D03*
X5226100D02*
D03*
X5086300Y7162800D02*
D03*
X4921300D02*
D03*
X2495600Y4690400D02*
D03*
X2660600D02*
D03*
X3310399Y3012600D02*
D03*
X3475399D02*
D03*
X3905300Y2984500D02*
D03*
X4070300D02*
D03*
X6331000Y822800D02*
D03*
X6496000D02*
D03*
X7334300Y6527800D02*
D03*
X7499300D02*
D03*
D95*
X2603500Y1993900D02*
D03*
D96*
X2356000Y1843900D02*
D03*
Y1893900D02*
D03*
Y1943900D02*
D03*
Y1993900D02*
D03*
Y2043900D02*
D03*
Y2093900D02*
D03*
Y2143900D02*
D03*
X2851000D02*
D03*
Y2093900D02*
D03*
Y2043900D02*
D03*
Y1993900D02*
D03*
Y1943900D02*
D03*
Y1893900D02*
D03*
Y1843900D02*
D03*
D97*
X2453500Y2241400D02*
D03*
X2503500D02*
D03*
X2553500D02*
D03*
X2603500D02*
D03*
X2653500D02*
D03*
X2703500D02*
D03*
X2753500D02*
D03*
Y1746400D02*
D03*
X2703500D02*
D03*
X2653500D02*
D03*
X2603500D02*
D03*
X2553500D02*
D03*
X2503500D02*
D03*
X2453500D02*
D03*
D98*
X3202899Y3557600D02*
D03*
X3392899D02*
D03*
X3297899Y3757600D02*
D03*
X4153699Y3732200D02*
D03*
X3963699D02*
D03*
X4058699Y3532200D02*
D03*
D99*
X8877300Y1841500D02*
D03*
D100*
X9077300Y1716500D02*
D03*
Y1766500D02*
D03*
Y1816500D02*
D03*
Y1866500D02*
D03*
Y1916500D02*
D03*
Y1966500D02*
D03*
X8677300Y1716500D02*
D03*
Y1766500D02*
D03*
Y1816500D02*
D03*
Y1866500D02*
D03*
Y1916500D02*
D03*
Y1966500D02*
D03*
D101*
X9002300Y2039000D02*
D03*
X8952300D02*
D03*
X8902300D02*
D03*
X8852300D02*
D03*
X8802300D02*
D03*
X8752300D02*
D03*
X9002300Y1644000D02*
D03*
X8952300D02*
D03*
X8902300D02*
D03*
X8852300D02*
D03*
X8802300D02*
D03*
X8752300D02*
D03*
D102*
X2400300Y5158600D02*
D03*
Y5458600D02*
D03*
D103*
X3911600Y7279036D02*
D03*
X4038600D02*
D03*
X4165600D02*
D03*
X4292600D02*
D03*
X3911600Y7759036D02*
D03*
X4038600D02*
D03*
X4165600D02*
D03*
X4292600D02*
D03*
D104*
X3131400Y6375400D02*
D03*
X4031400D02*
D03*
%TF.MD5,886310dda8d8ea91d94f4787e561b185*%
M02*
