%TF.GenerationSoftware,Altium Limited,Altium Designer,19.0.15 (446)*%
G04 Layer_Physical_Order=2*
G04 Layer_Color=16711680*
%FSLAX45Y45*%
%MOMM*%
%TF.FileFunction,Copper,L2,Bot,Signal*%
%TF.Part,Single*%
G01*
G75*
%TA.AperFunction,Conductor*%
%ADD10C,0.50000*%
%ADD46C,0.40000*%
%ADD47C,0.25400*%
%TA.AperFunction,ComponentPad*%
%ADD49C,1.45000*%
%ADD50R,1.80000X1.80000*%
%ADD51C,1.80000*%
%ADD52C,1.35000*%
%ADD53R,1.35000X1.35000*%
%ADD54C,1.55000*%
%ADD55R,1.55000X1.55000*%
%ADD56C,1.39000*%
%ADD57C,1.52400*%
%TA.AperFunction,SMDPad,CuDef*%
%ADD58R,1.20000X2.20000*%
%ADD59R,1.60000X1.40000*%
%ADD60R,1.20000X1.40000*%
%ADD61R,0.70000X1.60000*%
%TA.AperFunction,ComponentPad*%
%ADD62C,1.84000*%
%ADD63R,1.84000X1.84000*%
%ADD64C,1.57000*%
%ADD65R,1.57000X1.57000*%
%ADD66R,1.57000X1.57000*%
%ADD67C,1.66680*%
%ADD68R,1.66680X1.66680*%
%TA.AperFunction,ViaPad*%
%ADD69C,1.27000*%
%ADD70C,0.50000*%
G36*
X10604500Y609600D02*
X469900D01*
Y8636000D01*
X10604500D01*
Y609600D01*
D02*
G37*
%LPC*%
G36*
X4216400Y8306387D02*
X3987800D01*
X3968135Y8302476D01*
X3951464Y8291336D01*
X3903015Y8242887D01*
X3654025D01*
X3644804Y8254904D01*
X3626234Y8269154D01*
X3604607Y8278112D01*
X3581400Y8281167D01*
X3558193Y8278112D01*
X3536566Y8269154D01*
X3517996Y8254904D01*
X3503746Y8236334D01*
X3494788Y8214707D01*
X3491733Y8191500D01*
X3494788Y8168293D01*
X3503746Y8146666D01*
X3517996Y8128096D01*
X3536566Y8113846D01*
X3558193Y8104888D01*
X3581400Y8101833D01*
X3604607Y8104888D01*
X3626234Y8113846D01*
X3644804Y8128096D01*
X3654025Y8140113D01*
X3924300D01*
X3943965Y8144024D01*
X3960636Y8155164D01*
X4009085Y8203613D01*
X4195115D01*
X4306510Y8092217D01*
X4304533Y8077200D01*
X4307588Y8053993D01*
X4316546Y8032366D01*
X4330796Y8013796D01*
X4349366Y7999546D01*
X4370993Y7990588D01*
X4394200Y7987533D01*
X4417407Y7990588D01*
X4439034Y7999546D01*
X4457604Y8013796D01*
X4471854Y8032366D01*
X4480812Y8053993D01*
X4483867Y8077200D01*
X4480812Y8100407D01*
X4471854Y8122034D01*
X4457604Y8140604D01*
X4439034Y8154854D01*
X4417407Y8163812D01*
X4394200Y8166867D01*
X4379183Y8164890D01*
X4252736Y8291336D01*
X4236065Y8302476D01*
X4216400Y8306387D01*
D02*
G37*
G36*
X2540799Y7976058D02*
X2512412Y7972321D01*
X2485960Y7961364D01*
X2463245Y7943934D01*
X2445815Y7921219D01*
X2434858Y7894767D01*
X2431121Y7866380D01*
X2434858Y7837993D01*
X2445815Y7811541D01*
X2463245Y7788826D01*
X2485960Y7771396D01*
X2512412Y7760439D01*
X2540799Y7756702D01*
X2569186Y7760439D01*
X2595638Y7771396D01*
X2618353Y7788826D01*
X2635783Y7811541D01*
X2646740Y7837993D01*
X2650477Y7866380D01*
X2646740Y7894767D01*
X2635783Y7921219D01*
X2618353Y7943934D01*
X2595638Y7961364D01*
X2569186Y7972321D01*
X2540799Y7976058D01*
D02*
G37*
G36*
X5803900Y7784195D02*
Y7708900D01*
X5879195D01*
X5877812Y7719407D01*
X5868854Y7741034D01*
X5854604Y7759604D01*
X5836034Y7773854D01*
X5814407Y7782812D01*
X5803900Y7784195D01*
D02*
G37*
G36*
X5778500D02*
X5767993Y7782812D01*
X5746366Y7773854D01*
X5727796Y7759604D01*
X5713546Y7741034D01*
X5704588Y7719407D01*
X5703205Y7708900D01*
X5778500D01*
Y7784195D01*
D02*
G37*
G36*
X3517900D02*
Y7708900D01*
X3593195D01*
X3591812Y7719407D01*
X3582854Y7741034D01*
X3568604Y7759604D01*
X3550034Y7773854D01*
X3528407Y7782812D01*
X3517900Y7784195D01*
D02*
G37*
G36*
X3492500D02*
X3481993Y7782812D01*
X3460366Y7773854D01*
X3441796Y7759604D01*
X3427546Y7741034D01*
X3418588Y7719407D01*
X3417205Y7708900D01*
X3492500D01*
Y7784195D01*
D02*
G37*
G36*
X3593195Y7683500D02*
X3517900D01*
Y7608205D01*
X3528407Y7609588D01*
X3550034Y7618546D01*
X3568604Y7632796D01*
X3582854Y7651366D01*
X3591812Y7672993D01*
X3593195Y7683500D01*
D02*
G37*
G36*
X3492500D02*
X3417205D01*
X3418349Y7674812D01*
X2824768Y7081232D01*
X2814734Y7066214D01*
X2811210Y7048500D01*
X2811211Y7048499D01*
Y6559674D01*
X2592133Y6340597D01*
X2580400Y6345457D01*
Y6517400D01*
X2372600D01*
Y6309600D01*
X2544543D01*
X2549403Y6297867D01*
X2509732Y6258196D01*
X2503623Y6260726D01*
X2489200Y6262625D01*
Y6172200D01*
X2579625D01*
X2577726Y6186623D01*
X2575196Y6192732D01*
X2890231Y6507768D01*
X2890232Y6507768D01*
X2900266Y6522786D01*
X2903789Y6540500D01*
Y7029326D01*
X3483812Y7609349D01*
X3492500Y7608205D01*
Y7683500D01*
D02*
G37*
G36*
X2540799Y7656018D02*
X2512412Y7652281D01*
X2485960Y7641324D01*
X2463245Y7623894D01*
X2445815Y7601179D01*
X2434858Y7574727D01*
X2431121Y7546340D01*
X2434858Y7517953D01*
X2445815Y7491501D01*
X2463245Y7468786D01*
X2485960Y7451356D01*
X2512412Y7440399D01*
X2540799Y7436662D01*
X2569186Y7440399D01*
X2595638Y7451356D01*
X2618353Y7468786D01*
X2635783Y7491501D01*
X2646740Y7517953D01*
X2650477Y7546340D01*
X2646740Y7574727D01*
X2635783Y7601179D01*
X2618353Y7623894D01*
X2595638Y7641324D01*
X2569186Y7652281D01*
X2540799Y7656018D01*
D02*
G37*
G36*
X5270500Y7314295D02*
Y7239000D01*
X5345795D01*
X5344412Y7249507D01*
X5335454Y7271134D01*
X5321204Y7289704D01*
X5302634Y7303954D01*
X5281007Y7312912D01*
X5270500Y7314295D01*
D02*
G37*
G36*
X5245100D02*
X5234593Y7312912D01*
X5212966Y7303954D01*
X5194396Y7289704D01*
X5180146Y7271134D01*
X5171188Y7249507D01*
X5169805Y7239000D01*
X5245100D01*
Y7314295D01*
D02*
G37*
G36*
Y7213600D02*
X5169805D01*
X5171188Y7203093D01*
X5180146Y7181466D01*
X5194396Y7162896D01*
X5212966Y7148646D01*
X5234593Y7139688D01*
X5245100Y7138305D01*
Y7213600D01*
D02*
G37*
G36*
X2649539Y7335040D02*
X2432059D01*
Y7117560D01*
X2649539D01*
Y7335040D01*
D02*
G37*
G36*
X4724400Y7250332D02*
X4701193Y7247277D01*
X4679566Y7238319D01*
X4660996Y7224069D01*
X4646746Y7205499D01*
X4637788Y7183873D01*
X4634733Y7160665D01*
X4637788Y7137458D01*
X4640268Y7131471D01*
X4596144Y7087347D01*
X3626934D01*
X3624454Y7093334D01*
X3610204Y7111904D01*
X3591634Y7126154D01*
X3570008Y7135112D01*
X3546800Y7138167D01*
X3523593Y7135112D01*
X3501967Y7126154D01*
X3483396Y7111904D01*
X3469146Y7093334D01*
X3460188Y7071707D01*
X3457133Y7048500D01*
X3460188Y7025293D01*
X3469146Y7003666D01*
X3483396Y6985096D01*
X3501967Y6970846D01*
X3523593Y6961888D01*
X3546800Y6958833D01*
X3570008Y6961888D01*
X3591634Y6970846D01*
X3610204Y6985096D01*
X3624454Y7003666D01*
X3626934Y7009653D01*
X4612235D01*
X4627101Y7012611D01*
X4639703Y7021031D01*
X4695205Y7076533D01*
X4701193Y7074053D01*
X4724400Y7070998D01*
X4747607Y7074053D01*
X4769234Y7083011D01*
X4787804Y7097261D01*
X4802054Y7115832D01*
X4811012Y7137458D01*
X4814067Y7160665D01*
X4811012Y7183873D01*
X4802054Y7205499D01*
X4787804Y7224069D01*
X4769234Y7238319D01*
X4747607Y7247277D01*
X4724400Y7250332D01*
D02*
G37*
G36*
X4127500Y8179567D02*
X4104293Y8176512D01*
X4082666Y8167554D01*
X4064096Y8153304D01*
X4049846Y8134734D01*
X4040888Y8113107D01*
X4037833Y8089900D01*
X4040888Y8066693D01*
X4049846Y8045066D01*
X4064096Y8026496D01*
X4082666Y8012246D01*
X4104293Y8003288D01*
X4127500Y8000233D01*
X4150707Y8003288D01*
X4156695Y8005768D01*
X5255731Y6906731D01*
X5268334Y6898311D01*
X5283200Y6895353D01*
X5406266D01*
X5408746Y6889366D01*
X5422996Y6870796D01*
X5441566Y6856546D01*
X5463193Y6847588D01*
X5486400Y6844533D01*
X5509607Y6847588D01*
X5531234Y6856546D01*
X5549804Y6870796D01*
X5564054Y6889366D01*
X5573012Y6910993D01*
X5576067Y6934200D01*
X5573012Y6957407D01*
X5564054Y6979034D01*
X5549804Y6997604D01*
X5543801Y7002211D01*
X5548112Y7014911D01*
X5549899D01*
X5549900Y7014910D01*
X5567614Y7018434D01*
X5573842Y7022595D01*
X5593368Y7003069D01*
X5593368Y7003068D01*
X5608386Y6993034D01*
X5626100Y6989510D01*
X5626101Y6989511D01*
X5643311D01*
Y6883400D01*
X5644344Y6878207D01*
X5505326Y6739189D01*
X4864100D01*
X4846386Y6735666D01*
X4831368Y6725632D01*
X4831368Y6725631D01*
X3638426Y5532689D01*
X3442037D01*
X3428904Y5549804D01*
X3410334Y5564054D01*
X3388707Y5573012D01*
X3378200Y5574395D01*
Y5486400D01*
Y5398405D01*
X3386888Y5399549D01*
X3420811Y5365626D01*
Y5169237D01*
X3403696Y5156104D01*
X3389446Y5137534D01*
X3380488Y5115907D01*
X3379105Y5105400D01*
X3555095D01*
X3553712Y5115907D01*
X3544754Y5137534D01*
X3530504Y5156104D01*
X3513389Y5169237D01*
Y5384800D01*
X3509866Y5402514D01*
X3499832Y5417532D01*
X3499831Y5417532D01*
X3488986Y5428377D01*
X3493846Y5440111D01*
X3657599D01*
X3657600Y5440110D01*
X3675314Y5443634D01*
X3690332Y5453668D01*
X4883274Y6646611D01*
X5524499D01*
X5524500Y6646610D01*
X5542214Y6650134D01*
X5557232Y6660168D01*
X5724510Y6827447D01*
X5724511Y6827447D01*
X5734545Y6842465D01*
X5738069Y6860179D01*
Y6881221D01*
X5735889Y6892176D01*
Y7010400D01*
X5732366Y7028114D01*
X5722332Y7043132D01*
X5722331Y7043132D01*
X5696932Y7068532D01*
X5681914Y7078566D01*
X5664200Y7082090D01*
X5664199Y7082089D01*
X5654213D01*
X5648953Y7094789D01*
X5671531Y7117368D01*
X5671532Y7117368D01*
X5681566Y7132386D01*
X5685089Y7150100D01*
Y7384926D01*
X5798531Y7498368D01*
X5798532Y7498368D01*
X5808566Y7513386D01*
X5812090Y7531100D01*
X5812089Y7531101D01*
Y7609283D01*
X5814407Y7609588D01*
X5836034Y7618546D01*
X5854604Y7632796D01*
X5868854Y7651366D01*
X5877812Y7672993D01*
X5879195Y7683500D01*
X5703205D01*
X5704588Y7672993D01*
X5713546Y7651366D01*
X5719511Y7643593D01*
Y7550274D01*
X5606068Y7436832D01*
X5596034Y7421814D01*
X5592510Y7404100D01*
X5592511Y7404099D01*
Y7169274D01*
X5560262Y7137025D01*
X5549814Y7143367D01*
X5558771Y7164993D01*
X5561827Y7188200D01*
X5558771Y7211407D01*
X5549814Y7233034D01*
X5535564Y7251604D01*
X5523547Y7260825D01*
Y7507371D01*
X5534203Y7518027D01*
X5537200Y7517633D01*
X5560407Y7520688D01*
X5582034Y7529646D01*
X5600604Y7543896D01*
X5614854Y7562466D01*
X5623812Y7584093D01*
X5626867Y7607300D01*
X5623812Y7630507D01*
X5614854Y7652134D01*
X5600604Y7670704D01*
X5582034Y7684954D01*
X5560407Y7693912D01*
X5537200Y7696967D01*
X5513993Y7693912D01*
X5492366Y7684954D01*
X5473796Y7670704D01*
X5459546Y7652134D01*
X5450588Y7630507D01*
X5447533Y7607300D01*
X5450588Y7584093D01*
X5451858Y7581027D01*
X5435824Y7564992D01*
X5424684Y7548321D01*
X5420772Y7528656D01*
Y7260825D01*
X5408756Y7251604D01*
X5394506Y7233034D01*
X5385548Y7211407D01*
X5382493Y7188200D01*
X5382973Y7184551D01*
X5370944Y7178619D01*
X5344651Y7204912D01*
X5345795Y7213600D01*
X5270500D01*
Y7138305D01*
X5279188Y7139449D01*
X5325811Y7092826D01*
Y7076080D01*
X5325810Y7076079D01*
X5329334Y7058365D01*
X5339368Y7043347D01*
X5354247Y7028469D01*
X5354247Y7028468D01*
X5369265Y7018434D01*
X5386979Y7014911D01*
X5424688D01*
X5428999Y7002211D01*
X5422996Y6997604D01*
X5408746Y6979034D01*
X5406266Y6973047D01*
X5299291D01*
X4211632Y8060705D01*
X4214112Y8066693D01*
X4217167Y8089900D01*
X4214112Y8113107D01*
X4205154Y8134734D01*
X4190904Y8153304D01*
X4172334Y8167554D01*
X4150707Y8176512D01*
X4127500Y8179567D01*
D02*
G37*
G36*
X8902700Y6615795D02*
X8892193Y6614412D01*
X8870566Y6605454D01*
X8851996Y6591204D01*
X8837746Y6572634D01*
X8828788Y6551007D01*
X8827405Y6540500D01*
X8902700D01*
Y6615795D01*
D02*
G37*
G36*
X5982300Y6712419D02*
X5957526Y6709157D01*
X5934441Y6699595D01*
X5914617Y6684383D01*
X5899405Y6664559D01*
X5889843Y6641474D01*
X5886581Y6616700D01*
X5889843Y6591926D01*
X5899405Y6568841D01*
X5914617Y6549017D01*
X5934441Y6533805D01*
X5957526Y6524243D01*
X5982300Y6520981D01*
X6007074Y6524243D01*
X6030159Y6533805D01*
X6049983Y6549017D01*
X6065195Y6568841D01*
X6074757Y6591926D01*
X6078019Y6616700D01*
X6074757Y6641474D01*
X6065195Y6664559D01*
X6049983Y6684383D01*
X6030159Y6699595D01*
X6007074Y6709157D01*
X5982300Y6712419D01*
D02*
G37*
G36*
X8902700Y6515100D02*
X8827405D01*
X8828788Y6504593D01*
X8837746Y6482966D01*
X8851996Y6464396D01*
X8870566Y6450146D01*
X8892193Y6441188D01*
X8902700Y6439805D01*
Y6515100D01*
D02*
G37*
G36*
X9766300Y6514195D02*
Y6438900D01*
X9841595D01*
X9840212Y6449407D01*
X9831254Y6471034D01*
X9817004Y6489604D01*
X9798434Y6503854D01*
X9776807Y6512812D01*
X9766300Y6514195D01*
D02*
G37*
G36*
X8928100Y6615795D02*
Y6527800D01*
Y6439805D01*
X8938607Y6441188D01*
X8960234Y6450146D01*
X8978804Y6464396D01*
X8991937Y6481511D01*
X9632826D01*
X9666749Y6447588D01*
X9665605Y6438900D01*
X9740900D01*
Y6514195D01*
X9732212Y6513051D01*
X9684732Y6560532D01*
X9669714Y6570566D01*
X9652000Y6574090D01*
X9651999Y6574089D01*
X8991937D01*
X8978804Y6591204D01*
X8960234Y6605454D01*
X8938607Y6614412D01*
X8928100Y6615795D01*
D02*
G37*
G36*
X5017700Y6621502D02*
X4993448Y6618309D01*
X4970849Y6608948D01*
X4951443Y6594057D01*
X4936552Y6574651D01*
X4927191Y6552052D01*
X4923998Y6527800D01*
X4927191Y6503548D01*
X4936552Y6480949D01*
X4951443Y6461543D01*
X4970849Y6446652D01*
X4993448Y6437291D01*
X5017700Y6434098D01*
X5041952Y6437291D01*
X5064551Y6446652D01*
X5083957Y6461543D01*
X5098848Y6480949D01*
X5108209Y6503548D01*
X5111402Y6527800D01*
X5108209Y6552052D01*
X5098848Y6574651D01*
X5083957Y6594057D01*
X5064551Y6608948D01*
X5041952Y6618309D01*
X5017700Y6621502D01*
D02*
G37*
G36*
X10185400Y6604767D02*
X10162193Y6601712D01*
X10140566Y6592754D01*
X10121996Y6578504D01*
X10107746Y6559934D01*
X10098788Y6538307D01*
X10095733Y6515100D01*
X10097710Y6500083D01*
X9884715Y6287087D01*
X9635185D01*
X9561336Y6360936D01*
X9544665Y6372076D01*
X9525000Y6375987D01*
X9449161D01*
X9439940Y6388004D01*
X9421369Y6402254D01*
X9399743Y6411212D01*
X9376535Y6414267D01*
X9353328Y6411212D01*
X9331702Y6402254D01*
X9313131Y6388004D01*
X9298882Y6369434D01*
X9289924Y6347807D01*
X9286868Y6324600D01*
X9289924Y6301393D01*
X9298882Y6279766D01*
X9313131Y6261196D01*
X9331702Y6246946D01*
X9353328Y6237988D01*
X9376535Y6234933D01*
X9399743Y6237988D01*
X9421369Y6246946D01*
X9439940Y6261196D01*
X9449161Y6273213D01*
X9503715D01*
X9577564Y6199364D01*
X9594235Y6188224D01*
X9613900Y6184313D01*
X9906000D01*
X9925665Y6188224D01*
X9942336Y6199364D01*
X10170383Y6427410D01*
X10185400Y6425433D01*
X10208607Y6428488D01*
X10230234Y6437446D01*
X10248804Y6451696D01*
X10263054Y6470266D01*
X10272012Y6491893D01*
X10275067Y6515100D01*
X10272012Y6538307D01*
X10263054Y6559934D01*
X10248804Y6578504D01*
X10230234Y6592754D01*
X10208607Y6601712D01*
X10185400Y6604767D01*
D02*
G37*
G36*
X9841595Y6413500D02*
X9766300D01*
Y6338205D01*
X9776807Y6339588D01*
X9798434Y6348546D01*
X9817004Y6362796D01*
X9831254Y6381366D01*
X9840212Y6402993D01*
X9841595Y6413500D01*
D02*
G37*
G36*
X9740900D02*
X9665605D01*
X9666988Y6402993D01*
X9675946Y6381366D01*
X9690196Y6362796D01*
X9708766Y6348546D01*
X9730393Y6339588D01*
X9740900Y6338205D01*
Y6413500D01*
D02*
G37*
G36*
X4763700Y6367502D02*
X4739448Y6364309D01*
X4716849Y6354948D01*
X4697443Y6340057D01*
X4682552Y6320651D01*
X4673191Y6298052D01*
X4669998Y6273800D01*
X4673191Y6249548D01*
X4682552Y6226949D01*
X4697443Y6207543D01*
X4716849Y6192652D01*
X4739448Y6183291D01*
X4763700Y6180098D01*
X4787952Y6183291D01*
X4810551Y6192652D01*
X4829957Y6207543D01*
X4844848Y6226949D01*
X4854209Y6249548D01*
X4857402Y6273800D01*
X4854209Y6298052D01*
X4844848Y6320651D01*
X4829957Y6340057D01*
X4810551Y6354948D01*
X4787952Y6364309D01*
X4763700Y6367502D01*
D02*
G37*
G36*
X2463800Y6262625D02*
X2449377Y6260726D01*
X2424102Y6250256D01*
X2402398Y6233602D01*
X2385744Y6211898D01*
X2375274Y6186623D01*
X2373375Y6172200D01*
X2463800D01*
Y6262625D01*
D02*
G37*
G36*
X2579625Y6146800D02*
X2489200D01*
Y6056375D01*
X2503623Y6058274D01*
X2528898Y6068744D01*
X2550602Y6085398D01*
X2567256Y6107102D01*
X2577726Y6132377D01*
X2579625Y6146800D01*
D02*
G37*
G36*
X2463800D02*
X2373375D01*
X2375274Y6132377D01*
X2385744Y6107102D01*
X2402398Y6085398D01*
X2424102Y6068744D01*
X2449377Y6058274D01*
X2463800Y6056375D01*
Y6146800D01*
D02*
G37*
G36*
X5364600Y6366700D02*
X5178800D01*
Y6180900D01*
X5364600D01*
Y6222413D01*
X7154215D01*
X7430710Y5945917D01*
X7428733Y5930900D01*
X7431788Y5907693D01*
X7440746Y5886066D01*
X7454996Y5867496D01*
X7473566Y5853246D01*
X7495193Y5844288D01*
X7518400Y5841233D01*
X7541607Y5844288D01*
X7563234Y5853246D01*
X7581804Y5867496D01*
X7596054Y5886066D01*
X7605012Y5907693D01*
X7608067Y5930900D01*
X7605012Y5954107D01*
X7596054Y5975734D01*
X7581804Y5994304D01*
X7563234Y6008554D01*
X7541607Y6017512D01*
X7518400Y6020567D01*
X7503383Y6018590D01*
X7211836Y6310136D01*
X7195165Y6321276D01*
X7175500Y6325187D01*
X5364600D01*
Y6366700D01*
D02*
G37*
G36*
X7416800Y5690367D02*
X7393593Y5687312D01*
X7371966Y5678354D01*
X7353396Y5664104D01*
X7339146Y5645534D01*
X7336666Y5639547D01*
X6248400D01*
X6233534Y5636589D01*
X6220931Y5628169D01*
X4936909Y4344147D01*
X3039234D01*
X3036754Y4350134D01*
X3022504Y4368704D01*
X3003934Y4382954D01*
X2982307Y4391912D01*
X2959100Y4394967D01*
X2935893Y4391912D01*
X2914266Y4382954D01*
X2895696Y4368704D01*
X2881446Y4350134D01*
X2872488Y4328507D01*
X2869433Y4305300D01*
X2872488Y4282093D01*
X2881446Y4260466D01*
X2895696Y4241896D01*
X2914266Y4227646D01*
X2935893Y4218688D01*
X2959100Y4215633D01*
X2982307Y4218688D01*
X3003934Y4227646D01*
X3022504Y4241896D01*
X3036754Y4260466D01*
X3039234Y4266453D01*
X4953000D01*
X4967866Y4269411D01*
X4980468Y4277831D01*
X6264490Y5561853D01*
X7336666D01*
X7339146Y5555866D01*
X7353396Y5537296D01*
X7371966Y5523046D01*
X7393593Y5514088D01*
X7416800Y5511033D01*
X7440007Y5514088D01*
X7461634Y5523046D01*
X7480204Y5537296D01*
X7494454Y5555866D01*
X7503412Y5577493D01*
X7506467Y5600700D01*
X7503412Y5623907D01*
X7494454Y5645534D01*
X7480204Y5664104D01*
X7461634Y5678354D01*
X7440007Y5687312D01*
X7416800Y5690367D01*
D02*
G37*
G36*
X3352800Y5574395D02*
X3342293Y5573012D01*
X3320666Y5564054D01*
X3302096Y5549804D01*
X3287846Y5531234D01*
X3278888Y5509607D01*
X3277505Y5499100D01*
X3352800D01*
Y5574395D01*
D02*
G37*
G36*
Y5473700D02*
X3277505D01*
X3278888Y5463193D01*
X3287846Y5441566D01*
X3302096Y5422996D01*
X3320666Y5408746D01*
X3342293Y5399788D01*
X3352800Y5398405D01*
Y5473700D01*
D02*
G37*
G36*
X8737600Y5169647D02*
X7052484D01*
X7037618Y5166689D01*
X7025015Y5158269D01*
X7013292Y5146545D01*
X6995507Y5153912D01*
X6972300Y5156967D01*
X6949093Y5153912D01*
X6927466Y5144954D01*
X6908896Y5130704D01*
X6894646Y5112134D01*
X6885688Y5090507D01*
X6882633Y5067300D01*
X6885688Y5044093D01*
X6894646Y5022466D01*
X6908896Y5003896D01*
X6927466Y4989646D01*
X6949093Y4980688D01*
X6972300Y4977633D01*
X6995507Y4980688D01*
X7017134Y4989646D01*
X7035704Y5003896D01*
X7049954Y5022466D01*
X7058912Y5044093D01*
X7061967Y5067300D01*
X7059868Y5083247D01*
X7068575Y5091953D01*
X7222344D01*
X7225178Y5083604D01*
X7225896Y5079253D01*
X7212146Y5061334D01*
X7203188Y5039707D01*
X7200133Y5016500D01*
X7203188Y4993293D01*
X7212146Y4971666D01*
X7226396Y4953096D01*
X7244966Y4938846D01*
X7266593Y4929888D01*
X7289800Y4926833D01*
X7313007Y4929888D01*
X7334634Y4938846D01*
X7353204Y4953096D01*
X7367454Y4971666D01*
X7369934Y4977653D01*
X8722291D01*
X8813454Y4886491D01*
Y4698600D01*
X8816411Y4683734D01*
X8824831Y4671131D01*
X9600100Y3895863D01*
Y3720000D01*
X9830900D01*
Y3882351D01*
X9842633Y3887211D01*
X9859194Y3870651D01*
X9857070Y3865525D01*
X9853104Y3835400D01*
X9857070Y3805275D01*
X9868699Y3777202D01*
X9887196Y3753096D01*
X9911302Y3734599D01*
X9939375Y3722970D01*
X9969500Y3719004D01*
X9999625Y3722970D01*
X10027698Y3734599D01*
X10051804Y3753096D01*
X10070301Y3777202D01*
X10081930Y3805275D01*
X10085895Y3835400D01*
X10081930Y3865525D01*
X10070301Y3893598D01*
X10051804Y3917704D01*
X10027698Y3936201D01*
X9999625Y3947830D01*
X9969500Y3951796D01*
X9939375Y3947830D01*
X9911302Y3936201D01*
X9906897Y3932821D01*
X9030447Y4809272D01*
Y4876800D01*
X9027489Y4891666D01*
X9019069Y4904269D01*
X8765069Y5158269D01*
X8752466Y5166689D01*
X8737600Y5169647D01*
D02*
G37*
G36*
X4420700Y5220467D02*
X4397493Y5217412D01*
X4375867Y5208454D01*
X4357296Y5194204D01*
X4343046Y5175634D01*
X4334088Y5154007D01*
X4331033Y5130800D01*
X4334088Y5107593D01*
X4340603Y5091866D01*
X4260726Y5011989D01*
X3528812D01*
X3524501Y5024689D01*
X3530504Y5029296D01*
X3544754Y5047866D01*
X3553712Y5069493D01*
X3555095Y5080000D01*
X3379105D01*
X3380488Y5069493D01*
X3389446Y5047866D01*
X3403696Y5029296D01*
X3409699Y5024689D01*
X3405388Y5011989D01*
X2540901D01*
X2540900Y5011990D01*
X2523186Y5008466D01*
X2508168Y4998432D01*
X2508168Y4998431D01*
X1897668Y4387932D01*
X1887634Y4372914D01*
X1884110Y4355200D01*
X1884111Y4355199D01*
Y1498601D01*
X1884110Y1498600D01*
X1887634Y1480886D01*
X1897668Y1465868D01*
X2050068Y1313469D01*
X2050068Y1313468D01*
X2065086Y1303434D01*
X2082800Y1299910D01*
X2082801Y1299911D01*
X2626963D01*
X2640096Y1282796D01*
X2658667Y1268546D01*
X2680293Y1259588D01*
X2703500Y1256533D01*
X2726708Y1259588D01*
X2748334Y1268546D01*
X2766904Y1282796D01*
X2781154Y1301366D01*
X2785811Y1312611D01*
X3288963D01*
X3302096Y1295496D01*
X3320666Y1281246D01*
X3342293Y1272288D01*
X3365500Y1269233D01*
X3388707Y1272288D01*
X3410334Y1281246D01*
X3428904Y1295496D01*
X3443154Y1314066D01*
X3452112Y1335693D01*
X3455167Y1358900D01*
X3452112Y1382107D01*
X3443154Y1403734D01*
X3428904Y1422304D01*
X3410334Y1436554D01*
X3388707Y1445512D01*
X3365500Y1448567D01*
X3342293Y1445512D01*
X3320666Y1436554D01*
X3302096Y1422304D01*
X3288963Y1405189D01*
X2982712D01*
X2978401Y1417889D01*
X2984404Y1422496D01*
X2998654Y1441066D01*
X3007612Y1462693D01*
X3010667Y1485900D01*
X3007612Y1509107D01*
X2998654Y1530734D01*
X2984404Y1549304D01*
X2965834Y1563554D01*
X2944207Y1572512D01*
X2921000Y1575567D01*
X2897793Y1572512D01*
X2876166Y1563554D01*
X2857596Y1549304D01*
X2843346Y1530734D01*
X2835606Y1512047D01*
X2626003D01*
X2616904Y1523904D01*
X2598334Y1538154D01*
X2576708Y1547112D01*
X2553500Y1550167D01*
X2530293Y1547112D01*
X2508667Y1538154D01*
X2490096Y1523904D01*
X2475846Y1505334D01*
X2466888Y1483707D01*
X2463833Y1460500D01*
X2466888Y1437293D01*
X2475846Y1415666D01*
X2483885Y1405189D01*
X2477622Y1392489D01*
X2101974D01*
X1976689Y1517774D01*
Y4336026D01*
X2560074Y4919411D01*
X4279899D01*
X4279900Y4919410D01*
X4297614Y4922934D01*
X4312632Y4932968D01*
X4420811Y5041147D01*
X4443908Y5044188D01*
X4465534Y5053146D01*
X4484104Y5067396D01*
X4498354Y5085966D01*
X4507312Y5107593D01*
X4510367Y5130800D01*
X4507312Y5154007D01*
X4498354Y5175634D01*
X4484104Y5194204D01*
X4465534Y5208454D01*
X4443908Y5217412D01*
X4420700Y5220467D01*
D02*
G37*
G36*
X3276600Y4839216D02*
Y4749800D01*
X3366016D01*
X3364152Y4763962D01*
X3353783Y4788994D01*
X3337289Y4810489D01*
X3315794Y4826983D01*
X3290762Y4837352D01*
X3276600Y4839216D01*
D02*
G37*
G36*
X3251200D02*
X3237038Y4837352D01*
X3212006Y4826983D01*
X3190511Y4810489D01*
X3174017Y4788994D01*
X3163648Y4763962D01*
X3161784Y4749800D01*
X3251200D01*
Y4839216D01*
D02*
G37*
G36*
X9271000Y5487147D02*
X6299200D01*
X6284334Y5484189D01*
X6271731Y5475769D01*
X5395431Y4599469D01*
X5387011Y4586866D01*
X5384053Y4572000D01*
Y3486000D01*
X5387011Y3471134D01*
X5395431Y3458532D01*
X5637068Y3216895D01*
X5634588Y3210907D01*
X5631533Y3187700D01*
X5634588Y3164493D01*
X5643546Y3142866D01*
X5657796Y3124296D01*
X5676367Y3110046D01*
X5697993Y3101088D01*
X5721200Y3098033D01*
X5744408Y3101088D01*
X5766034Y3110046D01*
X5784604Y3124296D01*
X5798854Y3142866D01*
X5807812Y3164493D01*
X5810867Y3187700D01*
X5807812Y3210907D01*
X5798854Y3232534D01*
X5784604Y3251104D01*
X5766034Y3265354D01*
X5744408Y3274312D01*
X5721200Y3277367D01*
X5697993Y3274312D01*
X5692006Y3271832D01*
X5461747Y3502091D01*
Y4555909D01*
X6315291Y5409453D01*
X9254909D01*
X9774730Y4889633D01*
X9769869Y4877900D01*
X9587400D01*
Y4695431D01*
X9575667Y4690570D01*
X8904769Y5361469D01*
X8892166Y5369889D01*
X8877300Y5372847D01*
X6362700D01*
X6347834Y5369889D01*
X6335231Y5361469D01*
X5941531Y4967769D01*
X5933111Y4955166D01*
X5930153Y4940300D01*
Y4661083D01*
X5917453Y4657801D01*
X5905404Y4673504D01*
X5886834Y4687754D01*
X5865207Y4696712D01*
X5842000Y4699767D01*
X5818793Y4696712D01*
X5797166Y4687754D01*
X5778596Y4673504D01*
X5764346Y4654934D01*
X5755388Y4633307D01*
X5752333Y4610100D01*
X5755388Y4586893D01*
X5762755Y4569108D01*
X5751031Y4557385D01*
X5742611Y4544782D01*
X5739653Y4529916D01*
Y4207634D01*
X5733666Y4205154D01*
X5715096Y4190904D01*
X5700846Y4172334D01*
X5691888Y4150707D01*
X5688833Y4127500D01*
X5691888Y4104293D01*
X5700846Y4082666D01*
X5715096Y4064096D01*
X5733666Y4049846D01*
X5755293Y4040888D01*
X5778500Y4037833D01*
X5801707Y4040888D01*
X5823334Y4049846D01*
X5841904Y4064096D01*
X5856154Y4082666D01*
X5865112Y4104293D01*
X5868167Y4127500D01*
X5865112Y4150707D01*
X5856154Y4172334D01*
X5841904Y4190904D01*
X5823334Y4205154D01*
X5817347Y4207634D01*
Y4513825D01*
X5826053Y4522532D01*
X5842000Y4520433D01*
X5865207Y4523488D01*
X5886834Y4532446D01*
X5905404Y4546696D01*
X5917453Y4562399D01*
X5930153Y4559117D01*
Y3394834D01*
X5924166Y3392354D01*
X5905596Y3378104D01*
X5891346Y3359534D01*
X5882388Y3337907D01*
X5879333Y3314700D01*
X5882388Y3291493D01*
X5891346Y3269866D01*
X5905596Y3251296D01*
X5924166Y3237046D01*
X5945793Y3228088D01*
X5969000Y3225033D01*
X5992207Y3228088D01*
X6013834Y3237046D01*
X6032404Y3251296D01*
X6046654Y3269866D01*
X6055612Y3291493D01*
X6058667Y3314700D01*
X6055612Y3337907D01*
X6046654Y3359534D01*
X6032404Y3378104D01*
X6013834Y3392354D01*
X6007847Y3394834D01*
Y4924209D01*
X6378791Y5295153D01*
X6658743D01*
X6659994Y5282453D01*
X6652634Y5280989D01*
X6640031Y5272569D01*
X6599891Y5232428D01*
X6598034Y5233854D01*
X6576407Y5242812D01*
X6553200Y5245867D01*
X6529993Y5242812D01*
X6508366Y5233854D01*
X6489796Y5219604D01*
X6475546Y5201034D01*
X6466588Y5179407D01*
X6463533Y5156200D01*
X6466588Y5132993D01*
X6475546Y5111366D01*
X6489796Y5092796D01*
X6508366Y5078546D01*
X6529993Y5069588D01*
X6553200Y5066533D01*
X6576407Y5069588D01*
X6598034Y5078546D01*
X6616604Y5092796D01*
X6630854Y5111366D01*
X6639812Y5132993D01*
X6642867Y5156200D01*
X6641782Y5164445D01*
X6683591Y5206253D01*
X8797709D01*
X10119086Y3884877D01*
X10111070Y3865525D01*
X10107104Y3835400D01*
X10111070Y3805275D01*
X10122699Y3777202D01*
X10141196Y3753096D01*
X10165302Y3734599D01*
X10193375Y3722970D01*
X10223500Y3719004D01*
X10253625Y3722970D01*
X10281698Y3734599D01*
X10305804Y3753096D01*
X10324301Y3777202D01*
X10335930Y3805275D01*
X10339895Y3835400D01*
X10335930Y3865525D01*
X10324301Y3893598D01*
X10305804Y3917704D01*
X10281698Y3936201D01*
X10253625Y3947830D01*
X10223500Y3951796D01*
X10193375Y3947830D01*
X10174023Y3939814D01*
X8841269Y5272569D01*
X8828666Y5280989D01*
X8821306Y5282453D01*
X8822557Y5295153D01*
X8861209D01*
X9624531Y4531831D01*
X9637134Y4523411D01*
X9652000Y4520453D01*
X10007600D01*
X10022466Y4523411D01*
X10035069Y4531831D01*
X10161323Y4658086D01*
X10180675Y4650070D01*
X10210800Y4646104D01*
X10240925Y4650070D01*
X10268998Y4661699D01*
X10293104Y4680196D01*
X10311601Y4704302D01*
X10323230Y4732375D01*
X10327195Y4762500D01*
X10323230Y4792625D01*
X10311601Y4820698D01*
X10293104Y4844804D01*
X10268998Y4863301D01*
X10240925Y4874930D01*
X10210800Y4878896D01*
X10180675Y4874930D01*
X10152602Y4863301D01*
X10128496Y4844804D01*
X10109999Y4820698D01*
X10098370Y4792625D01*
X10094404Y4762500D01*
X10098370Y4732375D01*
X10106386Y4713023D01*
X9991509Y4598147D01*
X9668091D01*
X9630870Y4635367D01*
X9635731Y4647100D01*
X9818200D01*
Y4829569D01*
X9829933Y4834430D01*
X9852386Y4811977D01*
X9844370Y4792625D01*
X9840404Y4762500D01*
X9844370Y4732375D01*
X9855999Y4704302D01*
X9874496Y4680196D01*
X9898602Y4661699D01*
X9926675Y4650070D01*
X9956800Y4646104D01*
X9986925Y4650070D01*
X10014998Y4661699D01*
X10039104Y4680196D01*
X10057601Y4704302D01*
X10069230Y4732375D01*
X10073195Y4762500D01*
X10069230Y4792625D01*
X10057601Y4820698D01*
X10039104Y4844804D01*
X10014998Y4863301D01*
X9986925Y4874930D01*
X9956800Y4878896D01*
X9926675Y4874930D01*
X9907323Y4866914D01*
X9298469Y5475769D01*
X9285866Y5484189D01*
X9271000Y5487147D01*
D02*
G37*
G36*
X3366016Y4724400D02*
X3276600D01*
Y4634984D01*
X3290762Y4636848D01*
X3315794Y4647217D01*
X3337289Y4663711D01*
X3353783Y4685206D01*
X3364152Y4710238D01*
X3366016Y4724400D01*
D02*
G37*
G36*
X3251200D02*
X3161784D01*
X3163648Y4710238D01*
X3174017Y4685206D01*
X3190511Y4663711D01*
X3212006Y4647217D01*
X3237038Y4636848D01*
X3251200Y4634984D01*
Y4724400D01*
D02*
G37*
G36*
X4128800Y4840000D02*
X3923000D01*
Y4634200D01*
X4128800D01*
Y4840000D01*
D02*
G37*
G36*
X8762701Y4887401D02*
X8132701D01*
X8122790Y4885430D01*
X8114388Y4879816D01*
X8108774Y4871414D01*
X8106803Y4861503D01*
Y3061503D01*
X8108774Y3051593D01*
X8114388Y3043191D01*
X8122790Y3037577D01*
X8132701Y3035606D01*
X8719154D01*
X8724014Y3023873D01*
X8609188Y2909047D01*
X5680834D01*
X5678354Y2915034D01*
X5664104Y2933604D01*
X5645534Y2947854D01*
X5623907Y2956812D01*
X5600700Y2959867D01*
X5577493Y2956812D01*
X5555866Y2947854D01*
X5537296Y2933604D01*
X5523046Y2915034D01*
X5514088Y2893407D01*
X5511033Y2870200D01*
X5514088Y2846993D01*
X5523046Y2825366D01*
X5537296Y2806796D01*
X5555866Y2792546D01*
X5577493Y2783588D01*
X5600700Y2780533D01*
X5623907Y2783588D01*
X5645534Y2792546D01*
X5664104Y2806796D01*
X5678354Y2825366D01*
X5680834Y2831353D01*
X7264217D01*
X7267499Y2818653D01*
X7251796Y2806604D01*
X7237546Y2788034D01*
X7228588Y2766407D01*
X7225533Y2743200D01*
X7228588Y2719993D01*
X7237546Y2698366D01*
X7251796Y2679796D01*
X7270366Y2665546D01*
X7291993Y2656588D01*
X7315200Y2653533D01*
X7338407Y2656588D01*
X7360034Y2665546D01*
X7378604Y2679796D01*
X7392854Y2698366D01*
X7395334Y2704353D01*
X8165917D01*
X8169199Y2691653D01*
X8153496Y2679604D01*
X8139246Y2661034D01*
X8130288Y2639407D01*
X8127233Y2616200D01*
X8129212Y2601168D01*
X7951533Y2423489D01*
X7939800Y2428349D01*
Y2567700D01*
X7825037D01*
X7774469Y2618269D01*
X7761866Y2626689D01*
X7747000Y2629647D01*
X2286000D01*
X2271134Y2626689D01*
X2258531Y2618269D01*
X2150095Y2509832D01*
X2144107Y2512312D01*
X2120900Y2515367D01*
X2097693Y2512312D01*
X2076066Y2503354D01*
X2057496Y2489104D01*
X2043246Y2470534D01*
X2034288Y2448907D01*
X2031233Y2425700D01*
X2034288Y2402493D01*
X2043246Y2380866D01*
X2057496Y2362296D01*
X2076066Y2348046D01*
X2097693Y2339088D01*
X2120900Y2336033D01*
X2144107Y2339088D01*
X2165734Y2348046D01*
X2184304Y2362296D01*
X2198554Y2380866D01*
X2207512Y2402493D01*
X2210567Y2425700D01*
X2207512Y2448907D01*
X2205032Y2454895D01*
X2302091Y2551953D01*
X7506354D01*
X7510437Y2539927D01*
X7507798Y2537902D01*
X7491144Y2516198D01*
X7485530Y2502647D01*
X3558499D01*
X3543633Y2499689D01*
X3531031Y2491269D01*
X2704208Y1664447D01*
X2188334D01*
X2185854Y1670434D01*
X2171604Y1689004D01*
X2153034Y1703254D01*
X2131407Y1712212D01*
X2108200Y1715267D01*
X2084993Y1712212D01*
X2063366Y1703254D01*
X2044796Y1689004D01*
X2030546Y1670434D01*
X2021588Y1648807D01*
X2018533Y1625600D01*
X2021588Y1602393D01*
X2030546Y1580766D01*
X2044796Y1562196D01*
X2063366Y1547946D01*
X2084993Y1538988D01*
X2108200Y1535933D01*
X2131407Y1538988D01*
X2153034Y1547946D01*
X2171604Y1562196D01*
X2185854Y1580766D01*
X2188334Y1586753D01*
X2720299D01*
X2735165Y1589711D01*
X2747768Y1598131D01*
X2916258Y1766622D01*
X2927025Y1759428D01*
X2923288Y1750407D01*
X2920233Y1727200D01*
X2923288Y1703993D01*
X2932246Y1682366D01*
X2946496Y1663796D01*
X2965066Y1649546D01*
X2986693Y1640588D01*
X3009900Y1637533D01*
X3033107Y1640588D01*
X3054734Y1649546D01*
X3073304Y1663796D01*
X3082525Y1675813D01*
X3214200D01*
X3233865Y1679724D01*
X3250536Y1690864D01*
X3413983Y1854310D01*
X3429000Y1852333D01*
X3452207Y1855388D01*
X3473834Y1864346D01*
X3492404Y1878596D01*
X3506654Y1897167D01*
X3515612Y1918793D01*
X3518667Y1942000D01*
X3515612Y1965208D01*
X3506654Y1986834D01*
X3492404Y2005404D01*
X3473834Y2019654D01*
X3452207Y2028612D01*
X3429000Y2031667D01*
X3405793Y2028612D01*
X3384166Y2019654D01*
X3365596Y2005404D01*
X3351346Y1986834D01*
X3342388Y1965208D01*
X3339333Y1942000D01*
X3341310Y1926983D01*
X3192915Y1778587D01*
X3082525D01*
X3073304Y1790604D01*
X3054734Y1804854D01*
X3033107Y1813812D01*
X3009900Y1816867D01*
X2986693Y1813812D01*
X2977672Y1810075D01*
X2970478Y1820842D01*
X3574590Y2424953D01*
X4648017D01*
X4651299Y2412253D01*
X4635596Y2400204D01*
X4621346Y2381634D01*
X4612388Y2360007D01*
X4609333Y2336800D01*
X4612388Y2313593D01*
X4621346Y2291966D01*
X4635596Y2273396D01*
X4654166Y2259146D01*
X4672853Y2251406D01*
Y2170200D01*
X4646400D01*
Y2064800D01*
Y1959400D01*
X4672853D01*
Y1879600D01*
X4675811Y1864734D01*
X4684231Y1852131D01*
X4900131Y1636231D01*
X4912734Y1627811D01*
X4927600Y1624853D01*
X5118471D01*
X5119303Y1612153D01*
X5107593Y1610612D01*
X5085966Y1601654D01*
X5067396Y1587404D01*
X5053146Y1568834D01*
X5044188Y1547207D01*
X5041133Y1524000D01*
X5044188Y1500793D01*
X5053146Y1479166D01*
X5067396Y1460596D01*
X5085966Y1446346D01*
X5107593Y1437388D01*
X5130800Y1434333D01*
X5154007Y1437388D01*
X5175634Y1446346D01*
X5194204Y1460596D01*
X5203425Y1472613D01*
X5566715D01*
X6097764Y941564D01*
X6114435Y930424D01*
X6134100Y926513D01*
X6671075D01*
X6680296Y914496D01*
X6698866Y900246D01*
X6720493Y891288D01*
X6743700Y888233D01*
X6766907Y891288D01*
X6788534Y900246D01*
X6807104Y914496D01*
X6821354Y933066D01*
X6830312Y954693D01*
X6833367Y977900D01*
X6830312Y1001107D01*
X6821354Y1022734D01*
X6807104Y1041304D01*
X6788534Y1055554D01*
X6766907Y1064512D01*
X6743700Y1067567D01*
X6720493Y1064512D01*
X6698866Y1055554D01*
X6680296Y1041304D01*
X6671075Y1029287D01*
X6155385D01*
X5624336Y1560336D01*
X5607665Y1571476D01*
X5588000Y1575387D01*
X5203425D01*
X5194204Y1587404D01*
X5175634Y1601654D01*
X5154007Y1610612D01*
X5142297Y1612153D01*
X5143129Y1624853D01*
X5829300D01*
X5844166Y1627811D01*
X5856769Y1636231D01*
X6219205Y1998668D01*
X6225193Y1996188D01*
X6248400Y1993133D01*
X6271607Y1996188D01*
X6293234Y2005146D01*
X6311804Y2019396D01*
X6326054Y2037966D01*
X6335012Y2059593D01*
X6338067Y2082800D01*
X6335012Y2106007D01*
X6326054Y2127634D01*
X6311804Y2146204D01*
X6293234Y2160454D01*
X6271607Y2169412D01*
X6248400Y2172467D01*
X6225193Y2169412D01*
X6203566Y2160454D01*
X6184996Y2146204D01*
X6170746Y2127634D01*
X6161788Y2106007D01*
X6158733Y2082800D01*
X6161788Y2059593D01*
X6164268Y2053605D01*
X5813209Y1702547D01*
X5125056D01*
X5121532Y1715247D01*
X5137104Y1727196D01*
X5151354Y1745766D01*
X5153834Y1751753D01*
X5740300D01*
X5755166Y1754710D01*
X5767768Y1763131D01*
X6289891Y2285253D01*
X6549266D01*
X6551746Y2279266D01*
X6565996Y2260696D01*
X6584566Y2246446D01*
X6606193Y2237488D01*
X6629400Y2234433D01*
X6652607Y2237488D01*
X6674234Y2246446D01*
X6692804Y2260696D01*
X6707054Y2279266D01*
X6716012Y2300893D01*
X6719067Y2324100D01*
X6716012Y2347307D01*
X6707054Y2368934D01*
X6692804Y2387504D01*
X6674234Y2401754D01*
X6652607Y2410712D01*
X6640897Y2412253D01*
X6641729Y2424953D01*
X7485530D01*
X7491144Y2411402D01*
X7507798Y2389698D01*
X7529502Y2373044D01*
X7554777Y2362574D01*
X7581900Y2359003D01*
X7609023Y2362574D01*
X7634298Y2373044D01*
X7656002Y2389698D01*
X7672656Y2411402D01*
X7683126Y2436677D01*
X7686697Y2463800D01*
X7683126Y2490923D01*
X7672656Y2516198D01*
X7656002Y2537902D01*
X7653363Y2539927D01*
X7657446Y2551953D01*
X7730909D01*
X7732000Y2550863D01*
Y2359900D01*
X7871351D01*
X7876211Y2348167D01*
X7865591Y2337547D01*
X7286294D01*
X7278554Y2356234D01*
X7264304Y2374804D01*
X7245734Y2389054D01*
X7224107Y2398012D01*
X7200900Y2401067D01*
X7177693Y2398012D01*
X7156066Y2389054D01*
X7137496Y2374804D01*
X7123246Y2356234D01*
X7114288Y2334607D01*
X7111233Y2311400D01*
X7114288Y2288193D01*
X7123246Y2266566D01*
X7137496Y2247996D01*
X7156066Y2233746D01*
X7177693Y2224788D01*
X7200900Y2221733D01*
X7224107Y2224788D01*
X7245734Y2233746D01*
X7264304Y2247996D01*
X7273403Y2259853D01*
X7881681D01*
X7896547Y2262811D01*
X7909150Y2271231D01*
X8175176Y2537258D01*
X8193693Y2529588D01*
X8216900Y2526533D01*
X8240107Y2529588D01*
X8261734Y2538546D01*
X8280304Y2552796D01*
X8294554Y2571366D01*
X8303512Y2592993D01*
X8306567Y2616200D01*
X8303512Y2639407D01*
X8294554Y2661034D01*
X8280304Y2679604D01*
X8264601Y2691653D01*
X8267883Y2704353D01*
X8352666D01*
X8355146Y2698366D01*
X8369396Y2679796D01*
X8387966Y2665546D01*
X8409593Y2656588D01*
X8432800Y2653533D01*
X8456007Y2656588D01*
X8477634Y2665546D01*
X8496204Y2679796D01*
X8510454Y2698366D01*
X8519412Y2719993D01*
X8522467Y2743200D01*
X8519412Y2766407D01*
X8510454Y2788034D01*
X8496204Y2806604D01*
X8480501Y2818653D01*
X8483783Y2831353D01*
X8625278D01*
X8640144Y2834311D01*
X8652747Y2842731D01*
X9311169Y3501153D01*
X9319589Y3513756D01*
X9322547Y3528622D01*
Y3971166D01*
X9328534Y3973646D01*
X9347104Y3987896D01*
X9361354Y4006466D01*
X9370312Y4028093D01*
X9373367Y4051300D01*
X9370312Y4074507D01*
X9361354Y4096134D01*
X9347104Y4114704D01*
X9328534Y4128954D01*
X9306907Y4137912D01*
X9283700Y4140967D01*
X9260493Y4137912D01*
X9238866Y4128954D01*
X9220296Y4114704D01*
X9206046Y4096134D01*
X9197088Y4074507D01*
X9194033Y4051300D01*
X9197088Y4028093D01*
X9206046Y4006466D01*
X9220296Y3987896D01*
X9238866Y3973646D01*
X9244853Y3971166D01*
Y3544712D01*
X8800332Y3100190D01*
X8788598Y3105051D01*
Y4861503D01*
X8786627Y4871414D01*
X8781013Y4879816D01*
X8772611Y4885430D01*
X8762701Y4887401D01*
D02*
G37*
G36*
X2794000Y3074167D02*
X2770793Y3071112D01*
X2749166Y3062154D01*
X2730596Y3047904D01*
X2716346Y3029334D01*
X2707388Y3007707D01*
X2704333Y2984500D01*
X2707388Y2961293D01*
X2716346Y2939666D01*
X2730596Y2921096D01*
X2749166Y2906846D01*
X2770793Y2897888D01*
X2794000Y2894833D01*
X2817207Y2897888D01*
X2838834Y2906846D01*
X2857404Y2921096D01*
X2871654Y2939666D01*
X2871669Y2939704D01*
X4235401D01*
X4240346Y2927766D01*
X4254596Y2909196D01*
X4273166Y2894946D01*
X4294793Y2885988D01*
X4318000Y2882933D01*
X4341207Y2885988D01*
X4362834Y2894946D01*
X4381404Y2909196D01*
X4395654Y2927766D01*
X4404612Y2949392D01*
X4407667Y2972600D01*
X4404612Y2995807D01*
X4395654Y3017433D01*
X4381404Y3036004D01*
X4362834Y3050254D01*
X4341207Y3059212D01*
X4318000Y3062267D01*
X4294793Y3059212D01*
X4273166Y3050254D01*
X4254596Y3036004D01*
X4240346Y3017433D01*
X4240331Y3017397D01*
X2876598D01*
X2871654Y3029334D01*
X2857404Y3047904D01*
X2838834Y3062154D01*
X2817207Y3071112D01*
X2794000Y3074167D01*
D02*
G37*
G36*
X1676400Y2831195D02*
Y2755900D01*
X1751695D01*
X1750312Y2766407D01*
X1741354Y2788034D01*
X1727104Y2806604D01*
X1708534Y2820854D01*
X1686907Y2829812D01*
X1676400Y2831195D01*
D02*
G37*
G36*
X1651000D02*
X1640493Y2829812D01*
X1618866Y2820854D01*
X1600296Y2806604D01*
X1586046Y2788034D01*
X1577088Y2766407D01*
X1575705Y2755900D01*
X1651000D01*
Y2831195D01*
D02*
G37*
G36*
X2284900Y4547367D02*
X2261693Y4544312D01*
X2240067Y4535354D01*
X2221496Y4521104D01*
X2207246Y4502534D01*
X2198288Y4480907D01*
X2195233Y4457700D01*
X2198288Y4434493D01*
X2207246Y4412866D01*
X2221496Y4394296D01*
X2240067Y4380046D01*
X2261693Y4371088D01*
X2284900Y4368033D01*
X2299918Y4370010D01*
X3264564Y3405364D01*
X3281235Y3394224D01*
X3300900Y3390313D01*
X4727975D01*
X4737196Y3378296D01*
X4755766Y3364046D01*
X4777393Y3355088D01*
X4800600Y3352033D01*
X4815617Y3354010D01*
X4927013Y3242615D01*
Y2892025D01*
X4914996Y2882804D01*
X4900746Y2864234D01*
X4891788Y2842607D01*
X4888733Y2819400D01*
X4891788Y2796193D01*
X4900746Y2774566D01*
X4914996Y2755996D01*
X4933566Y2741746D01*
X4955193Y2732788D01*
X4978400Y2729733D01*
X5001607Y2732788D01*
X5023234Y2741746D01*
X5041804Y2755996D01*
X5056054Y2774566D01*
X5065012Y2796193D01*
X5068067Y2819400D01*
X5065012Y2842607D01*
X5056054Y2864234D01*
X5041804Y2882804D01*
X5029787Y2892025D01*
Y3263900D01*
X5025876Y3283565D01*
X5014736Y3300236D01*
X4888290Y3426683D01*
X4890267Y3441700D01*
X4887212Y3464907D01*
X4878254Y3486534D01*
X4864004Y3505104D01*
X4845434Y3519354D01*
X4823807Y3528312D01*
X4800600Y3531367D01*
X4777393Y3528312D01*
X4755766Y3519354D01*
X4737196Y3505104D01*
X4727975Y3493087D01*
X3322185D01*
X2372590Y4442683D01*
X2374567Y4457700D01*
X2371512Y4480907D01*
X2362554Y4502534D01*
X2348304Y4521104D01*
X2329734Y4535354D01*
X2308108Y4544312D01*
X2284900Y4547367D01*
D02*
G37*
G36*
X1751695Y2730500D02*
X1676400D01*
Y2655205D01*
X1686907Y2656588D01*
X1708534Y2665546D01*
X1727104Y2679796D01*
X1741354Y2698366D01*
X1750312Y2719993D01*
X1751695Y2730500D01*
D02*
G37*
G36*
X1651000D02*
X1575705D01*
X1576849Y2721812D01*
X975168Y2120132D01*
X965134Y2105114D01*
X961610Y2087400D01*
X961610Y2087399D01*
Y2048334D01*
X949702Y2043401D01*
X925596Y2024904D01*
X907099Y2000798D01*
X895470Y1972725D01*
X893176Y1955300D01*
X1122624D01*
X1120329Y1972725D01*
X1108701Y2000798D01*
X1090204Y2024904D01*
X1066098Y2043401D01*
X1054189Y2048334D01*
Y2068226D01*
X1642312Y2656349D01*
X1651000Y2655205D01*
Y2730500D01*
D02*
G37*
G36*
X9779000Y2595095D02*
Y2519800D01*
X9854295D01*
X9852912Y2530307D01*
X9843954Y2551933D01*
X9829704Y2570504D01*
X9811134Y2584754D01*
X9789507Y2593712D01*
X9779000Y2595095D01*
D02*
G37*
G36*
X9753600D02*
X9743093Y2593712D01*
X9721466Y2584754D01*
X9702896Y2570504D01*
X9688646Y2551933D01*
X9679688Y2530307D01*
X9678305Y2519800D01*
X9753600D01*
Y2595095D01*
D02*
G37*
G36*
X9854295Y2494400D02*
X9779000D01*
Y2419105D01*
X9789507Y2420488D01*
X9811134Y2429446D01*
X9829704Y2443696D01*
X9843954Y2462266D01*
X9852912Y2483892D01*
X9854295Y2494400D01*
D02*
G37*
G36*
X2700800Y2152761D02*
X2693835Y2151376D01*
X2677164Y2140236D01*
X2666024Y2123565D01*
X2664974Y2118287D01*
X2652026D01*
X2650976Y2123565D01*
X2639836Y2140236D01*
X2623165Y2151376D01*
X2616200Y2152761D01*
Y2103900D01*
X2590800D01*
Y2152761D01*
X2583835Y2151376D01*
X2567164Y2140236D01*
X2556024Y2123565D01*
X2554975Y2118287D01*
X2542026D01*
X2540976Y2123565D01*
X2529836Y2140236D01*
X2513165Y2151376D01*
X2506200Y2152761D01*
Y2103900D01*
X2493500D01*
Y2091200D01*
X2444639D01*
X2446025Y2084235D01*
X2457164Y2067564D01*
X2473835Y2056424D01*
X2479114Y2055374D01*
Y2042426D01*
X2473835Y2041376D01*
X2457164Y2030236D01*
X2446025Y2013565D01*
X2444639Y2006600D01*
X2493500D01*
Y1981200D01*
X2444639D01*
X2446025Y1974235D01*
X2457164Y1957564D01*
X2473835Y1946424D01*
X2479113Y1945375D01*
Y1932426D01*
X2473835Y1931376D01*
X2457164Y1920236D01*
X2446025Y1903565D01*
X2444639Y1896600D01*
X2493500D01*
Y1883900D01*
X2506200D01*
Y1835039D01*
X2513165Y1836425D01*
X2529836Y1847564D01*
X2540976Y1864235D01*
X2542026Y1869513D01*
X2554975D01*
X2556024Y1864235D01*
X2567164Y1847564D01*
X2583835Y1836425D01*
X2590800Y1835039D01*
Y1883900D01*
X2616200D01*
Y1835039D01*
X2623165Y1836425D01*
X2639836Y1847564D01*
X2650976Y1864235D01*
X2652026Y1869514D01*
X2664974D01*
X2666024Y1864235D01*
X2677164Y1847564D01*
X2693835Y1836425D01*
X2700800Y1835039D01*
Y1883900D01*
X2713500D01*
Y1896600D01*
X2762361D01*
X2760976Y1903565D01*
X2749836Y1920236D01*
X2733165Y1931376D01*
X2727887Y1932426D01*
Y1945375D01*
X2733165Y1946424D01*
X2749836Y1957564D01*
X2760976Y1974235D01*
X2762361Y1981200D01*
X2713500D01*
Y2006600D01*
X2762361D01*
X2760976Y2013565D01*
X2749836Y2030236D01*
X2733165Y2041376D01*
X2727887Y2042426D01*
Y2055374D01*
X2733165Y2056424D01*
X2749836Y2067564D01*
X2760976Y2084235D01*
X2762361Y2091200D01*
X2713500D01*
Y2103900D01*
X2700800D01*
Y2152761D01*
D02*
G37*
G36*
X2726200D02*
Y2116600D01*
X2762361D01*
X2760976Y2123565D01*
X2749836Y2140236D01*
X2733165Y2151376D01*
X2726200Y2152761D01*
D02*
G37*
G36*
X2480800D02*
X2473835Y2151376D01*
X2457164Y2140236D01*
X2446025Y2123565D01*
X2444639Y2116600D01*
X2480800D01*
Y2152761D01*
D02*
G37*
G36*
X8432800Y2056495D02*
Y1981200D01*
X8508095D01*
X8506712Y1991707D01*
X8497754Y2013334D01*
X8483504Y2031904D01*
X8464934Y2046154D01*
X8443307Y2055112D01*
X8432800Y2056495D01*
D02*
G37*
G36*
X6883400Y2043795D02*
Y1968500D01*
X6958695D01*
X6957312Y1979007D01*
X6948354Y2000634D01*
X6934104Y2019204D01*
X6915534Y2033454D01*
X6893907Y2042412D01*
X6883400Y2043795D01*
D02*
G37*
G36*
X6858000D02*
X6847493Y2042412D01*
X6825866Y2033454D01*
X6807296Y2019204D01*
X6793046Y2000634D01*
X6784088Y1979007D01*
X6782705Y1968500D01*
X6858000D01*
Y2043795D01*
D02*
G37*
G36*
X4621000Y2170200D02*
X4243300D01*
Y1959400D01*
X4621000D01*
Y2064800D01*
Y2170200D01*
D02*
G37*
G36*
X1377300Y2058000D02*
X1146500D01*
Y1886057D01*
X1134767Y1881196D01*
X1115397Y1900566D01*
X1120329Y1912474D01*
X1122624Y1929900D01*
X1020600D01*
Y1827876D01*
X1038025Y1830170D01*
X1049933Y1835103D01*
X2117668Y767369D01*
X2117668Y767368D01*
X2132685Y757334D01*
X2150400Y753811D01*
X2387599D01*
X2387600Y753810D01*
X2387601Y753811D01*
X2607415D01*
Y747600D01*
X2663900D01*
X2720385D01*
Y753811D01*
X3307415D01*
Y747600D01*
X3363900D01*
X3420385D01*
Y753811D01*
X3644899D01*
X3644900Y753810D01*
X3644901Y753811D01*
X6870699D01*
X6870700Y753810D01*
X6888414Y757334D01*
X6903432Y767368D01*
X7105774Y969711D01*
X9143663D01*
X9156796Y952596D01*
X9175366Y938346D01*
X9196993Y929388D01*
X9207500Y928005D01*
Y1016000D01*
Y1103995D01*
X9196993Y1102612D01*
X9175366Y1093654D01*
X9156796Y1079404D01*
X9143663Y1062289D01*
X7214946D01*
X7210086Y1074023D01*
X7411431Y1275368D01*
X7411432Y1275368D01*
X7421466Y1290386D01*
X7424990Y1308100D01*
X7424989Y1308101D01*
Y1595100D01*
X7496100D01*
Y1699800D01*
X7378700D01*
Y1725200D01*
X7496100D01*
Y1829900D01*
X7424989D01*
Y1885826D01*
X7461374Y1922211D01*
X8343563D01*
X8356696Y1905096D01*
X8375266Y1890846D01*
X8396893Y1881888D01*
X8407400Y1880505D01*
Y1968500D01*
Y2056495D01*
X8396893Y2055112D01*
X8375266Y2046154D01*
X8356696Y2031904D01*
X8343563Y2014789D01*
X7442200D01*
X7424486Y2011266D01*
X7409468Y2001232D01*
X7409468Y2001231D01*
X7345968Y1937732D01*
X7335934Y1922714D01*
X7332410Y1905000D01*
X7332411Y1904999D01*
Y1829900D01*
X7261300D01*
Y1763887D01*
X7135285D01*
X6958390Y1940783D01*
X6958695Y1943100D01*
X6883400D01*
Y1867805D01*
X6885717Y1868110D01*
X7077664Y1676164D01*
X7094335Y1665024D01*
X7114000Y1661113D01*
X7261300D01*
Y1595100D01*
X7332411D01*
Y1327274D01*
X7053868Y1048732D01*
X7053868Y1048731D01*
X6851526Y846389D01*
X5248034D01*
X5245223Y858315D01*
X5269938Y868552D01*
X5291162Y884838D01*
X5307448Y906061D01*
X5317685Y930777D01*
X5321177Y957300D01*
X5317685Y983823D01*
X5307448Y1008538D01*
X5291162Y1029762D01*
X5269938Y1046047D01*
X5245223Y1056285D01*
X5218700Y1059777D01*
X5192177Y1056285D01*
X5167462Y1046047D01*
X5146238Y1029762D01*
X5129952Y1008538D01*
X5119715Y983823D01*
X5116223Y957300D01*
X5119715Y930777D01*
X5129952Y906061D01*
X5146238Y884838D01*
X5167462Y868552D01*
X5192177Y858315D01*
X5189366Y846389D01*
X4450035D01*
X4447223Y858315D01*
X4471938Y868552D01*
X4493162Y884838D01*
X4509448Y906061D01*
X4519685Y930777D01*
X4523177Y957300D01*
X4519685Y983823D01*
X4509448Y1008538D01*
X4493162Y1029762D01*
X4471938Y1046047D01*
X4447223Y1056285D01*
X4420700Y1059777D01*
X4394177Y1056285D01*
X4369462Y1046047D01*
X4348238Y1029762D01*
X4331952Y1008538D01*
X4321715Y983823D01*
X4318223Y957300D01*
X4321715Y930777D01*
X4331952Y906061D01*
X4348238Y884838D01*
X4369462Y868552D01*
X4394177Y858315D01*
X4391366Y846389D01*
X3664074D01*
X3472832Y1037632D01*
X3457814Y1047666D01*
X3440100Y1051190D01*
X3440099Y1051189D01*
X3350692D01*
X3349415Y1054272D01*
X3333723Y1074723D01*
X3313273Y1090415D01*
X3289457Y1100280D01*
X3276600Y1101973D01*
Y1004900D01*
Y907827D01*
X3289457Y909520D01*
X3313273Y919384D01*
X3333723Y935077D01*
X3349415Y955528D01*
X3350692Y958610D01*
X3420926D01*
X3521414Y858123D01*
X3516554Y846389D01*
X2515946D01*
X2511086Y858123D01*
X2611574Y958610D01*
X2677108D01*
X2678385Y955528D01*
X2694077Y935077D01*
X2714527Y919384D01*
X2738343Y909520D01*
X2751200Y907827D01*
Y1004900D01*
Y1101973D01*
X2738343Y1100280D01*
X2714527Y1090415D01*
X2694077Y1074723D01*
X2678385Y1054272D01*
X2677108Y1051189D01*
X2592401D01*
X2592400Y1051190D01*
X2574686Y1047666D01*
X2559668Y1037632D01*
X2368426Y846389D01*
X2169574D01*
X1200496Y1815467D01*
X1205357Y1827200D01*
X1377300D01*
Y2058000D01*
D02*
G37*
G36*
X6858000Y1943100D02*
X6782705D01*
X6784088Y1932593D01*
X6793046Y1910966D01*
X6807296Y1892396D01*
X6825866Y1878146D01*
X6847493Y1869188D01*
X6858000Y1867805D01*
Y1943100D01*
D02*
G37*
G36*
X4191600Y2040200D02*
X4020800D01*
Y1849400D01*
X4191600D01*
Y2040200D01*
D02*
G37*
G36*
X2762361Y1871200D02*
X2726200D01*
Y1835039D01*
X2733165Y1836425D01*
X2749836Y1847564D01*
X2760976Y1864235D01*
X2762361Y1871200D01*
D02*
G37*
G36*
X2480800D02*
X2444639D01*
X2446025Y1864235D01*
X2457164Y1847564D01*
X2473835Y1836425D01*
X2480800Y1835039D01*
Y1871200D01*
D02*
G37*
G36*
X995200Y1929900D02*
X893176D01*
X895470Y1912474D01*
X907099Y1884402D01*
X925596Y1860296D01*
X949702Y1841798D01*
X977775Y1830170D01*
X995200Y1827876D01*
Y1929900D01*
D02*
G37*
G36*
X9753600Y2494400D02*
X9678305D01*
X9679688Y2483892D01*
X9683972Y2473551D01*
X9670068Y2459648D01*
X9660034Y2444630D01*
X9656510Y2426916D01*
X9656511Y2426915D01*
Y2305174D01*
X9254734Y1903398D01*
X9235093Y1900812D01*
X9213466Y1891854D01*
X9194896Y1877604D01*
X9180646Y1859033D01*
X9171688Y1837407D01*
X9170305Y1826900D01*
X9346295D01*
X9344912Y1837407D01*
X9337519Y1855255D01*
X9735531Y2253268D01*
X9735532Y2253268D01*
X9745566Y2268286D01*
X9749090Y2286000D01*
X9749089Y2286001D01*
Y2407742D01*
X9753600Y2412252D01*
Y2494400D01*
D02*
G37*
G36*
X753900Y2058995D02*
X723775Y2055029D01*
X695702Y2043401D01*
X671596Y2024904D01*
X653099Y2000798D01*
X641470Y1972725D01*
X637504Y1942600D01*
X641470Y1912474D01*
X653099Y1884402D01*
X671596Y1860296D01*
X695702Y1841798D01*
X723775Y1830170D01*
X753900Y1826204D01*
X784025Y1830170D01*
X812098Y1841798D01*
X836204Y1860296D01*
X854701Y1884402D01*
X866329Y1912474D01*
X870295Y1942600D01*
X866329Y1972725D01*
X854701Y2000798D01*
X836204Y2024904D01*
X812098Y2043401D01*
X784025Y2055029D01*
X753900Y2058995D01*
D02*
G37*
G36*
X9346295Y1801500D02*
X9271000D01*
Y1726205D01*
X9281507Y1727588D01*
X9303134Y1736546D01*
X9321704Y1750796D01*
X9335954Y1769366D01*
X9344912Y1790992D01*
X9346295Y1801500D01*
D02*
G37*
G36*
X8508095Y1955800D02*
X8432800D01*
Y1880505D01*
X8441488Y1881649D01*
X8632468Y1690669D01*
X8632468Y1690668D01*
X8647486Y1680634D01*
X8665200Y1677110D01*
X8665201Y1677111D01*
X9037254D01*
X9042114Y1665377D01*
X8998168Y1621432D01*
X8988134Y1606414D01*
X8984610Y1588700D01*
X8984610Y1588699D01*
Y1564557D01*
X8966296Y1550504D01*
X8952046Y1531933D01*
X8943088Y1510307D01*
X8941705Y1499800D01*
X9029700D01*
Y1474400D01*
X8941705D01*
X8943088Y1463892D01*
X8952046Y1442266D01*
X8966296Y1423696D01*
X8973862Y1417889D01*
X8969552Y1405189D01*
X8694932D01*
X8686558Y1414738D01*
X8687567Y1422400D01*
X8684512Y1445607D01*
X8675554Y1467234D01*
X8661304Y1485804D01*
X8642734Y1500054D01*
X8621107Y1509012D01*
X8597900Y1512067D01*
X8574693Y1509012D01*
X8553066Y1500054D01*
X8534496Y1485804D01*
X8520246Y1467234D01*
X8511288Y1445607D01*
X8508233Y1422400D01*
X8511288Y1399193D01*
X8520246Y1377566D01*
X8534496Y1358996D01*
X8553066Y1344746D01*
X8574693Y1335788D01*
X8597900Y1332733D01*
X8619288Y1335549D01*
X8628668Y1326169D01*
X8628668Y1326168D01*
X8643686Y1316134D01*
X8661400Y1312611D01*
X9207500D01*
X9225214Y1316134D01*
X9240232Y1326168D01*
X9250266Y1341186D01*
X9253789Y1358900D01*
Y1485563D01*
X9270904Y1498696D01*
X9274292Y1503111D01*
X9569689D01*
X9574346Y1491866D01*
X9588596Y1473296D01*
X9607166Y1459046D01*
X9628793Y1450088D01*
X9652000Y1447033D01*
X9675207Y1450088D01*
X9696834Y1459046D01*
X9715404Y1473296D01*
X9729654Y1491866D01*
X9738612Y1513493D01*
X9741667Y1536700D01*
X9738612Y1559907D01*
X9729654Y1581534D01*
X9715404Y1600104D01*
X9696834Y1614354D01*
X9675207Y1623312D01*
X9652000Y1626367D01*
X9628793Y1623312D01*
X9607166Y1614354D01*
X9588596Y1600104D01*
X9585208Y1595689D01*
X9289811D01*
X9285154Y1606934D01*
X9270904Y1625504D01*
X9252334Y1639754D01*
X9230707Y1648712D01*
X9207500Y1651767D01*
X9184293Y1648712D01*
X9170539Y1643015D01*
X9163345Y1653781D01*
X9200231Y1690668D01*
X9200232Y1690668D01*
X9236912Y1727349D01*
X9245600Y1726205D01*
Y1801500D01*
X9170305D01*
X9171449Y1792812D01*
X9148326Y1769690D01*
X8990353D01*
X8982296Y1779507D01*
X8983687Y1786500D01*
X8979776Y1806165D01*
X8968636Y1822836D01*
X8951965Y1833976D01*
X8946687Y1835026D01*
Y1847974D01*
X8951965Y1849024D01*
X8968636Y1860164D01*
X8979776Y1876835D01*
X8983687Y1896500D01*
X8979776Y1916165D01*
X8968636Y1932836D01*
X8951965Y1943976D01*
X8932300Y1947887D01*
X8912635Y1943976D01*
X8895964Y1932836D01*
X8884824Y1916165D01*
X8883774Y1910887D01*
X8870826D01*
X8869776Y1916165D01*
X8858636Y1932836D01*
X8841965Y1943976D01*
X8822300Y1947887D01*
X8802635Y1943976D01*
X8785964Y1932836D01*
X8774824Y1916165D01*
X8770913Y1896500D01*
X8774824Y1876835D01*
X8785964Y1860164D01*
X8802635Y1849024D01*
X8807913Y1847974D01*
Y1835026D01*
X8802635Y1833976D01*
X8785964Y1822836D01*
X8774824Y1806165D01*
X8770913Y1786500D01*
X8772304Y1779507D01*
X8764247Y1769690D01*
X8684374D01*
X8506951Y1947112D01*
X8508095Y1955800D01*
D02*
G37*
G36*
X8140700Y1830913D02*
X8110053Y1826878D01*
X8081494Y1815048D01*
X8056969Y1796231D01*
X8038152Y1771706D01*
X8026322Y1743147D01*
X8022287Y1712500D01*
X8026322Y1681853D01*
X8038152Y1653294D01*
X8056969Y1628769D01*
X8081494Y1609952D01*
X8110053Y1598122D01*
X8140700Y1594087D01*
X8171347Y1598122D01*
X8199906Y1609952D01*
X8224431Y1628769D01*
X8243248Y1653294D01*
X8255078Y1681853D01*
X8259113Y1712500D01*
X8255078Y1743147D01*
X8243248Y1771706D01*
X8224431Y1796231D01*
X8199906Y1815048D01*
X8171347Y1826878D01*
X8140700Y1830913D01*
D02*
G37*
G36*
X7632700D02*
X7602053Y1826878D01*
X7573494Y1815048D01*
X7548969Y1796231D01*
X7530152Y1771706D01*
X7518322Y1743147D01*
X7514287Y1712500D01*
X7518322Y1681853D01*
X7530152Y1653294D01*
X7548969Y1628769D01*
X7573494Y1609952D01*
X7602053Y1598122D01*
X7632700Y1594087D01*
X7663347Y1598122D01*
X7691906Y1609952D01*
X7716431Y1628769D01*
X7735248Y1653294D01*
X7747078Y1681853D01*
X7751113Y1712500D01*
X7747078Y1743147D01*
X7735248Y1771706D01*
X7716431Y1796231D01*
X7691906Y1815048D01*
X7663347Y1826878D01*
X7632700Y1830913D01*
D02*
G37*
G36*
X9834572Y1943867D02*
X9811365Y1940812D01*
X9789739Y1931854D01*
X9771168Y1917604D01*
X9756919Y1899034D01*
X9747961Y1877407D01*
X9744905Y1854200D01*
X9747961Y1830993D01*
X9756919Y1809366D01*
X9771168Y1790796D01*
X9789739Y1776546D01*
X9795726Y1774066D01*
Y1379763D01*
X9712109Y1296147D01*
X8194891D01*
X7925547Y1565491D01*
Y1601518D01*
X7945906Y1609952D01*
X7970431Y1628769D01*
X7989248Y1653294D01*
X8001078Y1681853D01*
X8005113Y1712500D01*
X8001078Y1743147D01*
X7989248Y1771706D01*
X7970431Y1796231D01*
X7945906Y1815048D01*
X7917347Y1826878D01*
X7886700Y1830913D01*
X7856053Y1826878D01*
X7827494Y1815048D01*
X7802969Y1796231D01*
X7784152Y1771706D01*
X7772322Y1743147D01*
X7768287Y1712500D01*
X7772322Y1681853D01*
X7784152Y1653294D01*
X7802969Y1628769D01*
X7827494Y1609952D01*
X7847853Y1601518D01*
Y1549400D01*
X7850811Y1534534D01*
X7859231Y1521931D01*
X8151331Y1229831D01*
X8163934Y1221411D01*
X8178800Y1218453D01*
X9728200D01*
X9743066Y1221411D01*
X9755669Y1229831D01*
X9862041Y1336204D01*
X9870462Y1348807D01*
X9873419Y1363672D01*
Y1774066D01*
X9879406Y1776546D01*
X9897977Y1790796D01*
X9912226Y1809366D01*
X9921184Y1830993D01*
X9924239Y1854200D01*
X9921184Y1877407D01*
X9912226Y1899034D01*
X9897977Y1917604D01*
X9879406Y1931854D01*
X9857780Y1940812D01*
X9834572Y1943867D01*
D02*
G37*
G36*
X9232900Y1103995D02*
Y1028700D01*
X9308195D01*
X9306812Y1039207D01*
X9297854Y1060834D01*
X9283604Y1079404D01*
X9265034Y1093654D01*
X9243407Y1102612D01*
X9232900Y1103995D01*
D02*
G37*
G36*
X2776600Y1101973D02*
Y1017600D01*
X2860973D01*
X2859280Y1030457D01*
X2849415Y1054272D01*
X2833723Y1074723D01*
X2813273Y1090415D01*
X2789457Y1100280D01*
X2776600Y1101973D01*
D02*
G37*
G36*
X3251200D02*
X3238343Y1100280D01*
X3214527Y1090415D01*
X3194077Y1074723D01*
X3178385Y1054272D01*
X3168520Y1030457D01*
X3166827Y1017600D01*
X3251200D01*
Y1101973D01*
D02*
G37*
G36*
X9308195Y1003300D02*
X9232900D01*
Y928005D01*
X9243407Y929388D01*
X9265034Y938346D01*
X9283604Y952596D01*
X9297854Y971166D01*
X9306812Y992793D01*
X9308195Y1003300D01*
D02*
G37*
G36*
X2860973Y992200D02*
X2776600D01*
Y907827D01*
X2789457Y909520D01*
X2813273Y919384D01*
X2833723Y935077D01*
X2849415Y955528D01*
X2859280Y979343D01*
X2860973Y992200D01*
D02*
G37*
G36*
X3251200D02*
X3166827D01*
X3168520Y979343D01*
X3178385Y955528D01*
X3194077Y935077D01*
X3214527Y919384D01*
X3238343Y909520D01*
X3251200Y907827D01*
Y992200D01*
D02*
G37*
G36*
X5806600Y1137700D02*
X5635800D01*
Y866900D01*
X5806600D01*
Y1137700D01*
D02*
G37*
G36*
X4191600D02*
X4020800D01*
Y866900D01*
X4191600D01*
Y1137700D01*
D02*
G37*
G36*
X3420385Y722200D02*
X3376600D01*
Y645941D01*
X3385516Y647714D01*
X3403841Y659959D01*
X3416086Y678284D01*
X3420385Y699900D01*
Y722200D01*
D02*
G37*
G36*
X2720385D02*
X2676600D01*
Y645941D01*
X2685516Y647714D01*
X2703841Y659959D01*
X2716085Y678284D01*
X2720385Y699900D01*
Y722200D01*
D02*
G37*
G36*
X3351200D02*
X3307415D01*
Y699900D01*
X3311714Y678284D01*
X3323959Y659959D01*
X3342284Y647714D01*
X3351200Y645941D01*
Y722200D01*
D02*
G37*
G36*
X2651200D02*
X2607415D01*
Y699900D01*
X2611714Y678284D01*
X2623959Y659959D01*
X2642284Y647714D01*
X2651200Y645941D01*
Y722200D01*
D02*
G37*
%LPD*%
G36*
X8746852Y5066611D02*
X8740596Y5054906D01*
X8738382Y5055347D01*
X7369934D01*
X7367454Y5061334D01*
X7353704Y5079253D01*
X7354422Y5083604D01*
X7357256Y5091953D01*
X8721509D01*
X8746852Y5066611D01*
D02*
G37*
G36*
X8952753Y4860709D02*
Y4793182D01*
X8955711Y4778316D01*
X8964131Y4765713D01*
X9767311Y3962533D01*
X9762451Y3950800D01*
X9655037D01*
X8891147Y4714691D01*
Y4902582D01*
X8890706Y4904796D01*
X8902411Y4911052D01*
X8952753Y4860709D01*
D02*
G37*
G36*
X8385099Y2818653D02*
X8369396Y2806604D01*
X8355146Y2788034D01*
X8352666Y2782047D01*
X7395334D01*
X7392854Y2788034D01*
X7378604Y2806604D01*
X7362901Y2818653D01*
X7366183Y2831353D01*
X8381817D01*
X8385099Y2818653D01*
D02*
G37*
G36*
X6617903Y2412253D02*
X6606193Y2410712D01*
X6584566Y2401754D01*
X6565996Y2387504D01*
X6551746Y2368934D01*
X6549266Y2362947D01*
X6273800D01*
X6258934Y2359989D01*
X6246331Y2351569D01*
X5724209Y1829446D01*
X5153834D01*
X5151354Y1835433D01*
X5137104Y1854004D01*
X5118534Y1868254D01*
X5096908Y1877212D01*
X5073700Y1880267D01*
X5050493Y1877212D01*
X5028866Y1868254D01*
X5010296Y1854004D01*
X4996046Y1835433D01*
X4987088Y1813807D01*
X4984033Y1790600D01*
X4987088Y1767392D01*
X4996046Y1745766D01*
X5010296Y1727196D01*
X5025868Y1715247D01*
X5022344Y1702547D01*
X4943691D01*
X4750547Y1895691D01*
Y1959400D01*
X5244100D01*
Y2170200D01*
X4750547D01*
Y2264297D01*
X4762404Y2273396D01*
X4776654Y2291966D01*
X4785612Y2313593D01*
X4788667Y2336800D01*
X4785612Y2360007D01*
X4776654Y2381634D01*
X4762404Y2400204D01*
X4746701Y2412253D01*
X4749983Y2424953D01*
X6617071D01*
X6617903Y2412253D01*
D02*
G37*
%LPC*%
G36*
X5674100Y2050200D02*
X5463300D01*
Y1859400D01*
X5674100D01*
Y2050200D01*
D02*
G37*
%LPD*%
D10*
X9613900Y6235700D02*
X9906000D01*
X10185400Y6515100D01*
X9525000Y6324600D02*
X9613900Y6235700D01*
X9376535Y6324600D02*
X9525000D01*
X4216400Y8255000D02*
X4394200Y8077200D01*
X3987800Y8255000D02*
X4216400D01*
X3924300Y8191500D02*
X3987800Y8255000D01*
X6134100Y977900D02*
X6743700D01*
X5588000Y1524000D02*
X6134100Y977900D01*
X5130800Y1524000D02*
X5588000D01*
X4800600Y3441700D02*
X4978400Y3263900D01*
Y2819400D02*
Y3263900D01*
X6870700Y1955800D02*
X7114000Y1712500D01*
X7378700D01*
X5472160Y7528656D02*
X5537200Y7593697D01*
X5472160Y7188200D02*
Y7528656D01*
X3214200Y1727200D02*
X3429000Y1942000D01*
X3009900Y1727200D02*
X3214200D01*
X3581400Y8191500D02*
X3924300D01*
X3300900Y3441700D02*
X4800600D01*
X2284900Y4457700D02*
X3300900Y3441700D01*
X7175500Y6273800D02*
X7518400Y5930900D01*
X5271700Y6273800D02*
X7175500D01*
D46*
X2387600Y800100D02*
X3644900D01*
X9207500Y1358900D02*
Y1562100D01*
X8661400Y1358900D02*
X9207500D01*
X8597900Y1422400D02*
X8661400Y1358900D01*
X2150400Y800100D02*
X2387600D01*
X2592400Y1004900D01*
X2763900D01*
X3644900Y800100D02*
X6870700D01*
X3263900Y1004900D02*
X3440100D01*
X3644900Y800100D01*
X2734300Y1377000D02*
X2752400Y1358900D01*
X3329300D02*
X3347400Y1377000D01*
X2082800Y1346200D02*
X2703500D01*
X1930400Y1498600D02*
X2082800Y1346200D01*
X1930400Y1498600D02*
Y4355200D01*
X5626100Y7035800D02*
X5664200D01*
X5689600Y7010400D01*
Y6883400D02*
Y7010400D01*
X5575300Y7086600D02*
X5626100Y7035800D01*
X6870700Y800100D02*
X7086600Y1016000D01*
X1007900Y1942600D02*
X2150400Y800100D01*
X9652000Y6527800D02*
X9753600Y6426200D01*
X8915400Y6527800D02*
X9652000D01*
X2752400Y1358900D02*
X3329300D01*
X7086600Y1016000D02*
X7378700Y1308100D01*
X7086600Y1016000D02*
X9220200D01*
X9095100Y1651000D02*
X9167500Y1723400D01*
X9030900Y1588700D02*
X9093200Y1651000D01*
X9030900Y1488300D02*
Y1588700D01*
X7378700Y1308100D02*
Y1712500D01*
X9702800Y2286000D02*
Y2426916D01*
X9766300Y2490416D01*
X9258300Y1841500D02*
X9702800Y2286000D01*
X2857500Y6540500D02*
Y7048500D01*
X3505200Y7696200D01*
X2476500Y6159500D02*
X2857500Y6540500D01*
X5575300Y7086600D02*
X5638800Y7150100D01*
X5549900Y7061200D02*
X5575300Y7086600D01*
X5691779Y6860179D02*
Y6881221D01*
X5524500Y6692900D02*
X5691779Y6860179D01*
X4864100Y6692900D02*
X5524500D01*
X3657600Y5486400D02*
X4864100Y6692900D01*
X3365500Y5486400D02*
X3657600D01*
X5765800Y7531100D02*
Y7670800D01*
X5638800Y7404100D02*
X5765800Y7531100D01*
X5638800Y7150100D02*
Y7404100D01*
X5386979Y7061200D02*
X5549900D01*
X5372100Y7076079D02*
X5386979Y7061200D01*
X5372100Y7076079D02*
Y7112000D01*
X5257800Y7226300D02*
X5372100Y7112000D01*
X1007900Y1942600D02*
Y2087400D01*
X1663700Y2743200D01*
X9220200Y1549400D02*
X9639300D01*
X8420100Y1968500D02*
X8665200Y1723400D01*
X9167500D01*
X9258300Y1814200D01*
X7378700Y1905000D02*
X7442200Y1968500D01*
X8420100D01*
X7378700Y1712500D02*
Y1905000D01*
X3365500Y5486400D02*
X3467100Y5384800D01*
Y5092700D02*
Y5384800D01*
X2540900Y4965700D02*
X4279900D01*
X1930400Y4355200D02*
X2540900Y4965700D01*
X4279900D02*
X4420700Y5106500D01*
D47*
X5740300Y1790600D02*
X6273800Y2324100D01*
X5073700Y1790600D02*
X5740300D01*
X4927600Y1663700D02*
X5829300D01*
X4711700Y1879600D02*
X4927600Y1663700D01*
X5829300D02*
X6248400Y2082800D01*
X4711700Y1879600D02*
Y2324100D01*
X6273800D02*
X6629400D01*
X2286000Y2590800D02*
X7747000D01*
X2120900Y2425700D02*
X2286000Y2590800D01*
X2720299Y1625600D02*
X3558499Y2463800D01*
X2108200Y1625600D02*
X2720299D01*
X7747000Y2590800D02*
X7835900Y2501900D01*
Y2463800D02*
Y2501900D01*
X9834572Y1363672D02*
Y1854200D01*
X9728200Y1257300D02*
X9834572Y1363672D01*
X8813800Y5245100D02*
X10223500Y3835400D01*
X6667500Y5245100D02*
X8813800D01*
X6578600Y5156200D02*
X6667500Y5245100D01*
X3347400Y1377000D02*
X3365500Y1358900D01*
X9093200Y1651000D02*
X9095100D01*
X9029700Y1487100D02*
X9030900Y1488300D01*
X8625278Y2870200D02*
X9283700Y3528622D01*
Y4051300D01*
X9766300Y2490416D02*
Y2507100D01*
X7315200Y2743200D02*
X8432800D01*
X9258300Y1814200D02*
Y1841500D01*
X4612235Y7048500D02*
X4724400Y7160665D01*
X3546800Y7048500D02*
X4612235D01*
X5689600Y6883400D02*
X5691779Y6881221D01*
X5765800Y7670800D02*
X5791200Y7696200D01*
X5537200Y7593697D02*
Y7607300D01*
X9207500Y1562100D02*
X9220200Y1549400D01*
X3558499Y2463800D02*
X7581900D01*
X9639300Y1549400D02*
X9652000Y1536700D01*
X8178800Y1257300D02*
X9728200D01*
X9652000Y4559300D02*
X10007600D01*
X8877300Y5334000D02*
X9652000Y4559300D01*
X6362700Y5334000D02*
X8877300D01*
X5969000Y4940300D02*
X6362700Y5334000D01*
X8737600Y5130800D02*
X8991600Y4876800D01*
X7052484Y5130800D02*
X8737600D01*
X6988984Y5067300D02*
X7052484Y5130800D01*
X8991600Y4793182D02*
Y4876800D01*
Y4793182D02*
X9921341Y3863441D01*
X9893300Y3835400D02*
X9921341Y3863441D01*
X9893300Y3835400D02*
X9969500D01*
X8738382Y5016500D02*
X8852300Y4902582D01*
Y4698600D02*
Y4902582D01*
Y4698600D02*
X9715500Y3835400D01*
X7289800Y5016500D02*
X8738382D01*
X5969000Y3314700D02*
Y4940300D01*
X10007600Y4559300D02*
X10210800Y4762500D01*
X9271000Y5448300D02*
X9956800Y4762500D01*
X6299200Y5448300D02*
X9271000D01*
X5422900Y4572000D02*
X6299200Y5448300D01*
X5422900Y3486000D02*
Y4572000D01*
Y3486000D02*
X5721200Y3187700D01*
X4953000Y4305300D02*
X6248400Y5600700D01*
X7416800D01*
X5600700Y2870200D02*
X8625278D01*
X6553200Y5156200D02*
X6578600D01*
X6972300Y5067300D02*
X6988984D01*
X5283200Y6934200D02*
X5486400D01*
X4127500Y8089900D02*
X5283200Y6934200D01*
X4420700Y5106500D02*
Y5130800D01*
X5842000Y4593416D02*
Y4610100D01*
X5778500Y4529916D02*
X5842000Y4593416D01*
X5778500Y4127500D02*
Y4529916D01*
X7881681Y2298700D02*
X8199181Y2616200D01*
X8216900D01*
X7886700Y1549400D02*
X8178800Y1257300D01*
X7886700Y1549400D02*
Y1712500D01*
X4699000Y2336800D02*
X4711700Y2324100D01*
X7200900Y2298700D02*
X7881681D01*
X2959100Y4305300D02*
X4953000D01*
X4312050Y2978550D02*
X4318000Y2972600D01*
X2799950Y2978550D02*
X4312050D01*
X2794000Y2984500D02*
X2799950Y2978550D01*
X2908300Y1473200D02*
X2921000Y1485900D01*
X2566200Y1473200D02*
X2908300D01*
X2553500Y1460500D02*
X2566200Y1473200D01*
D49*
X2763900Y1004900D02*
D03*
X3263900D02*
D03*
D50*
X9702800Y4762500D02*
D03*
X1261900Y1942600D02*
D03*
X9715500Y3835400D02*
D03*
D51*
X9956800Y4762500D02*
D03*
X10210800D02*
D03*
X753900Y1942600D02*
D03*
X1007900D02*
D03*
X10223500Y3835400D02*
D03*
X9969500D02*
D03*
D52*
X4763700Y6273800D02*
D03*
X5017700Y6527800D02*
D03*
D53*
X5271700Y6273800D02*
D03*
D54*
X3263900Y4737100D02*
D03*
D55*
X4025900D02*
D03*
D56*
X5982300Y6616700D02*
D03*
D57*
X4420700Y957300D02*
D03*
X5218700D02*
D03*
D58*
X4106200Y1002300D02*
D03*
X5721200D02*
D03*
D59*
X5568700Y1954800D02*
D03*
D60*
X4106200Y1944800D02*
D03*
D61*
X5073700Y2064800D02*
D03*
X5183700D02*
D03*
X4853700D02*
D03*
X4523700D02*
D03*
X4413700D02*
D03*
X4303700D02*
D03*
X4743700D02*
D03*
X4633700D02*
D03*
X4963700D02*
D03*
D62*
X8140700Y1712500D02*
D03*
X7886700D02*
D03*
X7632700D02*
D03*
D63*
X7378700D02*
D03*
D64*
X7581900Y2463800D02*
D03*
X2476500Y6159500D02*
D03*
D65*
X7835900Y2463800D02*
D03*
D66*
X2476500Y6413500D02*
D03*
D67*
X2540799Y7866380D02*
D03*
Y7546340D02*
D03*
D68*
Y7226300D02*
D03*
D69*
X5073700Y1790600D02*
D03*
X2921000Y1485900D02*
D03*
X2703500Y1346200D02*
D03*
X2553500Y1460500D02*
D03*
X2108200Y1625600D02*
D03*
X2120900Y2425700D02*
D03*
X9834572Y1854200D02*
D03*
X9376535Y6324600D02*
D03*
X10185400Y6515100D02*
D03*
X8915400Y6527800D02*
D03*
X9753600Y6426200D02*
D03*
X9220200Y1016000D02*
D03*
X9029700Y1487100D02*
D03*
X9283700Y4051300D02*
D03*
X8432800Y2743200D02*
D03*
X9766300Y2507100D02*
D03*
X6743700Y977900D02*
D03*
X5130800Y1524000D02*
D03*
X6870700Y1955800D02*
D03*
X3505200Y7696200D02*
D03*
X4724400Y7160665D02*
D03*
X3546800Y7048500D02*
D03*
X5257800Y7226300D02*
D03*
X5472160Y7188200D02*
D03*
X5791200Y7696200D02*
D03*
X1663700Y2743200D02*
D03*
X9207500Y1562100D02*
D03*
X8597900Y1422400D02*
D03*
X9258300Y1814200D02*
D03*
X8420100Y1968500D02*
D03*
X3429000Y1942000D02*
D03*
X3009900Y1727200D02*
D03*
X3467100Y5092700D02*
D03*
X3365500Y5486400D02*
D03*
X2284900Y4457700D02*
D03*
X4800600Y3441700D02*
D03*
X4978400Y2819400D02*
D03*
X9652000Y1536700D02*
D03*
X5969000Y3314700D02*
D03*
X7416800Y5600700D02*
D03*
X7315200Y2743200D02*
D03*
X5600700Y2870200D02*
D03*
X5721200Y3187700D02*
D03*
X6553200Y5156200D02*
D03*
X6972300Y5067300D02*
D03*
X7289800Y5016500D02*
D03*
X7518400Y5930900D02*
D03*
X5537200Y7607300D02*
D03*
X3581400Y8191500D02*
D03*
X4394200Y8077200D02*
D03*
X5486400Y6934200D02*
D03*
X4127500Y8089900D02*
D03*
X4420700Y5130800D02*
D03*
X5842000Y4610100D02*
D03*
X5778500Y4127500D02*
D03*
X8216900Y2616200D02*
D03*
X6248400Y2082800D02*
D03*
X4699000Y2336800D02*
D03*
X6629400Y2324100D02*
D03*
X7200900Y2311400D02*
D03*
X2959100Y4305300D02*
D03*
X2794000Y2984500D02*
D03*
X4318000Y2972600D02*
D03*
X3365500Y1358900D02*
D03*
D70*
X2713500Y2103900D02*
D03*
Y1993900D02*
D03*
Y1883900D02*
D03*
X2603500Y2103900D02*
D03*
Y1993900D02*
D03*
Y1883900D02*
D03*
X2493500Y2103900D02*
D03*
Y1993900D02*
D03*
Y1883900D02*
D03*
X8822300Y1896500D02*
D03*
X8932300D02*
D03*
Y1786500D02*
D03*
X8822300D02*
D03*
%TF.MD5,ff22759172bc763fc4ac962480dd2292*%
M02*
