%TF.GenerationSoftware,Altium Limited,Altium Designer,19.0.15 (446)*%
G04 Layer_Color=65535*
%FSLAX45Y45*%
%MOMM*%
%TF.FileFunction,Legend,Top*%
%TF.Part,Single*%
G01*
G75*
%TA.AperFunction,NonConductor*%
%ADD85C,0.25000*%
%ADD86C,0.20000*%
%ADD87C,0.50000*%
%ADD88C,0.25400*%
G36*
X1504883Y3359146D02*
X1503418D01*
X1501953D01*
X1500488D01*
X1499023D01*
X1497558D01*
X1496093D01*
X1494627D01*
X1493162D01*
X1491697D01*
X1490232D01*
X1488767D01*
X1487302D01*
X1485837D01*
X1484372D01*
X1482906D01*
X1481441D01*
X1479976D01*
X1478511D01*
X1477046D01*
X1475581D01*
X1474116D01*
X1472651D01*
X1471186D01*
X1469720D01*
X1468255D01*
X1466790D01*
X1465325D01*
X1463860D01*
X1462395D01*
X1460930D01*
X1459465D01*
X1458000D01*
X1456535D01*
X1455069D01*
X1453604D01*
X1452139D01*
X1450674D01*
X1449209D01*
X1447744D01*
X1446279D01*
X1444813D01*
X1443348D01*
X1441883D01*
X1440418D01*
X1438953D01*
X1437488D01*
X1436023D01*
X1434558D01*
X1433093D01*
X1431627D01*
X1430162D01*
X1428697D01*
X1427232D01*
X1425767D01*
X1424302D01*
X1422837D01*
X1421372D01*
X1419906D01*
X1418441D01*
X1416976D01*
X1415511D01*
X1414046D01*
X1412581D01*
X1411116D01*
X1409651D01*
X1408186D01*
X1406721D01*
X1405256D01*
X1403790D01*
X1402325D01*
X1400860D01*
X1399395D01*
X1397930D01*
X1396465D01*
X1394999D01*
X1393534D01*
X1392069D01*
X1390604D01*
X1389139D01*
X1387674D01*
X1386209D01*
X1384744D01*
X1383279D01*
X1381814D01*
X1380349D01*
X1378883D01*
X1377418D01*
X1375953D01*
X1374488D01*
X1373023D01*
X1371558D01*
X1370093D01*
X1368628D01*
X1367162D01*
X1365697D01*
X1364232D01*
X1362767D01*
X1361302D01*
X1359837D01*
X1358372D01*
X1356907D01*
X1355442D01*
X1353976D01*
X1352511D01*
X1351046D01*
X1349581D01*
X1348116D01*
X1346651D01*
X1345186D01*
X1343720D01*
X1342255D01*
X1340790D01*
X1339325D01*
X1337860D01*
Y3357681D01*
X1336395D01*
Y3356216D01*
X1337860D01*
Y3351821D01*
X1339325D01*
Y3347426D01*
X1340790D01*
Y3343030D01*
X1342255D01*
Y3340100D01*
X1343720D01*
Y3335705D01*
X1345186D01*
Y3332774D01*
X1346651D01*
Y3329844D01*
X1348116D01*
Y3326914D01*
X1349581D01*
Y3323984D01*
X1351046D01*
Y3321054D01*
X1352511D01*
Y3318123D01*
X1353976D01*
Y3316658D01*
X1355442D01*
Y3313728D01*
X1356907D01*
Y3310798D01*
X1358372D01*
Y3309332D01*
X1359837D01*
Y3306402D01*
X1361302D01*
Y3304937D01*
X1362767D01*
Y3303472D01*
X1364232D01*
Y3300542D01*
X1365697D01*
Y3299077D01*
X1367162D01*
Y3297612D01*
X1368628D01*
Y3294681D01*
X1370093D01*
Y3293216D01*
X1371558D01*
Y3291751D01*
X1373023D01*
Y3290286D01*
X1374488D01*
Y3288821D01*
X1375953D01*
Y3287356D01*
X1377418D01*
Y3285891D01*
X1378883D01*
Y3284425D01*
X1380349D01*
Y3282960D01*
X1381814D01*
Y3281495D01*
X1383279D01*
Y3280030D01*
X1384744D01*
Y3278565D01*
X1386209D01*
Y3277100D01*
X1387674D01*
Y3275635D01*
X1389139D01*
Y3274170D01*
X1390604D01*
Y3272705D01*
X1392069D01*
Y3271240D01*
X1393534D01*
X1394999D01*
Y3269775D01*
X1396465D01*
Y3268309D01*
X1397930D01*
Y3266844D01*
X1399395D01*
X1400860D01*
Y3265379D01*
X1402325D01*
Y3263914D01*
X1403790D01*
Y3262449D01*
X1405256D01*
X1406721D01*
Y3260984D01*
X1408186D01*
Y3259519D01*
X1409651D01*
X1411116D01*
Y3258053D01*
X1412581D01*
Y3256588D01*
X1414046D01*
X1415511D01*
Y3255123D01*
X1416976D01*
X1418441D01*
Y3253658D01*
X1419906D01*
X1421372D01*
Y3252193D01*
X1422837D01*
X1424302D01*
Y3250728D01*
X1425767D01*
X1427232D01*
Y3249263D01*
X1428697D01*
X1430162D01*
Y3247798D01*
X1431627D01*
X1433093D01*
Y3246333D01*
X1434558D01*
X1436023D01*
Y3244868D01*
X1437488D01*
X1438953D01*
X1440418D01*
Y3243402D01*
X1441883D01*
X1443348D01*
X1444813D01*
Y3241937D01*
X1446279D01*
X1447744D01*
X1449209D01*
Y3240472D01*
X1450674D01*
X1452139D01*
X1453604D01*
Y3239007D01*
X1455069D01*
X1456535D01*
X1458000D01*
X1459465D01*
Y3237542D01*
X1460930D01*
X1462395D01*
X1463860D01*
X1465325D01*
Y3236077D01*
X1466790D01*
X1468255D01*
X1469720D01*
X1471186D01*
X1472651D01*
Y3234612D01*
X1474116D01*
X1475581D01*
X1477046D01*
X1478511D01*
X1479976D01*
X1481441D01*
X1482906D01*
X1484372D01*
Y3233147D01*
X1485837D01*
X1487302D01*
X1488767D01*
X1490232D01*
X1491697D01*
X1493162D01*
X1494627D01*
X1496093D01*
X1497558D01*
X1499023D01*
X1500488D01*
Y3139379D01*
X1499023D01*
X1497558D01*
X1496093D01*
X1494627D01*
Y3140844D01*
X1493162D01*
X1491697D01*
X1490232D01*
X1488767D01*
X1487302D01*
X1485837D01*
X1484372D01*
X1482906D01*
X1481441D01*
X1479976D01*
X1478511D01*
X1477046D01*
X1475581D01*
X1474116D01*
X1472651D01*
X1471186D01*
Y3142309D01*
X1469720D01*
X1468255D01*
X1466790D01*
X1465325D01*
X1463860D01*
X1462395D01*
X1460930D01*
Y3143775D01*
X1459465D01*
X1458000D01*
X1456535D01*
X1455069D01*
X1453604D01*
X1452139D01*
Y3145240D01*
X1450674D01*
X1449209D01*
X1447744D01*
X1446279D01*
X1444813D01*
Y3146705D01*
X1443348D01*
X1441883D01*
X1440418D01*
X1438953D01*
X1437488D01*
Y3148170D01*
X1436023D01*
X1434558D01*
X1433093D01*
Y3149635D01*
X1431627D01*
X1430162D01*
X1428697D01*
X1427232D01*
Y3151100D01*
X1425767D01*
X1424302D01*
X1422837D01*
Y3152565D01*
X1421372D01*
X1419906D01*
X1418441D01*
Y3154031D01*
X1416976D01*
X1415511D01*
X1414046D01*
Y3155496D01*
X1412581D01*
X1411116D01*
X1409651D01*
Y3156961D01*
X1408186D01*
X1406721D01*
X1405256D01*
Y3158426D01*
X1403790D01*
X1402325D01*
Y3159891D01*
X1400860D01*
X1399395D01*
X1397930D01*
Y3161356D01*
X1396465D01*
X1394999D01*
Y3162821D01*
X1393534D01*
X1392069D01*
Y3164286D01*
X1390604D01*
X1389139D01*
Y3165751D01*
X1387674D01*
X1386209D01*
Y3167216D01*
X1384744D01*
X1383279D01*
Y3168681D01*
X1381814D01*
X1380349D01*
Y3170147D01*
X1378883D01*
X1377418D01*
Y3171612D01*
X1375953D01*
X1374488D01*
Y3173077D01*
X1373023D01*
X1371558D01*
Y3174542D01*
X1370093D01*
X1368628D01*
Y3176007D01*
X1367162D01*
Y3177472D01*
X1365697D01*
X1364232D01*
Y3178937D01*
X1362767D01*
X1361302D01*
Y3180402D01*
X1359837D01*
Y3181868D01*
X1358372D01*
X1356907D01*
Y3183333D01*
X1355442D01*
Y3184798D01*
X1353976D01*
X1352511D01*
Y3186263D01*
X1351046D01*
Y3187728D01*
X1349581D01*
X1348116D01*
Y3189193D01*
X1346651D01*
Y3190658D01*
X1345186D01*
Y3192123D01*
X1343720D01*
X1342255D01*
Y3193588D01*
X1340790D01*
Y3195054D01*
X1339325D01*
Y3196519D01*
X1337860D01*
X1336395D01*
Y3197984D01*
X1334930D01*
Y3199449D01*
X1333465D01*
Y3200914D01*
X1332000D01*
Y3202379D01*
X1330535D01*
Y3203844D01*
X1329069D01*
X1327604D01*
Y3205309D01*
X1326139D01*
Y3206774D01*
X1324674D01*
Y3208239D01*
X1323209D01*
Y3209705D01*
X1321744D01*
Y3211170D01*
X1320279D01*
Y3212635D01*
X1318814D01*
Y3214100D01*
X1317348D01*
Y3215565D01*
X1315883D01*
Y3217030D01*
X1314418D01*
Y3218495D01*
X1312953D01*
Y3219961D01*
X1311488D01*
Y3221426D01*
X1310023D01*
Y3222891D01*
X1308558D01*
Y3224356D01*
X1307093D01*
Y3225821D01*
X1305628D01*
Y3227286D01*
X1304162D01*
Y3228751D01*
X1302697D01*
Y3230216D01*
X1301232D01*
Y3233147D01*
X1299767D01*
Y3234612D01*
X1298302D01*
Y3236077D01*
X1296837D01*
Y3237542D01*
X1295372D01*
Y3239007D01*
X1293907D01*
Y3241937D01*
X1292442D01*
Y3243402D01*
X1290977D01*
Y3244868D01*
X1289511D01*
Y3247798D01*
X1288046D01*
Y3249263D01*
X1286581D01*
Y3250728D01*
X1285116D01*
Y3253658D01*
X1283651D01*
Y3255123D01*
X1282186D01*
Y3258053D01*
X1280721D01*
Y3259519D01*
X1279256D01*
Y3262449D01*
X1277790D01*
Y3263914D01*
X1276325D01*
Y3266844D01*
X1274860D01*
Y3269775D01*
X1273395D01*
Y3271240D01*
X1271930D01*
Y3274170D01*
X1270465D01*
Y3277100D01*
X1269000D01*
Y3280030D01*
X1267535D01*
Y3282960D01*
X1266070D01*
Y3285891D01*
X1264605D01*
Y3288821D01*
X1263139D01*
Y3291751D01*
X1261674D01*
Y3294681D01*
X1260209D01*
Y3297612D01*
X1258744D01*
Y3302007D01*
X1257279D01*
Y3304937D01*
X1255814D01*
Y3309332D01*
X1254349D01*
Y3312263D01*
X1252883D01*
Y3316658D01*
X1251418D01*
Y3321054D01*
X1249953D01*
Y3325449D01*
X1248488D01*
Y3329844D01*
X1247023D01*
Y3335705D01*
X1245558D01*
Y3341565D01*
X1244093D01*
Y3347426D01*
X1242628D01*
Y3354751D01*
X1241163D01*
Y3359146D01*
X1239698D01*
X1238232D01*
X1236767D01*
Y3151100D01*
X1235302D01*
X1233837D01*
X1232372D01*
X1230907D01*
X1229442D01*
X1227976D01*
X1226511D01*
X1225046D01*
X1223581D01*
X1222116D01*
X1220651D01*
X1219186D01*
X1217721D01*
X1216256D01*
X1214791D01*
X1213325D01*
X1211860D01*
X1210395D01*
X1208930D01*
X1207465D01*
X1206000D01*
X1204535D01*
X1203070D01*
X1201604D01*
X1200139D01*
X1198674D01*
X1197209D01*
X1195744D01*
X1194279D01*
X1192814D01*
X1191349D01*
X1189884D01*
X1188419D01*
X1186953D01*
X1185488D01*
X1184023D01*
X1182558D01*
X1181093D01*
X1179628D01*
X1178163D01*
X1176698D01*
X1175233D01*
X1173767D01*
X1172302D01*
X1170837D01*
X1169372D01*
X1167907D01*
X1166442D01*
X1164977D01*
X1163512D01*
X1162046D01*
X1160581D01*
X1159116D01*
X1157651D01*
X1156186D01*
X1154721D01*
X1153256D01*
X1151791D01*
X1150325D01*
X1148860D01*
X1147395D01*
X1145930D01*
X1144465D01*
Y3152565D01*
X1145930D01*
Y3340100D01*
X1144465D01*
X1143000D01*
Y3334239D01*
X1141535D01*
Y3328379D01*
X1140070D01*
Y3323984D01*
X1138605D01*
Y3319588D01*
X1137139D01*
Y3315193D01*
X1135674D01*
Y3310798D01*
X1134209D01*
Y3307867D01*
X1132744D01*
Y3303472D01*
X1131279D01*
Y3300542D01*
X1129814D01*
Y3296147D01*
X1128349D01*
Y3293216D01*
X1126884D01*
Y3290286D01*
X1125419D01*
Y3287356D01*
X1123953D01*
Y3284425D01*
X1122488D01*
Y3281495D01*
X1121023D01*
Y3278565D01*
X1119558D01*
Y3275635D01*
X1118093D01*
Y3274170D01*
X1116628D01*
Y3271240D01*
X1115163D01*
Y3268309D01*
X1113698D01*
Y3265379D01*
X1112232D01*
Y3263914D01*
X1110767D01*
Y3260984D01*
X1109302D01*
Y3259519D01*
X1107837D01*
Y3256588D01*
X1106372D01*
Y3255123D01*
X1104907D01*
Y3252193D01*
X1103442D01*
Y3250728D01*
X1101977D01*
Y3249263D01*
X1100512D01*
Y3246333D01*
X1099047D01*
Y3244868D01*
X1097581D01*
Y3243402D01*
X1096116D01*
Y3240472D01*
X1094651D01*
Y3239007D01*
X1093186D01*
Y3237542D01*
X1091721D01*
Y3236077D01*
X1090256D01*
Y3233147D01*
X1088791D01*
Y3231682D01*
X1087326D01*
Y3230216D01*
X1085860D01*
Y3228751D01*
X1084395D01*
Y3227286D01*
X1082930D01*
Y3225821D01*
X1081465D01*
Y3224356D01*
X1080000D01*
Y3222891D01*
X1078535D01*
Y3219961D01*
X1077070D01*
Y3218495D01*
X1075605D01*
Y3217030D01*
X1074140D01*
Y3215565D01*
X1072675D01*
Y3214100D01*
X1071209D01*
X1069744D01*
Y3212635D01*
X1068279D01*
Y3211170D01*
X1066814D01*
Y3209705D01*
X1065349D01*
Y3208239D01*
X1063884D01*
Y3206774D01*
X1062419D01*
Y3205309D01*
X1060954D01*
Y3203844D01*
X1059489D01*
Y3202379D01*
X1058023D01*
Y3200914D01*
X1056558D01*
X1055093D01*
Y3199449D01*
X1053628D01*
Y3197984D01*
X1052163D01*
Y3196519D01*
X1050698D01*
Y3195054D01*
X1049233D01*
X1047768D01*
Y3193588D01*
X1046302D01*
Y3192123D01*
X1044837D01*
Y3190658D01*
X1043372D01*
X1041907D01*
Y3189193D01*
X1040442D01*
Y3187728D01*
X1038977D01*
Y3186263D01*
X1037512D01*
X1036046D01*
Y3184798D01*
X1034581D01*
Y3183333D01*
X1033116D01*
X1031651D01*
Y3181868D01*
X1030186D01*
Y3180402D01*
X1028721D01*
X1027256D01*
Y3178937D01*
X1025791D01*
X1024326D01*
Y3177472D01*
X1022861D01*
Y3176007D01*
X1021395D01*
X1019930D01*
Y3174542D01*
X1018465D01*
X1017000D01*
Y3173077D01*
X1015535D01*
X1014070D01*
Y3171612D01*
X1012605D01*
Y3170147D01*
X1011140D01*
X1009675D01*
Y3168681D01*
X1008209D01*
X1006744D01*
Y3167216D01*
X1005279D01*
X1003814D01*
Y3165751D01*
X1002349D01*
X1000884D01*
Y3164286D01*
X999419D01*
X997954D01*
X996488D01*
Y3162821D01*
X995023D01*
X993558D01*
Y3161356D01*
X992093D01*
X990628D01*
Y3159891D01*
X989163D01*
X987698D01*
Y3158426D01*
X986233D01*
X984768D01*
X983303D01*
Y3156961D01*
X981838D01*
X980372D01*
X978907D01*
Y3155496D01*
X977442D01*
X975977D01*
Y3154031D01*
X974512D01*
X973047D01*
X971581D01*
Y3152565D01*
X970116D01*
X968651D01*
X967186D01*
Y3151100D01*
X965721D01*
X964256D01*
X962791D01*
X961326D01*
Y3149635D01*
X959861D01*
X958396D01*
X956931D01*
X955465D01*
Y3148170D01*
X954000D01*
X952535D01*
X951070D01*
Y3146705D01*
X949605D01*
X948140D01*
X946675D01*
X945209D01*
X943744D01*
Y3145240D01*
X942279D01*
X940814D01*
X939349D01*
X937884D01*
X936419D01*
Y3143775D01*
X934954D01*
X933489D01*
X932024D01*
X930558D01*
X929093D01*
X927628D01*
Y3142309D01*
X926163D01*
X924698D01*
X923233D01*
X921768D01*
X920302D01*
X918837D01*
X917372D01*
Y3140844D01*
X915907D01*
X914442D01*
X912977D01*
X911512D01*
X910047D01*
X908582D01*
X907117D01*
X905651D01*
X904186D01*
X902721D01*
X901256D01*
X899791D01*
X898326D01*
Y3142309D01*
X896861D01*
Y3140844D01*
X895396D01*
X893931D01*
X892465D01*
X891000D01*
Y3139379D01*
X889535D01*
Y3233147D01*
X891000D01*
X892465D01*
X893931D01*
X895396D01*
X896861D01*
X898326D01*
X899791D01*
X901256D01*
X902721D01*
X904186D01*
X905651D01*
Y3234612D01*
X907117D01*
X908582D01*
X910047D01*
X911512D01*
X912977D01*
X914442D01*
X915907D01*
X917372D01*
Y3236077D01*
X918837D01*
X920302D01*
X921768D01*
X923233D01*
X924698D01*
Y3237542D01*
X926163D01*
X927628D01*
X929093D01*
X930558D01*
Y3239007D01*
X932024D01*
X933489D01*
X934954D01*
X936419D01*
Y3240472D01*
X937884D01*
X939349D01*
X940814D01*
Y3241937D01*
X942279D01*
X943744D01*
X945209D01*
Y3243402D01*
X946675D01*
X948140D01*
X949605D01*
Y3244868D01*
X951070D01*
X952535D01*
Y3246333D01*
X954000D01*
X955465D01*
Y3247798D01*
X956931D01*
X958396D01*
X959861D01*
Y3249263D01*
X961326D01*
X962791D01*
Y3250728D01*
X964256D01*
X965721D01*
Y3252193D01*
X967186D01*
X968651D01*
Y3253658D01*
X970116D01*
Y3255123D01*
X971581D01*
X973047D01*
Y3256588D01*
X974512D01*
X975977D01*
Y3258053D01*
X977442D01*
X978907D01*
Y3259519D01*
X980372D01*
Y3260984D01*
X981838D01*
X983303D01*
Y3262449D01*
X984768D01*
Y3263914D01*
X986233D01*
X987698D01*
Y3265379D01*
X989163D01*
Y3266844D01*
X990628D01*
Y3268309D01*
X992093D01*
X993558D01*
Y3269775D01*
X995023D01*
Y3271240D01*
X996488D01*
Y3272705D01*
X997954D01*
Y3274170D01*
X999419D01*
Y3275635D01*
X1000884D01*
X1002349D01*
Y3277100D01*
X1003814D01*
Y3278565D01*
X1005279D01*
Y3280030D01*
X1006744D01*
Y3281495D01*
X1008209D01*
Y3282960D01*
X1009675D01*
Y3284425D01*
X1011140D01*
Y3285891D01*
X1012605D01*
Y3287356D01*
X1014070D01*
Y3288821D01*
X1015535D01*
Y3291751D01*
X1017000D01*
Y3293216D01*
X1018465D01*
Y3294681D01*
X1019930D01*
Y3296147D01*
X1021395D01*
Y3297612D01*
X1022861D01*
Y3300542D01*
X1024326D01*
Y3302007D01*
X1025791D01*
Y3303472D01*
X1027256D01*
Y3306402D01*
X1028721D01*
Y3307867D01*
X1030186D01*
Y3310798D01*
X1031651D01*
Y3312263D01*
X1033116D01*
Y3315193D01*
X1034581D01*
Y3318123D01*
X1036046D01*
Y3319588D01*
X1037512D01*
Y3322519D01*
X1038977D01*
Y3325449D01*
X1040442D01*
Y3328379D01*
X1041907D01*
Y3331309D01*
X1043372D01*
Y3334239D01*
X1044837D01*
Y3338635D01*
X1046302D01*
Y3341565D01*
X1047768D01*
Y3345960D01*
X1049233D01*
Y3350356D01*
X1050698D01*
Y3354751D01*
X1052163D01*
Y3359146D01*
X1050698D01*
X1049233D01*
X1047768D01*
X1046302D01*
X1044837D01*
X1043372D01*
X1041907D01*
X1040442D01*
X1038977D01*
X1037512D01*
X1036046D01*
X1034581D01*
X1033116D01*
X1031651D01*
X1030186D01*
X1028721D01*
X1027256D01*
X1025791D01*
X1024326D01*
X1022861D01*
X1021395D01*
X1019930D01*
X1018465D01*
X1017000D01*
X1015535D01*
X1014070D01*
X1012605D01*
X1011140D01*
X1009675D01*
X1008209D01*
X1006744D01*
X1005279D01*
X1003814D01*
X1002349D01*
X1000884D01*
X999419D01*
X997954D01*
X996488D01*
X995023D01*
X993558D01*
X992093D01*
X990628D01*
X989163D01*
X987698D01*
X986233D01*
X984768D01*
X983303D01*
X981838D01*
X980372D01*
X978907D01*
X977442D01*
X975977D01*
X974512D01*
X973047D01*
X971581D01*
X970116D01*
X968651D01*
X967186D01*
X965721D01*
X964256D01*
X962791D01*
X961326D01*
X959861D01*
X958396D01*
X956931D01*
X955465D01*
X954000D01*
X952535D01*
X951070D01*
X949605D01*
X948140D01*
X946675D01*
X945209D01*
X943744D01*
X942279D01*
X940814D01*
X939349D01*
X937884D01*
X936419D01*
X934954D01*
X933489D01*
X932024D01*
X930558D01*
X929093D01*
X927628D01*
X926163D01*
X924698D01*
X923233D01*
X921768D01*
X920302D01*
X918837D01*
X917372D01*
X915907D01*
X914442D01*
X912977D01*
X911512D01*
X910047D01*
X908582D01*
X907117D01*
X905651D01*
X904186D01*
X902721D01*
X901256D01*
X899791D01*
X898326D01*
X896861D01*
X895396D01*
X893931D01*
X892465D01*
X891000D01*
X889535D01*
X888070D01*
X886605D01*
Y3447053D01*
X888070D01*
X889535D01*
X891000D01*
X892465D01*
X893931D01*
X895396D01*
X896861D01*
X898326D01*
X899791D01*
X901256D01*
X902721D01*
X904186D01*
X905651D01*
X907117D01*
X908582D01*
X910047D01*
X911512D01*
X912977D01*
X914442D01*
X915907D01*
X917372D01*
X918837D01*
X920302D01*
X921768D01*
X923233D01*
X924698D01*
X926163D01*
X927628D01*
X929093D01*
X930558D01*
X932024D01*
X933489D01*
X934954D01*
X936419D01*
X937884D01*
X939349D01*
X940814D01*
X942279D01*
X943744D01*
X945209D01*
X946675D01*
X948140D01*
X949605D01*
X951070D01*
X952535D01*
X954000D01*
X955465D01*
X956931D01*
X958396D01*
X959861D01*
X961326D01*
X962791D01*
X964256D01*
X965721D01*
X967186D01*
X968651D01*
X970116D01*
X971581D01*
X973047D01*
X974512D01*
X975977D01*
X977442D01*
X978907D01*
X980372D01*
X981838D01*
X983303D01*
X984768D01*
X986233D01*
X987698D01*
X989163D01*
X990628D01*
X992093D01*
X993558D01*
X995023D01*
X996488D01*
X997954D01*
X999419D01*
X1000884D01*
X1002349D01*
X1003814D01*
X1005279D01*
X1006744D01*
X1008209D01*
X1009675D01*
X1011140D01*
X1012605D01*
X1014070D01*
X1015535D01*
X1017000D01*
X1018465D01*
X1019930D01*
X1021395D01*
X1022861D01*
X1024326D01*
X1025791D01*
X1027256D01*
X1028721D01*
X1030186D01*
X1031651D01*
X1033116D01*
X1034581D01*
X1036046D01*
X1037512D01*
X1038977D01*
X1040442D01*
X1041907D01*
X1043372D01*
X1044837D01*
X1046302D01*
X1047768D01*
X1049233D01*
X1050698D01*
X1052163D01*
Y3451449D01*
X1050698D01*
Y3455844D01*
X1049233D01*
Y3460239D01*
X1047768D01*
Y3464635D01*
X1046302D01*
Y3467565D01*
X1044837D01*
Y3471960D01*
X1043372D01*
Y3474890D01*
X1041907D01*
Y3477821D01*
X1040442D01*
Y3480751D01*
X1038977D01*
Y3483681D01*
X1037512D01*
Y3486611D01*
X1036046D01*
Y3488076D01*
X1034581D01*
Y3491007D01*
X1033116D01*
Y3493937D01*
X1031651D01*
Y3495402D01*
X1030186D01*
Y3498332D01*
X1028721D01*
Y3499797D01*
X1027256D01*
Y3502728D01*
X1025791D01*
Y3504193D01*
X1024326D01*
Y3505658D01*
X1022861D01*
Y3508588D01*
X1021395D01*
Y3510053D01*
X1019930D01*
Y3511518D01*
X1018465D01*
Y3512983D01*
X1017000D01*
Y3514448D01*
X1015535D01*
Y3517379D01*
X1014070D01*
Y3518844D01*
X1012605D01*
Y3520309D01*
X1011140D01*
Y3521774D01*
X1009675D01*
Y3523239D01*
X1008209D01*
Y3524704D01*
X1006744D01*
Y3526169D01*
X1005279D01*
Y3527635D01*
X1003814D01*
Y3529100D01*
X1002349D01*
X1000884D01*
Y3530565D01*
X999419D01*
Y3532030D01*
X997954D01*
Y3533495D01*
X996488D01*
Y3534960D01*
X995023D01*
Y3536425D01*
X993558D01*
X992093D01*
Y3537890D01*
X990628D01*
Y3539355D01*
X989163D01*
Y3540821D01*
X987698D01*
X986233D01*
Y3542286D01*
X984768D01*
Y3543751D01*
X983303D01*
Y3545216D01*
X981838D01*
X980372D01*
Y3546681D01*
X978907D01*
X977442D01*
Y3548146D01*
X975977D01*
Y3549611D01*
X974512D01*
X973047D01*
Y3551076D01*
X971581D01*
X970116D01*
Y3552542D01*
X968651D01*
Y3554007D01*
X967186D01*
X965721D01*
Y3555472D01*
X964256D01*
X962791D01*
Y3556937D01*
X961326D01*
X959861D01*
X958396D01*
Y3558402D01*
X956931D01*
X955465D01*
Y3559867D01*
X954000D01*
X952535D01*
Y3561332D01*
X951070D01*
X949605D01*
X948140D01*
Y3562797D01*
X946675D01*
X945209D01*
Y3564262D01*
X943744D01*
X942279D01*
X940814D01*
Y3565727D01*
X939349D01*
X937884D01*
X936419D01*
X934954D01*
Y3567193D01*
X933489D01*
X932024D01*
X930558D01*
Y3568658D01*
X929093D01*
X927628D01*
X926163D01*
X924698D01*
X923233D01*
Y3570123D01*
X921768D01*
X920302D01*
X918837D01*
X917372D01*
X915907D01*
Y3571588D01*
X914442D01*
X912977D01*
X911512D01*
X910047D01*
X908582D01*
X907117D01*
X905651D01*
X904186D01*
Y3573053D01*
X902721D01*
X901256D01*
X899791D01*
X898326D01*
X896861D01*
X895396D01*
X893931D01*
X892465D01*
X891000D01*
X889535D01*
Y3666820D01*
X891000D01*
X892465D01*
X893931D01*
Y3665355D01*
X895396D01*
X896861D01*
X898326D01*
X899791D01*
X901256D01*
X902721D01*
X904186D01*
X905651D01*
X907117D01*
X908582D01*
X910047D01*
X911512D01*
X912977D01*
X914442D01*
X915907D01*
X917372D01*
X918837D01*
Y3663890D01*
X920302D01*
X921768D01*
X923233D01*
X924698D01*
X926163D01*
X927628D01*
X929093D01*
Y3662425D01*
X930558D01*
X932024D01*
X933489D01*
X934954D01*
X936419D01*
Y3660960D01*
X937884D01*
X939349D01*
X940814D01*
X942279D01*
X943744D01*
X945209D01*
Y3659495D01*
X946675D01*
X948140D01*
X949605D01*
X951070D01*
Y3658030D01*
X952535D01*
X954000D01*
X955465D01*
X956931D01*
Y3656565D01*
X958396D01*
X959861D01*
X961326D01*
Y3655099D01*
X962791D01*
X964256D01*
X965721D01*
X967186D01*
Y3653634D01*
X968651D01*
X970116D01*
X971581D01*
Y3652169D01*
X973047D01*
X974512D01*
X975977D01*
Y3650704D01*
X977442D01*
X978907D01*
Y3649239D01*
X980372D01*
X981838D01*
X983303D01*
Y3647774D01*
X984768D01*
X986233D01*
X987698D01*
Y3646309D01*
X989163D01*
X990628D01*
Y3644844D01*
X992093D01*
X993558D01*
Y3643379D01*
X995023D01*
X996488D01*
X997954D01*
Y3641913D01*
X999419D01*
X1000884D01*
Y3640448D01*
X1002349D01*
X1003814D01*
Y3638983D01*
X1005279D01*
X1006744D01*
Y3637518D01*
X1008209D01*
X1009675D01*
Y3636053D01*
X1011140D01*
X1012605D01*
Y3634588D01*
X1014070D01*
X1015535D01*
Y3633123D01*
X1017000D01*
Y3631658D01*
X1018465D01*
X1019930D01*
Y3630193D01*
X1021395D01*
X1022861D01*
Y3628728D01*
X1024326D01*
Y3627262D01*
X1025791D01*
X1027256D01*
Y3625797D01*
X1028721D01*
X1030186D01*
Y3624332D01*
X1031651D01*
Y3622867D01*
X1033116D01*
X1034581D01*
Y3621402D01*
X1036046D01*
Y3619937D01*
X1037512D01*
X1038977D01*
Y3618472D01*
X1040442D01*
Y3617006D01*
X1041907D01*
Y3615541D01*
X1043372D01*
X1044837D01*
Y3614076D01*
X1046302D01*
Y3612611D01*
X1047768D01*
Y3611146D01*
X1049233D01*
X1050698D01*
Y3609681D01*
X1052163D01*
Y3608216D01*
X1053628D01*
Y3606751D01*
X1055093D01*
Y3605286D01*
X1056558D01*
X1058023D01*
Y3603820D01*
X1059489D01*
Y3602355D01*
X1060954D01*
Y3600890D01*
X1062419D01*
Y3599425D01*
X1063884D01*
Y3597960D01*
X1065349D01*
Y3596495D01*
X1066814D01*
Y3595030D01*
X1068279D01*
Y3593565D01*
X1069744D01*
X1071209D01*
Y3592099D01*
X1072675D01*
Y3590634D01*
X1074140D01*
Y3589169D01*
X1075605D01*
Y3587704D01*
X1077070D01*
Y3586239D01*
X1078535D01*
Y3584774D01*
X1080000D01*
Y3581844D01*
X1081465D01*
Y3580379D01*
X1082930D01*
Y3578914D01*
X1084395D01*
Y3577449D01*
X1085860D01*
Y3575983D01*
X1087326D01*
Y3574518D01*
X1088791D01*
Y3573053D01*
X1090256D01*
Y3571588D01*
X1091721D01*
Y3568658D01*
X1093186D01*
Y3567193D01*
X1094651D01*
Y3565727D01*
X1096116D01*
Y3564262D01*
X1097581D01*
Y3561332D01*
X1099047D01*
Y3559867D01*
X1100512D01*
Y3558402D01*
X1101977D01*
Y3555472D01*
X1103442D01*
Y3554007D01*
X1104907D01*
Y3551076D01*
X1106372D01*
Y3549611D01*
X1107837D01*
Y3546681D01*
X1109302D01*
Y3545216D01*
X1110767D01*
Y3542286D01*
X1112232D01*
Y3540821D01*
X1113698D01*
Y3537890D01*
X1115163D01*
Y3534960D01*
X1116628D01*
Y3533495D01*
X1118093D01*
Y3530565D01*
X1119558D01*
Y3527635D01*
X1121023D01*
Y3524704D01*
X1122488D01*
Y3521774D01*
X1123953D01*
Y3518844D01*
X1125419D01*
Y3515914D01*
X1126884D01*
Y3512983D01*
X1128349D01*
Y3510053D01*
X1129814D01*
Y3505658D01*
X1131279D01*
Y3502728D01*
X1132744D01*
Y3499797D01*
X1134209D01*
Y3495402D01*
X1135674D01*
Y3491007D01*
X1137139D01*
Y3486611D01*
X1138605D01*
Y3482216D01*
X1140070D01*
Y3477821D01*
X1141535D01*
Y3471960D01*
X1143000D01*
Y3466100D01*
X1144465D01*
X1145930D01*
Y3653634D01*
X1144465D01*
Y3655099D01*
X1145930D01*
X1147395D01*
X1148860D01*
X1150325D01*
X1151791D01*
X1153256D01*
X1154721D01*
X1156186D01*
X1157651D01*
X1159116D01*
X1160581D01*
X1162046D01*
X1163512D01*
X1164977D01*
X1166442D01*
X1167907D01*
X1169372D01*
X1170837D01*
X1172302D01*
X1173767D01*
X1175233D01*
X1176698D01*
X1178163D01*
X1179628D01*
X1181093D01*
X1182558D01*
X1184023D01*
X1185488D01*
X1186953D01*
X1188419D01*
X1189884D01*
X1191349D01*
X1192814D01*
X1194279D01*
X1195744D01*
X1197209D01*
X1198674D01*
X1200139D01*
X1201604D01*
X1203070D01*
X1204535D01*
X1206000D01*
X1207465D01*
X1208930D01*
X1210395D01*
X1211860D01*
X1213325D01*
X1214791D01*
X1216256D01*
X1217721D01*
X1219186D01*
X1220651D01*
X1222116D01*
X1223581D01*
X1225046D01*
X1226511D01*
X1227976D01*
X1229442D01*
X1230907D01*
X1232372D01*
X1233837D01*
X1235302D01*
X1236767D01*
Y3447053D01*
X1238232D01*
X1239698D01*
X1241163D01*
Y3451449D01*
X1242628D01*
Y3457309D01*
X1244093D01*
Y3464635D01*
X1245558D01*
Y3470495D01*
X1247023D01*
Y3474890D01*
X1248488D01*
Y3480751D01*
X1249953D01*
Y3485146D01*
X1251418D01*
Y3489541D01*
X1252883D01*
Y3493937D01*
X1254349D01*
Y3496867D01*
X1255814D01*
Y3501262D01*
X1257279D01*
Y3504193D01*
X1258744D01*
Y3508588D01*
X1260209D01*
Y3511518D01*
X1261674D01*
Y3514448D01*
X1263139D01*
Y3517379D01*
X1264605D01*
Y3520309D01*
X1266070D01*
Y3523239D01*
X1267535D01*
Y3526169D01*
X1269000D01*
Y3529100D01*
X1270465D01*
Y3532030D01*
X1271930D01*
Y3534960D01*
X1273395D01*
Y3536425D01*
X1274860D01*
Y3539355D01*
X1276325D01*
Y3542286D01*
X1277790D01*
Y3543751D01*
X1279256D01*
Y3546681D01*
X1280721D01*
Y3548146D01*
X1282186D01*
Y3551076D01*
X1283651D01*
Y3552542D01*
X1285116D01*
Y3555472D01*
X1286581D01*
Y3556937D01*
X1288046D01*
Y3558402D01*
X1289511D01*
Y3561332D01*
X1290977D01*
Y3562797D01*
X1292442D01*
Y3564262D01*
X1293907D01*
Y3567193D01*
X1295372D01*
Y3568658D01*
X1296837D01*
Y3570123D01*
X1298302D01*
Y3571588D01*
X1299767D01*
Y3573053D01*
X1301232D01*
Y3575983D01*
X1302697D01*
Y3577449D01*
X1304162D01*
Y3578914D01*
X1305628D01*
Y3580379D01*
X1307093D01*
Y3581844D01*
X1308558D01*
Y3583309D01*
X1310023D01*
Y3584774D01*
X1311488D01*
Y3586239D01*
X1312953D01*
Y3587704D01*
X1314418D01*
Y3589169D01*
X1315883D01*
Y3590634D01*
X1317348D01*
Y3592099D01*
X1318814D01*
Y3593565D01*
X1320279D01*
Y3595030D01*
X1321744D01*
Y3596495D01*
X1323209D01*
Y3597960D01*
X1324674D01*
Y3599425D01*
X1326139D01*
Y3600890D01*
X1327604D01*
Y3602355D01*
X1329069D01*
X1330535D01*
Y3603820D01*
X1332000D01*
Y3605286D01*
X1333465D01*
Y3606751D01*
X1334930D01*
Y3608216D01*
X1336395D01*
Y3609681D01*
X1337860D01*
X1339325D01*
Y3611146D01*
X1340790D01*
Y3612611D01*
X1342255D01*
Y3614076D01*
X1343720D01*
X1345186D01*
Y3615541D01*
X1346651D01*
Y3617006D01*
X1348116D01*
Y3618472D01*
X1349581D01*
X1351046D01*
Y3619937D01*
X1352511D01*
Y3621402D01*
X1353976D01*
X1355442D01*
Y3622867D01*
X1356907D01*
Y3624332D01*
X1358372D01*
X1359837D01*
Y3625797D01*
X1361302D01*
Y3627262D01*
X1362767D01*
X1364232D01*
Y3628728D01*
X1365697D01*
X1367162D01*
Y3630193D01*
X1368628D01*
Y3631658D01*
X1370093D01*
X1371558D01*
Y3633123D01*
X1373023D01*
X1374488D01*
Y3634588D01*
X1375953D01*
X1377418D01*
Y3636053D01*
X1378883D01*
X1380349D01*
Y3637518D01*
X1381814D01*
X1383279D01*
Y3638983D01*
X1384744D01*
X1386209D01*
Y3640448D01*
X1387674D01*
X1389139D01*
Y3641913D01*
X1390604D01*
X1392069D01*
Y3643379D01*
X1393534D01*
X1394999D01*
Y3644844D01*
X1396465D01*
X1397930D01*
Y3646309D01*
X1399395D01*
X1400860D01*
X1402325D01*
Y3647774D01*
X1403790D01*
X1405256D01*
Y3649239D01*
X1406721D01*
X1408186D01*
X1409651D01*
Y3650704D01*
X1411116D01*
X1412581D01*
X1414046D01*
Y3652169D01*
X1415511D01*
X1416976D01*
X1418441D01*
Y3653634D01*
X1419906D01*
X1421372D01*
X1422837D01*
Y3655099D01*
X1424302D01*
X1425767D01*
X1427232D01*
Y3656565D01*
X1428697D01*
X1430162D01*
X1431627D01*
X1433093D01*
Y3658030D01*
X1434558D01*
X1436023D01*
X1437488D01*
Y3659495D01*
X1438953D01*
X1440418D01*
X1441883D01*
X1443348D01*
X1444813D01*
Y3660960D01*
X1446279D01*
X1447744D01*
X1449209D01*
X1450674D01*
X1452139D01*
Y3662425D01*
X1453604D01*
X1455069D01*
X1456535D01*
X1458000D01*
X1459465D01*
X1460930D01*
Y3663890D01*
X1462395D01*
X1463860D01*
X1465325D01*
X1466790D01*
X1468255D01*
X1469720D01*
X1471186D01*
Y3665355D01*
X1472651D01*
X1474116D01*
X1475581D01*
X1477046D01*
X1478511D01*
X1479976D01*
X1481441D01*
X1482906D01*
X1484372D01*
X1485837D01*
X1487302D01*
X1488767D01*
X1490232D01*
X1491697D01*
X1493162D01*
X1494627D01*
Y3666820D01*
X1496093D01*
X1497558D01*
X1499023D01*
X1500488D01*
Y3573053D01*
X1499023D01*
X1497558D01*
X1496093D01*
X1494627D01*
X1493162D01*
X1491697D01*
X1490232D01*
X1488767D01*
X1487302D01*
X1485837D01*
X1484372D01*
Y3571588D01*
X1482906D01*
X1481441D01*
X1479976D01*
X1478511D01*
X1477046D01*
X1475581D01*
X1474116D01*
X1472651D01*
Y3570123D01*
X1471186D01*
X1469720D01*
X1468255D01*
X1466790D01*
X1465325D01*
Y3568658D01*
X1463860D01*
X1462395D01*
X1460930D01*
X1459465D01*
Y3567193D01*
X1458000D01*
X1456535D01*
X1455069D01*
X1453604D01*
Y3565727D01*
X1452139D01*
X1450674D01*
X1449209D01*
Y3564262D01*
X1447744D01*
X1446279D01*
X1444813D01*
Y3562797D01*
X1443348D01*
X1441883D01*
X1440418D01*
Y3561332D01*
X1438953D01*
X1437488D01*
X1436023D01*
Y3559867D01*
X1434558D01*
X1433093D01*
Y3558402D01*
X1431627D01*
X1430162D01*
Y3556937D01*
X1428697D01*
X1427232D01*
Y3555472D01*
X1425767D01*
X1424302D01*
Y3554007D01*
X1422837D01*
X1421372D01*
Y3552542D01*
X1419906D01*
X1418441D01*
Y3551076D01*
X1416976D01*
X1415511D01*
Y3549611D01*
X1414046D01*
X1412581D01*
Y3548146D01*
X1411116D01*
Y3546681D01*
X1409651D01*
X1408186D01*
Y3545216D01*
X1406721D01*
Y3543751D01*
X1405256D01*
X1403790D01*
Y3542286D01*
X1402325D01*
Y3540821D01*
X1400860D01*
X1399395D01*
Y3539355D01*
X1397930D01*
Y3537890D01*
X1396465D01*
Y3536425D01*
X1394999D01*
Y3534960D01*
X1393534D01*
X1392069D01*
Y3533495D01*
X1390604D01*
Y3532030D01*
X1389139D01*
Y3530565D01*
X1387674D01*
Y3529100D01*
X1386209D01*
Y3527635D01*
X1384744D01*
Y3526169D01*
X1383279D01*
Y3524704D01*
X1381814D01*
Y3523239D01*
X1380349D01*
Y3521774D01*
X1378883D01*
Y3520309D01*
X1377418D01*
Y3518844D01*
X1375953D01*
Y3517379D01*
X1374488D01*
Y3515914D01*
X1373023D01*
Y3514448D01*
X1371558D01*
Y3512983D01*
X1370093D01*
Y3511518D01*
X1368628D01*
Y3508588D01*
X1367162D01*
Y3507123D01*
X1365697D01*
Y3505658D01*
X1364232D01*
Y3504193D01*
X1362767D01*
Y3501262D01*
X1361302D01*
Y3499797D01*
X1359837D01*
Y3496867D01*
X1358372D01*
Y3495402D01*
X1356907D01*
Y3492472D01*
X1355442D01*
Y3489541D01*
X1353976D01*
Y3488076D01*
X1352511D01*
Y3485146D01*
X1351046D01*
Y3482216D01*
X1349581D01*
Y3479286D01*
X1348116D01*
Y3476356D01*
X1346651D01*
Y3473425D01*
X1345186D01*
Y3470495D01*
X1343720D01*
Y3467565D01*
X1342255D01*
Y3463170D01*
X1340790D01*
Y3458774D01*
X1339325D01*
Y3454379D01*
X1337860D01*
Y3449983D01*
X1336395D01*
Y3448518D01*
X1337860D01*
Y3447053D01*
X1339325D01*
X1340790D01*
X1342255D01*
X1343720D01*
X1345186D01*
X1346651D01*
X1348116D01*
X1349581D01*
X1351046D01*
X1352511D01*
X1353976D01*
X1355442D01*
X1356907D01*
X1358372D01*
X1359837D01*
X1361302D01*
X1362767D01*
X1364232D01*
X1365697D01*
X1367162D01*
X1368628D01*
X1370093D01*
X1371558D01*
X1373023D01*
X1374488D01*
X1375953D01*
X1377418D01*
X1378883D01*
X1380349D01*
X1381814D01*
X1383279D01*
X1384744D01*
X1386209D01*
X1387674D01*
X1389139D01*
X1390604D01*
X1392069D01*
X1393534D01*
X1394999D01*
X1396465D01*
X1397930D01*
X1399395D01*
X1400860D01*
X1402325D01*
X1403790D01*
X1405256D01*
X1406721D01*
X1408186D01*
X1409651D01*
X1411116D01*
X1412581D01*
X1414046D01*
X1415511D01*
X1416976D01*
X1418441D01*
X1419906D01*
X1421372D01*
X1422837D01*
X1424302D01*
X1425767D01*
X1427232D01*
X1428697D01*
X1430162D01*
X1431627D01*
X1433093D01*
X1434558D01*
X1436023D01*
X1437488D01*
X1438953D01*
X1440418D01*
X1441883D01*
X1443348D01*
X1444813D01*
X1446279D01*
X1447744D01*
X1449209D01*
X1450674D01*
X1452139D01*
X1453604D01*
X1455069D01*
X1456535D01*
X1458000D01*
X1459465D01*
X1460930D01*
X1462395D01*
X1463860D01*
X1465325D01*
X1466790D01*
X1468255D01*
X1469720D01*
X1471186D01*
X1472651D01*
X1474116D01*
X1475581D01*
X1477046D01*
X1478511D01*
X1479976D01*
X1481441D01*
X1482906D01*
X1484372D01*
X1485837D01*
X1487302D01*
X1488767D01*
X1490232D01*
X1491697D01*
X1493162D01*
X1494627D01*
X1496093D01*
X1497558D01*
X1499023D01*
X1500488D01*
X1501953D01*
X1503418D01*
X1504883D01*
X1506348D01*
Y3359146D01*
X1504883D01*
D02*
G37*
G36*
X1638300Y5816162D02*
X1638069D01*
X1637606D01*
X1636680Y5816394D01*
X1635523Y5816625D01*
X1634135Y5816857D01*
X1632515Y5817088D01*
X1628350Y5818014D01*
X1623722Y5819402D01*
X1618632Y5821253D01*
X1613078Y5823567D01*
X1607756Y5826575D01*
X1607525D01*
X1607062Y5827038D01*
X1606136Y5827501D01*
X1605211Y5828426D01*
X1603591Y5829352D01*
X1601971Y5830740D01*
X1599889Y5832360D01*
X1597575Y5834211D01*
X1594798Y5836294D01*
X1592021Y5838839D01*
X1588782Y5841616D01*
X1585311Y5844855D01*
X1581840Y5848326D01*
X1577906Y5852260D01*
X1573741Y5856425D01*
X1569345Y5861053D01*
X1569113Y5861284D01*
X1568419Y5861978D01*
X1567493Y5862904D01*
X1566105Y5864292D01*
X1564717Y5866143D01*
X1562866Y5867995D01*
X1558700Y5872160D01*
X1554304Y5876325D01*
X1549907Y5880490D01*
X1548056Y5882341D01*
X1545974Y5884192D01*
X1544354Y5885581D01*
X1542966Y5886506D01*
X1542503Y5886738D01*
X1541346Y5887432D01*
X1539495Y5888589D01*
X1536949Y5889746D01*
X1534173Y5890903D01*
X1530933Y5892060D01*
X1527694Y5892754D01*
X1524223Y5892985D01*
X1523991D01*
X1523760D01*
X1522603D01*
X1520520Y5892754D01*
X1518207Y5892291D01*
X1515661Y5891597D01*
X1513116Y5890671D01*
X1510571Y5889283D01*
X1508257Y5887432D01*
X1508025Y5887200D01*
X1507331Y5886506D01*
X1506405Y5885118D01*
X1505480Y5883498D01*
X1504554Y5881184D01*
X1503629Y5878639D01*
X1502935Y5875631D01*
X1502703Y5872160D01*
Y5870540D01*
X1502935Y5868689D01*
X1503397Y5866606D01*
X1504091Y5864061D01*
X1505248Y5861516D01*
X1506637Y5858970D01*
X1508488Y5856656D01*
X1508719Y5856425D01*
X1509645Y5855731D01*
X1511033Y5854805D01*
X1513116Y5853880D01*
X1515661Y5852723D01*
X1519132Y5851797D01*
X1523066Y5850871D01*
X1527694Y5850409D01*
X1524686Y5819865D01*
X1524454D01*
X1523529Y5820096D01*
X1522372D01*
X1520520Y5820559D01*
X1518438Y5820790D01*
X1516124Y5821484D01*
X1513579Y5822179D01*
X1510571Y5822873D01*
X1504786Y5825187D01*
X1498769Y5827963D01*
X1495761Y5829815D01*
X1492985Y5831897D01*
X1490671Y5834211D01*
X1488357Y5836756D01*
X1488125Y5836988D01*
X1487894Y5837451D01*
X1487431Y5838145D01*
X1486506Y5839302D01*
X1485811Y5840690D01*
X1484886Y5842541D01*
X1483729Y5844392D01*
X1482803Y5846706D01*
X1481646Y5849252D01*
X1480721Y5852028D01*
X1478870Y5858045D01*
X1477713Y5865218D01*
X1477481Y5868920D01*
X1477250Y5872854D01*
Y5875168D01*
X1477481Y5876788D01*
X1477713Y5878870D01*
X1477944Y5881184D01*
X1478407Y5883729D01*
X1478870Y5886506D01*
X1480489Y5892522D01*
X1482803Y5898539D01*
X1484192Y5901778D01*
X1485811Y5904555D01*
X1487894Y5907563D01*
X1490208Y5910108D01*
X1490439Y5910340D01*
X1490671Y5910803D01*
X1491596Y5911265D01*
X1492522Y5912191D01*
X1493679Y5913348D01*
X1495299Y5914505D01*
X1496918Y5915662D01*
X1499001Y5917050D01*
X1503629Y5919364D01*
X1508951Y5921678D01*
X1511959Y5922604D01*
X1515198Y5923066D01*
X1518669Y5923529D01*
X1522140Y5923761D01*
X1522603D01*
X1523991D01*
X1526074Y5923529D01*
X1528619Y5923298D01*
X1531859Y5922835D01*
X1535330Y5922141D01*
X1539032Y5921215D01*
X1542734Y5919827D01*
X1543197Y5919595D01*
X1544354Y5919133D01*
X1546437Y5918207D01*
X1548982Y5916819D01*
X1551990Y5915199D01*
X1555461Y5913116D01*
X1559163Y5910571D01*
X1563097Y5907563D01*
X1563328Y5907332D01*
X1564485Y5906406D01*
X1566105Y5905018D01*
X1568419Y5902935D01*
X1571196Y5900158D01*
X1574898Y5896687D01*
X1578832Y5892522D01*
X1583691Y5887432D01*
X1583922Y5887200D01*
X1584154Y5886738D01*
X1584848Y5886043D01*
X1585774Y5885118D01*
X1588088Y5882572D01*
X1590864Y5879564D01*
X1593872Y5876556D01*
X1596880Y5873548D01*
X1599426Y5870771D01*
X1600583Y5869846D01*
X1601508Y5868920D01*
X1601740Y5868689D01*
X1602203Y5868226D01*
X1603128Y5867532D01*
X1604285Y5866606D01*
X1606830Y5864524D01*
X1609839Y5862673D01*
Y5923761D01*
X1638300D01*
Y5816162D01*
D02*
G37*
G36*
Y5691672D02*
X1638069D01*
X1637606D01*
X1636680Y5691904D01*
X1635523Y5692135D01*
X1634135Y5692367D01*
X1632515Y5692598D01*
X1628350Y5693524D01*
X1623722Y5694912D01*
X1618632Y5696763D01*
X1613078Y5699077D01*
X1607756Y5702085D01*
X1607525D01*
X1607062Y5702548D01*
X1606136Y5703011D01*
X1605211Y5703936D01*
X1603591Y5704862D01*
X1601971Y5706250D01*
X1599889Y5707870D01*
X1597575Y5709721D01*
X1594798Y5711804D01*
X1592021Y5714349D01*
X1588782Y5717126D01*
X1585311Y5720365D01*
X1581840Y5723836D01*
X1577906Y5727770D01*
X1573741Y5731935D01*
X1569345Y5736563D01*
X1569113Y5736794D01*
X1568419Y5737488D01*
X1567493Y5738414D01*
X1566105Y5739802D01*
X1564717Y5741653D01*
X1562866Y5743505D01*
X1558700Y5747670D01*
X1554304Y5751835D01*
X1549907Y5756000D01*
X1548056Y5757851D01*
X1545974Y5759702D01*
X1544354Y5761091D01*
X1542966Y5762016D01*
X1542503Y5762248D01*
X1541346Y5762942D01*
X1539495Y5764099D01*
X1536949Y5765256D01*
X1534173Y5766413D01*
X1530933Y5767570D01*
X1527694Y5768264D01*
X1524223Y5768495D01*
X1523991D01*
X1523760D01*
X1522603D01*
X1520520Y5768264D01*
X1518207Y5767801D01*
X1515661Y5767107D01*
X1513116Y5766181D01*
X1510571Y5764793D01*
X1508257Y5762942D01*
X1508025Y5762710D01*
X1507331Y5762016D01*
X1506405Y5760628D01*
X1505480Y5759008D01*
X1504554Y5756694D01*
X1503629Y5754149D01*
X1502935Y5751141D01*
X1502703Y5747670D01*
Y5746050D01*
X1502935Y5744199D01*
X1503397Y5742116D01*
X1504091Y5739571D01*
X1505248Y5737026D01*
X1506637Y5734480D01*
X1508488Y5732166D01*
X1508719Y5731935D01*
X1509645Y5731241D01*
X1511033Y5730315D01*
X1513116Y5729390D01*
X1515661Y5728233D01*
X1519132Y5727307D01*
X1523066Y5726381D01*
X1527694Y5725919D01*
X1524686Y5695375D01*
X1524454D01*
X1523529Y5695606D01*
X1522372D01*
X1520520Y5696069D01*
X1518438Y5696300D01*
X1516124Y5696994D01*
X1513579Y5697689D01*
X1510571Y5698383D01*
X1504786Y5700697D01*
X1498769Y5703473D01*
X1495761Y5705325D01*
X1492985Y5707407D01*
X1490671Y5709721D01*
X1488357Y5712266D01*
X1488125Y5712498D01*
X1487894Y5712961D01*
X1487431Y5713655D01*
X1486506Y5714812D01*
X1485811Y5716200D01*
X1484886Y5718051D01*
X1483729Y5719902D01*
X1482803Y5722216D01*
X1481646Y5724762D01*
X1480721Y5727538D01*
X1478870Y5733555D01*
X1477713Y5740728D01*
X1477481Y5744430D01*
X1477250Y5748364D01*
Y5750678D01*
X1477481Y5752298D01*
X1477713Y5754380D01*
X1477944Y5756694D01*
X1478407Y5759239D01*
X1478870Y5762016D01*
X1480489Y5768032D01*
X1482803Y5774049D01*
X1484192Y5777288D01*
X1485811Y5780065D01*
X1487894Y5783073D01*
X1490208Y5785618D01*
X1490439Y5785850D01*
X1490671Y5786313D01*
X1491596Y5786775D01*
X1492522Y5787701D01*
X1493679Y5788858D01*
X1495299Y5790015D01*
X1496918Y5791172D01*
X1499001Y5792560D01*
X1503629Y5794874D01*
X1508951Y5797188D01*
X1511959Y5798114D01*
X1515198Y5798576D01*
X1518669Y5799039D01*
X1522140Y5799271D01*
X1522603D01*
X1523991D01*
X1526074Y5799039D01*
X1528619Y5798808D01*
X1531859Y5798345D01*
X1535330Y5797651D01*
X1539032Y5796725D01*
X1542734Y5795337D01*
X1543197Y5795106D01*
X1544354Y5794643D01*
X1546437Y5793717D01*
X1548982Y5792329D01*
X1551990Y5790709D01*
X1555461Y5788626D01*
X1559163Y5786081D01*
X1563097Y5783073D01*
X1563328Y5782842D01*
X1564485Y5781916D01*
X1566105Y5780528D01*
X1568419Y5778445D01*
X1571196Y5775668D01*
X1574898Y5772197D01*
X1578832Y5768032D01*
X1583691Y5762942D01*
X1583922Y5762710D01*
X1584154Y5762248D01*
X1584848Y5761553D01*
X1585774Y5760628D01*
X1588088Y5758082D01*
X1590864Y5755074D01*
X1593872Y5752066D01*
X1596880Y5749058D01*
X1599426Y5746281D01*
X1600583Y5745356D01*
X1601508Y5744430D01*
X1601740Y5744199D01*
X1602203Y5743736D01*
X1603128Y5743042D01*
X1604285Y5742116D01*
X1606830Y5740034D01*
X1609839Y5738183D01*
Y5799271D01*
X1638300D01*
Y5691672D01*
D02*
G37*
G36*
X1566799Y5674781D02*
X1570502Y5674549D01*
X1574898Y5674086D01*
X1579526Y5673624D01*
X1584617Y5673161D01*
X1589939Y5672235D01*
X1595492Y5671078D01*
X1600814Y5669921D01*
X1606136Y5668302D01*
X1611458Y5666682D01*
X1616318Y5664368D01*
X1620945Y5662054D01*
X1624879Y5659277D01*
X1625111Y5659046D01*
X1625573Y5658583D01*
X1626499Y5657889D01*
X1627424Y5656963D01*
X1628581Y5655575D01*
X1629970Y5653955D01*
X1631590Y5651873D01*
X1632978Y5649790D01*
X1634598Y5647245D01*
X1636217Y5644699D01*
X1637606Y5641691D01*
X1638763Y5638452D01*
X1639688Y5634981D01*
X1640614Y5631047D01*
X1641077Y5627113D01*
X1641308Y5622948D01*
Y5622023D01*
X1641077Y5620634D01*
Y5619015D01*
X1640845Y5617164D01*
X1640383Y5614850D01*
X1639920Y5612304D01*
X1638994Y5609528D01*
X1638069Y5606519D01*
X1636912Y5603511D01*
X1635523Y5600272D01*
X1633672Y5597264D01*
X1631821Y5594024D01*
X1629276Y5591016D01*
X1626730Y5588008D01*
X1623491Y5585231D01*
X1623259Y5585000D01*
X1622565Y5584537D01*
X1621408Y5583843D01*
X1620020Y5583149D01*
X1617937Y5581992D01*
X1615392Y5580835D01*
X1612152Y5579446D01*
X1608682Y5578289D01*
X1604516Y5576901D01*
X1599889Y5575513D01*
X1594567Y5574356D01*
X1588782Y5573430D01*
X1582303Y5572504D01*
X1575129Y5571810D01*
X1567493Y5571348D01*
X1559163Y5571116D01*
X1558932D01*
X1558700D01*
X1558006D01*
X1557081D01*
X1554767D01*
X1551759Y5571348D01*
X1548056Y5571579D01*
X1543660Y5572042D01*
X1539032Y5572504D01*
X1533941Y5572967D01*
X1528619Y5573893D01*
X1523297Y5574818D01*
X1517744Y5576207D01*
X1512422Y5577595D01*
X1507331Y5579446D01*
X1502472Y5581529D01*
X1497844Y5583843D01*
X1493910Y5586620D01*
X1493679Y5586851D01*
X1493216Y5587314D01*
X1492290Y5588008D01*
X1491365Y5589165D01*
X1489976Y5590322D01*
X1488588Y5591942D01*
X1487200Y5594024D01*
X1485580Y5596107D01*
X1483960Y5598652D01*
X1482572Y5601197D01*
X1481183Y5604205D01*
X1479795Y5607445D01*
X1478870Y5610916D01*
X1477944Y5614850D01*
X1477481Y5618783D01*
X1477250Y5622948D01*
Y5625262D01*
X1477481Y5626882D01*
X1477713Y5628733D01*
X1478175Y5631047D01*
X1478638Y5633361D01*
X1479332Y5636138D01*
X1480258Y5639146D01*
X1481415Y5641923D01*
X1482572Y5644931D01*
X1484192Y5647939D01*
X1486274Y5650947D01*
X1488357Y5653955D01*
X1490902Y5656732D01*
X1493910Y5659277D01*
X1494142Y5659509D01*
X1494836Y5659971D01*
X1495993Y5660666D01*
X1497612Y5661823D01*
X1499926Y5662980D01*
X1502703Y5664368D01*
X1505711Y5665756D01*
X1509645Y5667145D01*
X1513810Y5668533D01*
X1518669Y5670153D01*
X1523991Y5671310D01*
X1530008Y5672467D01*
X1536487Y5673624D01*
X1543428Y5674318D01*
X1551064Y5674781D01*
X1559395Y5675012D01*
X1559626D01*
X1559857D01*
X1560552D01*
X1561477D01*
X1563791D01*
X1566799Y5674781D01*
D02*
G37*
G36*
X1638300Y5442692D02*
X1638069D01*
X1637606D01*
X1636680Y5442924D01*
X1635523Y5443155D01*
X1634135Y5443387D01*
X1632515Y5443618D01*
X1628350Y5444544D01*
X1623722Y5445932D01*
X1618632Y5447783D01*
X1613078Y5450097D01*
X1607756Y5453105D01*
X1607525D01*
X1607062Y5453568D01*
X1606136Y5454031D01*
X1605211Y5454956D01*
X1603591Y5455882D01*
X1601971Y5457270D01*
X1599889Y5458890D01*
X1597575Y5460741D01*
X1594798Y5462824D01*
X1592021Y5465369D01*
X1588782Y5468146D01*
X1585311Y5471385D01*
X1581840Y5474856D01*
X1577906Y5478790D01*
X1573741Y5482955D01*
X1569345Y5487583D01*
X1569113Y5487814D01*
X1568419Y5488508D01*
X1567493Y5489434D01*
X1566105Y5490822D01*
X1564717Y5492674D01*
X1562866Y5494525D01*
X1558700Y5498690D01*
X1554304Y5502855D01*
X1549907Y5507020D01*
X1548056Y5508871D01*
X1545974Y5510722D01*
X1544354Y5512111D01*
X1542966Y5513036D01*
X1542503Y5513268D01*
X1541346Y5513962D01*
X1539495Y5515119D01*
X1536949Y5516276D01*
X1534173Y5517433D01*
X1530933Y5518590D01*
X1527694Y5519284D01*
X1524223Y5519515D01*
X1523991D01*
X1523760D01*
X1522603D01*
X1520520Y5519284D01*
X1518207Y5518821D01*
X1515661Y5518127D01*
X1513116Y5517201D01*
X1510571Y5515813D01*
X1508257Y5513962D01*
X1508025Y5513730D01*
X1507331Y5513036D01*
X1506405Y5511648D01*
X1505480Y5510028D01*
X1504554Y5507714D01*
X1503629Y5505169D01*
X1502935Y5502161D01*
X1502703Y5498690D01*
Y5497070D01*
X1502935Y5495219D01*
X1503397Y5493136D01*
X1504091Y5490591D01*
X1505248Y5488046D01*
X1506637Y5485500D01*
X1508488Y5483186D01*
X1508719Y5482955D01*
X1509645Y5482261D01*
X1511033Y5481335D01*
X1513116Y5480410D01*
X1515661Y5479253D01*
X1519132Y5478327D01*
X1523066Y5477402D01*
X1527694Y5476939D01*
X1524686Y5446395D01*
X1524454D01*
X1523529Y5446626D01*
X1522372D01*
X1520520Y5447089D01*
X1518438Y5447320D01*
X1516124Y5448015D01*
X1513579Y5448709D01*
X1510571Y5449403D01*
X1504786Y5451717D01*
X1498769Y5454494D01*
X1495761Y5456345D01*
X1492985Y5458427D01*
X1490671Y5460741D01*
X1488357Y5463287D01*
X1488125Y5463518D01*
X1487894Y5463981D01*
X1487431Y5464675D01*
X1486506Y5465832D01*
X1485811Y5467220D01*
X1484886Y5469071D01*
X1483729Y5470923D01*
X1482803Y5473236D01*
X1481646Y5475782D01*
X1480721Y5478559D01*
X1478870Y5484575D01*
X1477713Y5491748D01*
X1477481Y5495450D01*
X1477250Y5499384D01*
Y5501698D01*
X1477481Y5503318D01*
X1477713Y5505400D01*
X1477944Y5507714D01*
X1478407Y5510259D01*
X1478870Y5513036D01*
X1480489Y5519052D01*
X1482803Y5525069D01*
X1484192Y5528308D01*
X1485811Y5531085D01*
X1487894Y5534093D01*
X1490208Y5536638D01*
X1490439Y5536870D01*
X1490671Y5537333D01*
X1491596Y5537795D01*
X1492522Y5538721D01*
X1493679Y5539878D01*
X1495299Y5541035D01*
X1496918Y5542192D01*
X1499001Y5543580D01*
X1503629Y5545894D01*
X1508951Y5548208D01*
X1511959Y5549134D01*
X1515198Y5549596D01*
X1518669Y5550059D01*
X1522140Y5550291D01*
X1522603D01*
X1523991D01*
X1526074Y5550059D01*
X1528619Y5549828D01*
X1531859Y5549365D01*
X1535330Y5548671D01*
X1539032Y5547745D01*
X1542734Y5546357D01*
X1543197Y5546126D01*
X1544354Y5545663D01*
X1546437Y5544737D01*
X1548982Y5543349D01*
X1551990Y5541729D01*
X1555461Y5539647D01*
X1559163Y5537101D01*
X1563097Y5534093D01*
X1563328Y5533862D01*
X1564485Y5532936D01*
X1566105Y5531548D01*
X1568419Y5529465D01*
X1571196Y5526688D01*
X1574898Y5523218D01*
X1578832Y5519052D01*
X1583691Y5513962D01*
X1583922Y5513730D01*
X1584154Y5513268D01*
X1584848Y5512573D01*
X1585774Y5511648D01*
X1588088Y5509103D01*
X1590864Y5506094D01*
X1593872Y5503086D01*
X1596880Y5500078D01*
X1599426Y5497301D01*
X1600583Y5496376D01*
X1601508Y5495450D01*
X1601740Y5495219D01*
X1602203Y5494756D01*
X1603128Y5494062D01*
X1604285Y5493136D01*
X1606830Y5491054D01*
X1609839Y5489203D01*
Y5550291D01*
X1638300D01*
Y5442692D01*
D02*
G37*
G36*
X1641077Y5397339D02*
Y5374663D01*
X1475399Y5414231D01*
Y5437370D01*
X1641077Y5397339D01*
D02*
G37*
G36*
X1638300Y5307558D02*
X1522372D01*
X1522603Y5307327D01*
X1523066Y5306864D01*
X1523760Y5305939D01*
X1524917Y5304550D01*
X1526305Y5302930D01*
X1527694Y5301079D01*
X1529313Y5298765D01*
X1531165Y5296220D01*
X1533016Y5293443D01*
X1534867Y5290435D01*
X1536949Y5287196D01*
X1538801Y5283725D01*
X1542271Y5276320D01*
X1545511Y5267990D01*
X1517744D01*
Y5268221D01*
X1517512Y5268453D01*
X1517281Y5269147D01*
X1517050Y5270073D01*
X1515893Y5272386D01*
X1514504Y5275626D01*
X1512653Y5279560D01*
X1510108Y5283956D01*
X1506868Y5288815D01*
X1503166Y5293906D01*
X1502935Y5294137D01*
X1502703Y5294600D01*
X1502009Y5295294D01*
X1501083Y5296220D01*
X1498769Y5298765D01*
X1495761Y5301542D01*
X1492059Y5304782D01*
X1487431Y5308021D01*
X1482572Y5311029D01*
X1477250Y5313343D01*
Y5338334D01*
X1638300D01*
Y5307558D01*
D02*
G37*
G36*
Y5183068D02*
X1522372D01*
X1522603Y5182837D01*
X1523066Y5182374D01*
X1523760Y5181449D01*
X1524917Y5180060D01*
X1526305Y5178440D01*
X1527694Y5176589D01*
X1529313Y5174275D01*
X1531165Y5171730D01*
X1533016Y5168953D01*
X1534867Y5165945D01*
X1536949Y5162706D01*
X1538801Y5159235D01*
X1542271Y5151830D01*
X1545511Y5143500D01*
X1517744D01*
Y5143731D01*
X1517512Y5143963D01*
X1517281Y5144657D01*
X1517050Y5145583D01*
X1515893Y5147896D01*
X1514504Y5151136D01*
X1512653Y5155070D01*
X1510108Y5159466D01*
X1506868Y5164325D01*
X1503166Y5169416D01*
X1502935Y5169648D01*
X1502703Y5170110D01*
X1502009Y5170804D01*
X1501083Y5171730D01*
X1498769Y5174275D01*
X1495761Y5177052D01*
X1492059Y5180292D01*
X1487431Y5183531D01*
X1482572Y5186539D01*
X1477250Y5188853D01*
Y5213844D01*
X1638300D01*
Y5183068D01*
D02*
G37*
G36*
X1295400Y7180192D02*
X1266244D01*
X1162348Y7264650D01*
Y7189910D01*
X1135275D01*
Y7306996D01*
X1160497D01*
X1268327Y7219297D01*
Y7310466D01*
X1295400D01*
Y7180192D01*
D02*
G37*
G36*
Y7045058D02*
X1135275D01*
Y7163763D01*
X1162348D01*
Y7077453D01*
X1197751D01*
Y7157746D01*
X1224825D01*
Y7077453D01*
X1268327D01*
Y7166771D01*
X1295400D01*
Y7045058D01*
D02*
G37*
G36*
Y6982350D02*
X1169521Y6982118D01*
X1295400Y6950649D01*
Y6919411D01*
X1169521Y6887941D01*
X1295400D01*
Y6858091D01*
X1135275D01*
Y6906453D01*
X1244724Y6935145D01*
X1135275Y6963607D01*
Y7012200D01*
X1295400D01*
Y6982350D01*
D02*
G37*
G36*
X1219271Y6832869D02*
X1222048D01*
X1225288Y6832406D01*
X1228990Y6831944D01*
X1233386Y6831249D01*
X1237783Y6830555D01*
X1242642Y6829398D01*
X1247733Y6828010D01*
X1252824Y6826159D01*
X1257914Y6824076D01*
X1262773Y6821762D01*
X1267633Y6818754D01*
X1272261Y6815515D01*
X1276657Y6811812D01*
X1276888Y6811581D01*
X1277583Y6810887D01*
X1278740Y6809730D01*
X1280128Y6807879D01*
X1281748Y6805796D01*
X1283599Y6803251D01*
X1285450Y6800243D01*
X1287533Y6797003D01*
X1289615Y6793069D01*
X1291466Y6788904D01*
X1293317Y6784276D01*
X1294937Y6779186D01*
X1296326Y6773864D01*
X1297483Y6768079D01*
X1298177Y6762063D01*
X1298408Y6755584D01*
Y6753964D01*
X1298177Y6752113D01*
X1297945Y6749799D01*
X1297714Y6746791D01*
X1297251Y6743320D01*
X1296557Y6739386D01*
X1295631Y6735221D01*
X1294474Y6730593D01*
X1293086Y6726197D01*
X1291235Y6721337D01*
X1289152Y6716709D01*
X1286838Y6711850D01*
X1283830Y6707454D01*
X1280591Y6703057D01*
X1276657Y6698892D01*
X1276426Y6698661D01*
X1275732Y6697967D01*
X1274343Y6697041D01*
X1272723Y6695653D01*
X1270409Y6694033D01*
X1267633Y6692182D01*
X1264625Y6690331D01*
X1260922Y6688479D01*
X1256989Y6686397D01*
X1252361Y6684546D01*
X1247501Y6682695D01*
X1242179Y6681075D01*
X1236395Y6679686D01*
X1230147Y6678761D01*
X1223436Y6678067D01*
X1216495Y6677835D01*
X1216263D01*
X1215338D01*
X1214181D01*
X1212330Y6678067D01*
X1210247D01*
X1207933Y6678298D01*
X1205156Y6678529D01*
X1202148Y6678761D01*
X1195669Y6679686D01*
X1188727Y6680843D01*
X1181786Y6682695D01*
X1175307Y6685008D01*
X1175075D01*
X1174844Y6685240D01*
X1174150Y6685703D01*
X1173224Y6685934D01*
X1170910Y6687322D01*
X1167902Y6688942D01*
X1164431Y6691025D01*
X1160960Y6693570D01*
X1157026Y6696578D01*
X1153324Y6699818D01*
X1153093Y6700049D01*
X1152861Y6700280D01*
X1151704Y6701437D01*
X1149853Y6703520D01*
X1147771Y6706065D01*
X1145457Y6709073D01*
X1142911Y6712544D01*
X1140597Y6716478D01*
X1138746Y6720643D01*
Y6720875D01*
X1138515Y6721337D01*
X1138052Y6722263D01*
X1137821Y6723420D01*
X1137127Y6724808D01*
X1136664Y6726428D01*
X1136201Y6728511D01*
X1135507Y6730593D01*
X1134350Y6735684D01*
X1133193Y6741469D01*
X1132499Y6748179D01*
X1132267Y6755121D01*
Y6756741D01*
X1132499Y6758592D01*
Y6760906D01*
X1132961Y6763914D01*
X1133424Y6767385D01*
X1134118Y6771318D01*
X1135044Y6775484D01*
X1136201Y6779880D01*
X1137589Y6784508D01*
X1139440Y6789136D01*
X1141523Y6793995D01*
X1144068Y6798623D01*
X1147076Y6803251D01*
X1150547Y6807647D01*
X1154481Y6811812D01*
X1154712Y6812044D01*
X1155407Y6812738D01*
X1156795Y6813895D01*
X1158415Y6815052D01*
X1160729Y6816672D01*
X1163505Y6818523D01*
X1166745Y6820374D01*
X1170447Y6822457D01*
X1174381Y6824539D01*
X1179009Y6826390D01*
X1184099Y6828241D01*
X1189422Y6829861D01*
X1195438Y6831249D01*
X1201685Y6832175D01*
X1208396Y6832869D01*
X1215569Y6833101D01*
X1216032D01*
X1217189D01*
X1219271Y6832869D01*
D02*
G37*
G36*
X1274343Y6654002D02*
X1274806Y6653307D01*
X1275500Y6652613D01*
X1276426Y6651456D01*
X1277351Y6650299D01*
X1279665Y6647060D01*
X1282211Y6642663D01*
X1285219Y6637573D01*
X1288227Y6631788D01*
X1291004Y6624846D01*
Y6624615D01*
X1291235Y6623920D01*
X1291698Y6622995D01*
X1292160Y6621607D01*
X1292623Y6619755D01*
X1293317Y6617673D01*
X1294012Y6615359D01*
X1294706Y6612814D01*
X1296094Y6607029D01*
X1297251Y6600318D01*
X1298177Y6593376D01*
X1298408Y6585972D01*
Y6583427D01*
X1298177Y6581807D01*
Y6579493D01*
X1297945Y6576947D01*
X1297483Y6574171D01*
X1297020Y6570931D01*
X1295863Y6564221D01*
X1294012Y6556816D01*
X1291466Y6549180D01*
X1289847Y6545709D01*
X1287995Y6542007D01*
X1287764Y6541776D01*
X1287533Y6541313D01*
X1286838Y6540156D01*
X1285913Y6538999D01*
X1284987Y6537379D01*
X1283599Y6535759D01*
X1281979Y6533677D01*
X1280128Y6531594D01*
X1275963Y6526966D01*
X1270641Y6522338D01*
X1264625Y6517942D01*
X1257683Y6514008D01*
X1257451D01*
X1256757Y6513546D01*
X1255600Y6513083D01*
X1254212Y6512620D01*
X1252361Y6511926D01*
X1250278Y6511000D01*
X1247733Y6510306D01*
X1244956Y6509380D01*
X1241948Y6508455D01*
X1238477Y6507761D01*
X1231304Y6506141D01*
X1223436Y6505215D01*
X1214875Y6504753D01*
X1214643D01*
X1213718D01*
X1212330D01*
X1210710Y6504984D01*
X1208396D01*
X1205851Y6505215D01*
X1203074Y6505678D01*
X1199834Y6506141D01*
X1193124Y6507298D01*
X1185488Y6509149D01*
X1177852Y6511694D01*
X1174150Y6513314D01*
X1170447Y6515165D01*
X1170216Y6515397D01*
X1169522Y6515628D01*
X1168596Y6516322D01*
X1167208Y6517016D01*
X1165588Y6518173D01*
X1163737Y6519562D01*
X1161654Y6521182D01*
X1159340Y6522801D01*
X1157026Y6524884D01*
X1154481Y6527198D01*
X1151936Y6529743D01*
X1149390Y6532520D01*
X1147076Y6535528D01*
X1144531Y6538536D01*
X1140366Y6545709D01*
Y6545941D01*
X1139903Y6546403D01*
X1139672Y6547329D01*
X1138978Y6548486D01*
X1138515Y6550106D01*
X1137821Y6551726D01*
X1137127Y6554039D01*
X1136201Y6556353D01*
X1135507Y6558899D01*
X1134813Y6561907D01*
X1134118Y6565146D01*
X1133424Y6568386D01*
X1132499Y6575791D01*
X1132267Y6584121D01*
Y6586897D01*
X1132499Y6588980D01*
X1132730Y6591525D01*
X1132961Y6594533D01*
X1133193Y6597773D01*
X1133887Y6601244D01*
X1135275Y6608648D01*
X1137589Y6616284D01*
X1138978Y6620218D01*
X1140597Y6623920D01*
X1142449Y6627391D01*
X1144763Y6630631D01*
X1144994Y6630862D01*
X1145225Y6631325D01*
X1146151Y6632251D01*
X1147076Y6633408D01*
X1148233Y6634796D01*
X1149853Y6636184D01*
X1151704Y6637804D01*
X1153787Y6639655D01*
X1156101Y6641506D01*
X1158646Y6643358D01*
X1161423Y6645209D01*
X1164662Y6646828D01*
X1167902Y6648680D01*
X1171373Y6650068D01*
X1175307Y6651456D01*
X1179240Y6652382D01*
X1185256Y6620218D01*
X1185025D01*
X1184794Y6619987D01*
X1183405Y6619524D01*
X1181323Y6618598D01*
X1178546Y6617210D01*
X1175538Y6615590D01*
X1172530Y6613276D01*
X1169522Y6610500D01*
X1166745Y6607260D01*
X1166514Y6606797D01*
X1165588Y6605640D01*
X1164431Y6603558D01*
X1163274Y6601012D01*
X1161886Y6597542D01*
X1160960Y6593608D01*
X1160035Y6589211D01*
X1159803Y6584121D01*
Y6582038D01*
X1160035Y6580650D01*
X1160266Y6578799D01*
X1160497Y6576716D01*
X1160960Y6574402D01*
X1161423Y6571857D01*
X1163043Y6566535D01*
X1164200Y6563758D01*
X1165588Y6560981D01*
X1167208Y6558205D01*
X1168827Y6555428D01*
X1171141Y6552882D01*
X1173455Y6550337D01*
X1173687Y6550106D01*
X1174150Y6549874D01*
X1174844Y6549180D01*
X1176001Y6548486D01*
X1177389Y6547560D01*
X1179009Y6546403D01*
X1181091Y6545246D01*
X1183405Y6544321D01*
X1186182Y6543164D01*
X1189190Y6542007D01*
X1192430Y6540850D01*
X1195901Y6539924D01*
X1199834Y6539230D01*
X1204231Y6538536D01*
X1208627Y6538305D01*
X1213487Y6538073D01*
X1213718D01*
X1214643D01*
X1216263D01*
X1218114Y6538305D01*
X1220660Y6538536D01*
X1223205Y6538767D01*
X1226445Y6539230D01*
X1229684Y6539693D01*
X1236626Y6541081D01*
X1243799Y6543395D01*
X1247270Y6544784D01*
X1250510Y6546403D01*
X1253749Y6548486D01*
X1256526Y6550569D01*
X1256757Y6550800D01*
X1257220Y6551263D01*
X1257914Y6551957D01*
X1258840Y6552882D01*
X1259765Y6554271D01*
X1261154Y6555659D01*
X1262311Y6557510D01*
X1263699Y6559593D01*
X1265087Y6561907D01*
X1266244Y6564221D01*
X1268558Y6570006D01*
X1269484Y6573245D01*
X1270178Y6576485D01*
X1270641Y6580187D01*
X1270872Y6583889D01*
Y6585740D01*
X1270641Y6587592D01*
X1270409Y6590368D01*
X1269947Y6593376D01*
X1269252Y6596847D01*
X1268327Y6600550D01*
X1266939Y6604252D01*
Y6604483D01*
X1266707Y6604715D01*
X1266244Y6605872D01*
X1265319Y6607954D01*
X1264162Y6610268D01*
X1262773Y6613045D01*
X1261154Y6616053D01*
X1259303Y6619061D01*
X1257220Y6621838D01*
X1236626D01*
Y6584815D01*
X1209553D01*
Y6654464D01*
X1273880D01*
X1274343Y6654002D01*
D02*
G37*
G36*
X1295400Y6381651D02*
X1189884Y6316629D01*
X1295400D01*
Y6286779D01*
X1135275D01*
Y6318018D01*
X1243105Y6384196D01*
X1135275D01*
Y6414046D01*
X1295400D01*
Y6381651D01*
D02*
G37*
G36*
Y6234484D02*
X1259071Y6220601D01*
Y6156273D01*
X1295400Y6143084D01*
Y6108837D01*
X1135275Y6170851D01*
Y6205097D01*
X1295400Y6269425D01*
Y6234484D01*
D02*
G37*
G36*
Y6061864D02*
X1135275D01*
Y6094260D01*
X1295400D01*
Y6061864D01*
D02*
G37*
G36*
Y6000314D02*
X1169522Y6000082D01*
X1295400Y5968613D01*
Y5937374D01*
X1169522Y5905905D01*
X1295400D01*
Y5876055D01*
X1135275D01*
Y5924416D01*
X1244725Y5953109D01*
X1135275Y5981571D01*
Y6030163D01*
X1295400D01*
Y6000314D01*
D02*
G37*
G36*
Y5824223D02*
X1259071Y5810339D01*
Y5746012D01*
X1295400Y5732822D01*
Y5698576D01*
X1135275Y5760589D01*
Y5794836D01*
X1295400Y5859163D01*
Y5824223D01*
D02*
G37*
G36*
X1222048Y5687238D02*
X1223899D01*
X1226213Y5687006D01*
X1228759Y5686775D01*
X1234081Y5686312D01*
X1239634Y5685386D01*
X1245419Y5683998D01*
X1250972Y5682378D01*
X1251204D01*
X1251667Y5682147D01*
X1252592Y5681684D01*
X1253980Y5681221D01*
X1255369Y5680759D01*
X1256989Y5679833D01*
X1261154Y5677982D01*
X1265550Y5675668D01*
X1270409Y5672660D01*
X1275037Y5669189D01*
X1279434Y5665255D01*
X1279897Y5664792D01*
X1280822Y5663635D01*
X1282211Y5661784D01*
X1284062Y5659239D01*
X1286144Y5655999D01*
X1288227Y5652297D01*
X1290309Y5647669D01*
X1292160Y5642579D01*
Y5642347D01*
X1292392Y5642116D01*
Y5641422D01*
X1292623Y5640727D01*
X1293086Y5638182D01*
X1293780Y5634943D01*
X1294474Y5631009D01*
X1294937Y5626150D01*
X1295169Y5620365D01*
X1295400Y5614117D01*
Y5553492D01*
X1135275D01*
Y5617357D01*
X1135507Y5619208D01*
X1135738Y5623604D01*
X1135970Y5628463D01*
X1136664Y5633554D01*
X1137358Y5638413D01*
X1138515Y5642810D01*
Y5643041D01*
X1138746Y5643504D01*
X1138978Y5644198D01*
X1139209Y5645124D01*
X1140366Y5647901D01*
X1141986Y5651140D01*
X1144068Y5654842D01*
X1146614Y5659007D01*
X1149622Y5662941D01*
X1153324Y5666875D01*
Y5667106D01*
X1153787Y5667338D01*
X1155175Y5668495D01*
X1157489Y5670346D01*
X1160497Y5672428D01*
X1164200Y5674974D01*
X1168596Y5677519D01*
X1173687Y5680064D01*
X1179240Y5682147D01*
X1179472D01*
X1179934Y5682378D01*
X1180860Y5682610D01*
X1182017Y5683072D01*
X1183405Y5683304D01*
X1185256Y5683767D01*
X1187339Y5684229D01*
X1189653Y5684924D01*
X1192198Y5685386D01*
X1195206Y5685849D01*
X1198215Y5686312D01*
X1201685Y5686543D01*
X1208859Y5687238D01*
X1216957Y5687469D01*
X1217189D01*
X1217883D01*
X1218809D01*
X1220197D01*
X1222048Y5687238D01*
D02*
G37*
G36*
X1228296Y5416275D02*
X1295400D01*
Y5383880D01*
X1228064D01*
X1135275Y5325337D01*
Y5363055D01*
X1198677Y5400772D01*
X1135275Y5437563D01*
Y5474818D01*
X1228296Y5416275D01*
D02*
G37*
G36*
X1253055Y5314230D02*
X1255832Y5313768D01*
X1259071Y5313305D01*
X1262773Y5312379D01*
X1266476Y5310991D01*
X1270409Y5309371D01*
X1270872Y5309140D01*
X1272029Y5308446D01*
X1273880Y5307289D01*
X1276194Y5305669D01*
X1278971Y5303818D01*
X1281516Y5301272D01*
X1284293Y5298727D01*
X1286838Y5295488D01*
X1287070Y5295025D01*
X1287764Y5293868D01*
X1288921Y5292017D01*
X1290078Y5289471D01*
X1291466Y5286232D01*
X1292623Y5282529D01*
X1293780Y5278364D01*
X1294474Y5273736D01*
Y5272811D01*
X1294706Y5271885D01*
Y5269571D01*
X1294937Y5267952D01*
Y5263555D01*
X1295169Y5260778D01*
Y5253837D01*
X1295400Y5249903D01*
Y5180485D01*
X1135275D01*
Y5250828D01*
X1135507Y5254994D01*
X1135738Y5259621D01*
X1135970Y5264249D01*
X1136432Y5268646D01*
X1136895Y5272579D01*
Y5273042D01*
X1137127Y5274199D01*
X1137589Y5275819D01*
X1138283Y5278133D01*
X1139209Y5280678D01*
X1140366Y5283455D01*
X1141754Y5286463D01*
X1143606Y5289240D01*
X1143837Y5289471D01*
X1144531Y5290397D01*
X1145688Y5291785D01*
X1147076Y5293636D01*
X1149159Y5295488D01*
X1151473Y5297570D01*
X1154018Y5299653D01*
X1157026Y5301504D01*
X1157489Y5301735D01*
X1158415Y5302198D01*
X1160266Y5303124D01*
X1162580Y5304049D01*
X1165357Y5304975D01*
X1168365Y5305900D01*
X1172067Y5306363D01*
X1175769Y5306594D01*
X1176001D01*
X1176232D01*
X1177620D01*
X1179703Y5306363D01*
X1182480Y5305900D01*
X1185719Y5304975D01*
X1189190Y5304049D01*
X1192661Y5302429D01*
X1196363Y5300347D01*
X1196826Y5300115D01*
X1197983Y5299190D01*
X1199603Y5297801D01*
X1201685Y5296182D01*
X1203768Y5293868D01*
X1206313Y5291091D01*
X1208396Y5287852D01*
X1210478Y5284149D01*
Y5284381D01*
X1210710Y5284843D01*
X1210941Y5285538D01*
X1211173Y5286463D01*
X1212330Y5289240D01*
X1213949Y5292479D01*
X1215800Y5295950D01*
X1218346Y5299884D01*
X1221354Y5303355D01*
X1225056Y5306594D01*
X1225519Y5306826D01*
X1226907Y5307751D01*
X1228990Y5309140D01*
X1231767Y5310528D01*
X1235469Y5311916D01*
X1239403Y5313305D01*
X1244031Y5314230D01*
X1249121Y5314462D01*
X1249353D01*
X1249584D01*
X1250972D01*
X1253055Y5314230D01*
D02*
G37*
G36*
X1222048Y5090472D02*
X1223899D01*
X1226213Y5090241D01*
X1228759Y5090010D01*
X1234081Y5089547D01*
X1239634Y5088621D01*
X1245419Y5087233D01*
X1250972Y5085613D01*
X1251204D01*
X1251667Y5085382D01*
X1252592Y5084919D01*
X1253980Y5084456D01*
X1255369Y5083993D01*
X1256989Y5083068D01*
X1261154Y5081217D01*
X1265550Y5078903D01*
X1270409Y5075895D01*
X1275037Y5072424D01*
X1279434Y5068490D01*
X1279897Y5068027D01*
X1280822Y5066870D01*
X1282211Y5065019D01*
X1284062Y5062474D01*
X1286144Y5059234D01*
X1288227Y5055532D01*
X1290309Y5050904D01*
X1292160Y5045813D01*
Y5045582D01*
X1292392Y5045351D01*
Y5044656D01*
X1292623Y5043962D01*
X1293086Y5041417D01*
X1293780Y5038177D01*
X1294474Y5034244D01*
X1294937Y5029384D01*
X1295169Y5023600D01*
X1295400Y5017352D01*
Y4956727D01*
X1135275D01*
Y5020591D01*
X1135507Y5022443D01*
X1135738Y5026839D01*
X1135970Y5031698D01*
X1136664Y5036789D01*
X1137358Y5041648D01*
X1138515Y5046045D01*
Y5046276D01*
X1138746Y5046739D01*
X1138978Y5047433D01*
X1139209Y5048359D01*
X1140366Y5051135D01*
X1141986Y5054375D01*
X1144068Y5058077D01*
X1146614Y5062242D01*
X1149622Y5066176D01*
X1153324Y5070110D01*
Y5070341D01*
X1153787Y5070573D01*
X1155175Y5071730D01*
X1157489Y5073581D01*
X1160497Y5075663D01*
X1164200Y5078209D01*
X1168596Y5080754D01*
X1173687Y5083299D01*
X1179240Y5085382D01*
X1179472D01*
X1179934Y5085613D01*
X1180860Y5085845D01*
X1182017Y5086307D01*
X1183405Y5086539D01*
X1185256Y5087002D01*
X1187339Y5087464D01*
X1189653Y5088158D01*
X1192198Y5088621D01*
X1195206Y5089084D01*
X1198215Y5089547D01*
X1201685Y5089778D01*
X1208859Y5090472D01*
X1216957Y5090704D01*
X1217189D01*
X1217883D01*
X1218809D01*
X1220197D01*
X1222048Y5090472D01*
D02*
G37*
G36*
X1295400Y4807478D02*
X1135275D01*
Y4926183D01*
X1162348D01*
Y4839873D01*
X1197752D01*
Y4920166D01*
X1224825D01*
Y4839873D01*
X1268327D01*
Y4929191D01*
X1295400D01*
Y4807478D01*
D02*
G37*
G36*
Y4740836D02*
X1189884Y4675814D01*
X1295400D01*
Y4645965D01*
X1135275D01*
Y4677203D01*
X1243105Y4743381D01*
X1135275D01*
Y4773231D01*
X1295400D01*
Y4740836D01*
D02*
G37*
G36*
X1274343Y4615421D02*
X1274806Y4614726D01*
X1275500Y4614032D01*
X1276426Y4612875D01*
X1277351Y4611718D01*
X1279665Y4608479D01*
X1282211Y4604082D01*
X1285219Y4598992D01*
X1288227Y4593207D01*
X1291004Y4586265D01*
Y4586033D01*
X1291235Y4585339D01*
X1291698Y4584414D01*
X1292160Y4583025D01*
X1292623Y4581174D01*
X1293317Y4579092D01*
X1294012Y4576778D01*
X1294706Y4574232D01*
X1296094Y4568448D01*
X1297251Y4561737D01*
X1298177Y4554795D01*
X1298408Y4547391D01*
Y4544845D01*
X1298177Y4543226D01*
Y4540912D01*
X1297945Y4538366D01*
X1297483Y4535590D01*
X1297020Y4532350D01*
X1295863Y4525640D01*
X1294012Y4518235D01*
X1291466Y4510599D01*
X1289847Y4507128D01*
X1287995Y4503426D01*
X1287764Y4503194D01*
X1287533Y4502732D01*
X1286838Y4501575D01*
X1285913Y4500418D01*
X1284987Y4498798D01*
X1283599Y4497178D01*
X1281979Y4495096D01*
X1280128Y4493013D01*
X1275963Y4488385D01*
X1270641Y4483757D01*
X1264625Y4479361D01*
X1257683Y4475427D01*
X1257451D01*
X1256757Y4474964D01*
X1255600Y4474502D01*
X1254212Y4474039D01*
X1252361Y4473345D01*
X1250278Y4472419D01*
X1247733Y4471725D01*
X1244956Y4470799D01*
X1241948Y4469874D01*
X1238477Y4469180D01*
X1231304Y4467560D01*
X1223436Y4466634D01*
X1214875Y4466171D01*
X1214643D01*
X1213718D01*
X1212330D01*
X1210710Y4466403D01*
X1208396D01*
X1205851Y4466634D01*
X1203074Y4467097D01*
X1199834Y4467560D01*
X1193124Y4468717D01*
X1185488Y4470568D01*
X1177852Y4473113D01*
X1174150Y4474733D01*
X1170447Y4476584D01*
X1170216Y4476816D01*
X1169522Y4477047D01*
X1168596Y4477741D01*
X1167208Y4478435D01*
X1165588Y4479592D01*
X1163737Y4480981D01*
X1161654Y4482600D01*
X1159340Y4484220D01*
X1157026Y4486303D01*
X1154481Y4488617D01*
X1151936Y4491162D01*
X1149390Y4493939D01*
X1147076Y4496947D01*
X1144531Y4499955D01*
X1140366Y4507128D01*
Y4507360D01*
X1139903Y4507822D01*
X1139672Y4508748D01*
X1138978Y4509905D01*
X1138515Y4511525D01*
X1137821Y4513144D01*
X1137127Y4515458D01*
X1136201Y4517772D01*
X1135507Y4520318D01*
X1134813Y4523326D01*
X1134118Y4526565D01*
X1133424Y4529805D01*
X1132499Y4537209D01*
X1132267Y4545540D01*
Y4548316D01*
X1132499Y4550399D01*
X1132730Y4552944D01*
X1132961Y4555952D01*
X1133193Y4559192D01*
X1133887Y4562663D01*
X1135275Y4570067D01*
X1137589Y4577703D01*
X1138978Y4581637D01*
X1140597Y4585339D01*
X1142449Y4588810D01*
X1144763Y4592050D01*
X1144994Y4592281D01*
X1145225Y4592744D01*
X1146151Y4593670D01*
X1147076Y4594826D01*
X1148233Y4596215D01*
X1149853Y4597603D01*
X1151704Y4599223D01*
X1153787Y4601074D01*
X1156101Y4602925D01*
X1158646Y4604776D01*
X1161423Y4606628D01*
X1164662Y4608247D01*
X1167902Y4610098D01*
X1171373Y4611487D01*
X1175307Y4612875D01*
X1179240Y4613801D01*
X1185256Y4581637D01*
X1185025D01*
X1184794Y4581406D01*
X1183405Y4580943D01*
X1181323Y4580017D01*
X1178546Y4578629D01*
X1175538Y4577009D01*
X1172530Y4574695D01*
X1169522Y4571918D01*
X1166745Y4568679D01*
X1166514Y4568216D01*
X1165588Y4567059D01*
X1164431Y4564977D01*
X1163274Y4562431D01*
X1161886Y4558960D01*
X1160960Y4555027D01*
X1160035Y4550630D01*
X1159803Y4545540D01*
Y4543457D01*
X1160035Y4542069D01*
X1160266Y4540217D01*
X1160497Y4538135D01*
X1160960Y4535821D01*
X1161423Y4533276D01*
X1163043Y4527954D01*
X1164200Y4525177D01*
X1165588Y4522400D01*
X1167208Y4519623D01*
X1168827Y4516847D01*
X1171141Y4514301D01*
X1173455Y4511756D01*
X1173687Y4511525D01*
X1174150Y4511293D01*
X1174844Y4510599D01*
X1176001Y4509905D01*
X1177389Y4508979D01*
X1179009Y4507822D01*
X1181091Y4506665D01*
X1183405Y4505740D01*
X1186182Y4504583D01*
X1189190Y4503426D01*
X1192430Y4502269D01*
X1195901Y4501343D01*
X1199834Y4500649D01*
X1204231Y4499955D01*
X1208627Y4499724D01*
X1213487Y4499492D01*
X1213718D01*
X1214643D01*
X1216263D01*
X1218114Y4499724D01*
X1220660Y4499955D01*
X1223205Y4500186D01*
X1226445Y4500649D01*
X1229684Y4501112D01*
X1236626Y4502500D01*
X1243799Y4504814D01*
X1247270Y4506203D01*
X1250510Y4507822D01*
X1253749Y4509905D01*
X1256526Y4511987D01*
X1256757Y4512219D01*
X1257220Y4512682D01*
X1257914Y4513376D01*
X1258840Y4514301D01*
X1259765Y4515690D01*
X1261154Y4517078D01*
X1262311Y4518929D01*
X1263699Y4521012D01*
X1265087Y4523326D01*
X1266244Y4525640D01*
X1268558Y4531425D01*
X1269484Y4534664D01*
X1270178Y4537904D01*
X1270641Y4541606D01*
X1270872Y4545308D01*
Y4547159D01*
X1270641Y4549010D01*
X1270409Y4551787D01*
X1269947Y4554795D01*
X1269252Y4558266D01*
X1268327Y4561969D01*
X1266939Y4565671D01*
Y4565902D01*
X1266707Y4566134D01*
X1266244Y4567291D01*
X1265319Y4569373D01*
X1264162Y4571687D01*
X1262773Y4574464D01*
X1261154Y4577472D01*
X1259303Y4580480D01*
X1257220Y4583257D01*
X1236626D01*
Y4546234D01*
X1209553D01*
Y4615883D01*
X1273880D01*
X1274343Y4615421D01*
D02*
G37*
G36*
X1295400Y4408554D02*
X1135275D01*
Y4440949D01*
X1295400D01*
Y4408554D01*
D02*
G37*
G36*
X1252361Y4381944D02*
X1253980Y4381713D01*
X1257220Y4381250D01*
X1261385Y4380324D01*
X1265782Y4378936D01*
X1270178Y4376853D01*
X1274806Y4374308D01*
X1275037D01*
X1275269Y4373845D01*
X1276657Y4372920D01*
X1278971Y4371068D01*
X1281516Y4368755D01*
X1284524Y4365746D01*
X1287301Y4361813D01*
X1290078Y4357648D01*
X1292623Y4352557D01*
Y4352326D01*
X1292855Y4351863D01*
X1293086Y4351169D01*
X1293549Y4350012D01*
X1294012Y4348623D01*
X1294474Y4347003D01*
X1294937Y4345152D01*
X1295400Y4343070D01*
X1296094Y4340524D01*
X1296557Y4337979D01*
X1297483Y4331963D01*
X1298177Y4325252D01*
X1298408Y4317848D01*
Y4314840D01*
X1298177Y4312757D01*
X1297945Y4310212D01*
X1297714Y4307435D01*
X1297251Y4304196D01*
X1296557Y4300725D01*
X1294937Y4293089D01*
X1293780Y4289155D01*
X1292623Y4285453D01*
X1291004Y4281519D01*
X1289152Y4277817D01*
X1287070Y4274346D01*
X1284524Y4271106D01*
X1284293Y4270875D01*
X1283830Y4270412D01*
X1283136Y4269487D01*
X1281979Y4268561D01*
X1280359Y4267173D01*
X1278508Y4265784D01*
X1276426Y4264164D01*
X1274112Y4262545D01*
X1271335Y4260925D01*
X1268327Y4259305D01*
X1264856Y4257685D01*
X1261154Y4256066D01*
X1257220Y4254909D01*
X1252824Y4253520D01*
X1248196Y4252595D01*
X1243336Y4251901D01*
X1240328Y4283370D01*
X1240560D01*
X1241022Y4283602D01*
X1241948D01*
X1242874Y4283833D01*
X1245650Y4284759D01*
X1249121Y4285915D01*
X1253055Y4287304D01*
X1256989Y4289386D01*
X1260460Y4291700D01*
X1263699Y4294708D01*
X1263930Y4295171D01*
X1264856Y4296328D01*
X1266013Y4298179D01*
X1267401Y4300956D01*
X1268790Y4304427D01*
X1269947Y4308361D01*
X1270872Y4312989D01*
X1271104Y4318311D01*
Y4320856D01*
X1270641Y4323633D01*
X1270178Y4327104D01*
X1269484Y4330806D01*
X1268327Y4334740D01*
X1266707Y4338442D01*
X1264625Y4341681D01*
X1264393Y4342144D01*
X1263468Y4343070D01*
X1262079Y4344227D01*
X1260228Y4345847D01*
X1257914Y4347235D01*
X1255137Y4348623D01*
X1252361Y4349549D01*
X1249121Y4349780D01*
X1248890D01*
X1248196D01*
X1247039Y4349549D01*
X1245650Y4349317D01*
X1244262Y4348855D01*
X1242642Y4348392D01*
X1241022Y4347466D01*
X1239403Y4346309D01*
X1239171Y4346078D01*
X1238708Y4345615D01*
X1238014Y4344921D01*
X1237089Y4343764D01*
X1235932Y4342144D01*
X1234775Y4340062D01*
X1233618Y4337748D01*
X1232461Y4334740D01*
Y4334508D01*
X1231998Y4333583D01*
X1231535Y4331963D01*
X1231072Y4330806D01*
X1230841Y4329418D01*
X1230378Y4327798D01*
X1229684Y4325947D01*
X1229221Y4323864D01*
X1228527Y4321550D01*
X1227833Y4318773D01*
X1227139Y4315765D01*
X1226213Y4312526D01*
X1225288Y4308823D01*
Y4308592D01*
X1225056Y4307667D01*
X1224593Y4306278D01*
X1224131Y4304658D01*
X1223436Y4302576D01*
X1222742Y4300031D01*
X1221817Y4297485D01*
X1220891Y4294477D01*
X1218577Y4288461D01*
X1215800Y4282676D01*
X1214412Y4279668D01*
X1212792Y4277123D01*
X1211173Y4274577D01*
X1209553Y4272495D01*
X1209321Y4272263D01*
X1208859Y4271800D01*
X1208164Y4271106D01*
X1207239Y4270181D01*
X1205851Y4269024D01*
X1204231Y4267867D01*
X1202611Y4266478D01*
X1200528Y4265321D01*
X1195669Y4262545D01*
X1190116Y4260231D01*
X1187108Y4259305D01*
X1184099Y4258611D01*
X1180629Y4258148D01*
X1177158Y4257917D01*
X1176926D01*
X1176695D01*
X1176001D01*
X1175075D01*
X1172761Y4258380D01*
X1169753Y4258842D01*
X1166282Y4259537D01*
X1162348Y4260694D01*
X1158183Y4262313D01*
X1154250Y4264627D01*
X1154018D01*
X1153787Y4264859D01*
X1152399Y4266016D01*
X1150547Y4267404D01*
X1148233Y4269718D01*
X1145688Y4272495D01*
X1142911Y4275966D01*
X1140366Y4279899D01*
X1138052Y4284527D01*
Y4284759D01*
X1137821Y4285221D01*
X1137589Y4285915D01*
X1137127Y4286841D01*
X1136664Y4288229D01*
X1136201Y4289618D01*
X1135738Y4291469D01*
X1135044Y4293551D01*
X1134118Y4298179D01*
X1133193Y4303501D01*
X1132499Y4309518D01*
X1132267Y4316228D01*
Y4319005D01*
X1132499Y4321087D01*
X1132730Y4323633D01*
X1132961Y4326641D01*
X1133424Y4329649D01*
X1133887Y4333120D01*
X1135507Y4340524D01*
X1136664Y4344227D01*
X1137821Y4347929D01*
X1139440Y4351631D01*
X1141292Y4355102D01*
X1143374Y4358342D01*
X1145688Y4361350D01*
X1145919Y4361581D01*
X1146382Y4362044D01*
X1147076Y4362738D01*
X1148002Y4363664D01*
X1149390Y4364821D01*
X1151010Y4366209D01*
X1152861Y4367598D01*
X1154944Y4369217D01*
X1157489Y4370606D01*
X1160035Y4371994D01*
X1163043Y4373382D01*
X1166282Y4374539D01*
X1169522Y4375696D01*
X1173224Y4376622D01*
X1176926Y4377316D01*
X1181091Y4377548D01*
X1182248Y4345152D01*
X1182017D01*
X1181786D01*
X1180166Y4344690D01*
X1178083Y4344227D01*
X1175538Y4343301D01*
X1172530Y4342144D01*
X1169753Y4340524D01*
X1166976Y4338442D01*
X1164662Y4336128D01*
X1164431Y4335897D01*
X1163737Y4334971D01*
X1162811Y4333351D01*
X1161886Y4331037D01*
X1160960Y4328261D01*
X1160035Y4324790D01*
X1159340Y4320625D01*
X1159109Y4315765D01*
Y4313451D01*
X1159340Y4310906D01*
X1159803Y4307898D01*
X1160497Y4304427D01*
X1161654Y4300725D01*
X1163043Y4297254D01*
X1165125Y4294014D01*
X1165357Y4293783D01*
X1165819Y4293320D01*
X1166514Y4292395D01*
X1167671Y4291469D01*
X1169059Y4290543D01*
X1170910Y4289618D01*
X1172761Y4289155D01*
X1175075Y4288924D01*
X1175307D01*
X1176001D01*
X1177158Y4289155D01*
X1178315Y4289618D01*
X1179934Y4290081D01*
X1181554Y4290775D01*
X1183174Y4291932D01*
X1184794Y4293551D01*
X1185025Y4293783D01*
X1185719Y4294940D01*
X1186182Y4295634D01*
X1186645Y4296791D01*
X1187339Y4297948D01*
X1188033Y4299568D01*
X1188727Y4301419D01*
X1189653Y4303501D01*
X1190579Y4306047D01*
X1191504Y4308592D01*
X1192430Y4311832D01*
X1193355Y4315303D01*
X1194281Y4319005D01*
X1195438Y4323170D01*
Y4323401D01*
X1195669Y4324327D01*
X1195901Y4325484D01*
X1196363Y4327104D01*
X1196826Y4328955D01*
X1197520Y4331269D01*
X1198215Y4333814D01*
X1198909Y4336359D01*
X1200760Y4341913D01*
X1202611Y4347698D01*
X1204694Y4353251D01*
X1205851Y4355565D01*
X1207007Y4357879D01*
Y4358110D01*
X1207239Y4358342D01*
X1208164Y4359730D01*
X1209553Y4361813D01*
X1211404Y4364358D01*
X1213718Y4367135D01*
X1216495Y4370143D01*
X1219734Y4373151D01*
X1223436Y4375696D01*
X1223899Y4375928D01*
X1225288Y4376622D01*
X1227370Y4377779D01*
X1230378Y4378936D01*
X1234081Y4380093D01*
X1238477Y4381250D01*
X1243336Y4381944D01*
X1248890Y4382175D01*
X1249121D01*
X1249584D01*
X1250278D01*
X1251204D01*
X1252361Y4381944D01*
D02*
G37*
G36*
X1295400Y4111213D02*
X1135275D01*
Y4229918D01*
X1162348D01*
Y4143608D01*
X1197752D01*
Y4223902D01*
X1224825D01*
Y4143608D01*
X1268327D01*
Y4232926D01*
X1295400D01*
Y4111213D01*
D02*
G37*
G36*
X1222048Y4083446D02*
X1223899D01*
X1226213Y4083214D01*
X1228759Y4082983D01*
X1234081Y4082520D01*
X1239634Y4081595D01*
X1245419Y4080206D01*
X1250972Y4078586D01*
X1251204D01*
X1251667Y4078355D01*
X1252592Y4077892D01*
X1253980Y4077429D01*
X1255369Y4076967D01*
X1256989Y4076041D01*
X1261154Y4074190D01*
X1265550Y4071876D01*
X1270409Y4068868D01*
X1275037Y4065397D01*
X1279434Y4061463D01*
X1279897Y4061001D01*
X1280822Y4059844D01*
X1282211Y4057992D01*
X1284062Y4055447D01*
X1286144Y4052208D01*
X1288227Y4048505D01*
X1290309Y4043877D01*
X1292160Y4038787D01*
Y4038555D01*
X1292392Y4038324D01*
Y4037630D01*
X1292623Y4036936D01*
X1293086Y4034390D01*
X1293780Y4031151D01*
X1294474Y4027217D01*
X1294937Y4022358D01*
X1295169Y4016573D01*
X1295400Y4010325D01*
Y3949700D01*
X1135275D01*
Y4013565D01*
X1135507Y4015416D01*
X1135738Y4019812D01*
X1135970Y4024672D01*
X1136664Y4029762D01*
X1137358Y4034622D01*
X1138515Y4039018D01*
Y4039249D01*
X1138746Y4039712D01*
X1138978Y4040406D01*
X1139209Y4041332D01*
X1140366Y4044109D01*
X1141986Y4047348D01*
X1144068Y4051051D01*
X1146614Y4055216D01*
X1149622Y4059149D01*
X1153324Y4063083D01*
Y4063314D01*
X1153787Y4063546D01*
X1155175Y4064703D01*
X1157489Y4066554D01*
X1160497Y4068637D01*
X1164200Y4071182D01*
X1168596Y4073727D01*
X1173687Y4076273D01*
X1179240Y4078355D01*
X1179472D01*
X1179934Y4078586D01*
X1180860Y4078818D01*
X1182017Y4079281D01*
X1183405Y4079512D01*
X1185256Y4079975D01*
X1187339Y4080438D01*
X1189653Y4081132D01*
X1192198Y4081595D01*
X1195206Y4082057D01*
X1198215Y4082520D01*
X1201685Y4082752D01*
X1208859Y4083446D01*
X1216957Y4083677D01*
X1217189D01*
X1217883D01*
X1218809D01*
X1220197D01*
X1222048Y4083446D01*
D02*
G37*
G36*
X1016000Y7156205D02*
X974357Y7128443D01*
X974079Y7128165D01*
X973246Y7127888D01*
X972136Y7127055D01*
X970748Y7125944D01*
X969082Y7124834D01*
X966861Y7123446D01*
X962419Y7120392D01*
X957422Y7116783D01*
X952980Y7113451D01*
X948815Y7110398D01*
X947427Y7109009D01*
X946039Y7107899D01*
X945762Y7107621D01*
X945206Y7107066D01*
X944096Y7105956D01*
X942708Y7104567D01*
X941597Y7102624D01*
X940209Y7100681D01*
X939099Y7098460D01*
X937988Y7096239D01*
Y7095961D01*
X937711Y7095128D01*
X937155Y7093740D01*
X936878Y7091519D01*
X936322Y7088743D01*
X936045Y7085412D01*
X935767Y7081525D01*
Y7069032D01*
X1016000D01*
Y7030165D01*
X823886D01*
Y7116783D01*
X824163Y7119281D01*
Y7122335D01*
X824441Y7125389D01*
Y7128998D01*
X825274Y7136216D01*
X826107Y7143712D01*
X827495Y7150653D01*
X828328Y7153707D01*
X829160Y7156483D01*
Y7156760D01*
X829438Y7157038D01*
X830271Y7158704D01*
X831659Y7161202D01*
X833324Y7164534D01*
X836101Y7168143D01*
X839155Y7171752D01*
X843041Y7175361D01*
X847761Y7178693D01*
X848038D01*
X848316Y7178970D01*
X849149Y7179525D01*
X849982Y7180081D01*
X852758Y7181469D01*
X856367Y7183134D01*
X860809Y7184523D01*
X865806Y7185911D01*
X871636Y7187021D01*
X877744Y7187299D01*
X878022D01*
X878577D01*
X879965D01*
X881353Y7187021D01*
X883296D01*
X885240Y7186744D01*
X890237Y7185633D01*
X896067Y7184245D01*
X901897Y7182024D01*
X908005Y7178693D01*
X910781Y7176749D01*
X913557Y7174528D01*
X913835Y7174251D01*
X914112Y7173973D01*
X914945Y7173140D01*
X915778Y7172030D01*
X916889Y7170919D01*
X918277Y7169253D01*
X919665Y7167310D01*
X921053Y7165089D01*
X922719Y7162590D01*
X924107Y7159537D01*
X925495Y7156483D01*
X926883Y7153151D01*
X928271Y7149265D01*
X929382Y7145378D01*
X930492Y7141214D01*
X931325Y7136494D01*
Y7136772D01*
X931603Y7137049D01*
X932713Y7138715D01*
X934102Y7140936D01*
X936045Y7143712D01*
X938543Y7147044D01*
X941042Y7150375D01*
X944096Y7153984D01*
X947427Y7157038D01*
X947705Y7157316D01*
X949093Y7158704D01*
X951314Y7160369D01*
X954645Y7162868D01*
X958810Y7166200D01*
X961586Y7167865D01*
X964362Y7169809D01*
X967416Y7172030D01*
X970747Y7174251D01*
X974634Y7176749D01*
X978521Y7179248D01*
X1016000Y7202846D01*
X1016000Y7156205D01*
D02*
G37*
G36*
X924662Y6999349D02*
X927994D01*
X931881Y6998793D01*
X936322Y6998238D01*
X941597Y6997405D01*
X946872Y6996572D01*
X952702Y6995184D01*
X958810Y6993519D01*
X964918Y6991298D01*
X971025Y6988799D01*
X976855Y6986023D01*
X982685Y6982414D01*
X988238Y6978527D01*
X993513Y6974085D01*
X993790Y6973807D01*
X994623Y6972975D01*
X996011Y6971587D01*
X997677Y6969366D01*
X999620Y6966867D01*
X1001841Y6963813D01*
X1004062Y6960204D01*
X1006561Y6956317D01*
X1009059Y6951598D01*
X1011280Y6946601D01*
X1013501Y6941048D01*
X1015445Y6934940D01*
X1017110Y6928555D01*
X1018499Y6921615D01*
X1019331Y6914396D01*
X1019609Y6906623D01*
Y6904680D01*
X1019331Y6902459D01*
X1019054Y6899682D01*
X1018776Y6896073D01*
X1018221Y6891909D01*
X1017388Y6887189D01*
X1016278Y6882192D01*
X1014890Y6876640D01*
X1013224Y6871365D01*
X1011003Y6865535D01*
X1008504Y6859982D01*
X1005728Y6854152D01*
X1002119Y6848878D01*
X998232Y6843603D01*
X993513Y6838606D01*
X993235Y6838328D01*
X992402Y6837495D01*
X990736Y6836385D01*
X988793Y6834719D01*
X986017Y6832776D01*
X982685Y6830555D01*
X979076Y6828334D01*
X974634Y6826113D01*
X969915Y6823614D01*
X964362Y6821393D01*
X958532Y6819172D01*
X952147Y6817229D01*
X945206Y6815563D01*
X937711Y6814452D01*
X929660Y6813620D01*
X921331Y6813342D01*
X921053D01*
X919943D01*
X918555D01*
X916334Y6813620D01*
X913835D01*
X911059Y6813897D01*
X907727Y6814175D01*
X904118Y6814452D01*
X896345Y6815563D01*
X888016Y6816951D01*
X879688Y6819172D01*
X871914Y6821948D01*
X871637D01*
X871359Y6822226D01*
X870526Y6822781D01*
X869416Y6823059D01*
X866639Y6824724D01*
X863030Y6826668D01*
X858866Y6829166D01*
X854702Y6832220D01*
X849982Y6835829D01*
X845540Y6839716D01*
X845262Y6839994D01*
X844985Y6840271D01*
X843597Y6841659D01*
X841376Y6844158D01*
X838877Y6847212D01*
X836101Y6850821D01*
X833047Y6854985D01*
X830271Y6859705D01*
X828050Y6864702D01*
Y6864980D01*
X827772Y6865535D01*
X827217Y6866645D01*
X826939Y6868034D01*
X826107Y6869699D01*
X825551Y6871643D01*
X824996Y6874141D01*
X824163Y6876640D01*
X822775Y6882747D01*
X821387Y6889688D01*
X820554Y6897739D01*
X820276Y6906068D01*
Y6908011D01*
X820554Y6910232D01*
Y6913008D01*
X821109Y6916617D01*
X821665Y6920782D01*
X822497Y6925501D01*
X823608Y6930498D01*
X824996Y6935773D01*
X826662Y6941326D01*
X828883Y6946878D01*
X831381Y6952708D01*
X834435Y6958261D01*
X838044Y6963813D01*
X842209Y6969088D01*
X846928Y6974085D01*
X847206Y6974363D01*
X848039Y6975196D01*
X849704Y6976584D01*
X851648Y6977972D01*
X854424Y6979915D01*
X857755Y6982136D01*
X861642Y6984357D01*
X866084Y6986856D01*
X870804Y6989354D01*
X876356Y6991575D01*
X882464Y6993796D01*
X888849Y6995740D01*
X896067Y6997405D01*
X903563Y6998516D01*
X911614Y6999349D01*
X920220Y6999626D01*
X920776D01*
X922164D01*
X924662Y6999349D01*
D02*
G37*
G36*
X856367Y6739495D02*
X1016000D01*
Y6700627D01*
X856367D01*
Y6643715D01*
X823886D01*
Y6796129D01*
X856367D01*
Y6739495D01*
D02*
G37*
G36*
X1016000Y6581250D02*
X823886D01*
Y6620117D01*
X1016000D01*
Y6581250D01*
D02*
G37*
G36*
Y6502683D02*
X889404Y6424671D01*
X1016000D01*
Y6388858D01*
X823886D01*
Y6426337D01*
X953257Y6505737D01*
X823886D01*
Y6541550D01*
X1016000D01*
Y6502683D01*
D02*
G37*
G36*
X924662Y6358042D02*
X927994D01*
X931881Y6357487D01*
X936322Y6356931D01*
X941597Y6356099D01*
X946872Y6355266D01*
X952702Y6353878D01*
X958810Y6352212D01*
X964918Y6349991D01*
X971025Y6347492D01*
X976855Y6344716D01*
X982685Y6341107D01*
X988238Y6337220D01*
X993513Y6332778D01*
X993790Y6332501D01*
X994623Y6331668D01*
X996011Y6330280D01*
X997677Y6328059D01*
X999620Y6325560D01*
X1001841Y6322506D01*
X1004062Y6318897D01*
X1006561Y6315010D01*
X1009059Y6310291D01*
X1011280Y6305294D01*
X1013501Y6299741D01*
X1015445Y6293634D01*
X1017110Y6287248D01*
X1018499Y6280308D01*
X1019331Y6273090D01*
X1019609Y6265316D01*
Y6263373D01*
X1019331Y6261152D01*
X1019054Y6258376D01*
X1018776Y6254767D01*
X1018221Y6250602D01*
X1017388Y6245883D01*
X1016278Y6240885D01*
X1014890Y6235333D01*
X1013224Y6230058D01*
X1011003Y6224228D01*
X1008504Y6218676D01*
X1005728Y6212846D01*
X1002119Y6207571D01*
X998232Y6202296D01*
X993513Y6197299D01*
X993235Y6197021D01*
X992402Y6196188D01*
X990736Y6195078D01*
X988793Y6193412D01*
X986017Y6191469D01*
X982685Y6189248D01*
X979076Y6187027D01*
X974634Y6184806D01*
X969915Y6182307D01*
X964362Y6180086D01*
X958532Y6177865D01*
X952147Y6175922D01*
X945206Y6174256D01*
X937711Y6173146D01*
X929660Y6172313D01*
X921331Y6172035D01*
X921053D01*
X919943D01*
X918555D01*
X916334Y6172313D01*
X913835D01*
X911059Y6172590D01*
X907727Y6172868D01*
X904118Y6173146D01*
X896345Y6174256D01*
X888016Y6175644D01*
X879688Y6177865D01*
X871914Y6180641D01*
X871637D01*
X871359Y6180919D01*
X870526Y6181474D01*
X869416Y6181752D01*
X866639Y6183418D01*
X863030Y6185361D01*
X858866Y6187860D01*
X854702Y6190913D01*
X849982Y6194523D01*
X845540Y6198409D01*
X845262Y6198687D01*
X844985Y6198964D01*
X843597Y6200353D01*
X841376Y6202851D01*
X838877Y6205905D01*
X836101Y6209514D01*
X833047Y6213678D01*
X830271Y6218398D01*
X828050Y6223395D01*
Y6223673D01*
X827772Y6224228D01*
X827217Y6225339D01*
X826939Y6226727D01*
X826107Y6228392D01*
X825551Y6230336D01*
X824996Y6232834D01*
X824163Y6235333D01*
X822775Y6241441D01*
X821387Y6248381D01*
X820554Y6256432D01*
X820276Y6264761D01*
Y6266704D01*
X820554Y6268925D01*
Y6271701D01*
X821109Y6275311D01*
X821665Y6279475D01*
X822497Y6284194D01*
X823608Y6289192D01*
X824996Y6294466D01*
X826662Y6300019D01*
X828883Y6305571D01*
X831381Y6311401D01*
X834435Y6316954D01*
X838044Y6322506D01*
X842209Y6327781D01*
X846928Y6332778D01*
X847206Y6333056D01*
X848039Y6333889D01*
X849704Y6335277D01*
X851648Y6336665D01*
X854424Y6338608D01*
X857755Y6340829D01*
X861642Y6343050D01*
X866084Y6345549D01*
X870804Y6348048D01*
X876356Y6350268D01*
X882464Y6352489D01*
X888849Y6354433D01*
X896067Y6356099D01*
X903563Y6357209D01*
X911614Y6358042D01*
X920220Y6358320D01*
X920776D01*
X922164D01*
X924662Y6358042D01*
D02*
G37*
G36*
X1016000Y6104851D02*
X864974Y6104573D01*
X1016000Y6066816D01*
Y6029337D01*
X864974Y5991581D01*
X1016000D01*
Y5955768D01*
X823886D01*
Y6013791D01*
X955201Y6048216D01*
X823886Y6082363D01*
Y6140664D01*
X1016000D01*
Y6104851D01*
D02*
G37*
G36*
Y5813903D02*
X974357Y5786141D01*
X974079Y5785863D01*
X973246Y5785585D01*
X972136Y5784752D01*
X970748Y5783642D01*
X969082Y5782531D01*
X966861Y5781143D01*
X962419Y5778090D01*
X957422Y5774480D01*
X952980Y5771149D01*
X948815Y5768095D01*
X947427Y5766707D01*
X946039Y5765597D01*
X945762Y5765319D01*
X945206Y5764764D01*
X944096Y5763653D01*
X942708Y5762265D01*
X941597Y5760322D01*
X940209Y5758378D01*
X939099Y5756157D01*
X937988Y5753936D01*
Y5753659D01*
X937711Y5752826D01*
X937155Y5751438D01*
X936878Y5749217D01*
X936322Y5746441D01*
X936045Y5743109D01*
X935767Y5739222D01*
Y5726729D01*
X1016000D01*
Y5687862D01*
X823886D01*
Y5774480D01*
X824163Y5776979D01*
Y5780033D01*
X824441Y5783087D01*
Y5786696D01*
X825274Y5793914D01*
X826107Y5801410D01*
X827495Y5808350D01*
X828328Y5811404D01*
X829160Y5814180D01*
Y5814458D01*
X829438Y5814736D01*
X830271Y5816401D01*
X831659Y5818900D01*
X833325Y5822231D01*
X836101Y5825841D01*
X839155Y5829450D01*
X843041Y5833059D01*
X847761Y5836390D01*
X848039D01*
X848316Y5836668D01*
X849149Y5837223D01*
X849982Y5837778D01*
X852758Y5839166D01*
X856367Y5840832D01*
X860809Y5842220D01*
X865806Y5843608D01*
X871637Y5844719D01*
X877744Y5844996D01*
X878022D01*
X878577D01*
X879965D01*
X881353Y5844719D01*
X883297D01*
X885240Y5844441D01*
X890237Y5843331D01*
X896067Y5841943D01*
X901897Y5839722D01*
X908005Y5836390D01*
X910781Y5834447D01*
X913557Y5832226D01*
X913835Y5831948D01*
X914113Y5831671D01*
X914946Y5830838D01*
X915778Y5829727D01*
X916889Y5828617D01*
X918277Y5826951D01*
X919665Y5825008D01*
X921053Y5822787D01*
X922719Y5820288D01*
X924107Y5817234D01*
X925495Y5814180D01*
X926883Y5810849D01*
X928271Y5806962D01*
X929382Y5803076D01*
X930492Y5798911D01*
X931325Y5794192D01*
Y5794469D01*
X931603Y5794747D01*
X932713Y5796413D01*
X934102Y5798634D01*
X936045Y5801410D01*
X938543Y5804741D01*
X941042Y5808073D01*
X944096Y5811682D01*
X947427Y5814736D01*
X947705Y5815013D01*
X949093Y5816401D01*
X951314Y5818067D01*
X954646Y5820566D01*
X958810Y5823897D01*
X961586Y5825563D01*
X964362Y5827506D01*
X967416Y5829727D01*
X970748Y5831948D01*
X974634Y5834447D01*
X978521Y5836945D01*
X1016000Y5860543D01*
Y5813903D01*
D02*
G37*
G36*
Y5508796D02*
X823886D01*
Y5651216D01*
X856367D01*
Y5547663D01*
X898844D01*
Y5643998D01*
X931325D01*
Y5547663D01*
X983518D01*
Y5654825D01*
X1016000D01*
Y5508796D01*
D02*
G37*
G36*
X856367Y5426898D02*
X1016000D01*
Y5388031D01*
X856367D01*
Y5331118D01*
X823886D01*
Y5483533D01*
X856367D01*
Y5426898D01*
D02*
G37*
G36*
X1016000Y5181480D02*
X825274D01*
Y5220347D01*
X983518D01*
Y5316959D01*
X1016000D01*
Y5181480D01*
D02*
G37*
G36*
X924662Y5149831D02*
X927994D01*
X931881Y5149276D01*
X936322Y5148720D01*
X941597Y5147888D01*
X946872Y5147055D01*
X952702Y5145667D01*
X958810Y5144001D01*
X964918Y5141780D01*
X971025Y5139281D01*
X976855Y5136505D01*
X982685Y5132896D01*
X988238Y5129009D01*
X993513Y5124567D01*
X993790Y5124290D01*
X994623Y5123457D01*
X996011Y5122069D01*
X997677Y5119848D01*
X999620Y5117349D01*
X1001841Y5114295D01*
X1004062Y5110686D01*
X1006561Y5106800D01*
X1009059Y5102080D01*
X1011280Y5097083D01*
X1013501Y5091530D01*
X1015445Y5085423D01*
X1017110Y5079037D01*
X1018499Y5072097D01*
X1019331Y5064879D01*
X1019609Y5057105D01*
Y5055162D01*
X1019331Y5052941D01*
X1019054Y5050165D01*
X1018776Y5046556D01*
X1018221Y5042391D01*
X1017388Y5037672D01*
X1016278Y5032674D01*
X1014890Y5027122D01*
X1013224Y5021847D01*
X1011003Y5016017D01*
X1008504Y5010465D01*
X1005728Y5004635D01*
X1002119Y4999360D01*
X998232Y4994085D01*
X993513Y4989088D01*
X993235Y4988810D01*
X992402Y4987977D01*
X990736Y4986867D01*
X988793Y4985201D01*
X986017Y4983258D01*
X982685Y4981037D01*
X979076Y4978816D01*
X974634Y4976595D01*
X969915Y4974096D01*
X964362Y4971875D01*
X958532Y4969654D01*
X952147Y4967711D01*
X945206Y4966045D01*
X937711Y4964935D01*
X929660Y4964102D01*
X921331Y4963824D01*
X921053D01*
X919943D01*
X918555D01*
X916334Y4964102D01*
X913835D01*
X911059Y4964379D01*
X907727Y4964657D01*
X904118Y4964935D01*
X896345Y4966045D01*
X888016Y4967433D01*
X879688Y4969654D01*
X871914Y4972430D01*
X871637D01*
X871359Y4972708D01*
X870526Y4973263D01*
X869416Y4973541D01*
X866639Y4975207D01*
X863030Y4977150D01*
X858866Y4979649D01*
X854702Y4982703D01*
X849982Y4986312D01*
X845540Y4990198D01*
X845262Y4990476D01*
X844985Y4990754D01*
X843597Y4992142D01*
X841376Y4994640D01*
X838877Y4997694D01*
X836101Y5001303D01*
X833047Y5005468D01*
X830271Y5010187D01*
X828050Y5015184D01*
Y5015462D01*
X827772Y5016017D01*
X827217Y5017128D01*
X826939Y5018516D01*
X826107Y5020181D01*
X825551Y5022125D01*
X824996Y5024623D01*
X824163Y5027122D01*
X822775Y5033230D01*
X821387Y5040170D01*
X820554Y5048221D01*
X820276Y5056550D01*
Y5058493D01*
X820554Y5060714D01*
Y5063491D01*
X821109Y5067100D01*
X821665Y5071264D01*
X822497Y5075983D01*
X823608Y5080981D01*
X824996Y5086256D01*
X826662Y5091808D01*
X828883Y5097360D01*
X831381Y5103190D01*
X834435Y5108743D01*
X838044Y5114295D01*
X842209Y5119570D01*
X846928Y5124567D01*
X847206Y5124845D01*
X848039Y5125678D01*
X849704Y5127066D01*
X851648Y5128454D01*
X854424Y5130397D01*
X857755Y5132618D01*
X861642Y5134839D01*
X866084Y5137338D01*
X870804Y5139837D01*
X876356Y5142058D01*
X882464Y5144279D01*
X888849Y5146222D01*
X896067Y5147888D01*
X903563Y5148998D01*
X911614Y5149831D01*
X920220Y5150109D01*
X920776D01*
X922164D01*
X924662Y5149831D01*
D02*
G37*
G36*
X1016000Y4892753D02*
X931881D01*
Y4816962D01*
X1016000D01*
Y4778095D01*
X823886D01*
Y4816962D01*
X899399D01*
Y4892753D01*
X823886D01*
Y4931620D01*
X1016000D01*
Y4892753D01*
D02*
G37*
G36*
X856367Y4621516D02*
X1016000D01*
Y4582649D01*
X856367D01*
Y4525737D01*
X823886D01*
Y4678151D01*
X856367D01*
Y4621516D01*
D02*
G37*
G36*
X924662Y4508524D02*
X927994D01*
X931881Y4507969D01*
X936322Y4507414D01*
X941597Y4506581D01*
X946872Y4505748D01*
X952702Y4504360D01*
X958810Y4502694D01*
X964918Y4500473D01*
X971025Y4497974D01*
X976855Y4495198D01*
X982685Y4491589D01*
X988238Y4487702D01*
X993513Y4483261D01*
X993790Y4482983D01*
X994623Y4482150D01*
X996011Y4480762D01*
X997677Y4478541D01*
X999620Y4476042D01*
X1001841Y4472989D01*
X1004062Y4469379D01*
X1006561Y4465493D01*
X1009059Y4460773D01*
X1011280Y4455776D01*
X1013501Y4450224D01*
X1015445Y4444116D01*
X1017110Y4437731D01*
X1018499Y4430790D01*
X1019331Y4423572D01*
X1019609Y4415798D01*
Y4413855D01*
X1019331Y4411634D01*
X1019054Y4408858D01*
X1018776Y4405249D01*
X1018221Y4401084D01*
X1017388Y4396365D01*
X1016278Y4391368D01*
X1014890Y4385815D01*
X1013224Y4380540D01*
X1011003Y4374710D01*
X1008504Y4369158D01*
X1005728Y4363328D01*
X1002119Y4358053D01*
X998232Y4352778D01*
X993513Y4347781D01*
X993235Y4347503D01*
X992402Y4346671D01*
X990736Y4345560D01*
X988793Y4343894D01*
X986017Y4341951D01*
X982685Y4339730D01*
X979076Y4337509D01*
X974634Y4335288D01*
X969915Y4332789D01*
X964362Y4330568D01*
X958532Y4328347D01*
X952147Y4326404D01*
X945206Y4324738D01*
X937711Y4323628D01*
X929660Y4322795D01*
X921331Y4322517D01*
X921053D01*
X919943D01*
X918555D01*
X916334Y4322795D01*
X913835D01*
X911059Y4323073D01*
X907727Y4323350D01*
X904118Y4323628D01*
X896345Y4324738D01*
X888016Y4326126D01*
X879688Y4328347D01*
X871914Y4331124D01*
X871637D01*
X871359Y4331401D01*
X870526Y4331957D01*
X869416Y4332234D01*
X866639Y4333900D01*
X863030Y4335843D01*
X858866Y4338342D01*
X854702Y4341396D01*
X849982Y4345005D01*
X845540Y4348891D01*
X845262Y4349169D01*
X844985Y4349447D01*
X843597Y4350835D01*
X841376Y4353333D01*
X838877Y4356387D01*
X836101Y4359996D01*
X833047Y4364161D01*
X830271Y4368880D01*
X828050Y4373877D01*
Y4374155D01*
X827772Y4374710D01*
X827217Y4375821D01*
X826939Y4377209D01*
X826107Y4378875D01*
X825551Y4380818D01*
X824996Y4383317D01*
X824163Y4385815D01*
X822775Y4391923D01*
X821387Y4398863D01*
X820554Y4406914D01*
X820276Y4415243D01*
Y4417186D01*
X820554Y4419407D01*
Y4422184D01*
X821109Y4425793D01*
X821665Y4429957D01*
X822497Y4434677D01*
X823608Y4439674D01*
X824996Y4444949D01*
X826662Y4450501D01*
X828883Y4456054D01*
X831381Y4461884D01*
X834435Y4467436D01*
X838044Y4472989D01*
X842209Y4478263D01*
X846928Y4483261D01*
X847206Y4483538D01*
X848039Y4484371D01*
X849704Y4485759D01*
X851648Y4487147D01*
X854424Y4489091D01*
X857755Y4491312D01*
X861642Y4493533D01*
X866084Y4496031D01*
X870804Y4498530D01*
X876356Y4500751D01*
X882464Y4502972D01*
X888849Y4504915D01*
X896067Y4506581D01*
X903563Y4507691D01*
X911614Y4508524D01*
X920220Y4508802D01*
X920776D01*
X922164D01*
X924662Y4508524D01*
D02*
G37*
G36*
X1016000Y4254500D02*
X823886D01*
Y4293367D01*
X1016000D01*
Y4254500D01*
D02*
G37*
%LPC*%
G36*
X1564485Y5642617D02*
X1559395D01*
X1559163D01*
X1558238D01*
X1556618D01*
X1554767D01*
X1552453D01*
X1549907Y5642385D01*
X1546899D01*
X1543891Y5642154D01*
X1537412Y5641923D01*
X1531165Y5641460D01*
X1528156Y5640997D01*
X1525148Y5640534D01*
X1522603Y5640072D01*
X1520520Y5639609D01*
X1520289D01*
X1520058Y5639377D01*
X1518901Y5639146D01*
X1517050Y5638452D01*
X1514736Y5637758D01*
X1512422Y5636601D01*
X1510108Y5635444D01*
X1508025Y5634055D01*
X1506405Y5632667D01*
X1506174Y5632436D01*
X1505711Y5631973D01*
X1505248Y5631047D01*
X1504554Y5629890D01*
X1503860Y5628502D01*
X1503166Y5626882D01*
X1502935Y5625031D01*
X1502703Y5622948D01*
Y5622023D01*
X1502935Y5620866D01*
X1503166Y5619709D01*
X1503629Y5618089D01*
X1504323Y5616469D01*
X1505248Y5614618D01*
X1506405Y5612998D01*
X1506637Y5612767D01*
X1507100Y5612304D01*
X1508025Y5611610D01*
X1509182Y5610684D01*
X1511033Y5609528D01*
X1513116Y5608602D01*
X1515893Y5607445D01*
X1519132Y5606519D01*
X1519363D01*
X1519595Y5606288D01*
X1520520D01*
X1521446Y5606057D01*
X1522834Y5605825D01*
X1524454Y5605594D01*
X1526305Y5605362D01*
X1528619Y5605131D01*
X1531396Y5604668D01*
X1534173Y5604437D01*
X1537644Y5604205D01*
X1541115Y5603974D01*
X1545280Y5603743D01*
X1549445D01*
X1554304Y5603511D01*
X1559395D01*
X1559626D01*
X1560552D01*
X1562171D01*
X1564023D01*
X1566336D01*
X1568882Y5603743D01*
X1571890D01*
X1574898Y5603974D01*
X1581377Y5604205D01*
X1587856Y5604668D01*
X1590864Y5604900D01*
X1593641Y5605362D01*
X1596186Y5605825D01*
X1598500Y5606288D01*
X1598963Y5606519D01*
X1600120Y5606751D01*
X1601971Y5607445D01*
X1604054Y5608139D01*
X1606368Y5609296D01*
X1608682Y5610453D01*
X1610764Y5611841D01*
X1612384Y5613230D01*
X1612615Y5613461D01*
X1612847Y5613924D01*
X1613541Y5614850D01*
X1614004Y5616007D01*
X1614698Y5617395D01*
X1615392Y5619015D01*
X1615623Y5620866D01*
X1615855Y5622948D01*
Y5623874D01*
X1615623Y5625031D01*
X1615392Y5626188D01*
X1614929Y5627808D01*
X1614466Y5629427D01*
X1613541Y5631047D01*
X1612384Y5632667D01*
X1612152Y5632898D01*
X1611690Y5633361D01*
X1610764Y5634287D01*
X1609376Y5635212D01*
X1607756Y5636138D01*
X1605442Y5637295D01*
X1602897Y5638452D01*
X1599657Y5639377D01*
X1599426D01*
X1599194Y5639609D01*
X1598269D01*
X1597343Y5639840D01*
X1595955Y5640072D01*
X1594335Y5640303D01*
X1592484Y5640766D01*
X1590170Y5640997D01*
X1587625Y5641228D01*
X1584617Y5641691D01*
X1581377Y5641923D01*
X1577675Y5642154D01*
X1573741Y5642385D01*
X1569345D01*
X1564485Y5642617D01*
D02*
G37*
G36*
X1214875Y6799780D02*
X1214643D01*
X1213718D01*
X1212330D01*
X1210247Y6799549D01*
X1207933Y6799317D01*
X1205388Y6799086D01*
X1202380Y6798854D01*
X1199371Y6798160D01*
X1192661Y6796772D01*
X1185719Y6794689D01*
X1182248Y6793301D01*
X1179240Y6791681D01*
X1176232Y6789599D01*
X1173455Y6787516D01*
X1173224Y6787285D01*
X1172761Y6787053D01*
X1172298Y6786359D01*
X1171373Y6785433D01*
X1170216Y6784045D01*
X1169059Y6782657D01*
X1167902Y6781037D01*
X1166514Y6778954D01*
X1165357Y6776872D01*
X1164200Y6774327D01*
X1161886Y6769004D01*
X1160960Y6765996D01*
X1160497Y6762757D01*
X1160035Y6759286D01*
X1159803Y6755584D01*
Y6753732D01*
X1160035Y6752344D01*
X1160266Y6750493D01*
X1160497Y6748642D01*
X1161423Y6744014D01*
X1163274Y6738923D01*
X1164200Y6736147D01*
X1165588Y6733370D01*
X1167208Y6730824D01*
X1169059Y6728048D01*
X1171141Y6725502D01*
X1173687Y6723188D01*
X1173918Y6722957D01*
X1174381Y6722726D01*
X1175075Y6722032D01*
X1176232Y6721337D01*
X1177852Y6720412D01*
X1179472Y6719486D01*
X1181554Y6718329D01*
X1184099Y6717172D01*
X1186876Y6716015D01*
X1189884Y6714858D01*
X1193355Y6713933D01*
X1197058Y6713007D01*
X1201223Y6712313D01*
X1205619Y6711619D01*
X1210247Y6711387D01*
X1215338Y6711156D01*
X1215569D01*
X1216495D01*
X1217883D01*
X1219734Y6711387D01*
X1222048Y6711619D01*
X1224825Y6711850D01*
X1227602Y6712313D01*
X1230841Y6712776D01*
X1237552Y6714164D01*
X1244262Y6716478D01*
X1247733Y6717866D01*
X1250972Y6719486D01*
X1253980Y6721569D01*
X1256757Y6723651D01*
X1256989Y6723883D01*
X1257451Y6724345D01*
X1258146Y6725040D01*
X1258840Y6725965D01*
X1259997Y6727122D01*
X1261154Y6728742D01*
X1262542Y6730362D01*
X1263699Y6732444D01*
X1266476Y6736841D01*
X1268558Y6742394D01*
X1269484Y6745402D01*
X1270178Y6748642D01*
X1270641Y6752113D01*
X1270872Y6755584D01*
Y6757435D01*
X1270641Y6758823D01*
X1270409Y6760443D01*
X1270178Y6762294D01*
X1269021Y6766691D01*
X1267401Y6771781D01*
X1266244Y6774327D01*
X1265087Y6777103D01*
X1263468Y6779649D01*
X1261616Y6782425D01*
X1259534Y6784971D01*
X1256989Y6787285D01*
X1256757Y6787516D01*
X1256294Y6787747D01*
X1255600Y6788442D01*
X1254443Y6789136D01*
X1252824Y6790293D01*
X1250972Y6791218D01*
X1248890Y6792375D01*
X1246344Y6793532D01*
X1243568Y6794689D01*
X1240560Y6795846D01*
X1237089Y6797003D01*
X1233155Y6797929D01*
X1229221Y6798623D01*
X1224825Y6799317D01*
X1219966Y6799549D01*
X1214875Y6799780D01*
D02*
G37*
G36*
X1231998Y6210188D02*
X1172530Y6187743D01*
X1231998Y6165992D01*
Y6210188D01*
D02*
G37*
G36*
Y5799926D02*
X1172530Y5777481D01*
X1231998Y5755730D01*
Y5799926D01*
D02*
G37*
G36*
X1215569Y5654148D02*
X1215338D01*
X1214643D01*
X1213718D01*
X1212561D01*
X1210941D01*
X1209090Y5653917D01*
X1205156Y5653685D01*
X1200528Y5653223D01*
X1195669Y5652760D01*
X1191273Y5651834D01*
X1187108Y5650677D01*
X1186876D01*
X1186645Y5650446D01*
X1185488Y5649983D01*
X1183637Y5649289D01*
X1181323Y5648363D01*
X1179009Y5646975D01*
X1176463Y5645355D01*
X1173918Y5643504D01*
X1171604Y5641422D01*
X1171373Y5641190D01*
X1170679Y5640496D01*
X1169753Y5639108D01*
X1168596Y5637488D01*
X1167208Y5635174D01*
X1166051Y5632629D01*
X1164894Y5629852D01*
X1163968Y5626612D01*
Y5626381D01*
X1163737Y5625224D01*
X1163505Y5623373D01*
X1163043Y5620827D01*
Y5619208D01*
X1162811Y5617125D01*
Y5615043D01*
X1162580Y5612729D01*
Y5609952D01*
X1162348Y5606944D01*
Y5585887D01*
X1268327D01*
Y5614348D01*
X1268096Y5617357D01*
Y5620596D01*
X1267633Y5623836D01*
X1267401Y5626844D01*
X1266939Y5629389D01*
Y5629852D01*
X1266476Y5630777D01*
X1266013Y5632166D01*
X1265319Y5634017D01*
X1264393Y5636099D01*
X1263236Y5638182D01*
X1261848Y5640265D01*
X1260228Y5642347D01*
X1259997Y5642579D01*
X1259303Y5643273D01*
X1258146Y5644198D01*
X1256526Y5645355D01*
X1254443Y5646512D01*
X1251898Y5648132D01*
X1248658Y5649289D01*
X1244956Y5650677D01*
X1244725D01*
X1244493Y5650909D01*
X1243799D01*
X1242874Y5651140D01*
X1241948Y5651603D01*
X1240560Y5651834D01*
X1237089Y5652528D01*
X1232924Y5652991D01*
X1228064Y5653685D01*
X1222048Y5653917D01*
X1215569Y5654148D01*
D02*
G37*
G36*
X1247501Y5281141D02*
X1247270D01*
X1246344D01*
X1244956Y5280910D01*
X1243336Y5280678D01*
X1241254Y5280215D01*
X1239403Y5279521D01*
X1237320Y5278596D01*
X1235238Y5277439D01*
X1235006Y5277207D01*
X1234312Y5276745D01*
X1233386Y5276050D01*
X1232461Y5274893D01*
X1231072Y5273505D01*
X1229915Y5271654D01*
X1228759Y5269571D01*
X1227833Y5267257D01*
Y5267026D01*
X1227370Y5265869D01*
X1227139Y5264018D01*
X1226907Y5262861D01*
X1226676Y5261241D01*
X1226445Y5259621D01*
X1226213Y5257539D01*
X1225982Y5255225D01*
Y5252448D01*
X1225750Y5249671D01*
X1225519Y5246432D01*
Y5212880D01*
X1268327D01*
Y5248515D01*
X1268096Y5251985D01*
Y5255688D01*
X1267864Y5259390D01*
X1267633Y5262398D01*
Y5263787D01*
X1267401Y5264712D01*
Y5264943D01*
X1267170Y5265869D01*
X1266707Y5267257D01*
X1266244Y5268877D01*
X1265319Y5270728D01*
X1264162Y5272811D01*
X1262773Y5274662D01*
X1261154Y5276513D01*
X1260922Y5276745D01*
X1260228Y5277207D01*
X1259071Y5277902D01*
X1257451Y5278827D01*
X1255600Y5279753D01*
X1253286Y5280447D01*
X1250510Y5280910D01*
X1247501Y5281141D01*
D02*
G37*
G36*
X1180166Y5275125D02*
X1179934D01*
X1179009D01*
X1177620Y5274893D01*
X1175769Y5274662D01*
X1173918Y5274199D01*
X1172067Y5273274D01*
X1169984Y5272348D01*
X1168133Y5270960D01*
X1167902Y5270728D01*
X1167439Y5270266D01*
X1166514Y5269109D01*
X1165588Y5267952D01*
X1164662Y5266100D01*
X1163737Y5264018D01*
X1163043Y5261473D01*
X1162580Y5258696D01*
Y5258464D01*
X1162348Y5257539D01*
Y5254994D01*
X1162117Y5253605D01*
Y5247589D01*
X1161886Y5245044D01*
Y5212880D01*
X1198909D01*
Y5243887D01*
X1198677Y5247820D01*
Y5254994D01*
X1198446Y5256382D01*
Y5257770D01*
X1198215Y5258696D01*
X1197983Y5260084D01*
X1197289Y5262167D01*
X1196595Y5264249D01*
X1195669Y5266332D01*
X1194512Y5268414D01*
X1192892Y5270266D01*
X1192661Y5270497D01*
X1191967Y5270960D01*
X1191041Y5271885D01*
X1189422Y5272811D01*
X1187570Y5273505D01*
X1185488Y5274431D01*
X1182943Y5274893D01*
X1180166Y5275125D01*
D02*
G37*
G36*
X1215569Y5057383D02*
X1215338D01*
X1214643D01*
X1213718D01*
X1212561D01*
X1210941D01*
X1209090Y5057152D01*
X1205156Y5056920D01*
X1200528Y5056458D01*
X1195669Y5055995D01*
X1191273Y5055069D01*
X1187108Y5053912D01*
X1186876D01*
X1186645Y5053681D01*
X1185488Y5053218D01*
X1183637Y5052524D01*
X1181323Y5051598D01*
X1179009Y5050210D01*
X1176463Y5048590D01*
X1173918Y5046739D01*
X1171604Y5044656D01*
X1171373Y5044425D01*
X1170679Y5043731D01*
X1169753Y5042342D01*
X1168596Y5040723D01*
X1167208Y5038409D01*
X1166051Y5035863D01*
X1164894Y5033087D01*
X1163968Y5029847D01*
Y5029616D01*
X1163737Y5028459D01*
X1163505Y5026608D01*
X1163043Y5024062D01*
Y5022443D01*
X1162811Y5020360D01*
Y5018277D01*
X1162580Y5015964D01*
Y5013187D01*
X1162348Y5010179D01*
Y4989122D01*
X1268327D01*
Y5017583D01*
X1268096Y5020591D01*
Y5023831D01*
X1267633Y5027070D01*
X1267401Y5030079D01*
X1266939Y5032624D01*
Y5033087D01*
X1266476Y5034012D01*
X1266013Y5035401D01*
X1265319Y5037252D01*
X1264393Y5039334D01*
X1263236Y5041417D01*
X1261848Y5043499D01*
X1260228Y5045582D01*
X1259997Y5045813D01*
X1259303Y5046508D01*
X1258146Y5047433D01*
X1256526Y5048590D01*
X1254443Y5049747D01*
X1251898Y5051367D01*
X1248658Y5052524D01*
X1244956Y5053912D01*
X1244725D01*
X1244493Y5054144D01*
X1243799D01*
X1242874Y5054375D01*
X1241948Y5054838D01*
X1240560Y5055069D01*
X1237089Y5055763D01*
X1232924Y5056226D01*
X1228064Y5056920D01*
X1222048Y5057152D01*
X1215569Y5057383D01*
D02*
G37*
G36*
Y4050356D02*
X1215338D01*
X1214643D01*
X1213718D01*
X1212561D01*
X1210941D01*
X1209090Y4050125D01*
X1205156Y4049894D01*
X1200528Y4049431D01*
X1195669Y4048968D01*
X1191273Y4048042D01*
X1187108Y4046885D01*
X1186876D01*
X1186645Y4046654D01*
X1185488Y4046191D01*
X1183637Y4045497D01*
X1181323Y4044572D01*
X1179009Y4043183D01*
X1176463Y4041563D01*
X1173918Y4039712D01*
X1171604Y4037630D01*
X1171373Y4037398D01*
X1170679Y4036704D01*
X1169753Y4035316D01*
X1168596Y4033696D01*
X1167208Y4031382D01*
X1166051Y4028837D01*
X1164894Y4026060D01*
X1163968Y4022821D01*
Y4022589D01*
X1163737Y4021432D01*
X1163505Y4019581D01*
X1163043Y4017036D01*
Y4015416D01*
X1162811Y4013333D01*
Y4011251D01*
X1162580Y4008937D01*
Y4006160D01*
X1162348Y4003152D01*
Y3982095D01*
X1268327D01*
Y4010557D01*
X1268096Y4013565D01*
Y4016804D01*
X1267633Y4020044D01*
X1267401Y4023052D01*
X1266939Y4025597D01*
Y4026060D01*
X1266476Y4026986D01*
X1266013Y4028374D01*
X1265319Y4030225D01*
X1264393Y4032308D01*
X1263236Y4034390D01*
X1261848Y4036473D01*
X1260228Y4038555D01*
X1259997Y4038787D01*
X1259303Y4039481D01*
X1258146Y4040406D01*
X1256526Y4041563D01*
X1254443Y4042720D01*
X1251898Y4044340D01*
X1248658Y4045497D01*
X1244956Y4046885D01*
X1244725D01*
X1244493Y4047117D01*
X1243799D01*
X1242874Y4047348D01*
X1241948Y4047811D01*
X1240560Y4048042D01*
X1237089Y4048737D01*
X1232924Y4049199D01*
X1228064Y4049894D01*
X1222048Y4050125D01*
X1215569Y4050356D01*
D02*
G37*
G36*
X880520Y7147321D02*
X879965D01*
X878855D01*
X877189Y7147044D01*
X874968Y7146766D01*
X872469Y7145933D01*
X869971Y7145100D01*
X867195Y7143712D01*
X864974Y7142046D01*
X864696Y7141769D01*
X863863Y7141214D01*
X863030Y7139825D01*
X861642Y7138160D01*
X860254Y7136216D01*
X859144Y7133718D01*
X858033Y7130664D01*
X857200Y7127332D01*
Y7127055D01*
X856923Y7126222D01*
Y7124556D01*
X856645Y7122058D01*
Y7115950D01*
X856367Y7113451D01*
Y7069032D01*
X905229D01*
Y7106788D01*
X904951Y7112341D01*
X904674Y7118171D01*
X904396Y7124001D01*
X904118Y7126500D01*
X903841Y7128721D01*
X903285Y7130942D01*
X903008Y7132330D01*
Y7132607D01*
X902453Y7133440D01*
X901897Y7134828D01*
X901064Y7136216D01*
X898566Y7139825D01*
X896900Y7141491D01*
X894957Y7143157D01*
X894679Y7143435D01*
X893846Y7143712D01*
X892736Y7144545D01*
X891070Y7145378D01*
X888849Y7145933D01*
X886351Y7146766D01*
X883574Y7147044D01*
X880520Y7147321D01*
D02*
G37*
G36*
X919388Y6959649D02*
X919110D01*
X917999D01*
X916334D01*
X913835Y6959371D01*
X911059Y6959094D01*
X908005Y6958816D01*
X904396Y6958538D01*
X900787Y6957705D01*
X892736Y6956040D01*
X884407Y6953541D01*
X880243Y6951875D01*
X876634Y6949932D01*
X873025Y6947433D01*
X869693Y6944935D01*
X869416Y6944657D01*
X868860Y6944380D01*
X868305Y6943547D01*
X867195Y6942436D01*
X865806Y6940770D01*
X864418Y6939105D01*
X863030Y6937161D01*
X861365Y6934663D01*
X859976Y6932164D01*
X858588Y6929110D01*
X855812Y6922725D01*
X854702Y6919116D01*
X854146Y6915229D01*
X853591Y6911065D01*
X853314Y6906623D01*
Y6904402D01*
X853591Y6902736D01*
X853869Y6900515D01*
X854146Y6898294D01*
X855257Y6892742D01*
X857478Y6886634D01*
X858588Y6883303D01*
X860254Y6879971D01*
X862197Y6876917D01*
X864418Y6873586D01*
X866917Y6870532D01*
X869971Y6867756D01*
X870248Y6867478D01*
X870804Y6867201D01*
X871637Y6866368D01*
X873025Y6865535D01*
X874968Y6864424D01*
X876911Y6863314D01*
X879410Y6861926D01*
X882464Y6860538D01*
X885795Y6859150D01*
X889404Y6857761D01*
X893569Y6856651D01*
X898011Y6855541D01*
X903008Y6854708D01*
X908283Y6853875D01*
X913835Y6853597D01*
X919943Y6853320D01*
X920220D01*
X921331D01*
X922997D01*
X925218Y6853597D01*
X927994Y6853875D01*
X931325Y6854152D01*
X934657Y6854708D01*
X938543Y6855263D01*
X946594Y6856929D01*
X954646Y6859705D01*
X958810Y6861371D01*
X962697Y6863314D01*
X966306Y6865813D01*
X969637Y6868311D01*
X969915Y6868589D01*
X970470Y6869144D01*
X971303Y6869977D01*
X972136Y6871087D01*
X973524Y6872475D01*
X974912Y6874419D01*
X976578Y6876362D01*
X977966Y6878861D01*
X981297Y6884136D01*
X983796Y6890799D01*
X984906Y6894408D01*
X985739Y6898294D01*
X986294Y6902459D01*
X986572Y6906623D01*
Y6908844D01*
X986294Y6910510D01*
X986017Y6912453D01*
X985739Y6914674D01*
X984351Y6919949D01*
X982408Y6926057D01*
X981020Y6929110D01*
X979632Y6932442D01*
X977688Y6935496D01*
X975467Y6938827D01*
X972969Y6941881D01*
X969915Y6944657D01*
X969637Y6944935D01*
X969082Y6945212D01*
X968249Y6946045D01*
X966861Y6946878D01*
X964918Y6948266D01*
X962697Y6949377D01*
X960198Y6950765D01*
X957144Y6952153D01*
X953813Y6953541D01*
X950204Y6954929D01*
X946039Y6956317D01*
X941320Y6957428D01*
X936600Y6958261D01*
X931325Y6959094D01*
X925495Y6959371D01*
X919388Y6959649D01*
D02*
G37*
G36*
Y6318342D02*
X919110D01*
X917999D01*
X916334D01*
X913835Y6318064D01*
X911059Y6317787D01*
X908005Y6317509D01*
X904396Y6317231D01*
X900787Y6316399D01*
X892736Y6314733D01*
X884407Y6312234D01*
X880243Y6310569D01*
X876634Y6308625D01*
X873025Y6306127D01*
X869693Y6303628D01*
X869416Y6303350D01*
X868860Y6303073D01*
X868305Y6302240D01*
X867195Y6301129D01*
X865806Y6299464D01*
X864418Y6297798D01*
X863030Y6295855D01*
X861365Y6293356D01*
X859976Y6290857D01*
X858588Y6287804D01*
X855812Y6281418D01*
X854702Y6277809D01*
X854146Y6273922D01*
X853591Y6269758D01*
X853314Y6265316D01*
Y6263095D01*
X853591Y6261429D01*
X853869Y6259208D01*
X854146Y6256987D01*
X855257Y6251435D01*
X857478Y6245327D01*
X858588Y6241996D01*
X860254Y6238664D01*
X862197Y6235611D01*
X864418Y6232279D01*
X866917Y6229225D01*
X869971Y6226449D01*
X870248Y6226171D01*
X870804Y6225894D01*
X871637Y6225061D01*
X873025Y6224228D01*
X874968Y6223118D01*
X876911Y6222007D01*
X879410Y6220619D01*
X882464Y6219231D01*
X885795Y6217843D01*
X889404Y6216455D01*
X893569Y6215344D01*
X898011Y6214234D01*
X903008Y6213401D01*
X908283Y6212568D01*
X913835Y6212290D01*
X919943Y6212013D01*
X920220D01*
X921331D01*
X922997D01*
X925218Y6212290D01*
X927994Y6212568D01*
X931325Y6212846D01*
X934657Y6213401D01*
X938543Y6213956D01*
X946594Y6215622D01*
X954646Y6218398D01*
X958810Y6220064D01*
X962697Y6222007D01*
X966306Y6224506D01*
X969637Y6227004D01*
X969915Y6227282D01*
X970470Y6227837D01*
X971303Y6228670D01*
X972136Y6229781D01*
X973524Y6231169D01*
X974912Y6233112D01*
X976578Y6235055D01*
X977966Y6237554D01*
X981297Y6242829D01*
X983796Y6249492D01*
X984906Y6253101D01*
X985739Y6256987D01*
X986294Y6261152D01*
X986572Y6265316D01*
Y6267537D01*
X986294Y6269203D01*
X986017Y6271146D01*
X985739Y6273367D01*
X984351Y6278642D01*
X982408Y6284750D01*
X981020Y6287804D01*
X979632Y6291135D01*
X977688Y6294189D01*
X975467Y6297520D01*
X972969Y6300574D01*
X969915Y6303350D01*
X969637Y6303628D01*
X969082Y6303906D01*
X968249Y6304738D01*
X966861Y6305571D01*
X964918Y6306959D01*
X962697Y6308070D01*
X960198Y6309458D01*
X957144Y6310846D01*
X953813Y6312234D01*
X950204Y6313622D01*
X946039Y6315010D01*
X941320Y6316121D01*
X936600Y6316954D01*
X931325Y6317787D01*
X925495Y6318064D01*
X919388Y6318342D01*
D02*
G37*
G36*
X880520Y5805019D02*
X879965D01*
X878855D01*
X877189Y5804741D01*
X874968Y5804464D01*
X872469Y5803631D01*
X869971Y5802798D01*
X867195Y5801410D01*
X864974Y5799744D01*
X864696Y5799466D01*
X863863Y5798911D01*
X863030Y5797523D01*
X861642Y5795857D01*
X860254Y5793914D01*
X859144Y5791415D01*
X858033Y5788362D01*
X857200Y5785030D01*
Y5784752D01*
X856923Y5783920D01*
Y5782254D01*
X856645Y5779755D01*
Y5773648D01*
X856367Y5771149D01*
Y5726729D01*
X905229D01*
Y5764486D01*
X904951Y5770038D01*
X904674Y5775869D01*
X904396Y5781699D01*
X904118Y5784197D01*
X903841Y5786418D01*
X903285Y5788639D01*
X903008Y5790027D01*
Y5790305D01*
X902453Y5791138D01*
X901897Y5792526D01*
X901064Y5793914D01*
X898566Y5797523D01*
X896900Y5799189D01*
X894957Y5800855D01*
X894679Y5801132D01*
X893846Y5801410D01*
X892736Y5802243D01*
X891070Y5803076D01*
X888849Y5803631D01*
X886351Y5804464D01*
X883574Y5804741D01*
X880520Y5805019D01*
D02*
G37*
G36*
X919388Y5110131D02*
X919110D01*
X917999D01*
X916334D01*
X913835Y5109853D01*
X911059Y5109576D01*
X908005Y5109298D01*
X904396Y5109021D01*
X900787Y5108188D01*
X892736Y5106522D01*
X884407Y5104023D01*
X880243Y5102358D01*
X876634Y5100414D01*
X873025Y5097916D01*
X869693Y5095417D01*
X869416Y5095139D01*
X868860Y5094862D01*
X868305Y5094029D01*
X867195Y5092918D01*
X865806Y5091253D01*
X864418Y5089587D01*
X863030Y5087644D01*
X861365Y5085145D01*
X859976Y5082646D01*
X858588Y5079593D01*
X855812Y5073207D01*
X854702Y5069598D01*
X854146Y5065711D01*
X853591Y5061547D01*
X853314Y5057105D01*
Y5054884D01*
X853591Y5053218D01*
X853869Y5050998D01*
X854146Y5048777D01*
X855257Y5043224D01*
X857478Y5037116D01*
X858588Y5033785D01*
X860254Y5030453D01*
X862197Y5027400D01*
X864418Y5024068D01*
X866917Y5021014D01*
X869971Y5018238D01*
X870248Y5017961D01*
X870804Y5017683D01*
X871637Y5016850D01*
X873025Y5016017D01*
X874968Y5014907D01*
X876911Y5013796D01*
X879410Y5012408D01*
X882464Y5011020D01*
X885795Y5009632D01*
X889404Y5008244D01*
X893569Y5007133D01*
X898011Y5006023D01*
X903008Y5005190D01*
X908283Y5004357D01*
X913835Y5004079D01*
X919943Y5003802D01*
X920220D01*
X921331D01*
X922997D01*
X925218Y5004079D01*
X927994Y5004357D01*
X931325Y5004635D01*
X934657Y5005190D01*
X938543Y5005745D01*
X946594Y5007411D01*
X954646Y5010187D01*
X958810Y5011853D01*
X962697Y5013796D01*
X966306Y5016295D01*
X969637Y5018793D01*
X969915Y5019071D01*
X970470Y5019626D01*
X971303Y5020459D01*
X972136Y5021570D01*
X973524Y5022958D01*
X974912Y5024901D01*
X976578Y5026844D01*
X977966Y5029343D01*
X981297Y5034618D01*
X983796Y5041281D01*
X984906Y5044890D01*
X985739Y5048777D01*
X986294Y5052941D01*
X986572Y5057105D01*
Y5059326D01*
X986294Y5060992D01*
X986017Y5062935D01*
X985739Y5065156D01*
X984351Y5070431D01*
X982408Y5076539D01*
X981020Y5079593D01*
X979632Y5082924D01*
X977688Y5085978D01*
X975467Y5089309D01*
X972969Y5092363D01*
X969915Y5095139D01*
X969637Y5095417D01*
X969082Y5095695D01*
X968249Y5096528D01*
X966861Y5097360D01*
X964918Y5098749D01*
X962697Y5099859D01*
X960198Y5101247D01*
X957144Y5102635D01*
X953813Y5104023D01*
X950204Y5105411D01*
X946039Y5106800D01*
X941320Y5107910D01*
X936600Y5108743D01*
X931325Y5109576D01*
X925495Y5109853D01*
X919388Y5110131D01*
D02*
G37*
G36*
Y4468824D02*
X919110D01*
X917999D01*
X916334D01*
X913835Y4468547D01*
X911059Y4468269D01*
X908005Y4467991D01*
X904396Y4467714D01*
X900787Y4466881D01*
X892736Y4465215D01*
X884407Y4462716D01*
X880243Y4461051D01*
X876634Y4459107D01*
X873025Y4456609D01*
X869693Y4454110D01*
X869416Y4453833D01*
X868860Y4453555D01*
X868305Y4452722D01*
X867195Y4451612D01*
X865806Y4449946D01*
X864418Y4448280D01*
X863030Y4446337D01*
X861365Y4443838D01*
X859976Y4441340D01*
X858588Y4438286D01*
X855812Y4431900D01*
X854702Y4428291D01*
X854146Y4424405D01*
X853591Y4420240D01*
X853314Y4415798D01*
Y4413577D01*
X853591Y4411912D01*
X853869Y4409691D01*
X854146Y4407470D01*
X855257Y4401917D01*
X857478Y4395810D01*
X858588Y4392478D01*
X860254Y4389147D01*
X862197Y4386093D01*
X864418Y4382761D01*
X866917Y4379708D01*
X869971Y4376931D01*
X870248Y4376654D01*
X870804Y4376376D01*
X871637Y4375543D01*
X873025Y4374710D01*
X874968Y4373600D01*
X876911Y4372489D01*
X879410Y4371101D01*
X882464Y4369713D01*
X885795Y4368325D01*
X889404Y4366937D01*
X893569Y4365826D01*
X898011Y4364716D01*
X903008Y4363883D01*
X908283Y4363050D01*
X913835Y4362773D01*
X919943Y4362495D01*
X920220D01*
X921331D01*
X922997D01*
X925218Y4362773D01*
X927994Y4363050D01*
X931325Y4363328D01*
X934657Y4363883D01*
X938543Y4364438D01*
X946594Y4366104D01*
X954646Y4368880D01*
X958810Y4370546D01*
X962697Y4372489D01*
X966306Y4374988D01*
X969637Y4377487D01*
X969915Y4377764D01*
X970470Y4378319D01*
X971303Y4379152D01*
X972136Y4380263D01*
X973524Y4381651D01*
X974912Y4383594D01*
X976578Y4385538D01*
X977966Y4388036D01*
X981297Y4393311D01*
X983796Y4399974D01*
X984906Y4403583D01*
X985739Y4407470D01*
X986294Y4411634D01*
X986572Y4415798D01*
Y4418019D01*
X986294Y4419685D01*
X986017Y4421628D01*
X985739Y4423849D01*
X984351Y4429124D01*
X982408Y4435232D01*
X981020Y4438286D01*
X979632Y4441617D01*
X977688Y4444671D01*
X975467Y4448003D01*
X972969Y4451056D01*
X969915Y4453833D01*
X969637Y4454110D01*
X969082Y4454388D01*
X968249Y4455221D01*
X966861Y4456054D01*
X964918Y4457442D01*
X962697Y4458552D01*
X960198Y4459940D01*
X957144Y4461328D01*
X953813Y4462716D01*
X950204Y4464105D01*
X946039Y4465493D01*
X941320Y4466603D01*
X936600Y4467436D01*
X931325Y4468269D01*
X925495Y4468547D01*
X919388Y4468824D01*
D02*
G37*
%LPD*%
D85*
X7617000Y6172200D02*
G03*
X7617000Y6172200I-12500J0D01*
G01*
X3308400Y7161200D02*
G03*
X3308400Y7161200I-12500J0D01*
G01*
X2896400Y1127400D02*
G03*
X2896400Y1127400I-12500J0D01*
G01*
X8018700Y4989000D02*
G03*
X8018700Y4989000I-12500J0D01*
G01*
X9523300Y4762500D02*
G03*
X9523300Y4762500I-12700J0D01*
G01*
X1466800Y1942600D02*
G03*
X1466800Y1942600I-12700J0D01*
G01*
X5571700Y6273800D02*
G03*
X5571700Y6273800I-12500J0D01*
G01*
X2366000Y1663900D02*
G03*
X2366000Y1663900I-12500J0D01*
G01*
X3120399Y3557600D02*
G03*
X3120399Y3557600I-12500J0D01*
G01*
X4261199Y3732200D02*
G03*
X4261199Y3732200I-12500J0D01*
G01*
X6671800Y1974400D02*
G03*
X6671800Y1974400I-12500J0D01*
G01*
X8594800Y1966500D02*
G03*
X8594800Y1966500I-12500J0D01*
G01*
X9536000Y3835400D02*
G03*
X9536000Y3835400I-12700J0D01*
G01*
X7191700Y1712500D02*
G03*
X7191700Y1712500I-12500J0D01*
G01*
X8033900Y2463800D02*
G03*
X8033900Y2463800I-12500J0D01*
G01*
X3839100Y7279036D02*
G03*
X3839100Y7279036I-12500J0D01*
G01*
X2489000Y6599000D02*
G03*
X2489000Y6599000I-12500J0D01*
G01*
X5038900Y5156200D02*
G03*
X5038900Y5156200I-12500J0D01*
G01*
X5026200Y4699000D02*
G03*
X5026200Y4699000I-12500J0D01*
G01*
X7357000Y7607300D02*
G03*
X7357000Y7607300I-12500J0D01*
G01*
X5486300Y7848600D02*
G03*
X5486300Y7848600I-12500J0D01*
G01*
X2553299Y6933840D02*
G03*
X2553299Y6933840I-12500J0D01*
G01*
X6520500Y5906200D02*
G03*
X6520500Y5906200I-12500J0D01*
G01*
D86*
X4329900Y4737100D02*
G03*
X4329900Y4737100I-685000J0D01*
G01*
X7344500Y6252200D02*
X7514500D01*
X7344500Y6092200D02*
X7514500D01*
X3491593Y1860631D02*
X3772807D01*
X3491593Y1644569D02*
X3772807D01*
X7753700Y2161700D02*
Y2181700D01*
X7638700Y2161700D02*
Y2181700D01*
X5698500Y7353700D02*
Y7403700D01*
X5858500Y7353700D02*
Y7403700D01*
X3235900Y7336200D02*
Y7421200D01*
X3545900Y7336200D02*
Y7421200D01*
X3044300Y2022000D02*
Y2042000D01*
X3159300Y2022000D02*
Y2042000D01*
X2165700Y2161700D02*
Y2181700D01*
X2050700Y2161700D02*
Y2181700D01*
Y1833900D02*
Y1853900D01*
X2165700Y1833900D02*
Y1853900D01*
X2639400Y519908D02*
X3388400D01*
X3388430Y519900D02*
Y601100D01*
Y868700D02*
Y989900D01*
X3375400Y989902D02*
X3388430D01*
X2639370Y989430D02*
X2652500D01*
X2639370Y868700D02*
Y989430D01*
X2639400Y519908D02*
Y601100D01*
X8767700Y3056500D02*
Y4866500D01*
X6207700Y3056500D02*
X6280200D01*
X8096200D02*
X8767700D01*
X6207700Y4615500D02*
Y4866500D01*
Y3056500D02*
Y3307500D01*
Y4866500D02*
X6280200D01*
X8096200D02*
X8767700D01*
X8779939Y1030100D02*
X8864661D01*
X8779939Y1205100D02*
X8864661D01*
X8698593Y997031D02*
X8979807D01*
X8698593Y780969D02*
X8979807D01*
X9180700Y5659939D02*
Y5744661D01*
X9005700Y5659939D02*
Y5744661D01*
X3006200Y5423410D02*
X3026200D01*
X3006200Y5538410D02*
X3026200D01*
X10267600Y6924200D02*
Y6944200D01*
X10382600Y6924200D02*
Y6944200D01*
X5412900Y5352700D02*
X5432900D01*
X5412900Y5467700D02*
X5432900D01*
X5298600Y4915100D02*
X5318600D01*
X5298600Y5030100D02*
X5318600D01*
X7885469Y6425293D02*
Y6706507D01*
X8101531Y6425293D02*
Y6706507D01*
X8908969Y6806293D02*
Y7087507D01*
X9125031Y6806293D02*
Y7087507D01*
X9556669Y6793593D02*
Y7074807D01*
X9772731Y6793593D02*
Y7074807D01*
X9886869Y6793593D02*
Y7074807D01*
X10102931Y6793593D02*
Y7074807D01*
X9226469Y6806293D02*
Y7087507D01*
X9442531Y6806293D02*
Y7087507D01*
X6762669Y7260493D02*
Y7541707D01*
X6978731Y7260493D02*
Y7541707D01*
X8350169Y5551843D02*
Y5833056D01*
X8566231Y5551843D02*
Y5833056D01*
X8032669Y5548993D02*
Y5830207D01*
X8248731Y5548993D02*
Y5830207D01*
X4993800Y7105300D02*
X5013800D01*
X4993800Y7220300D02*
X5013800D01*
X2568100Y4747900D02*
X2588100D01*
X2568100Y4632900D02*
X2588100D01*
X4299112Y3981369D02*
X4580325D01*
X4299112Y4197431D02*
X4580325D01*
X3382899Y3070100D02*
X3402899D01*
X3382899Y2955100D02*
X3402899D01*
X3504293Y2035869D02*
X3785507D01*
X3504293Y2251931D02*
X3785507D01*
X3977800Y3042000D02*
X3997800D01*
X3977800Y2927000D02*
X3997800D01*
X4567200Y2917400D02*
Y2937400D01*
X4682200Y2917400D02*
Y2937400D01*
X7029800Y2441100D02*
Y2461100D01*
X6914800Y2441100D02*
Y2461100D01*
X9545600Y1768000D02*
Y1788000D01*
X9660600Y1768000D02*
Y1788000D01*
X6407500Y2466500D02*
Y2486500D01*
X6292500Y2466500D02*
Y2486500D01*
X10026300Y1768000D02*
Y1788000D01*
X10141300Y1768000D02*
Y1788000D01*
X5861400Y2441100D02*
Y2461100D01*
X5746400Y2441100D02*
Y2461100D01*
X6403500Y880300D02*
X6423500D01*
X6403500Y765300D02*
X6423500D01*
X9391300Y917100D02*
Y937100D01*
X9506300Y917100D02*
Y937100D01*
X9320893Y2825831D02*
X9602107D01*
X9320893Y2609769D02*
X9602107D01*
X9961869Y856175D02*
Y1137388D01*
X10177931Y856175D02*
Y1137388D01*
X7406800Y6585300D02*
X7426800D01*
X7406800Y6470300D02*
X7426800D01*
X9772200Y5581693D02*
Y5822907D01*
X9557200Y5581693D02*
Y5822907D01*
X9480100Y5572475D02*
Y5813688D01*
X9265100Y5572475D02*
Y5813688D01*
X10337800Y4444500D02*
Y5016500D01*
X9575800D02*
X10337800D01*
X9575800Y4444500D02*
Y5016500D01*
Y4444500D02*
X10337800D01*
X626900Y2260600D02*
X1388900D01*
Y1688600D02*
Y2260600D01*
X626900Y1688600D02*
X1388900D01*
X626900D02*
Y2260600D01*
X4541200Y5795800D02*
X5494200D01*
X4541200Y6748800D02*
X5494200D01*
X4541200Y5795800D02*
Y6748800D01*
X5494200Y5795800D02*
Y6748800D01*
X5872300Y6501700D02*
Y6731700D01*
Y6501700D02*
X6092300D01*
Y6731700D01*
X5872300D02*
X6092300D01*
X2210799Y3742000D02*
Y3754500D01*
Y3484500D02*
Y3497000D01*
Y3484500D02*
X2530799D01*
Y3742000D02*
Y3754500D01*
Y3484500D02*
Y3497000D01*
X2210799Y3754500D02*
X2530799D01*
X2868500Y1728900D02*
Y1793900D01*
X2803500Y1728900D02*
X2868500D01*
Y2193900D02*
Y2258900D01*
X2803500D02*
X2868500D01*
X2338500D02*
X2403500D01*
X2338500Y2193900D02*
Y2258900D01*
Y1728900D02*
Y1793900D01*
Y1728900D02*
X2403500D01*
X3151899Y3641100D02*
Y3722600D01*
X3217899D01*
X3443899Y3641100D02*
Y3722600D01*
X3377899D02*
X3443899D01*
X4204699Y3567200D02*
Y3648700D01*
X4138699Y3567200D02*
X4204699D01*
X3912699D02*
Y3648700D01*
Y3567200D02*
X3978699D01*
X2210799Y3119700D02*
Y3132200D01*
Y2862200D02*
Y2874700D01*
Y2862200D02*
X2530799D01*
Y3119700D02*
Y3132200D01*
Y2862200D02*
Y2874700D01*
X2210799Y3132200D02*
X2530799D01*
X6214300Y1699167D02*
X6714300D01*
X6214300Y1399633D02*
Y1699167D01*
Y1399633D02*
X6714300D01*
Y1699167D01*
X9059800Y2056500D02*
X9092300D01*
Y2024000D02*
Y2056500D01*
Y1626500D02*
Y1659000D01*
X9059800Y1626500D02*
X9092300D01*
X8662300D02*
X8694800D01*
X8662300D02*
Y1659000D01*
Y2056500D02*
X8694800D01*
X8662300Y2024000D02*
Y2056500D01*
X6882000Y5294200D02*
Y5399200D01*
X6707000Y5294200D02*
Y5399200D01*
X9588500Y3517400D02*
X10350500D01*
X9588500D02*
Y4089400D01*
X10350500D01*
Y3517400D02*
Y4089400D01*
X6109600Y5094100D02*
X6214600D01*
X6109600Y5269100D02*
X6214600D01*
X5494000Y3243200D02*
Y3255700D01*
Y3500700D02*
Y3513200D01*
X5174000D02*
X5494000D01*
X5174000Y3243200D02*
Y3255700D01*
Y3500700D02*
Y3513200D01*
Y3243200D02*
X5494000D01*
X5506700Y3992500D02*
Y4005000D01*
Y4250000D02*
Y4262500D01*
X5186700D02*
X5506700D01*
X5186700Y3992500D02*
Y4005000D01*
Y4250000D02*
Y4262500D01*
Y3992500D02*
X5506700D01*
X8280200Y1407000D02*
Y2022000D01*
X7239200D02*
X8280200D01*
X7239200Y1407000D02*
Y2022000D01*
Y1407000D02*
X8280200D01*
X7981900Y2330300D02*
Y2597300D01*
X7435900D02*
X7981900D01*
X7435900Y2330300D02*
Y2597300D01*
Y2330300D02*
X7981900D01*
X4329000Y5573900D02*
X4434000D01*
X4329000Y5398900D02*
X4434000D01*
X2315300Y5273600D02*
Y5343600D01*
X2485300Y5273600D02*
Y5343600D01*
X3852100Y7429036D02*
X4352100D01*
X3852100Y7609036D02*
X4352100D01*
X3852100Y7429036D02*
Y7609036D01*
X4352100Y7429036D02*
Y7609036D01*
X2343000Y6559500D02*
X2610000D01*
X2343000Y6013500D02*
Y6559500D01*
Y6013500D02*
X2610000D01*
Y6559500D01*
X4766400Y5076200D02*
X4936400D01*
X4766400Y5236200D02*
X4936400D01*
X4753700Y4619000D02*
X4923700D01*
X4753700Y4779000D02*
X4923700D01*
X7647000Y7166800D02*
Y7666800D01*
Y7166800D02*
X7847000D01*
Y7666800D01*
X7647000D02*
X7847000D01*
X5188800Y7548600D02*
Y8148600D01*
X5359300Y7537600D02*
Y7651100D01*
Y8046100D02*
Y8159600D01*
X4648300D02*
X5359300D01*
X4648300Y7537600D02*
Y7651100D01*
Y8046100D02*
Y8159600D01*
Y7537600D02*
X5359300D01*
X3056400Y6895400D02*
X4106400D01*
X3056400Y5855400D02*
X4106400D01*
X3056400Y6590400D02*
Y6895400D01*
X4106400Y6590400D02*
Y6895400D01*
X3056400Y5855400D02*
Y6160400D01*
X4106400Y5855400D02*
Y6160400D01*
X2248699Y6983730D02*
X2832899D01*
Y8108950D01*
X2248699D02*
X2832899D01*
X2248699Y6983730D02*
Y8108950D01*
X3315903Y8025000D02*
X3400625D01*
X3315903Y7850000D02*
X3400625D01*
X6532750Y6060450D02*
X7183250D01*
Y6410950D01*
X6532750D02*
X7183250D01*
X6532750Y6060450D02*
Y6410950D01*
X6361300Y7349039D02*
Y7433761D01*
X6186300Y7349039D02*
Y7433761D01*
D87*
X6664300Y1624167D02*
G03*
X6664300Y1624167I-25000J0D01*
G01*
D88*
X4178700Y562300D02*
X5648700D01*
X4178700D02*
Y2012300D01*
X5648700Y562300D02*
Y2012300D01*
X4178700D02*
X5648700D01*
X7683500Y6269551D02*
Y6117200D01*
X7759675D01*
X7785067Y6142592D01*
Y6244159D01*
X7759675Y6269551D01*
X7683500D01*
X7835851Y6117200D02*
X7886634D01*
X7861243D01*
Y6269551D01*
X7835851Y6244159D01*
X8064377Y6117200D02*
X7962810D01*
X8064377Y6218767D01*
Y6244159D01*
X8038985Y6269551D01*
X7988201D01*
X7962810Y6244159D01*
X3568667Y1562059D02*
X3543275Y1587451D01*
X3492492D01*
X3467100Y1562059D01*
Y1460492D01*
X3492492Y1435100D01*
X3543275D01*
X3568667Y1460492D01*
X3619451Y1562059D02*
X3644843Y1587451D01*
X3695626D01*
X3721018Y1562059D01*
Y1536667D01*
X3695626Y1511275D01*
X3670234D01*
X3695626D01*
X3721018Y1485883D01*
Y1460492D01*
X3695626Y1435100D01*
X3644843D01*
X3619451Y1460492D01*
X3873369Y1435100D02*
X3771801D01*
X3873369Y1536667D01*
Y1562059D01*
X3847977Y1587451D01*
X3797193D01*
X3771801Y1562059D01*
X7848600Y2146300D02*
Y2246268D01*
X7898584D01*
X7915245Y2229606D01*
Y2196284D01*
X7898584Y2179623D01*
X7848600D01*
X7881923D02*
X7915245Y2146300D01*
X7998552D02*
Y2246268D01*
X7948568Y2196284D01*
X8015213D01*
X8048536Y2229606D02*
X8065197Y2246268D01*
X8098519D01*
X8115181Y2229606D01*
Y2212945D01*
X8098519Y2196284D01*
X8115181Y2179623D01*
Y2162961D01*
X8098519Y2146300D01*
X8065197D01*
X8048536Y2162961D01*
Y2179623D01*
X8065197Y2196284D01*
X8048536Y2212945D01*
Y2229606D01*
X8065197Y2196284D02*
X8098519D01*
X6015406Y7460955D02*
X6032068Y7477616D01*
Y7510938D01*
X6015406Y7527600D01*
X5948761D01*
X5932100Y7510938D01*
Y7477616D01*
X5948761Y7460955D01*
X5932100Y7360987D02*
Y7427632D01*
X5998745Y7360987D01*
X6015406D01*
X6032068Y7377648D01*
Y7410971D01*
X6015406Y7427632D01*
X3165353Y7772351D02*
Y7645392D01*
X3190745Y7620000D01*
X3241528D01*
X3266920Y7645392D01*
Y7772351D01*
X3419271Y7620000D02*
X3317704D01*
X3419271Y7721567D01*
Y7746959D01*
X3393879Y7772351D01*
X3343095D01*
X3317704Y7746959D01*
X2997200Y2236932D02*
Y2336899D01*
X3047184D01*
X3063845Y2320238D01*
Y2286915D01*
X3047184Y2270254D01*
X2997200D01*
X3030523D02*
X3063845Y2236932D01*
X3097168Y2320238D02*
X3113829Y2336899D01*
X3147152D01*
X3163813Y2320238D01*
Y2303577D01*
X3147152Y2286915D01*
X3130490D01*
X3147152D01*
X3163813Y2270254D01*
Y2253593D01*
X3147152Y2236932D01*
X3113829D01*
X3097168Y2253593D01*
X3263781Y2236932D02*
X3197136D01*
X3263781Y2303577D01*
Y2320238D01*
X3247119Y2336899D01*
X3213797D01*
X3197136Y2320238D01*
X1993900Y2057400D02*
X1893932D01*
Y2107384D01*
X1910594Y2124045D01*
X1943916D01*
X1960577Y2107384D01*
Y2057400D01*
Y2090723D02*
X1993900Y2124045D01*
Y2207352D02*
X1893932D01*
X1943916Y2157368D01*
Y2224013D01*
X1893932Y2257336D02*
Y2323981D01*
X1910594D01*
X1977239Y2257336D01*
X1993900D01*
Y1714500D02*
X1893932D01*
Y1764484D01*
X1910594Y1781145D01*
X1943916D01*
X1960577Y1764484D01*
Y1714500D01*
Y1747823D02*
X1993900Y1781145D01*
Y1864452D02*
X1893932D01*
X1943916Y1814468D01*
Y1881113D01*
X1893932Y1981081D02*
X1910594Y1947758D01*
X1943916Y1914436D01*
X1977239D01*
X1993900Y1931097D01*
Y1964419D01*
X1977239Y1981081D01*
X1960577D01*
X1943916Y1964419D01*
Y1914436D01*
X2386467Y1028651D02*
X2335684D01*
X2361076D01*
Y901692D01*
X2335684Y876300D01*
X2310292D01*
X2284900Y901692D01*
X2437251Y876300D02*
X2488034D01*
X2462643D01*
Y1028651D01*
X2437251Y1003259D01*
X8305767Y5130751D02*
X8204200D01*
Y4978400D01*
X8305767D01*
X8204200Y5054575D02*
X8254983D01*
X8458118Y5105359D02*
X8432726Y5130751D01*
X8381943D01*
X8356551Y5105359D01*
Y5079967D01*
X8381943Y5054575D01*
X8432726D01*
X8458118Y5029183D01*
Y5003792D01*
X8432726Y4978400D01*
X8381943D01*
X8356551Y5003792D01*
X8508901Y4978400D02*
Y5130751D01*
X8585077D01*
X8610469Y5105359D01*
Y5054575D01*
X8585077Y5029183D01*
X8508901D01*
X8661252Y5105359D02*
X8686644Y5130751D01*
X8737428D01*
X8762819Y5105359D01*
Y5079967D01*
X8737428Y5054575D01*
X8712036D01*
X8737428D01*
X8762819Y5029183D01*
Y5003792D01*
X8737428Y4978400D01*
X8686644D01*
X8661252Y5003792D01*
X8915170Y4978400D02*
X8813603D01*
X8915170Y5079967D01*
Y5105359D01*
X8889778Y5130751D01*
X8838995D01*
X8813603Y5105359D01*
X4508500Y4737125D02*
X4406933D01*
X4457717Y4686341D02*
Y4787908D01*
X2904305Y5643470D02*
Y5795821D01*
X2980480D01*
X3005872Y5770429D01*
Y5719645D01*
X2980480Y5694254D01*
X2904305D01*
X2955088D02*
X3005872Y5643470D01*
X3056656D02*
Y5795821D01*
X3132831D01*
X3158223Y5770429D01*
Y5719645D01*
X3132831Y5694254D01*
X3056656D01*
X3209006Y5643470D02*
Y5795821D01*
X3285182D01*
X3310574Y5770429D01*
Y5719645D01*
X3285182Y5694254D01*
X3209006D01*
X3259790D02*
X3310574Y5643470D01*
X3437532Y5795821D02*
X3386749D01*
X3361357Y5770429D01*
Y5668862D01*
X3386749Y5643470D01*
X3437532D01*
X3462924Y5668862D01*
Y5770429D01*
X3437532Y5795821D01*
X3615275Y5770429D02*
X3589883Y5795821D01*
X3539100D01*
X3513708Y5770429D01*
Y5668862D01*
X3539100Y5643470D01*
X3589883D01*
X3615275Y5668862D01*
Y5719645D01*
X3564491D01*
X10264140Y7147560D02*
Y7299911D01*
X10340315D01*
X10365707Y7274519D01*
Y7223735D01*
X10340315Y7198343D01*
X10264140D01*
X10314923D02*
X10365707Y7147560D01*
X10518058Y7299911D02*
X10416491D01*
Y7223735D01*
X10467274Y7249127D01*
X10492666D01*
X10518058Y7223735D01*
Y7172952D01*
X10492666Y7147560D01*
X10441883D01*
X10416491Y7172952D01*
X4892040Y7325360D02*
Y7477711D01*
X4968215D01*
X4993607Y7452319D01*
Y7401535D01*
X4968215Y7376143D01*
X4892040D01*
X4942823D02*
X4993607Y7325360D01*
X5120566D02*
Y7477711D01*
X5044391Y7401535D01*
X5145958D01*
X5196840Y5135160D02*
Y5287511D01*
X5273015D01*
X5298407Y5262119D01*
Y5211336D01*
X5273015Y5185944D01*
X5196840D01*
X5247623D02*
X5298407Y5135160D01*
X5349191Y5262119D02*
X5374583Y5287511D01*
X5425366D01*
X5450758Y5262119D01*
Y5236727D01*
X5425366Y5211336D01*
X5399974D01*
X5425366D01*
X5450758Y5185944D01*
Y5160552D01*
X5425366Y5135160D01*
X5374583D01*
X5349191Y5160552D01*
X5311140Y5572760D02*
Y5725111D01*
X5387315D01*
X5412707Y5699719D01*
Y5648935D01*
X5387315Y5623543D01*
X5311140D01*
X5361923D02*
X5412707Y5572760D01*
X5565058D02*
X5463491D01*
X5565058Y5674327D01*
Y5699719D01*
X5539666Y5725111D01*
X5488883D01*
X5463491Y5699719D01*
X8433405Y6026906D02*
X8416744Y6043568D01*
X8383421D01*
X8366760Y6026906D01*
Y5960261D01*
X8383421Y5943600D01*
X8416744D01*
X8433405Y5960261D01*
X8466728Y5943600D02*
X8500050D01*
X8483389D01*
Y6043568D01*
X8466728Y6026906D01*
X8616679Y5943600D02*
X8550034D01*
X8616679Y6010245D01*
Y6026906D01*
X8600018Y6043568D01*
X8566696D01*
X8550034Y6026906D01*
X8115905Y6024366D02*
X8099244Y6041028D01*
X8065921D01*
X8049260Y6024366D01*
Y5957721D01*
X8065921Y5941060D01*
X8099244D01*
X8115905Y5957721D01*
X8149228Y5941060D02*
X8182550D01*
X8165889D01*
Y6041028D01*
X8149228Y6024366D01*
X8232534Y5941060D02*
X8265857D01*
X8249196D01*
Y6041028D01*
X8232534Y6024366D01*
X8003627Y6944319D02*
X7978235Y6969711D01*
X7927452D01*
X7902060Y6944319D01*
Y6842752D01*
X7927452Y6817360D01*
X7978235D01*
X8003627Y6842752D01*
X8054411Y6817360D02*
X8105194D01*
X8079802D01*
Y6969711D01*
X8054411Y6944319D01*
X8181369D02*
X8206761Y6969711D01*
X8257545D01*
X8282937Y6944319D01*
Y6842752D01*
X8257545Y6817360D01*
X8206761D01*
X8181369Y6842752D01*
Y6944319D01*
X6880827Y7779519D02*
X6855435Y7804911D01*
X6804652D01*
X6779260Y7779519D01*
Y7677952D01*
X6804652Y7652560D01*
X6855435D01*
X6880827Y7677952D01*
X6931611D02*
X6957003Y7652560D01*
X7007786D01*
X7033178Y7677952D01*
Y7779519D01*
X7007786Y7804911D01*
X6957003D01*
X6931611Y7779519D01*
Y7754127D01*
X6957003Y7728735D01*
X7033178D01*
X10005027Y7312619D02*
X9979635Y7338011D01*
X9928852D01*
X9903460Y7312619D01*
Y7211052D01*
X9928852Y7185660D01*
X9979635D01*
X10005027Y7211052D01*
X10055811Y7312619D02*
X10081203Y7338011D01*
X10131986D01*
X10157378Y7312619D01*
Y7287227D01*
X10131986Y7261835D01*
X10157378Y7236443D01*
Y7211052D01*
X10131986Y7185660D01*
X10081203D01*
X10055811Y7211052D01*
Y7236443D01*
X10081203Y7261835D01*
X10055811Y7287227D01*
Y7312619D01*
X10081203Y7261835D02*
X10131986D01*
X9674827Y7312619D02*
X9649435Y7338011D01*
X9598652D01*
X9573260Y7312619D01*
Y7211052D01*
X9598652Y7185660D01*
X9649435D01*
X9674827Y7211052D01*
X9725611Y7338011D02*
X9827178D01*
Y7312619D01*
X9725611Y7211052D01*
Y7185660D01*
X9344627Y7325248D02*
X9319235Y7350640D01*
X9268452D01*
X9243060Y7325248D01*
Y7223681D01*
X9268452Y7198289D01*
X9319235D01*
X9344627Y7223681D01*
X9496978Y7350640D02*
X9446194Y7325248D01*
X9395411Y7274464D01*
Y7223681D01*
X9420803Y7198289D01*
X9471586D01*
X9496978Y7223681D01*
Y7249072D01*
X9471586Y7274464D01*
X9395411D01*
X9027127Y7325319D02*
X9001735Y7350711D01*
X8950952D01*
X8925560Y7325319D01*
Y7223752D01*
X8950952Y7198360D01*
X9001735D01*
X9027127Y7223752D01*
X9179478Y7350711D02*
X9077911D01*
Y7274535D01*
X9128694Y7299927D01*
X9154086D01*
X9179478Y7274535D01*
Y7223752D01*
X9154086Y7198360D01*
X9103303D01*
X9077911Y7223752D01*
X7305040Y6690360D02*
Y6842711D01*
X7381215D01*
X7406607Y6817319D01*
Y6766535D01*
X7381215Y6741143D01*
X7305040D01*
X7355823D02*
X7406607Y6690360D01*
X7533566D02*
Y6842711D01*
X7457391Y6766535D01*
X7558958D01*
X7609741Y6715752D02*
X7635133Y6690360D01*
X7685917D01*
X7711309Y6715752D01*
Y6817319D01*
X7685917Y6842711D01*
X7635133D01*
X7609741Y6817319D01*
Y6791927D01*
X7635133Y6766535D01*
X7711309D01*
X9387840Y1140460D02*
Y1292811D01*
X9464015D01*
X9489407Y1267419D01*
Y1216635D01*
X9464015Y1191243D01*
X9387840D01*
X9438623D02*
X9489407Y1140460D01*
X9616366D02*
Y1292811D01*
X9540191Y1216635D01*
X9641758D01*
X9692541Y1267419D02*
X9717933Y1292811D01*
X9768717D01*
X9794109Y1267419D01*
Y1242027D01*
X9768717Y1216635D01*
X9743325D01*
X9768717D01*
X9794109Y1191243D01*
Y1165852D01*
X9768717Y1140460D01*
X9717933D01*
X9692541Y1165852D01*
X10021570Y1992630D02*
Y2144981D01*
X10097745D01*
X10123137Y2119589D01*
Y2068805D01*
X10097745Y2043413D01*
X10021570D01*
X10072353D02*
X10123137Y1992630D01*
X10250096D02*
Y2144981D01*
X10173921Y2068805D01*
X10275488D01*
X10427839Y1992630D02*
X10326271D01*
X10427839Y2094197D01*
Y2119589D01*
X10402447Y2144981D01*
X10351663D01*
X10326271Y2119589D01*
X9542140Y1990960D02*
Y2143311D01*
X9618316D01*
X9643707Y2117919D01*
Y2067135D01*
X9618316Y2041743D01*
X9542140D01*
X9592924D02*
X9643707Y1990960D01*
X9770666D02*
Y2143311D01*
X9694491Y2067135D01*
X9796058D01*
X9846842Y1990960D02*
X9897625D01*
X9872233D01*
Y2143311D01*
X9846842Y2117919D01*
X6301160Y985360D02*
Y1137711D01*
X6377335D01*
X6402727Y1112319D01*
Y1061535D01*
X6377335Y1036143D01*
X6301160D01*
X6351944D02*
X6402727Y985360D01*
X6529686D02*
Y1137711D01*
X6453511Y1061535D01*
X6555078D01*
X6605862Y1112319D02*
X6631253Y1137711D01*
X6682037D01*
X6707429Y1112319D01*
Y1010752D01*
X6682037Y985360D01*
X6631253D01*
X6605862Y1010752D01*
Y1112319D01*
X5742940Y2664460D02*
Y2816811D01*
X5819115D01*
X5844507Y2791419D01*
Y2740635D01*
X5819115Y2715243D01*
X5742940D01*
X5793723D02*
X5844507Y2664460D01*
X5895291Y2791419D02*
X5920683Y2816811D01*
X5971466D01*
X5996858Y2791419D01*
Y2766027D01*
X5971466Y2740635D01*
X5946074D01*
X5971466D01*
X5996858Y2715243D01*
Y2689852D01*
X5971466Y2664460D01*
X5920683D01*
X5895291Y2689852D01*
X6047641D02*
X6073033Y2664460D01*
X6123817D01*
X6149209Y2689852D01*
Y2791419D01*
X6123817Y2816811D01*
X6073033D01*
X6047641Y2791419D01*
Y2766027D01*
X6073033Y2740635D01*
X6149209D01*
X6289040Y2690420D02*
Y2842771D01*
X6365215D01*
X6390607Y2817379D01*
Y2766595D01*
X6365215Y2741204D01*
X6289040D01*
X6339823D02*
X6390607Y2690420D01*
X6441391Y2817379D02*
X6466783Y2842771D01*
X6517566D01*
X6542958Y2817379D01*
Y2791987D01*
X6517566Y2766595D01*
X6492174D01*
X6517566D01*
X6542958Y2741204D01*
Y2715812D01*
X6517566Y2690420D01*
X6466783D01*
X6441391Y2715812D01*
X6593741Y2817379D02*
X6619133Y2842771D01*
X6669917D01*
X6695309Y2817379D01*
Y2791987D01*
X6669917Y2766595D01*
X6695309Y2741204D01*
Y2715812D01*
X6669917Y2690420D01*
X6619133D01*
X6593741Y2715812D01*
Y2741204D01*
X6619133Y2766595D01*
X6593741Y2791987D01*
Y2817379D01*
X6619133Y2766595D02*
X6669917D01*
X6911340Y2664460D02*
Y2816811D01*
X6987515D01*
X7012907Y2791419D01*
Y2740635D01*
X6987515Y2715243D01*
X6911340D01*
X6962123D02*
X7012907Y2664460D01*
X7063691Y2791419D02*
X7089083Y2816811D01*
X7139866D01*
X7165258Y2791419D01*
Y2766027D01*
X7139866Y2740635D01*
X7114474D01*
X7139866D01*
X7165258Y2715243D01*
Y2689852D01*
X7139866Y2664460D01*
X7089083D01*
X7063691Y2689852D01*
X7216041Y2816811D02*
X7317609D01*
Y2791419D01*
X7216041Y2689852D01*
Y2664460D01*
X4562470Y3142030D02*
Y3294381D01*
X4638646D01*
X4664037Y3268989D01*
Y3218205D01*
X4638646Y3192814D01*
X4562470D01*
X4613254D02*
X4664037Y3142030D01*
X4714821Y3268989D02*
X4740213Y3294381D01*
X4790996D01*
X4816388Y3268989D01*
Y3243597D01*
X4790996Y3218205D01*
X4765604D01*
X4790996D01*
X4816388Y3192814D01*
Y3167422D01*
X4790996Y3142030D01*
X4740213D01*
X4714821Y3167422D01*
X4968739Y3294381D02*
X4917955Y3268989D01*
X4867172Y3218205D01*
Y3167422D01*
X4892563Y3142030D01*
X4943347D01*
X4968739Y3167422D01*
Y3192814D01*
X4943347Y3218205D01*
X4867172D01*
X2466340Y4852960D02*
Y5005311D01*
X2542515D01*
X2567907Y4979919D01*
Y4929135D01*
X2542515Y4903744D01*
X2466340D01*
X2517123D02*
X2567907Y4852960D01*
X2618691Y4979919D02*
X2644083Y5005311D01*
X2694866D01*
X2720258Y4979919D01*
Y4954527D01*
X2694866Y4929135D01*
X2669474D01*
X2694866D01*
X2720258Y4903744D01*
Y4878352D01*
X2694866Y4852960D01*
X2644083D01*
X2618691Y4878352D01*
X2872609Y5005311D02*
X2771041D01*
Y4929135D01*
X2821825Y4954527D01*
X2847217D01*
X2872609Y4929135D01*
Y4878352D01*
X2847217Y4852960D01*
X2796433D01*
X2771041Y4878352D01*
X3876040Y3147060D02*
Y3299411D01*
X3952215D01*
X3977607Y3274019D01*
Y3223235D01*
X3952215Y3197843D01*
X3876040D01*
X3926823D02*
X3977607Y3147060D01*
X4028391Y3274019D02*
X4053783Y3299411D01*
X4104566D01*
X4129958Y3274019D01*
Y3248627D01*
X4104566Y3223235D01*
X4079174D01*
X4104566D01*
X4129958Y3197843D01*
Y3172452D01*
X4104566Y3147060D01*
X4053783D01*
X4028391Y3172452D01*
X4256917Y3147060D02*
Y3299411D01*
X4180741Y3223235D01*
X4282309D01*
X3281139Y3177200D02*
Y3329551D01*
X3357314D01*
X3382706Y3304159D01*
Y3253376D01*
X3357314Y3227984D01*
X3281139D01*
X3331922D02*
X3382706Y3177200D01*
X3433490Y3304159D02*
X3458882Y3329551D01*
X3509665D01*
X3535057Y3304159D01*
Y3278767D01*
X3509665Y3253376D01*
X3484273D01*
X3509665D01*
X3535057Y3227984D01*
Y3202592D01*
X3509665Y3177200D01*
X3458882D01*
X3433490Y3202592D01*
X3585840Y3304159D02*
X3611232Y3329551D01*
X3662016D01*
X3687408Y3304159D01*
Y3278767D01*
X3662016Y3253376D01*
X3636624D01*
X3662016D01*
X3687408Y3227984D01*
Y3202592D01*
X3662016Y3177200D01*
X3611232D01*
X3585840Y3202592D01*
X8356567Y939759D02*
X8331175Y965151D01*
X8280392D01*
X8255000Y939759D01*
Y838192D01*
X8280392Y812800D01*
X8331175D01*
X8356567Y838192D01*
X8407351Y939759D02*
X8432743Y965151D01*
X8483526D01*
X8508918Y939759D01*
Y914367D01*
X8483526Y888975D01*
X8458134D01*
X8483526D01*
X8508918Y863583D01*
Y838192D01*
X8483526Y812800D01*
X8432743D01*
X8407351Y838192D01*
X8559701Y965151D02*
X8661269D01*
Y939759D01*
X8559701Y838192D01*
Y812800D01*
X8305767Y1206459D02*
X8280375Y1231851D01*
X8229592D01*
X8204200Y1206459D01*
Y1104892D01*
X8229592Y1079500D01*
X8280375D01*
X8305767Y1104892D01*
X8356551Y1206459D02*
X8381943Y1231851D01*
X8432726D01*
X8458118Y1206459D01*
Y1181067D01*
X8432726Y1155675D01*
X8407334D01*
X8432726D01*
X8458118Y1130283D01*
Y1104892D01*
X8432726Y1079500D01*
X8381943D01*
X8356551Y1104892D01*
X8610469Y1231851D02*
X8559685Y1206459D01*
X8508901Y1155675D01*
Y1104892D01*
X8534293Y1079500D01*
X8585077D01*
X8610469Y1104892D01*
Y1130283D01*
X8585077Y1155675D01*
X8508901D01*
X10080027Y1375200D02*
X10054635Y1400592D01*
X10003852D01*
X9978460Y1375200D01*
Y1273633D01*
X10003852Y1248242D01*
X10054635D01*
X10080027Y1273633D01*
X10130811Y1375200D02*
X10156203Y1400592D01*
X10206986D01*
X10232378Y1375200D01*
Y1349809D01*
X10206986Y1324417D01*
X10181594D01*
X10206986D01*
X10232378Y1299025D01*
Y1273633D01*
X10206986Y1248242D01*
X10156203D01*
X10130811Y1273633D01*
X10384729Y1400592D02*
X10283162D01*
Y1324417D01*
X10333945Y1349809D01*
X10359337D01*
X10384729Y1324417D01*
Y1273633D01*
X10359337Y1248242D01*
X10308553D01*
X10283162Y1273633D01*
X9411937Y3039069D02*
X9386545Y3064461D01*
X9335762D01*
X9310370Y3039069D01*
Y2937502D01*
X9335762Y2912110D01*
X9386545D01*
X9411937Y2937502D01*
X9462721Y3039069D02*
X9488113Y3064461D01*
X9538896D01*
X9564288Y3039069D01*
Y3013677D01*
X9538896Y2988285D01*
X9513504D01*
X9538896D01*
X9564288Y2962893D01*
Y2937502D01*
X9538896Y2912110D01*
X9488113D01*
X9462721Y2937502D01*
X9691247Y2912110D02*
Y3064461D01*
X9615071Y2988285D01*
X9716639D01*
X4390324Y4409399D02*
X4364932Y4434791D01*
X4314149D01*
X4288757Y4409399D01*
Y4307832D01*
X4314149Y4282440D01*
X4364932D01*
X4390324Y4307832D01*
X4441107Y4409399D02*
X4466499Y4434791D01*
X4517283D01*
X4542675Y4409399D01*
Y4384007D01*
X4517283Y4358615D01*
X4491891D01*
X4517283D01*
X4542675Y4333223D01*
Y4307832D01*
X4517283Y4282440D01*
X4466499D01*
X4441107Y4307832D01*
X4593458Y4409399D02*
X4618850Y4434791D01*
X4669634D01*
X4695025Y4409399D01*
Y4384007D01*
X4669634Y4358615D01*
X4644242D01*
X4669634D01*
X4695025Y4333223D01*
Y4307832D01*
X4669634Y4282440D01*
X4618850D01*
X4593458Y4307832D01*
X3596607Y2463899D02*
X3571215Y2489291D01*
X3520432D01*
X3495040Y2463899D01*
Y2362332D01*
X3520432Y2336940D01*
X3571215D01*
X3596607Y2362332D01*
X3647391Y2463899D02*
X3672783Y2489291D01*
X3723566D01*
X3748958Y2463899D01*
Y2438507D01*
X3723566Y2413116D01*
X3698174D01*
X3723566D01*
X3748958Y2387724D01*
Y2362332D01*
X3723566Y2336940D01*
X3672783D01*
X3647391Y2362332D01*
X3799741Y2336940D02*
X3850525D01*
X3825133D01*
Y2489291D01*
X3799741Y2463899D01*
X9639905Y6001506D02*
X9623244Y6018168D01*
X9589921D01*
X9573260Y6001506D01*
Y5934861D01*
X9589921Y5918200D01*
X9623244D01*
X9639905Y5934861D01*
X9673228Y5918200D02*
X9706550D01*
X9689889D01*
Y6018168D01*
X9673228Y6001506D01*
X9823179Y6018168D02*
X9756534D01*
Y5968184D01*
X9789857Y5984845D01*
X9806518D01*
X9823179Y5968184D01*
Y5934861D01*
X9806518Y5918200D01*
X9773196D01*
X9756534Y5934861D01*
X9347805Y5993886D02*
X9331144Y6010548D01*
X9297821D01*
X9281160Y5993886D01*
Y5927241D01*
X9297821Y5910580D01*
X9331144D01*
X9347805Y5927241D01*
X9381128Y5910580D02*
X9414450D01*
X9397789D01*
Y6010548D01*
X9381128Y5993886D01*
X9514418Y5910580D02*
Y6010548D01*
X9464434Y5960564D01*
X9531079D01*
X9007445Y6052306D02*
X8990784Y6068968D01*
X8957461D01*
X8940800Y6052306D01*
Y5985661D01*
X8957461Y5969000D01*
X8990784D01*
X9007445Y5985661D01*
X9040768Y5969000D02*
X9074090D01*
X9057429D01*
Y6068968D01*
X9040768Y6052306D01*
X9124074D02*
X9140736Y6068968D01*
X9174058D01*
X9190719Y6052306D01*
Y6035645D01*
X9174058Y6018984D01*
X9157397D01*
X9174058D01*
X9190719Y6002323D01*
Y5985661D01*
X9174058Y5969000D01*
X9140736D01*
X9124074Y5985661D01*
X9509760Y5105400D02*
Y5257751D01*
X9585935D01*
X9611327Y5232359D01*
Y5181575D01*
X9585935Y5156183D01*
X9509760D01*
X9662111Y5130792D02*
X9687503Y5105400D01*
X9738286D01*
X9763678Y5130792D01*
Y5232359D01*
X9738286Y5257751D01*
X9687503D01*
X9662111Y5232359D01*
Y5206967D01*
X9687503Y5181575D01*
X9763678D01*
X640080Y2349500D02*
Y2501851D01*
X716255D01*
X741647Y2476459D01*
Y2425675D01*
X716255Y2400283D01*
X640080D01*
X792431Y2349500D02*
X843214D01*
X817823D01*
Y2501851D01*
X792431Y2476459D01*
X919390Y2349500D02*
X970173D01*
X944781D01*
Y2501851D01*
X919390Y2476459D01*
X4552880Y6837680D02*
Y6990031D01*
X4629055D01*
X4654447Y6964639D01*
Y6913855D01*
X4629055Y6888463D01*
X4552880D01*
X4781406Y6990031D02*
X4730622D01*
X4705231Y6964639D01*
Y6863072D01*
X4730622Y6837680D01*
X4781406D01*
X4806798Y6863072D01*
Y6964639D01*
X4781406Y6990031D01*
X4857581D02*
X4959149D01*
X4908365D01*
Y6837680D01*
X5009932D02*
X5060716D01*
X5035324D01*
Y6990031D01*
X5009932Y6964639D01*
X5989287Y6969711D02*
X5938503D01*
X5963895D01*
Y6842752D01*
X5938503Y6817360D01*
X5913112D01*
X5887720Y6842752D01*
X6040071Y6969711D02*
X6141638D01*
Y6944319D01*
X6040071Y6842752D01*
Y6817360D01*
X4061460Y2357087D02*
Y2280912D01*
X4086852Y2255520D01*
X4163027D01*
Y2357087D01*
X4315378Y2382479D02*
X4289986Y2407871D01*
X4239203D01*
X4213811Y2382479D01*
Y2357087D01*
X4239203Y2331695D01*
X4289986D01*
X4315378Y2306303D01*
Y2280912D01*
X4289986Y2255520D01*
X4239203D01*
X4213811Y2280912D01*
X4366161Y2407871D02*
Y2255520D01*
X4442337D01*
X4467729Y2280912D01*
Y2382479D01*
X4442337Y2407871D01*
X4366161D01*
X4518512Y2230128D02*
X4620079D01*
X4772430Y2382479D02*
X4747038Y2407871D01*
X4696255D01*
X4670863Y2382479D01*
Y2357087D01*
X4696255Y2331695D01*
X4747038D01*
X4772430Y2306303D01*
Y2280912D01*
X4747038Y2255520D01*
X4696255D01*
X4670863Y2280912D01*
X4823214Y2407871D02*
Y2255520D01*
X4924781D01*
X5051740Y2407871D02*
X5000956D01*
X4975564Y2382479D01*
Y2280912D01*
X5000956Y2255520D01*
X5051740D01*
X5077132Y2280912D01*
Y2382479D01*
X5051740Y2407871D01*
X5127915D02*
X5229482D01*
X5178699D01*
Y2255520D01*
X6205220Y2202147D02*
Y2125972D01*
X6230612Y2100580D01*
X6306787D01*
Y2202147D01*
X6459138Y2227539D02*
X6433746Y2252931D01*
X6382963D01*
X6357571Y2227539D01*
Y2202147D01*
X6382963Y2176755D01*
X6433746D01*
X6459138Y2151363D01*
Y2125972D01*
X6433746Y2100580D01*
X6382963D01*
X6357571Y2125972D01*
X6509921Y2252931D02*
Y2100580D01*
X6586097D01*
X6611489Y2125972D01*
Y2227539D01*
X6586097Y2252931D01*
X6509921D01*
X6662272Y2075188D02*
X6763839D01*
X6916190Y2227539D02*
X6890798Y2252931D01*
X6840015D01*
X6814623Y2227539D01*
Y2125972D01*
X6840015Y2100580D01*
X6890798D01*
X6916190Y2125972D01*
X6966974Y2252931D02*
X7017757D01*
X6992365D01*
Y2100580D01*
X6966974D01*
X7017757D01*
X2280920Y2570431D02*
Y2443472D01*
X2306312Y2418080D01*
X2357095D01*
X2382487Y2443472D01*
Y2570431D01*
X2433271Y2418080D02*
X2484054D01*
X2458663D01*
Y2570431D01*
X2433271Y2545039D01*
X2560230Y2418080D02*
X2611013D01*
X2585621D01*
Y2570431D01*
X2560230Y2545039D01*
X6507480Y6863031D02*
Y6736072D01*
X6532872Y6710680D01*
X6583655D01*
X6609047Y6736072D01*
Y6863031D01*
X6736006Y6710680D02*
Y6863031D01*
X6659831Y6786855D01*
X6761398D01*
X7345680Y7929831D02*
Y7802872D01*
X7371072Y7777480D01*
X7421855D01*
X7447247Y7802872D01*
Y7929831D01*
X7498031Y7904439D02*
X7523423Y7929831D01*
X7574206D01*
X7599598Y7904439D01*
Y7879047D01*
X7574206Y7853655D01*
X7548814D01*
X7574206D01*
X7599598Y7828263D01*
Y7802872D01*
X7574206Y7777480D01*
X7523423D01*
X7498031Y7802872D01*
X3827780Y8126047D02*
Y7999088D01*
X3853172Y7973696D01*
X3903955D01*
X3929347Y7999088D01*
Y8126047D01*
X3980131Y7973696D02*
X4030914D01*
X4005523D01*
Y8126047D01*
X3980131Y8100655D01*
X2319964Y8305286D02*
X2303303Y8321948D01*
X2269980D01*
X2253319Y8305286D01*
Y8288625D01*
X2269980Y8271964D01*
X2303303D01*
X2319964Y8255303D01*
Y8238641D01*
X2303303Y8221980D01*
X2269980D01*
X2253319Y8238641D01*
X2353287Y8321948D02*
Y8221980D01*
X2386609Y8255303D01*
X2419932Y8221980D01*
Y8321948D01*
X2453255Y8205319D02*
X2519900D01*
X2603206Y8321948D02*
X2569884D01*
X2553222Y8305286D01*
Y8238641D01*
X2569884Y8221980D01*
X2603206D01*
X2619868Y8238641D01*
Y8305286D01*
X2603206Y8321948D01*
X2653190Y8221980D02*
Y8321948D01*
X2719835Y8221980D01*
Y8321948D01*
X2753158Y8205319D02*
X2819803D01*
X2903110Y8321948D02*
X2869787D01*
X2853126Y8305286D01*
Y8238641D01*
X2869787Y8221980D01*
X2903110D01*
X2919771Y8238641D01*
Y8305286D01*
X2903110Y8321948D01*
X3019739D02*
X2953094D01*
Y8271964D01*
X2986416D01*
X2953094D01*
Y8221980D01*
X3119706Y8321948D02*
X3053061D01*
Y8271964D01*
X3086384D01*
X3053061D01*
Y8221980D01*
X5229827Y3736299D02*
X5204435Y3761691D01*
X5153652D01*
X5128260Y3736299D01*
Y3710907D01*
X5153652Y3685515D01*
X5204435D01*
X5229827Y3660123D01*
Y3634732D01*
X5204435Y3609340D01*
X5153652D01*
X5128260Y3634732D01*
X5280611Y3761691D02*
Y3609340D01*
X5331394Y3660123D01*
X5382178Y3609340D01*
Y3761691D01*
X5534529Y3609340D02*
X5432961D01*
X5534529Y3710907D01*
Y3736299D01*
X5509137Y3761691D01*
X5458353D01*
X5432961Y3736299D01*
X5242527Y4485599D02*
X5217135Y4510991D01*
X5166352D01*
X5140960Y4485599D01*
Y4460207D01*
X5166352Y4434815D01*
X5217135D01*
X5242527Y4409423D01*
Y4384032D01*
X5217135Y4358640D01*
X5166352D01*
X5140960Y4384032D01*
X5293311Y4510991D02*
Y4358640D01*
X5344094Y4409423D01*
X5394878Y4358640D01*
Y4510991D01*
X5445661Y4358640D02*
X5496445D01*
X5471053D01*
Y4510991D01*
X5445661Y4485599D01*
X5948680Y5364480D02*
Y5516831D01*
X6024855D01*
X6050247Y5491439D01*
Y5440655D01*
X6024855Y5415263D01*
X5948680D01*
X5999463D02*
X6050247Y5364480D01*
X6177206D02*
Y5516831D01*
X6101031Y5440655D01*
X6202598D01*
X6354949Y5516831D02*
X6253381D01*
Y5440655D01*
X6304165Y5466047D01*
X6329557D01*
X6354949Y5440655D01*
Y5389872D01*
X6329557Y5364480D01*
X6278773D01*
X6253381Y5389872D01*
X6713220Y5661660D02*
Y5814011D01*
X6789395D01*
X6814787Y5788619D01*
Y5737835D01*
X6789395Y5712443D01*
X6713220D01*
X6764003D02*
X6814787Y5661660D01*
X6941746D02*
Y5814011D01*
X6865571Y5737835D01*
X6967138D01*
X7094097Y5661660D02*
Y5814011D01*
X7017921Y5737835D01*
X7119489D01*
X4168140Y5669280D02*
Y5821631D01*
X4244315D01*
X4269707Y5796239D01*
Y5745455D01*
X4244315Y5720063D01*
X4168140D01*
X4218923D02*
X4269707Y5669280D01*
X4320491D02*
X4371274D01*
X4345883D01*
Y5821631D01*
X4320491Y5796239D01*
X4028186Y3891272D02*
Y3992839D01*
X4002794Y4018231D01*
X3952011D01*
X3926619Y3992839D01*
Y3891272D01*
X3952011Y3865880D01*
X4002794D01*
X3977403Y3916663D02*
X4028186Y3865880D01*
X4002794D02*
X4028186Y3891272D01*
X4180537Y3865880D02*
X4078970D01*
X4180537Y3967447D01*
Y3992839D01*
X4155145Y4018231D01*
X4104362D01*
X4078970Y3992839D01*
X3208966Y3916672D02*
Y4018239D01*
X3183575Y4043631D01*
X3132791D01*
X3107399Y4018239D01*
Y3916672D01*
X3132791Y3891280D01*
X3183575D01*
X3158183Y3942063D02*
X3208966Y3891280D01*
X3183575D02*
X3208966Y3916672D01*
X3259750Y3891280D02*
X3310533D01*
X3285142D01*
Y4043631D01*
X3259750Y4018239D01*
X9522460Y4178300D02*
Y4330651D01*
X9598635D01*
X9624027Y4305259D01*
Y4254475D01*
X9598635Y4229083D01*
X9522460D01*
X9674811Y4178300D02*
X9725594D01*
X9700203D01*
Y4330651D01*
X9674811Y4305259D01*
X9801770D02*
X9827161Y4330651D01*
X9877945D01*
X9903337Y4305259D01*
Y4203692D01*
X9877945Y4178300D01*
X9827161D01*
X9801770Y4203692D01*
Y4305259D01*
X2876099Y5205368D02*
Y5105400D01*
X2942744D01*
X3042712Y5188706D02*
X3026051Y5205368D01*
X2992728D01*
X2976067Y5188706D01*
Y5172045D01*
X2992728Y5155384D01*
X3026051D01*
X3042712Y5138723D01*
Y5122061D01*
X3026051Y5105400D01*
X2992728D01*
X2976067Y5122061D01*
X3001010Y7153861D02*
Y7001510D01*
X3102577D01*
X3153361D02*
X3204144D01*
X3178753D01*
Y7153861D01*
X3153361Y7128469D01*
X7543767Y2844751D02*
X7492983D01*
X7518375D01*
Y2717792D01*
X7492983Y2692400D01*
X7467592D01*
X7442200Y2717792D01*
X7696118Y2844751D02*
X7594551D01*
Y2768575D01*
X7645334Y2793967D01*
X7670726D01*
X7696118Y2768575D01*
Y2717792D01*
X7670726Y2692400D01*
X7619943D01*
X7594551Y2717792D01*
X7282147Y2271251D02*
X7231363D01*
X7256755D01*
Y2144292D01*
X7231363Y2118900D01*
X7205972D01*
X7180580Y2144292D01*
X7409106Y2118900D02*
Y2271251D01*
X7332931Y2195075D01*
X7434498D01*
X2451067Y6852570D02*
X2400283D01*
X2425675D01*
Y6725611D01*
X2400283Y6700219D01*
X2374892D01*
X2349500Y6725611D01*
X2603418Y6700219D02*
X2501851D01*
X2603418Y6801786D01*
Y6827178D01*
X2578026Y6852570D01*
X2527243D01*
X2501851Y6827178D01*
X2266626Y4002991D02*
X2165059D01*
Y3850640D01*
X2266626D01*
X2165059Y3926815D02*
X2215843D01*
X2317410Y3850640D02*
Y4002991D01*
X2418977Y3850640D01*
Y4002991D01*
X4602480Y8354968D02*
Y8255000D01*
X4652464D01*
X4669125Y8271661D01*
Y8338306D01*
X4652464Y8354968D01*
X4602480D01*
X4702448Y8338306D02*
X4719109Y8354968D01*
X4752432D01*
X4769093Y8338306D01*
Y8321645D01*
X4752432Y8304984D01*
X4735770D01*
X4752432D01*
X4769093Y8288323D01*
Y8271661D01*
X4752432Y8255000D01*
X4719109D01*
X4702448Y8271661D01*
X4729480Y5016451D02*
Y4864100D01*
X4805655D01*
X4831047Y4889492D01*
Y4991059D01*
X4805655Y5016451D01*
X4729480D01*
X4983398Y4864100D02*
X4881831D01*
X4983398Y4965667D01*
Y4991059D01*
X4958006Y5016451D01*
X4907223D01*
X4881831Y4991059D01*
X4740980Y5473651D02*
Y5321300D01*
X4817155D01*
X4842547Y5346692D01*
Y5448259D01*
X4817155Y5473651D01*
X4740980D01*
X4893331Y5321300D02*
X4944114D01*
X4918723D01*
Y5473651D01*
X4893331Y5448259D01*
X6294087Y7797759D02*
X6268695Y7823151D01*
X6217912D01*
X6192520Y7797759D01*
Y7696192D01*
X6217912Y7670800D01*
X6268695D01*
X6294087Y7696192D01*
X6421046Y7670800D02*
Y7823151D01*
X6344871Y7746975D01*
X6446438D01*
X3283301Y8248609D02*
X3257909Y8274001D01*
X3207126D01*
X3181734Y8248609D01*
Y8147042D01*
X3207126Y8121650D01*
X3257909D01*
X3283301Y8147042D01*
X3334085Y8248609D02*
X3359476Y8274001D01*
X3410260D01*
X3435652Y8248609D01*
Y8223217D01*
X3410260Y8197825D01*
X3384868D01*
X3410260D01*
X3435652Y8172433D01*
Y8147042D01*
X3410260Y8121650D01*
X3359476D01*
X3334085Y8147042D01*
X2378677Y5789889D02*
X2353285Y5815281D01*
X2302502D01*
X2277110Y5789889D01*
Y5688322D01*
X2302502Y5662930D01*
X2353285D01*
X2378677Y5688322D01*
X2429461Y5662930D02*
X2480244D01*
X2454853D01*
Y5815281D01*
X2429461Y5789889D01*
X2165059Y3380691D02*
Y3228340D01*
X2241235D01*
X2266626Y3253732D01*
Y3279123D01*
X2241235Y3304515D01*
X2165059D01*
X2241235D01*
X2266626Y3329907D01*
Y3355299D01*
X2241235Y3380691D01*
X2165059D01*
X2393585D02*
X2342802D01*
X2317410Y3355299D01*
Y3253732D01*
X2342802Y3228340D01*
X2393585D01*
X2418977Y3253732D01*
Y3355299D01*
X2393585Y3380691D01*
X2545936D02*
X2495152D01*
X2469761Y3355299D01*
Y3253732D01*
X2495152Y3228340D01*
X2545936D01*
X2571328Y3253732D01*
Y3355299D01*
X2545936Y3380691D01*
X2622111D02*
X2723679D01*
X2672895D01*
Y3228340D01*
X8583930Y2195830D02*
Y2297397D01*
X8634713Y2348181D01*
X8685497Y2297397D01*
Y2195830D01*
Y2272005D01*
X8583930D01*
X8736281Y2170438D02*
X8837848D01*
X8990199Y2322789D02*
X8964807Y2348181D01*
X8914023D01*
X8888631Y2322789D01*
Y2221222D01*
X8914023Y2195830D01*
X8964807D01*
X8990199Y2221222D01*
Y2272005D01*
X8939415D01*
%TF.MD5,27fcc94a2ffd5f3a81e64beb85e410b4*%
M02*
