%TF.GenerationSoftware,Altium Limited,Altium Designer,19.0.15 (446)*%
G04 Layer_Physical_Order=1*
G04 Layer_Color=255*
%FSLAX45Y45*%
%MOMM*%
%TF.FileFunction,Copper,L1,Top,Signal*%
%TF.Part,Single*%
G01*
G75*
%TA.AperFunction,Conductor*%
%ADD10C,0.50000*%
%TA.AperFunction,SMDPad,CuDef*%
%ADD11R,0.80000X0.80000*%
%ADD12R,1.15776X1.36062*%
%ADD13R,1.35000X0.85000*%
%ADD14R,1.80000X1.25000*%
%ADD15R,0.55000X0.80000*%
%TA.AperFunction,ConnectorPad*%
%ADD16R,1.50000X1.90000*%
%ADD17R,0.40000X1.35000*%
%TA.AperFunction,SMDPad,CuDef*%
%ADD18R,0.90000X2.00000*%
%ADD19R,2.00000X0.90000*%
%TA.AperFunction,BGAPad,CuDef*%
%ADD20R,1.33000X1.33000*%
%TA.AperFunction,SMDPad,CuDef*%
%ADD21R,1.10550X1.65822*%
%ADD22R,1.65822X1.10550*%
%ADD23R,0.85000X1.35000*%
%ADD24R,1.36062X1.15776*%
%ADD25R,1.26062X0.95776*%
%ADD26R,0.80000X1.70000*%
%ADD27R,3.13000X3.13000*%
%ADD28O,0.95000X0.20000*%
%ADD29O,0.20000X0.95000*%
%ADD30R,0.80000X0.90000*%
G04:AMPARAMS|DCode=31|XSize=1.65543mm|YSize=0.38077mm|CornerRadius=0.19038mm|HoleSize=0mm|Usage=FLASHONLY|Rotation=270.000|XOffset=0mm|YOffset=0mm|HoleType=Round|Shape=RoundedRectangle|*
%AMROUNDEDRECTD31*
21,1,1.65543,0.00000,0,0,270.0*
21,1,1.27467,0.38077,0,0,270.0*
1,1,0.38077,0.00000,-0.63733*
1,1,0.38077,0.00000,0.63733*
1,1,0.38077,0.00000,0.63733*
1,1,0.38077,0.00000,-0.63733*
%
%ADD31ROUNDEDRECTD31*%
%ADD32R,0.38077X1.65543*%
%ADD33R,2.70000X2.60000*%
%ADD34R,0.80000X0.35000*%
%ADD35R,0.35000X0.85000*%
%ADD36R,1.50000X1.30000*%
%ADD37R,1.30000X1.50000*%
%ADD38R,1.90000X1.50000*%
%ADD39O,0.60000X2.20000*%
%ADD40R,1.98000X0.53000*%
%ADD41R,1.72000X3.20000*%
%ADD42R,2.00000X3.50000*%
G04:AMPARAMS|DCode=43|XSize=1.00429mm|YSize=3.18213mm|CornerRadius=0.43687mm|HoleSize=0mm|Usage=FLASHONLY|Rotation=90.000|XOffset=0mm|YOffset=0mm|HoleType=Round|Shape=RoundedRectangle|*
%AMROUNDEDRECTD43*
21,1,1.00429,2.30840,0,0,90.0*
21,1,0.13056,3.18213,0,0,90.0*
1,1,0.87373,1.15420,0.06528*
1,1,0.87373,1.15420,-0.06528*
1,1,0.87373,-1.15420,-0.06528*
1,1,0.87373,-1.15420,0.06528*
%
%ADD43ROUNDEDRECTD43*%
G04:AMPARAMS|DCode=44|XSize=1.00429mm|YSize=0.87213mm|CornerRadius=0.43606mm|HoleSize=0mm|Usage=FLASHONLY|Rotation=90.000|XOffset=0mm|YOffset=0mm|HoleType=Round|Shape=RoundedRectangle|*
%AMROUNDEDRECTD44*
21,1,1.00429,0.00000,0,0,90.0*
21,1,0.13216,0.87213,0,0,90.0*
1,1,0.87213,0.00000,0.06608*
1,1,0.87213,0.00000,-0.06608*
1,1,0.87213,0.00000,-0.06608*
1,1,0.87213,0.00000,0.06608*
%
%ADD44ROUNDEDRECTD44*%
%ADD45R,0.87213X1.00429*%
%TA.AperFunction,Conductor*%
%ADD46C,0.40000*%
%ADD47C,0.25400*%
%ADD48C,0.30000*%
%TA.AperFunction,ComponentPad*%
%ADD49C,1.45000*%
%ADD50R,1.80000X1.80000*%
%ADD51C,1.80000*%
%ADD52C,1.35000*%
%ADD53R,1.35000X1.35000*%
%ADD54C,1.55000*%
%ADD55R,1.55000X1.55000*%
%ADD56C,1.39000*%
%ADD57C,1.52400*%
%TA.AperFunction,SMDPad,CuDef*%
%ADD58R,1.20000X2.20000*%
%ADD59R,1.60000X1.40000*%
%ADD60R,1.20000X1.40000*%
%ADD61R,0.70000X1.60000*%
%TA.AperFunction,ComponentPad*%
%ADD62C,1.84000*%
%ADD63R,1.84000X1.84000*%
%ADD64C,1.57000*%
%ADD65R,1.57000X1.57000*%
%ADD66R,1.57000X1.57000*%
%ADD67C,1.66680*%
%ADD68R,1.66680X1.66680*%
%TA.AperFunction,ViaPad*%
%ADD69C,1.27000*%
%ADD70C,0.50000*%
G36*
X4456953Y7362609D02*
Y7203402D01*
X4444253Y7199550D01*
X4443236Y7201072D01*
X4349085Y7295223D01*
Y7359036D01*
X4344786Y7380652D01*
X4332541Y7398977D01*
X4330170Y7400562D01*
X4328936Y7402408D01*
X4238124Y7493220D01*
X4242984Y7504953D01*
X4314609D01*
X4456953Y7362609D01*
D02*
G37*
G36*
X10604500Y609600D02*
X3410255D01*
X3407729Y622300D01*
X3411925Y624038D01*
X3427676Y636124D01*
X3439762Y651875D01*
X3447359Y670217D01*
X3449951Y689900D01*
X3449798Y691062D01*
X3449795Y777428D01*
X3450287Y779900D01*
X3449292Y784904D01*
X3447359Y799584D01*
X3439762Y817925D01*
X3427676Y833676D01*
X3411925Y845762D01*
X3393584Y853359D01*
X3373900Y855951D01*
X3372737Y855798D01*
X3310189D01*
Y918107D01*
X3313273Y919384D01*
X3333723Y935077D01*
X3349415Y955528D01*
X3359280Y979343D01*
X3360973Y992200D01*
X3263900D01*
Y1004900D01*
X3251200D01*
Y1101973D01*
X3238343Y1100280D01*
X3214527Y1090415D01*
X3207280Y1084854D01*
X3195889Y1090471D01*
Y1153326D01*
X3228174Y1185611D01*
X3530599D01*
X3530600Y1185610D01*
X3548314Y1189134D01*
X3563332Y1199168D01*
X3904131Y1539967D01*
X3914165Y1554985D01*
X3917689Y1572699D01*
X3917688Y1572700D01*
Y1752600D01*
Y2086925D01*
X3931631Y2100868D01*
X3931632Y2100868D01*
X4070474Y2239711D01*
X4550926D01*
X4587411Y2203226D01*
Y2170200D01*
X4243300D01*
Y1959400D01*
X4484854D01*
Y1790600D01*
X4487811Y1775734D01*
X4496232Y1763131D01*
X4902531Y1356831D01*
X4915134Y1348411D01*
X4930000Y1345453D01*
X5722809D01*
X6263100Y805163D01*
Y729900D01*
X6398900D01*
Y915700D01*
X6263101D01*
X6263100Y915700D01*
Y915700D01*
X6254316Y923821D01*
X5766368Y1411769D01*
X5753766Y1420189D01*
X5738900Y1423147D01*
X5143129D01*
X5142297Y1435847D01*
X5154007Y1437388D01*
X5175634Y1446346D01*
X5194204Y1460596D01*
X5208454Y1479166D01*
X5217412Y1500793D01*
X5220467Y1524000D01*
X5217412Y1547207D01*
X5208454Y1568834D01*
X5194204Y1587404D01*
X5175634Y1601654D01*
X5154007Y1610612D01*
X5130800Y1613667D01*
X5115783Y1611690D01*
X5027853Y1699619D01*
X5035047Y1710386D01*
X5050493Y1703988D01*
X5073700Y1700933D01*
X5096908Y1703988D01*
X5118534Y1712946D01*
X5137104Y1727196D01*
X5151354Y1745766D01*
X5160312Y1767392D01*
X5163367Y1790600D01*
X5160312Y1813807D01*
X5154737Y1827265D01*
X5165504Y1834459D01*
X5195493Y1804470D01*
X5208096Y1796049D01*
X5222962Y1793092D01*
X5533809D01*
X6036475Y1290426D01*
X6049078Y1282006D01*
X6063943Y1279048D01*
X6223991D01*
Y1203128D01*
X6227440Y1185789D01*
X6237262Y1171090D01*
X6251961Y1161268D01*
X6269300Y1157819D01*
X6286639Y1161268D01*
X6301338Y1171090D01*
X6302262D01*
X6316961Y1161268D01*
X6334300Y1157819D01*
X6351639Y1161268D01*
X6366338Y1171090D01*
X6367262D01*
X6381961Y1161268D01*
X6386600Y1160346D01*
Y1266862D01*
X6412000D01*
Y1160346D01*
X6416639Y1161268D01*
X6431338Y1171090D01*
X6432262D01*
X6446961Y1161268D01*
X6464300Y1157819D01*
X6477753Y1160496D01*
X6490454Y1153046D01*
Y971291D01*
X6473731Y954569D01*
X6465310Y941966D01*
X6462353Y927100D01*
Y915700D01*
X6428100D01*
Y729900D01*
X6563900D01*
Y915700D01*
X6561331D01*
X6558392Y922793D01*
X6557215Y928400D01*
X6565190Y940334D01*
X6568147Y955200D01*
Y1153046D01*
X6580847Y1160496D01*
X6581600Y1160346D01*
Y1266862D01*
X6607000D01*
Y1160346D01*
X6611639Y1161268D01*
X6626338Y1171090D01*
X6627262D01*
X6641961Y1161268D01*
X6659300Y1157819D01*
X6676639Y1161268D01*
X6679613Y1163255D01*
X6692313Y1156467D01*
Y1050525D01*
X6680296Y1041304D01*
X6666046Y1022734D01*
X6657088Y1001107D01*
X6654033Y977900D01*
X6657088Y954693D01*
X6666046Y933066D01*
X6680296Y914496D01*
X6698866Y900246D01*
X6720493Y891288D01*
X6743700Y888233D01*
X6766907Y891288D01*
X6788534Y900246D01*
X6807104Y914496D01*
X6821354Y933066D01*
X6830312Y954693D01*
X6833367Y977900D01*
X6830312Y1001107D01*
X6821354Y1022734D01*
X6807104Y1041304D01*
X6795087Y1050525D01*
Y1182462D01*
X6791176Y1202127D01*
X6787337Y1207872D01*
X6794125Y1220572D01*
X7187060D01*
X7187062Y1220572D01*
X7204776Y1224096D01*
X7219793Y1234130D01*
X7569579Y1583916D01*
X7581313Y1579056D01*
Y1333500D01*
X7585224Y1313835D01*
X7596364Y1297164D01*
X8231364Y662164D01*
X8248035Y651024D01*
X8267700Y647113D01*
X10172700D01*
X10192365Y651024D01*
X10209036Y662164D01*
X10450336Y903464D01*
X10461476Y920135D01*
X10465387Y939800D01*
Y5105400D01*
X10461476Y5125065D01*
X10450336Y5141736D01*
X10348736Y5243336D01*
X10332065Y5254476D01*
X10312400Y5258387D01*
X9839685D01*
X9715404Y5382668D01*
X9716087Y5386100D01*
Y5556293D01*
X9753131D01*
Y5701730D01*
Y5783011D01*
X9944100D01*
X9961814Y5786534D01*
X9976832Y5796568D01*
X9986866Y5811586D01*
X9990389Y5829300D01*
Y6604000D01*
Y6768193D01*
X10088331D01*
Y6838781D01*
X9994900D01*
Y6864181D01*
X10088331D01*
Y6933630D01*
Y6965313D01*
X10232200D01*
Y6948800D01*
X10418000D01*
Y7084600D01*
X10232200D01*
Y7068087D01*
X10088331D01*
Y7100207D01*
X9901469D01*
Y7068306D01*
X9758131D01*
Y7100207D01*
X9571269D01*
Y7068306D01*
X9427931D01*
Y7112907D01*
X9241069D01*
Y7081006D01*
X9110431D01*
Y7112907D01*
X9005509D01*
X8991477Y7122282D01*
X8971812Y7126194D01*
X8923079D01*
X8405636Y7643636D01*
X8388965Y7654776D01*
X8369300Y7658687D01*
X8117900D01*
Y7659200D01*
X7869100D01*
Y7555400D01*
X8117900D01*
Y7555913D01*
X8348015D01*
X8865457Y7038470D01*
X8882128Y7027331D01*
X8901793Y7023419D01*
X8923569D01*
Y6897904D01*
X8575501D01*
X8575500Y6897904D01*
X8557786Y6894380D01*
X8542768Y6884346D01*
X8542768Y6884345D01*
X8181712Y6523289D01*
X8086931D01*
Y6565330D01*
Y6731907D01*
X8044887D01*
Y7174400D01*
X8117900D01*
Y7278200D01*
X7869100D01*
Y7277687D01*
X7836487D01*
Y7732121D01*
X7832576Y7751786D01*
X7821436Y7768457D01*
X7768457Y7821436D01*
X7751786Y7832576D01*
X7732121Y7836487D01*
X6625285D01*
X5979936Y8481836D01*
X5963265Y8492976D01*
X5943600Y8496887D01*
X2436614D01*
X2416949Y8492976D01*
X2400278Y8481836D01*
X717564Y6799122D01*
X706424Y6782451D01*
X702513Y6762786D01*
Y2046222D01*
X695702Y2043401D01*
X671596Y2024904D01*
X653099Y2000798D01*
X641470Y1972725D01*
X637504Y1942600D01*
X641470Y1912474D01*
X653099Y1884402D01*
X671596Y1860296D01*
X695702Y1841798D01*
X723775Y1830170D01*
X753900Y1826204D01*
X784025Y1830170D01*
X812098Y1841798D01*
X836204Y1860296D01*
X854701Y1884402D01*
X866329Y1912474D01*
X870295Y1942600D01*
X866329Y1972725D01*
X854701Y2000798D01*
X836204Y2024904D01*
X812098Y2043401D01*
X805287Y2046222D01*
Y6741501D01*
X2457900Y8394113D01*
X5922315D01*
X6567664Y7748764D01*
X6584335Y7737624D01*
X6604000Y7733713D01*
X7710836D01*
X7733713Y7710836D01*
Y7226300D01*
X7737624Y7206635D01*
X7748764Y7189964D01*
X7765435Y7178824D01*
X7785100Y7174913D01*
X7869100D01*
Y7174400D01*
X7942113D01*
Y6731907D01*
X7900069D01*
Y6565330D01*
Y6523289D01*
X7855074D01*
X7852739Y6525624D01*
X7852738Y6525625D01*
X7850404Y6527960D01*
Y6667499D01*
X7850404Y6667500D01*
X7846880Y6685214D01*
X7836846Y6700232D01*
X7798746Y6738332D01*
X7783728Y6748366D01*
X7766014Y6751890D01*
X7766013Y6751889D01*
X7717089D01*
Y6819900D01*
Y7327900D01*
X7713566Y7345614D01*
X7703532Y7360632D01*
X7703531Y7360632D01*
X7678132Y7386032D01*
X7663114Y7396066D01*
X7645400Y7399590D01*
X7645399Y7399589D01*
X7624900D01*
Y7405200D01*
X7513200D01*
Y7353300D01*
Y7301400D01*
X7624511D01*
Y7278200D01*
X7376100D01*
Y7277687D01*
X7349185D01*
X7272155Y7354718D01*
X7255484Y7365857D01*
X7235818Y7369769D01*
X6964131D01*
Y7428913D01*
X7376100D01*
Y7428400D01*
X7624900D01*
Y7532200D01*
X7376100D01*
Y7531687D01*
X6964131D01*
Y7567107D01*
X6777269D01*
Y7400530D01*
Y7235093D01*
X6964131D01*
Y7266994D01*
X7214533D01*
X7291564Y7189964D01*
X7308235Y7178824D01*
X7327900Y7174913D01*
X7376100D01*
Y7174400D01*
X7624511D01*
Y6866189D01*
X6764474D01*
X6382111Y7248552D01*
Y7251064D01*
X6286500D01*
Y7183089D01*
X6316648D01*
X6712568Y6787169D01*
X6712568Y6787168D01*
X6727586Y6777134D01*
X6745300Y6773610D01*
X6745301Y6773611D01*
X7624511D01*
Y6751889D01*
X6529000D01*
X6511285Y6748366D01*
X6496268Y6738332D01*
X6496268Y6738331D01*
X6318468Y6560532D01*
X6308434Y6545514D01*
X6304910Y6527800D01*
X6304910Y6527799D01*
Y6021380D01*
X6304910Y6021379D01*
X6308434Y6003665D01*
X6318468Y5988647D01*
X6396132Y5910983D01*
X6411150Y5900949D01*
X6428864Y5897425D01*
X6428865Y5897425D01*
X6559993D01*
Y5830585D01*
X6616300D01*
Y5906200D01*
Y5986152D01*
X6615807Y5986481D01*
X6598093Y5990004D01*
X6448038D01*
X6397489Y6040553D01*
Y6508626D01*
X6548174Y6659311D01*
X7746840D01*
X7757825Y6648326D01*
Y6508787D01*
X7757824Y6508786D01*
X7760777Y6493941D01*
X7504437Y6237600D01*
X7439100D01*
Y6184900D01*
X7504500D01*
Y6172200D01*
X7517200D01*
Y6106800D01*
X7569900D01*
Y6172137D01*
X7829706Y6431942D01*
X7835900Y6430711D01*
X7900069D01*
Y6399893D01*
X7980800D01*
Y6483181D01*
X8006200D01*
Y6399893D01*
X8086931D01*
Y6430711D01*
X8200885D01*
X8200886Y6430710D01*
X8218600Y6434234D01*
X8233618Y6444268D01*
X8594674Y6805325D01*
X8923569D01*
Y6780893D01*
X8961011D01*
Y6638874D01*
X8936788Y6614651D01*
X8928100Y6615795D01*
Y6540500D01*
X9003395D01*
X9002251Y6549188D01*
X9040032Y6586968D01*
X9050066Y6601986D01*
X9053590Y6619700D01*
X9053589Y6619701D01*
Y6780893D01*
X9110431D01*
Y6811711D01*
X9241069D01*
Y6780893D01*
X9321800D01*
Y6864181D01*
X9347200D01*
Y6780893D01*
X9427931D01*
Y6811711D01*
X9571269D01*
Y6768193D01*
X9652000D01*
Y6851481D01*
X9677400D01*
Y6768193D01*
X9758131D01*
Y6805192D01*
X9897811D01*
Y6623174D01*
X9784332Y6509695D01*
X9776807Y6512812D01*
X9766300Y6514195D01*
Y6438900D01*
X9844463D01*
X9886077Y6480514D01*
X9897811Y6475654D01*
Y5875589D01*
X9201511D01*
Y5910611D01*
X9105900D01*
Y5829936D01*
Y5749261D01*
X9201511D01*
Y5783011D01*
X9284169D01*
Y5778500D01*
X9372600D01*
X9461031D01*
Y5783011D01*
X9576269D01*
Y5701730D01*
Y5556293D01*
X9613313D01*
Y5501353D01*
X9601579Y5496493D01*
X9489286Y5608786D01*
X9472615Y5619926D01*
X9461031Y5622230D01*
Y5692512D01*
Y5753100D01*
X9372600D01*
X9284169D01*
Y5692512D01*
Y5623837D01*
X9201511D01*
Y5655338D01*
X8984889D01*
Y5623837D01*
X8926950D01*
X8907285Y5619926D01*
X8890614Y5608786D01*
X8578315Y5296487D01*
X7938087D01*
Y5372100D01*
X7934176Y5391765D01*
X7923036Y5408436D01*
X7516636Y5814836D01*
X7499965Y5825976D01*
X7480300Y5829887D01*
X7130377D01*
X7126066Y5842587D01*
X7136216Y5850376D01*
X7147277Y5864791D01*
X7148260Y5867163D01*
X7455430D01*
X7473566Y5853246D01*
X7495193Y5844288D01*
X7518400Y5841233D01*
X7541607Y5844288D01*
X7563234Y5853246D01*
X7581804Y5867496D01*
X7591025Y5879513D01*
X7726914D01*
X7870445Y5735982D01*
X7887116Y5724843D01*
X7906781Y5720931D01*
X8047269D01*
Y5689030D01*
Y5619581D01*
X8140700D01*
Y5606881D01*
X8153400D01*
Y5523593D01*
X8234131D01*
Y5560592D01*
X8364769D01*
Y5526443D01*
X8445500D01*
Y5609731D01*
X8470900D01*
Y5526443D01*
X8551631D01*
Y5536011D01*
X8657899D01*
X8657900Y5536011D01*
X8675614Y5539534D01*
X8690632Y5549569D01*
X8924073Y5783011D01*
X8984889D01*
Y5749261D01*
X9080500D01*
Y5829936D01*
Y5910611D01*
X8984889D01*
Y5875589D01*
X8904901D01*
X8904900Y5875590D01*
X8887185Y5872066D01*
X8872168Y5862032D01*
X8872167Y5862031D01*
X8638726Y5628590D01*
X8551631D01*
Y5691880D01*
Y5858456D01*
X8364769D01*
Y5826556D01*
X8234131D01*
Y5855607D01*
X8047269D01*
Y5823706D01*
X7928066D01*
X7784536Y5967236D01*
X7767865Y5978376D01*
X7748200Y5982287D01*
X7659053D01*
X7654193Y5994021D01*
X7933385Y6273213D01*
X9303910D01*
X9313131Y6261196D01*
X9331702Y6246946D01*
X9353328Y6237988D01*
X9376535Y6234933D01*
X9399743Y6237988D01*
X9421369Y6246946D01*
X9439940Y6261196D01*
X9454189Y6279766D01*
X9463147Y6301393D01*
X9466203Y6324600D01*
X9463147Y6347807D01*
X9454189Y6369434D01*
X9439940Y6388004D01*
X9421369Y6402254D01*
X9399743Y6411212D01*
X9376535Y6414267D01*
X9353328Y6411212D01*
X9331702Y6402254D01*
X9313131Y6388004D01*
X9303910Y6375987D01*
X7912100D01*
X7892435Y6372076D01*
X7875764Y6360936D01*
X7533417Y6018590D01*
X7518400Y6020567D01*
X7495193Y6017512D01*
X7473566Y6008554D01*
X7454996Y5994304D01*
X7440746Y5975734D01*
X7438345Y5969937D01*
X7125903D01*
X7121801Y5973085D01*
X7105014Y5980038D01*
X7087000Y5982410D01*
X7068986Y5980038D01*
X7052199Y5973085D01*
X7037784Y5962024D01*
X7026723Y5947609D01*
X7019770Y5930822D01*
X7017398Y5912808D01*
Y5899592D01*
X7019770Y5881578D01*
X7026723Y5864791D01*
X7037784Y5850376D01*
X7047934Y5842587D01*
X7043623Y5829887D01*
X6909387D01*
Y5853205D01*
X6918277Y5864791D01*
X6925230Y5881578D01*
X6927602Y5899592D01*
Y5912808D01*
X6925230Y5930822D01*
X6918277Y5947609D01*
X6909387Y5959195D01*
Y6488989D01*
X6973420D01*
X6991455Y6491364D01*
X7008261Y6498325D01*
X7022693Y6509399D01*
X7026080Y6513813D01*
X7266400D01*
Y6434900D01*
X7402200D01*
Y6620700D01*
X7266400D01*
Y6616587D01*
X7026080D01*
X7022693Y6621001D01*
X7008261Y6632075D01*
X6991455Y6639036D01*
X6973420Y6641411D01*
X6742580D01*
X6724545Y6639036D01*
X6707739Y6632075D01*
X6693307Y6621001D01*
X6682233Y6606569D01*
X6675272Y6589763D01*
X6672897Y6571728D01*
Y6558672D01*
X6675272Y6540637D01*
X6682233Y6523831D01*
X6693307Y6509399D01*
X6707739Y6498325D01*
X6724545Y6491364D01*
X6742580Y6488989D01*
X6806613D01*
Y5959195D01*
X6797723Y5947609D01*
X6790770Y5930822D01*
X6788398Y5912808D01*
Y5899592D01*
X6790770Y5881578D01*
X6797723Y5864791D01*
X6806613Y5853205D01*
Y5803900D01*
X6810524Y5784235D01*
X6821664Y5767564D01*
X6847064Y5742164D01*
X6863735Y5731024D01*
X6876695Y5728447D01*
X6875444Y5715747D01*
X6327991D01*
X6021146Y6022591D01*
Y6530072D01*
X6030159Y6533805D01*
X6049983Y6549017D01*
X6065195Y6568841D01*
X6074757Y6591926D01*
X6078019Y6616700D01*
X6074757Y6641474D01*
X6065195Y6664559D01*
X6049983Y6684383D01*
X6030159Y6699595D01*
X6007074Y6709157D01*
X5982300Y6712419D01*
X5957526Y6709157D01*
X5934441Y6699595D01*
X5914617Y6684383D01*
X5899405Y6664559D01*
X5889843Y6641474D01*
X5886581Y6616700D01*
X5889843Y6591926D01*
X5899405Y6568841D01*
X5914617Y6549017D01*
X5934441Y6533805D01*
X5943453Y6530072D01*
Y6006500D01*
X5946411Y5991634D01*
X5954831Y5979031D01*
X6284431Y5649431D01*
X6297034Y5641011D01*
X6311900Y5638053D01*
X7060209D01*
X7581153Y5117109D01*
Y4936900D01*
X7544547D01*
Y4988500D01*
X7541589Y5003366D01*
X7533169Y5015969D01*
X7187669Y5361469D01*
X7175066Y5369889D01*
X7160200Y5372847D01*
X6936800D01*
X6921934Y5369889D01*
X6909331Y5361469D01*
X6900911Y5348866D01*
X6897953Y5334000D01*
Y5293535D01*
X6894900Y5282100D01*
X6759037D01*
X6654269Y5386869D01*
X6641666Y5395289D01*
X6626800Y5398247D01*
X6494900D01*
X6480034Y5395289D01*
X6467431Y5386869D01*
X6362563Y5282000D01*
X6226700D01*
Y5081200D01*
X6407500D01*
Y5217063D01*
X6510991Y5320553D01*
X6610709D01*
X6694100Y5237163D01*
Y5101300D01*
X6878729D01*
X6883118Y5094732D01*
X6885437Y5088600D01*
X6882633Y5067300D01*
X6885688Y5044093D01*
X6894646Y5022466D01*
X6896072Y5020609D01*
X6843231Y4967769D01*
X6834811Y4955166D01*
X6831853Y4940300D01*
Y4936900D01*
X6782547D01*
Y4965700D01*
X6779589Y4980566D01*
X6771169Y4993169D01*
X6637332Y5127005D01*
X6639812Y5132993D01*
X6642867Y5156200D01*
X6639812Y5179407D01*
X6630854Y5201034D01*
X6616604Y5219604D01*
X6598034Y5233854D01*
X6576407Y5242812D01*
X6553200Y5245867D01*
X6529993Y5242812D01*
X6508366Y5233854D01*
X6489796Y5219604D01*
X6475546Y5201034D01*
X6466588Y5179407D01*
X6463533Y5156200D01*
X6466588Y5132993D01*
X6475546Y5111366D01*
X6489796Y5092796D01*
X6508366Y5078546D01*
X6529993Y5069588D01*
X6553200Y5066533D01*
X6576407Y5069588D01*
X6582395Y5072068D01*
X6704853Y4949609D01*
Y4936900D01*
X6292300D01*
Y4850347D01*
X6043400D01*
X6028534Y4847390D01*
X6015932Y4838969D01*
X5871195Y4694232D01*
X5865207Y4696712D01*
X5842000Y4699767D01*
X5818793Y4696712D01*
X5797166Y4687754D01*
X5778596Y4673504D01*
X5764346Y4654934D01*
X5755388Y4633307D01*
X5752333Y4610100D01*
X5755388Y4586893D01*
X5764346Y4565266D01*
X5778596Y4546696D01*
X5797166Y4532446D01*
X5818793Y4523488D01*
X5842000Y4520433D01*
X5865207Y4523488D01*
X5886834Y4532446D01*
X5905404Y4546696D01*
X5919654Y4565266D01*
X5928612Y4586893D01*
X5931667Y4610100D01*
X5928612Y4633307D01*
X5926132Y4639295D01*
X6059491Y4772654D01*
X6292300D01*
Y4686100D01*
X7967411D01*
Y4667374D01*
X7626226Y4326189D01*
X7539100D01*
Y4336900D01*
X7459900D01*
Y4245000D01*
X7434500D01*
Y4336900D01*
X7276400D01*
Y4245000D01*
X7251000D01*
Y4336900D01*
X7092900D01*
Y4245000D01*
X7080200D01*
Y4232300D01*
X6988300D01*
Y4153100D01*
Y4074200D01*
X7080200D01*
Y4048800D01*
X6988300D01*
Y3969600D01*
Y3890700D01*
X7080200D01*
Y3878000D01*
X7092900D01*
Y3786100D01*
X7251000D01*
Y3878000D01*
X7276400D01*
Y3786100D01*
X7434500D01*
Y3878000D01*
X7459900D01*
Y3786100D01*
X7539100D01*
Y3831711D01*
X7583626D01*
X7967411Y3447926D01*
Y3236900D01*
X6292300D01*
Y3150347D01*
X5813766D01*
X5805913Y3159908D01*
X5807812Y3164493D01*
X5810867Y3187700D01*
X5807812Y3210907D01*
X5798854Y3232534D01*
X5784604Y3251104D01*
X5766034Y3265354D01*
X5744408Y3274312D01*
X5721200Y3277367D01*
X5697993Y3274312D01*
X5676367Y3265354D01*
X5657796Y3251104D01*
X5643546Y3232534D01*
X5634588Y3210907D01*
X5631533Y3187700D01*
X5634588Y3164493D01*
X5643546Y3142866D01*
X5657796Y3124296D01*
X5676367Y3110046D01*
X5697993Y3101088D01*
X5721200Y3098033D01*
X5744408Y3101088D01*
X5750395Y3103568D01*
X5769932Y3084031D01*
X5782534Y3075611D01*
X5780600Y3063046D01*
X4717600D01*
Y3077800D01*
X4587137D01*
X4137569Y3527368D01*
X4124966Y3535789D01*
X4124099Y3535962D01*
Y3602600D01*
X4096997D01*
X4091736Y3615300D01*
X4138236Y3661800D01*
X4219099D01*
Y3802600D01*
X4088299D01*
Y3721737D01*
X4041799Y3675237D01*
X4029099Y3680498D01*
Y3802600D01*
X3898299D01*
Y3771047D01*
X3871900D01*
X3857034Y3768089D01*
X3844431Y3759669D01*
X3781209Y3696447D01*
X3363299D01*
Y3828000D01*
X3232499D01*
Y3823447D01*
X3101800D01*
X3086934Y3820489D01*
X3074331Y3812069D01*
X2920609Y3658347D01*
X2606199D01*
Y3729900D01*
X2530336D01*
X2444246Y3815991D01*
Y4319708D01*
X2683091Y4558553D01*
X2690509D01*
X2889037Y4360026D01*
X2881446Y4350134D01*
X2872488Y4328507D01*
X2869433Y4305300D01*
X2872488Y4282093D01*
X2881446Y4260466D01*
X2895696Y4241896D01*
X2914266Y4227646D01*
X2935893Y4218688D01*
X2959100Y4215633D01*
X2982307Y4218688D01*
X2988295Y4221168D01*
X3134831Y4074631D01*
X3147434Y4066211D01*
X3162300Y4063253D01*
X4273712D01*
Y3995969D01*
X4509736D01*
Y4089400D01*
X4522436D01*
Y4102100D01*
X4605725D01*
Y4182831D01*
X4560713D01*
X4555168Y4191129D01*
X4268566Y4477732D01*
X4253549Y4487766D01*
X4235834Y4491290D01*
X4235833Y4491289D01*
X3379184D01*
X3310189Y4560284D01*
Y4644895D01*
X3315794Y4647217D01*
X3337289Y4663711D01*
X3353783Y4685206D01*
X3356105Y4690811D01*
X3606799D01*
X3606800Y4690810D01*
X3624514Y4694334D01*
X3639532Y4704368D01*
X3816474Y4881311D01*
X4331026D01*
X4541111Y4671226D01*
Y4546601D01*
X4541110Y4546600D01*
X4544634Y4528886D01*
X4554668Y4513868D01*
X4598449Y4470087D01*
X4593189Y4457387D01*
X4479885D01*
X4163836Y4773436D01*
X4147165Y4784576D01*
X4128800Y4788229D01*
Y4840000D01*
X3923000D01*
Y4634200D01*
X4128800D01*
Y4646534D01*
X4140533Y4651394D01*
X4422264Y4369664D01*
X4438935Y4358524D01*
X4458600Y4354613D01*
X6137300D01*
Y4208600D01*
Y4081600D01*
Y3954600D01*
Y3827600D01*
Y3700600D01*
Y3547246D01*
X5956300D01*
X5941434Y3544289D01*
X5928831Y3535868D01*
X5810009Y3417047D01*
X5569400D01*
Y3488600D01*
X5438600D01*
Y3267800D01*
X5569400D01*
Y3339353D01*
X5826100D01*
X5840966Y3342311D01*
X5853569Y3350731D01*
X5972391Y3469553D01*
X6137300D01*
Y3429747D01*
X6045200D01*
X6030334Y3426789D01*
X6017731Y3418369D01*
X5998195Y3398832D01*
X5992207Y3401312D01*
X5969000Y3404367D01*
X5945793Y3401312D01*
X5924166Y3392354D01*
X5905596Y3378104D01*
X5891346Y3359534D01*
X5882388Y3337907D01*
X5879333Y3314700D01*
X5882388Y3291493D01*
X5891346Y3269866D01*
X5905596Y3251296D01*
X5924166Y3237046D01*
X5945793Y3228088D01*
X5969000Y3225033D01*
X5992207Y3228088D01*
X6013834Y3237046D01*
X6032404Y3251296D01*
X6046654Y3269866D01*
X6055612Y3291493D01*
X6058667Y3314700D01*
X6055612Y3337907D01*
X6053713Y3342492D01*
X6061566Y3352053D01*
X6137300D01*
Y3319600D01*
X6388100D01*
Y3446600D01*
Y3573600D01*
Y3700600D01*
Y3827600D01*
Y3954600D01*
Y4081600D01*
Y4208600D01*
Y4335600D01*
Y4486711D01*
X6773026D01*
X6988300Y4271437D01*
Y4257700D01*
X7067500D01*
Y4336900D01*
X7053763D01*
X6824932Y4565732D01*
X6809914Y4575766D01*
X6792200Y4579290D01*
X6792199Y4579290D01*
X6388100D01*
Y4603400D01*
X6275400D01*
Y4533000D01*
X6262700D01*
Y4520300D01*
X6137300D01*
Y4457387D01*
X5366311D01*
X5361051Y4470087D01*
X5972164Y5081200D01*
X5994400D01*
Y5168900D01*
X5916700D01*
Y5155127D01*
X5912068Y5152032D01*
X5302126Y4542089D01*
X4657374D01*
X4633689Y4565774D01*
Y4690399D01*
X4633690Y4690400D01*
X4630166Y4708114D01*
X4620132Y4723132D01*
X4620131Y4723132D01*
X4382932Y4960332D01*
X4367914Y4970366D01*
X4350200Y4973890D01*
X4350199Y4973889D01*
X3797301D01*
X3797300Y4973890D01*
X3779586Y4970366D01*
X3764568Y4960332D01*
X3764568Y4960331D01*
X3587626Y4783389D01*
X3356105D01*
X3353783Y4788994D01*
X3337289Y4810489D01*
X3315794Y4826983D01*
X3310189Y4829305D01*
Y4870326D01*
X3445712Y5005849D01*
X3454400Y5004705D01*
Y5092700D01*
X3467100D01*
Y5105400D01*
X3555095D01*
X3553712Y5115907D01*
X3544754Y5137534D01*
X3530504Y5156104D01*
X3514594Y5168313D01*
X3517225Y5179857D01*
X3517868Y5181013D01*
X3619500D01*
X3639165Y5184924D01*
X3655836Y5196064D01*
X4072585Y5612813D01*
X4477115D01*
X4485113Y5604815D01*
Y5586800D01*
X4446100D01*
Y5386000D01*
X4571963D01*
X4724630Y5233333D01*
X4719769Y5221600D01*
X4711000D01*
Y5090800D01*
X4724853D01*
Y4764400D01*
X4698300D01*
Y4633600D01*
X4829100D01*
Y4764400D01*
X4802546D01*
Y5090800D01*
X4841800D01*
Y5221600D01*
X4815246D01*
Y5236500D01*
X4812289Y5251366D01*
X4803868Y5263969D01*
X4626900Y5440937D01*
Y5586800D01*
X4587887D01*
Y5626100D01*
X4583976Y5645765D01*
X4572836Y5662436D01*
X4534736Y5700536D01*
X4458287Y5776985D01*
Y6238931D01*
X4460529Y6240582D01*
X4470987Y6243676D01*
X4671531Y6043131D01*
X4684134Y6034711D01*
X4699000Y6031753D01*
X5077809D01*
X5472019Y5637544D01*
Y5503100D01*
X5437500D01*
Y5317300D01*
X5573300D01*
Y5503100D01*
X5549712D01*
Y5653635D01*
X5546754Y5668501D01*
X5538334Y5681103D01*
X5121368Y6098069D01*
X5108766Y6106489D01*
X5093900Y6109447D01*
X4715091D01*
X4534647Y6289891D01*
Y7378700D01*
X4531689Y7393566D01*
X4523269Y7406169D01*
X4358169Y7571269D01*
X4345566Y7579689D01*
X4330700Y7582647D01*
X4219791D01*
X4204447Y7597991D01*
Y7638363D01*
X4205541Y7639095D01*
X4217786Y7657420D01*
X4222085Y7679036D01*
Y7839036D01*
X4217786Y7860652D01*
X4205541Y7878977D01*
X4187216Y7891222D01*
X4165600Y7895521D01*
X4143984Y7891222D01*
X4125659Y7878977D01*
X4113414Y7860652D01*
X4109115Y7839036D01*
Y7679036D01*
X4113414Y7657420D01*
X4125659Y7639095D01*
X4126753Y7638363D01*
Y7581900D01*
X4129711Y7567034D01*
X4138131Y7554431D01*
X4149071Y7543492D01*
X4144210Y7531759D01*
X4031513D01*
X3960086Y7603185D01*
Y7651884D01*
X3963786Y7657420D01*
X3968085Y7679036D01*
Y7839036D01*
X3963786Y7860652D01*
X3951541Y7878977D01*
X3933216Y7891222D01*
X3911600Y7895521D01*
X3889984Y7891222D01*
X3871659Y7878977D01*
X3859414Y7860652D01*
X3855115Y7839036D01*
Y7679036D01*
X3857312Y7667991D01*
Y7581900D01*
X3861223Y7562235D01*
X3872363Y7545564D01*
X3973891Y7444035D01*
X3990562Y7432896D01*
X4010227Y7428984D01*
X4146159D01*
X4148990Y7425166D01*
X4144002Y7411272D01*
X4143674Y7411015D01*
X4125659Y7398977D01*
X4113414Y7380652D01*
X4109115Y7359036D01*
Y7291736D01*
X4165600D01*
X4222085D01*
Y7332118D01*
X4234785Y7338906D01*
X4236115Y7338018D01*
Y7199036D01*
X4240414Y7177420D01*
X4252659Y7159095D01*
X4270984Y7146850D01*
X4292600Y7142551D01*
X4314216Y7146850D01*
X4332541Y7159094D01*
X4339212Y7159751D01*
X4355513Y7143451D01*
Y5755700D01*
X4359424Y5736035D01*
X4364601Y5728287D01*
X4357813Y5715587D01*
X4051300D01*
X4031635Y5711676D01*
X4014964Y5700536D01*
X3598215Y5283787D01*
X2802585D01*
X2591436Y5494936D01*
X2574765Y5506076D01*
X2555100Y5509987D01*
X2520700D01*
Y5559000D01*
X2279900D01*
Y5358200D01*
X2520700D01*
Y5407213D01*
X2533815D01*
X2744964Y5196064D01*
X2761635Y5184924D01*
X2781300Y5181013D01*
X3416332D01*
X3416975Y5179857D01*
X3419606Y5168313D01*
X3403696Y5156104D01*
X3390563Y5138989D01*
X2648074D01*
X2595732Y5191332D01*
X2580714Y5201366D01*
X2563000Y5204890D01*
X2562999Y5204890D01*
X2520700D01*
Y5259000D01*
X2413000D01*
Y5158600D01*
Y5058200D01*
X2520700D01*
Y5112311D01*
X2543826D01*
X2596168Y5059969D01*
X2596168Y5059968D01*
X2611186Y5049934D01*
X2628900Y5046411D01*
X3338754D01*
X3343614Y5034677D01*
X3231168Y4922232D01*
X3221134Y4907214D01*
X3217610Y4889500D01*
X3217611Y4889499D01*
Y4829305D01*
X3212006Y4826983D01*
X3190511Y4810489D01*
X3174017Y4788994D01*
X3163648Y4763962D01*
X3161784Y4749800D01*
X3263900D01*
Y4724400D01*
X3161784D01*
X3163648Y4710238D01*
X3174017Y4685206D01*
X3190511Y4663711D01*
X3212006Y4647217D01*
X3217611Y4644895D01*
Y4541111D01*
X3217610Y4541110D01*
X3221134Y4523396D01*
X3231168Y4508378D01*
X3327278Y4412269D01*
X3327278Y4412268D01*
X3342296Y4402234D01*
X3360010Y4398710D01*
X3360011Y4398711D01*
X4216660D01*
X4420806Y4194564D01*
X4415946Y4182831D01*
X4273712D01*
Y4140947D01*
X3178391D01*
X3043232Y4276105D01*
X3045712Y4282093D01*
X3048767Y4305300D01*
X3045712Y4328507D01*
X3036754Y4350134D01*
X3022504Y4368704D01*
X3003934Y4382954D01*
X2982307Y4391912D01*
X2964708Y4394229D01*
X2728500Y4630437D01*
Y4783300D01*
X2592700D01*
Y4597500D01*
X2595569D01*
X2600430Y4585767D01*
X2377930Y4363268D01*
X2369510Y4350665D01*
X2366553Y4335799D01*
Y3799900D01*
X2369510Y3785034D01*
X2377930Y3772431D01*
X2475399Y3674963D01*
Y3509100D01*
X2606199D01*
Y3580653D01*
X2936700D01*
X2951566Y3583611D01*
X2964169Y3592031D01*
X3117891Y3745753D01*
X3232499D01*
Y3696447D01*
X3136900D01*
X3122034Y3693489D01*
X3109431Y3685069D01*
X3013731Y3589368D01*
X3005310Y3576765D01*
X3002353Y3561899D01*
Y3289300D01*
X3005310Y3274434D01*
X3013731Y3261831D01*
X3242499Y3033063D01*
Y3012137D01*
X2860009Y2629647D01*
X2032000D01*
X2017134Y2626689D01*
X2004531Y2618269D01*
X1864831Y2478569D01*
X1856411Y2465966D01*
X1853453Y2451100D01*
Y1612900D01*
X1856411Y1598034D01*
X1864831Y1585431D01*
X1990632Y1459631D01*
X2003234Y1451210D01*
X2003665Y1451125D01*
X2003880Y1450900D01*
X2008484Y1437217D01*
X2001934Y1427414D01*
X1998411Y1409700D01*
Y1218789D01*
X1797174D01*
X1200496Y1815467D01*
X1205357Y1827200D01*
X1377300D01*
Y2058000D01*
X1313287D01*
X1313287Y6892114D01*
X2688285Y8267113D01*
X3514151D01*
X3516926Y8258939D01*
X3517619Y8254413D01*
X3503746Y8236334D01*
X3501561Y8231058D01*
X3174130D01*
X3154465Y8227146D01*
X3137793Y8216007D01*
X2572638Y7650851D01*
X2569186Y7652281D01*
X2540799Y7656018D01*
X2512412Y7652281D01*
X2485960Y7641324D01*
X2463245Y7623894D01*
X2445815Y7601179D01*
X2444385Y7597727D01*
X2390140D01*
X2370475Y7593816D01*
X2353804Y7582676D01*
X2135364Y7364236D01*
X2124224Y7347565D01*
X2120313Y7327900D01*
Y6718300D01*
X2124224Y6698635D01*
X2135364Y6681964D01*
X2372600Y6444728D01*
Y6309600D01*
X2580400D01*
Y6517400D01*
X2445272D01*
X2223087Y6739585D01*
Y7306615D01*
X2411425Y7494953D01*
X2444385D01*
X2445815Y7491501D01*
X2463245Y7468786D01*
X2485960Y7451356D01*
X2512412Y7440399D01*
X2540799Y7436662D01*
X2569186Y7440399D01*
X2595638Y7451356D01*
X2618353Y7468786D01*
X2635783Y7491501D01*
X2646740Y7517953D01*
X2650477Y7546340D01*
X2646740Y7574727D01*
X2645310Y7578179D01*
X3195415Y8128283D01*
X3517852D01*
X3517996Y8128096D01*
X3536566Y8113846D01*
X3558193Y8104888D01*
X3581400Y8101833D01*
X3604607Y8104888D01*
X3626234Y8113846D01*
X3644804Y8128096D01*
X3659054Y8146666D01*
X3668012Y8168293D01*
X3671067Y8191500D01*
X3668012Y8214707D01*
X3659054Y8236334D01*
X3645181Y8254413D01*
X3645874Y8258939D01*
X3648649Y8267113D01*
X5693715D01*
X6222413Y7738415D01*
Y7632053D01*
X6210679Y7627193D01*
X5952936Y7884936D01*
X5936265Y7896076D01*
X5916600Y7899987D01*
X5435700D01*
Y8034000D01*
X5212900D01*
Y7663200D01*
X5363027D01*
X5435824Y7590404D01*
X5452495Y7579264D01*
X5452596Y7579244D01*
X5459546Y7562466D01*
X5473796Y7543896D01*
X5492366Y7529646D01*
X5513993Y7520688D01*
X5537200Y7517633D01*
X5560407Y7520688D01*
X5582034Y7529646D01*
X5600604Y7543896D01*
X5614854Y7562466D01*
X5623812Y7584093D01*
X5626867Y7607300D01*
X5623812Y7630507D01*
X5614854Y7652134D01*
X5600604Y7670704D01*
X5582034Y7684954D01*
X5560407Y7693912D01*
X5537200Y7696967D01*
X5513993Y7693912D01*
X5492366Y7684954D01*
X5489114Y7682458D01*
X5435700Y7735873D01*
Y7797213D01*
X5780080D01*
X5780913Y7784513D01*
X5767993Y7782812D01*
X5746366Y7773854D01*
X5727796Y7759604D01*
X5713546Y7741034D01*
X5704588Y7719407D01*
X5703205Y7708900D01*
X5879195D01*
X5877812Y7719407D01*
X5868854Y7741034D01*
X5854604Y7759604D01*
X5836034Y7773854D01*
X5814407Y7782812D01*
X5801487Y7784513D01*
X5802320Y7797213D01*
X5895315D01*
X6165489Y7527038D01*
Y7438361D01*
X6382111D01*
Y7599711D01*
X6325187D01*
Y7759700D01*
X6321276Y7779365D01*
X6310136Y7796036D01*
X5751336Y8354836D01*
X5734665Y8365976D01*
X5715000Y8369887D01*
X2667000D01*
X2647335Y8365976D01*
X2630664Y8354836D01*
X1225563Y6949736D01*
X1214424Y6933065D01*
X1210512Y6913400D01*
X1210513Y2058000D01*
X1146500D01*
Y1886057D01*
X1134767Y1881196D01*
X1115397Y1900566D01*
X1120329Y1912474D01*
X1122624Y1929900D01*
X1020600D01*
Y1827876D01*
X1038025Y1830170D01*
X1049933Y1835103D01*
X1745268Y1139768D01*
X1760286Y1129734D01*
X1778000Y1126210D01*
X1778001Y1126210D01*
X2044700D01*
X2051050Y1127473D01*
X2057400Y1126210D01*
X2717611D01*
Y1091693D01*
X2714527Y1090415D01*
X2694077Y1074723D01*
X2678385Y1054272D01*
X2668520Y1030457D01*
X2666827Y1017600D01*
X2763900D01*
Y992200D01*
X2666827D01*
X2668520Y979343D01*
X2678385Y955528D01*
X2694077Y935077D01*
X2714527Y919384D01*
X2717611Y918107D01*
Y855798D01*
X2655061D01*
X2653900Y855951D01*
X2653387Y855883D01*
X2651800Y856199D01*
X2643997Y854647D01*
X2634216Y853359D01*
X2615875Y845762D01*
X2600124Y833676D01*
X2588038Y817925D01*
X2580441Y799583D01*
X2577849Y779900D01*
X2578002Y778738D01*
X2578004Y691078D01*
X2577849Y689900D01*
X2580441Y670216D01*
X2588038Y651874D01*
X2600124Y636124D01*
X2615875Y624038D01*
X2620070Y622300D01*
X2617544Y609600D01*
X469900D01*
Y8636000D01*
X10604500D01*
Y609600D01*
D02*
G37*
G36*
X9615664Y5337064D02*
X9782064Y5170664D01*
X9798735Y5159524D01*
X9818400Y5155613D01*
X10291115D01*
X10362613Y5084115D01*
Y961085D01*
X10151415Y749887D01*
X8288985D01*
X7684087Y1354785D01*
Y1579056D01*
X7695821Y1583916D01*
X8194868Y1084869D01*
X8194868Y1084868D01*
X8209886Y1074834D01*
X8227600Y1071311D01*
X8613989D01*
Y1009289D01*
X8642359D01*
Y914064D01*
X8642358Y914063D01*
X8645882Y896349D01*
X8655916Y881331D01*
X8670934Y871297D01*
X8673193Y870848D01*
Y795569D01*
X8909219D01*
Y889000D01*
Y982431D01*
X8734938D01*
Y1009289D01*
X8775339D01*
Y1225911D01*
X8613989D01*
Y1163889D01*
X8466389D01*
Y1225426D01*
X8576512Y1335549D01*
X8597900Y1332733D01*
X8621107Y1335788D01*
X8642734Y1344746D01*
X8661304Y1358996D01*
X8675554Y1377566D01*
X8682323Y1393909D01*
X8699500D01*
X8715263Y1397044D01*
X8728627Y1405973D01*
X8801720Y1479066D01*
X8813453Y1474206D01*
Y1345800D01*
X8816410Y1330934D01*
X8824831Y1318332D01*
X8887931Y1255231D01*
X8900534Y1246811D01*
X8915400Y1243853D01*
X9242209D01*
X9396830Y1089233D01*
X9391969Y1077500D01*
X9355900D01*
Y941700D01*
X9532376D01*
X9534754Y939220D01*
X9538808Y929000D01*
X9531134Y917514D01*
X9530136Y912500D01*
X9461500D01*
Y844600D01*
X9436100D01*
Y912500D01*
X9355900D01*
Y859089D01*
X9146713D01*
X9141453Y871789D01*
X9198812Y929149D01*
X9207500Y928005D01*
Y1003300D01*
X9132205D01*
X9133349Y994612D01*
X9082590Y943853D01*
X9005207D01*
Y982431D01*
X8934619D01*
Y889000D01*
Y795569D01*
X9005207D01*
Y812637D01*
X9016940Y817497D01*
X9054368Y780068D01*
X9069386Y770034D01*
X9087100Y766510D01*
X9087101Y766511D01*
X9559019D01*
X9559021Y766510D01*
X9576735Y770034D01*
X9591752Y780068D01*
X9606631Y794947D01*
X9606632Y794947D01*
X9616666Y809965D01*
X9620189Y827679D01*
Y858911D01*
X9976469D01*
Y830775D01*
X10057200D01*
Y914063D01*
X10069900D01*
Y926763D01*
X10163331D01*
Y996212D01*
Y1162788D01*
X10031406D01*
X9972925Y1221269D01*
X9960323Y1229689D01*
X9945457Y1232647D01*
X9464891D01*
X9298469Y1399069D01*
X9285866Y1407489D01*
X9271000Y1410447D01*
X9095593D01*
X9091510Y1422473D01*
X9093104Y1423696D01*
X9107354Y1442266D01*
X9116312Y1463892D01*
X9117695Y1474400D01*
X9029700D01*
Y1499800D01*
X9117695D01*
X9116312Y1510307D01*
X9107354Y1531933D01*
X9093104Y1550504D01*
X9074534Y1564754D01*
X9052907Y1573712D01*
X9052904Y1573712D01*
X9051125Y1574074D01*
X9045200Y1576100D01*
Y1673600D01*
X9061947D01*
X9129485Y1606062D01*
X9120888Y1585307D01*
X9117833Y1562100D01*
X9120888Y1538893D01*
X9129846Y1517266D01*
X9144096Y1498696D01*
X9162666Y1484446D01*
X9184293Y1475488D01*
X9207500Y1472433D01*
X9230707Y1475488D01*
X9252334Y1484446D01*
X9270904Y1498696D01*
X9285154Y1517266D01*
X9294112Y1538893D01*
X9297167Y1562100D01*
X9294112Y1585307D01*
X9285154Y1606934D01*
X9270904Y1625504D01*
X9252334Y1639754D01*
X9230707Y1648712D01*
X9207500Y1651767D01*
X9201126Y1650928D01*
X9142700Y1709353D01*
Y1823600D01*
Y1925309D01*
X9193238D01*
X9213451Y1905096D01*
X9213458Y1899013D01*
X9212106Y1890810D01*
X9194896Y1877604D01*
X9180646Y1859033D01*
X9171688Y1837407D01*
X9170305Y1826900D01*
X9346295D01*
X9344912Y1837407D01*
X9335954Y1859033D01*
X9321704Y1877604D01*
X9303134Y1891854D01*
X9299491Y1893362D01*
Y1918500D01*
X9296484Y1933618D01*
X9297028Y1934417D01*
X9308070Y1939993D01*
X9371853Y1876209D01*
Y1564500D01*
X9374811Y1549634D01*
X9383231Y1537031D01*
X9538031Y1382231D01*
X9550634Y1373811D01*
X9565500Y1370853D01*
X10096500D01*
X10111366Y1373811D01*
X10123969Y1382231D01*
X10314469Y1572731D01*
X10322889Y1585334D01*
X10325847Y1600200D01*
Y2235200D01*
X10322889Y2250066D01*
X10314469Y2262669D01*
X9654069Y2923069D01*
X9641466Y2931489D01*
X9626600Y2934447D01*
X9436100D01*
X9421234Y2931489D01*
X9408631Y2923069D01*
X9351313Y2865750D01*
X9342892Y2853147D01*
X9339935Y2838282D01*
Y2811231D01*
X9295493D01*
Y2624369D01*
X9531518D01*
Y2717800D01*
Y2811231D01*
X9421829D01*
X9419368Y2823931D01*
X9452191Y2856753D01*
X9610509D01*
X10248153Y2219109D01*
Y1616291D01*
X10080409Y1448547D01*
X9702983D01*
X9699701Y1461247D01*
X9715404Y1473296D01*
X9729654Y1491866D01*
X9738612Y1513493D01*
X9741667Y1536700D01*
X9738612Y1559907D01*
X9729654Y1581534D01*
X9715404Y1600104D01*
X9696834Y1614354D01*
X9695515Y1614900D01*
X9696000Y1627600D01*
X9696000D01*
Y1645211D01*
X9990900D01*
Y1627600D01*
X10176700D01*
Y1763400D01*
X9990900D01*
Y1737790D01*
X9696000D01*
Y1763400D01*
X9510200D01*
Y1627600D01*
X9576271D01*
X9580368Y1621468D01*
X9586270Y1615566D01*
Y1597074D01*
X9574346Y1581534D01*
X9565388Y1559907D01*
X9562333Y1536700D01*
X9565388Y1513493D01*
X9574346Y1491866D01*
X9588596Y1473296D01*
X9604299Y1461247D01*
X9601017Y1448547D01*
X9581591D01*
X9449547Y1580591D01*
Y1884856D01*
X9462247Y1890116D01*
X9510200Y1842163D01*
Y1792600D01*
X9696000D01*
Y1815353D01*
X9754439D01*
X9756919Y1809366D01*
X9771168Y1790796D01*
X9789739Y1776546D01*
X9811365Y1767588D01*
X9834572Y1764533D01*
X9857780Y1767588D01*
X9879406Y1776546D01*
X9897977Y1790796D01*
X9912226Y1809366D01*
X9921184Y1830993D01*
X9924239Y1854200D01*
X9921184Y1877407D01*
X9912226Y1899034D01*
X9897977Y1917604D01*
X9879406Y1931854D01*
X9857780Y1940812D01*
X9834572Y1943867D01*
X9811365Y1940812D01*
X9789739Y1931854D01*
X9771168Y1917604D01*
X9756919Y1899034D01*
X9754439Y1893047D01*
X9696000D01*
Y1928400D01*
X9533837D01*
X9501889Y1960348D01*
X9509985Y1970213D01*
X9511934Y1968911D01*
X9526800Y1965954D01*
X9898409D01*
X9990900Y1873463D01*
Y1792600D01*
X10176700D01*
Y1928400D01*
X10045837D01*
X9941968Y2032269D01*
X9929366Y2040690D01*
X9914500Y2043647D01*
X9542890D01*
X9247669Y2338869D01*
X9235066Y2347289D01*
X9220200Y2350247D01*
X8915400D01*
X8900534Y2347289D01*
X8887931Y2338869D01*
X8752300Y2203237D01*
X8730969Y2224569D01*
X8471647Y2483891D01*
Y2663066D01*
X8477634Y2665546D01*
X8496204Y2679796D01*
X8510454Y2698366D01*
X8519412Y2719993D01*
X8522467Y2743200D01*
X8519412Y2766407D01*
X8510454Y2788034D01*
X8496204Y2806604D01*
X8477634Y2820854D01*
X8456007Y2829812D01*
X8432800Y2832867D01*
X8409593Y2829812D01*
X8387966Y2820854D01*
X8369396Y2806604D01*
X8355146Y2788034D01*
X8346188Y2766407D01*
X8343133Y2743200D01*
X8346188Y2719993D01*
X8355146Y2698366D01*
X8369396Y2679796D01*
X8387966Y2665546D01*
X8393953Y2663066D01*
Y2467800D01*
X8396911Y2452934D01*
X8405331Y2440331D01*
X8597983Y2247680D01*
X8593123Y2235947D01*
X8293100D01*
X8278234Y2232989D01*
X8265631Y2224569D01*
X8113231Y2072169D01*
X8104811Y2059566D01*
X8101853Y2044700D01*
Y1823482D01*
X8081494Y1815048D01*
X8056969Y1796231D01*
X8038152Y1771706D01*
X8026322Y1743147D01*
X8022287Y1712500D01*
X8026322Y1681853D01*
X8038152Y1653294D01*
X8056969Y1628769D01*
X8081494Y1609952D01*
X8110053Y1598122D01*
X8140700Y1594087D01*
X8171347Y1598122D01*
X8199906Y1609952D01*
X8224431Y1628769D01*
X8243248Y1653294D01*
X8255078Y1681853D01*
X8259113Y1712500D01*
X8255078Y1743147D01*
X8243248Y1771706D01*
X8224431Y1796231D01*
X8199906Y1815048D01*
X8179547Y1823482D01*
Y2028609D01*
X8309191Y2158253D01*
X8687409D01*
X8713453Y2132209D01*
Y2106900D01*
X8709400D01*
Y2009400D01*
X8690000D01*
Y1966500D01*
X8664600D01*
Y2009400D01*
X8611900D01*
Y2008691D01*
X8499677D01*
X8497754Y2013334D01*
X8483504Y2031904D01*
X8464934Y2046154D01*
X8443307Y2055112D01*
X8432800Y2056495D01*
Y1968500D01*
Y1880505D01*
X8443307Y1881888D01*
X8464934Y1890846D01*
X8483504Y1905096D01*
X8497754Y1923666D01*
X8498848Y1926309D01*
X8611900D01*
Y1873600D01*
Y1773600D01*
Y1673600D01*
X8709400D01*
Y1576100D01*
X8752254D01*
X8760147Y1563400D01*
X8759909Y1562200D01*
Y1553762D01*
X8682438Y1476291D01*
X8668604D01*
X8661304Y1485804D01*
X8642734Y1500054D01*
X8621107Y1509012D01*
X8597900Y1512067D01*
X8574693Y1509012D01*
X8553066Y1500054D01*
X8534496Y1485804D01*
X8520246Y1467234D01*
X8511288Y1445607D01*
X8508233Y1422400D01*
X8511049Y1401012D01*
X8387368Y1277332D01*
X8377334Y1262314D01*
X8373810Y1244600D01*
X8373811Y1244599D01*
Y1163889D01*
X8246774D01*
X7741728Y1668936D01*
X7747078Y1681853D01*
X7751113Y1712500D01*
X7747078Y1743147D01*
X7735248Y1771706D01*
X7722587Y1788207D01*
Y2021300D01*
X7789100D01*
Y2157100D01*
X7603300D01*
Y2021300D01*
X7619813D01*
Y1829216D01*
X7602053Y1826878D01*
X7573494Y1815048D01*
X7548969Y1796231D01*
X7530152Y1771706D01*
X7518322Y1743147D01*
X7514287Y1712500D01*
X7518322Y1681853D01*
X7523673Y1668936D01*
X7507833Y1653097D01*
X7496100Y1657957D01*
Y1699800D01*
X7391400D01*
Y1595100D01*
X7433243D01*
X7438103Y1583367D01*
X7167888Y1313151D01*
X6704609D01*
Y1330595D01*
X6701160Y1347934D01*
X6691338Y1362633D01*
X6676639Y1372455D01*
X6659300Y1375904D01*
X6658358Y1375716D01*
X6644929Y1385626D01*
X6644352Y1391589D01*
X6654274Y1401511D01*
X7113999D01*
X7114000Y1401510D01*
X7131714Y1405034D01*
X7146732Y1415068D01*
X7326763Y1595100D01*
X7366000D01*
Y1699800D01*
X7261300D01*
Y1660563D01*
X7094826Y1494089D01*
X6745967D01*
X6742114Y1506789D01*
X6745769Y1509231D01*
X7393469Y2156931D01*
X7401889Y2169534D01*
X7404847Y2184400D01*
Y2413000D01*
X7401889Y2427866D01*
X7393469Y2440469D01*
X7163547Y2670391D01*
Y2986100D01*
X7339853D01*
Y2962491D01*
X7287731Y2910369D01*
X7279311Y2897766D01*
X7276353Y2882900D01*
Y2823334D01*
X7270366Y2820854D01*
X7251796Y2806604D01*
X7237546Y2788034D01*
X7228588Y2766407D01*
X7225533Y2743200D01*
X7228588Y2719993D01*
X7237546Y2698366D01*
X7251796Y2679796D01*
X7270366Y2665546D01*
X7291993Y2656588D01*
X7315200Y2653533D01*
X7338407Y2656588D01*
X7360034Y2665546D01*
X7378604Y2679796D01*
X7392854Y2698366D01*
X7401812Y2719993D01*
X7404867Y2743200D01*
X7401812Y2766407D01*
X7392854Y2788034D01*
X7378604Y2806604D01*
X7360034Y2820854D01*
X7354047Y2823334D01*
Y2866809D01*
X7406169Y2918931D01*
X7414589Y2931534D01*
X7417547Y2946400D01*
Y2986100D01*
X7461654D01*
Y2819400D01*
X7464611Y2804534D01*
X7473032Y2791931D01*
X7543053Y2721909D01*
Y2560170D01*
X7529502Y2554556D01*
X7507798Y2537902D01*
X7491144Y2516198D01*
X7480674Y2490923D01*
X7477103Y2463800D01*
X7480674Y2436677D01*
X7491144Y2411402D01*
X7507798Y2389698D01*
X7529502Y2373044D01*
X7554777Y2362574D01*
X7581900Y2359003D01*
X7609023Y2362574D01*
X7634298Y2373044D01*
X7656002Y2389698D01*
X7672656Y2411402D01*
X7683126Y2436677D01*
X7686697Y2463800D01*
X7683126Y2490923D01*
X7672656Y2516198D01*
X7656002Y2537902D01*
X7634298Y2554556D01*
X7620747Y2560170D01*
Y2738000D01*
X7617789Y2752866D01*
X7609369Y2765469D01*
X7539347Y2835491D01*
Y2986100D01*
X7593853D01*
Y2844800D01*
X7596811Y2829934D01*
X7605231Y2817331D01*
X7797053Y2625509D01*
Y2567700D01*
X7732000D01*
Y2401753D01*
X7731254Y2398000D01*
Y2322100D01*
X7603300D01*
Y2186300D01*
X7789100D01*
Y2267163D01*
X7797569Y2275631D01*
X7805989Y2288234D01*
X7808947Y2303100D01*
Y2359900D01*
X7939800D01*
Y2567700D01*
X7874747D01*
Y2641600D01*
X7871789Y2656466D01*
X7863369Y2669069D01*
X7671547Y2860891D01*
Y2986100D01*
X7720853D01*
Y2870200D01*
X7723811Y2855334D01*
X7732231Y2842731D01*
X8012953Y2562009D01*
Y2314791D01*
X7859231Y2161069D01*
X7850811Y2148466D01*
X7847853Y2133600D01*
Y1823482D01*
X7827494Y1815048D01*
X7802969Y1796231D01*
X7784152Y1771706D01*
X7772322Y1743147D01*
X7768287Y1712500D01*
X7772322Y1681853D01*
X7784152Y1653294D01*
X7802969Y1628769D01*
X7827494Y1609952D01*
X7856053Y1598122D01*
X7886700Y1594087D01*
X7917347Y1598122D01*
X7945906Y1609952D01*
X7970431Y1628769D01*
X7989248Y1653294D01*
X8001078Y1681853D01*
X8005113Y1712500D01*
X8001078Y1743147D01*
X7989248Y1771706D01*
X7970431Y1796231D01*
X7945906Y1815048D01*
X7925547Y1823482D01*
Y2117509D01*
X8079269Y2271231D01*
X8087689Y2283834D01*
X8090647Y2298700D01*
Y2578100D01*
X8087689Y2592966D01*
X8079269Y2605569D01*
X7798547Y2886291D01*
Y2986100D01*
X7847853D01*
Y2946400D01*
X7850811Y2931534D01*
X7859231Y2918931D01*
X8132768Y2645395D01*
X8130288Y2639407D01*
X8127233Y2616200D01*
X8130288Y2592993D01*
X8139246Y2571366D01*
X8153496Y2552796D01*
X8172066Y2538546D01*
X8193693Y2529588D01*
X8216900Y2526533D01*
X8240107Y2529588D01*
X8261734Y2538546D01*
X8280304Y2552796D01*
X8294554Y2571366D01*
X8303512Y2592993D01*
X8306567Y2616200D01*
X8303512Y2639407D01*
X8294554Y2661034D01*
X8280304Y2679604D01*
X8261734Y2693854D01*
X8240107Y2702812D01*
X8216900Y2705867D01*
X8193693Y2702812D01*
X8187705Y2700332D01*
X7925547Y2962491D01*
Y2986100D01*
X7967411D01*
Y2959101D01*
X7967410Y2959100D01*
X7970934Y2941386D01*
X7980968Y2926368D01*
X8031768Y2875569D01*
X8031768Y2875568D01*
X8046786Y2865534D01*
X8064500Y2862010D01*
X8064501Y2862011D01*
X8794626D01*
X9212868Y2443768D01*
X9227886Y2433734D01*
X9245600Y2430210D01*
X9245601Y2430211D01*
X9720470D01*
X9721466Y2429446D01*
X9743093Y2420488D01*
X9753600Y2419105D01*
Y2507100D01*
Y2595095D01*
X9743093Y2593712D01*
X9729328Y2588010D01*
X9657407Y2659931D01*
X9627507Y2689832D01*
Y2705100D01*
X9556918D01*
Y2624369D01*
X9562043D01*
X9591944Y2594468D01*
X9651889Y2534523D01*
X9647029Y2522789D01*
X9264774D01*
X8846532Y2941032D01*
X8831514Y2951066D01*
X8813800Y2954590D01*
X8813799Y2954589D01*
X8083674D01*
X8064863Y2973400D01*
X8070124Y2986100D01*
X8084100D01*
Y3098800D01*
X8013700D01*
Y3124200D01*
X8084100D01*
Y3236900D01*
X8059989D01*
Y3467100D01*
X8056466Y3484814D01*
X8046432Y3499832D01*
X8046431Y3499832D01*
X7635532Y3910732D01*
X7620514Y3920766D01*
X7602800Y3924290D01*
X7602799Y3924290D01*
X7539100D01*
Y3969600D01*
Y4048800D01*
X7447200D01*
Y4074200D01*
X7539100D01*
Y4153100D01*
Y4233611D01*
X7645399D01*
X7645400Y4233610D01*
X7663114Y4237134D01*
X7678132Y4247168D01*
X8046431Y4615468D01*
X8046432Y4615468D01*
X8056466Y4630486D01*
X8059990Y4648200D01*
X8059989Y4648201D01*
Y4686100D01*
X8084100D01*
Y4798800D01*
X8013700D01*
Y4811500D01*
X8001000D01*
Y4936900D01*
X7938087D01*
Y5193713D01*
X8599600D01*
X8619265Y5197624D01*
X8635936Y5208764D01*
X8948235Y5521063D01*
X8984889D01*
Y5493989D01*
X9201511D01*
Y5521063D01*
X9431665D01*
X9615664Y5337064D01*
D02*
G37*
G36*
X7329050Y5110213D02*
X7321856Y5099447D01*
X7313007Y5103112D01*
X7289800Y5106167D01*
X7266593Y5103112D01*
X7244966Y5094154D01*
X7226396Y5079904D01*
X7212146Y5061334D01*
X7209666Y5055347D01*
X7099300D01*
X7084434Y5052389D01*
X7071831Y5043969D01*
X7071686Y5043823D01*
X7059657Y5049755D01*
X7061967Y5067300D01*
X7058912Y5090507D01*
X7049954Y5112134D01*
X7035704Y5130704D01*
X7017134Y5144954D01*
X6995507Y5153912D01*
X6972300Y5156967D01*
X6949093Y5153912D01*
X6927466Y5144954D01*
X6908896Y5130704D01*
X6906926Y5128137D01*
X6894900Y5132219D01*
Y5180853D01*
X6921921D01*
X6936787Y5183811D01*
X6949389Y5192231D01*
X6964269Y5207110D01*
X6972689Y5219713D01*
X6975646Y5234579D01*
Y5295153D01*
X7144109D01*
X7329050Y5110213D01*
D02*
G37*
G36*
X7835313Y5350815D02*
Y4936900D01*
X7798547D01*
Y5257800D01*
X7795589Y5272666D01*
X7787169Y5285269D01*
X7500932Y5571505D01*
X7503412Y5577493D01*
X7506467Y5600700D01*
X7503412Y5623907D01*
X7494454Y5645534D01*
X7480204Y5664104D01*
X7461634Y5678354D01*
X7440007Y5687312D01*
X7416800Y5690367D01*
X7393593Y5687312D01*
X7371966Y5678354D01*
X7353396Y5664104D01*
X7339146Y5645534D01*
X7330188Y5623907D01*
X7327133Y5600700D01*
X7330188Y5577493D01*
X7339146Y5555866D01*
X7353396Y5537296D01*
X7371966Y5523046D01*
X7393593Y5514088D01*
X7416800Y5511033D01*
X7440007Y5514088D01*
X7445995Y5516568D01*
X7720853Y5241709D01*
Y4936900D01*
X7658847D01*
Y5133200D01*
X7655889Y5148066D01*
X7647469Y5160669D01*
X7103769Y5704369D01*
X7091166Y5712789D01*
X7083005Y5714413D01*
X7084256Y5727113D01*
X7459015D01*
X7835313Y5350815D01*
D02*
G37*
G36*
X3898299Y3687580D02*
Y3661800D01*
X3944502D01*
X3949763Y3649100D01*
X3884131Y3583469D01*
X3875711Y3570866D01*
X3872753Y3556000D01*
Y3403600D01*
X3875711Y3388734D01*
X3884131Y3376131D01*
X4019853Y3240410D01*
Y3077400D01*
X4002400D01*
Y2891600D01*
X4138200D01*
Y3077400D01*
X4097546D01*
Y3256501D01*
X4094588Y3271367D01*
X4086168Y3283970D01*
X3950447Y3419691D01*
Y3539909D01*
X3981566Y3571029D01*
X3993299Y3566168D01*
Y3461800D01*
X4082245D01*
X4085999Y3461053D01*
X4094010D01*
X4509183Y3045880D01*
X4504323Y3034146D01*
X4382830D01*
X4381404Y3036004D01*
X4362834Y3050254D01*
X4341207Y3059212D01*
X4318000Y3062267D01*
X4294793Y3059212D01*
X4273166Y3050254D01*
X4254596Y3036004D01*
X4240346Y3017433D01*
X4231388Y2995807D01*
X4228333Y2972600D01*
X4231388Y2949392D01*
X4240346Y2927766D01*
X4254596Y2909196D01*
X4273166Y2894946D01*
X4294793Y2885988D01*
X4318000Y2882933D01*
X4341207Y2885988D01*
X4362834Y2894946D01*
X4381404Y2909196D01*
X4395654Y2927766D01*
X4404612Y2949392D01*
X4405541Y2956453D01*
X4531800D01*
Y2942000D01*
X4717600D01*
Y2985353D01*
X6330400D01*
X6334153Y2986100D01*
X6450853D01*
Y2957291D01*
X6402609Y2909047D01*
X5680834D01*
X5678354Y2915034D01*
X5664104Y2933604D01*
X5645534Y2947854D01*
X5623907Y2956812D01*
X5600700Y2959867D01*
X5577493Y2956812D01*
X5555866Y2947854D01*
X5537296Y2933604D01*
X5523046Y2915034D01*
X5514088Y2893407D01*
X5511033Y2870200D01*
X5514088Y2846993D01*
X5523046Y2825366D01*
X5537296Y2806796D01*
X5555866Y2792546D01*
X5577493Y2783588D01*
X5600700Y2780533D01*
X5623907Y2783588D01*
X5645534Y2792546D01*
X5664104Y2806796D01*
X5678354Y2825366D01*
X5680834Y2831353D01*
X5985623D01*
X5990483Y2819620D01*
X5776431Y2605569D01*
X5773713Y2601500D01*
X5711000D01*
Y2465700D01*
X5896800D01*
Y2601500D01*
X5896800D01*
X5892535Y2611798D01*
X6048591Y2767853D01*
X6718300D01*
X6733166Y2770811D01*
X6745769Y2779231D01*
X6898169Y2931631D01*
X6906589Y2944234D01*
X6909547Y2959100D01*
Y2986100D01*
X6958853D01*
Y2924391D01*
X6778409Y2743947D01*
X6451600D01*
X6436734Y2740989D01*
X6424131Y2732569D01*
X6322531Y2630969D01*
X6319813Y2626900D01*
X6257100D01*
Y2491100D01*
X6442900D01*
Y2626900D01*
X6442900D01*
X6438635Y2637197D01*
X6467691Y2666253D01*
X6794500D01*
X6809366Y2669211D01*
X6821969Y2677631D01*
X7025169Y2880831D01*
X7033589Y2893434D01*
X7036547Y2908300D01*
Y2986100D01*
X7085853D01*
Y2654300D01*
X7088811Y2639434D01*
X7097231Y2626831D01*
X7327153Y2396909D01*
Y2200491D01*
X6702209Y1575547D01*
X6594300D01*
X6579434Y1572589D01*
X6566831Y1564169D01*
X6449880Y1447217D01*
X6438146Y1452077D01*
Y1626054D01*
X6635100D01*
X6649966Y1629011D01*
X6662569Y1637432D01*
X6686769Y1661631D01*
X6695190Y1674234D01*
X6698147Y1689100D01*
Y1723767D01*
X6703738D01*
Y1793092D01*
X6746838D01*
X6761704Y1796049D01*
X6774307Y1804470D01*
X6841505Y1871668D01*
X6847493Y1869188D01*
X6858000Y1867805D01*
Y1943100D01*
X6782705D01*
X6784088Y1932593D01*
X6786568Y1926605D01*
X6730748Y1870785D01*
X6703738D01*
Y1940110D01*
X6672000D01*
Y1831938D01*
X6646600D01*
Y1940110D01*
X6633147D01*
Y2030109D01*
X6903737Y2300700D01*
X7065200D01*
Y2436500D01*
X6879400D01*
Y2386237D01*
X6579880Y2086717D01*
X6568147Y2091577D01*
Y2182509D01*
X6621155Y2235518D01*
X6629400Y2234433D01*
X6652607Y2237488D01*
X6674234Y2246446D01*
X6692804Y2260696D01*
X6707054Y2279266D01*
X6716012Y2300893D01*
X6719067Y2324100D01*
X6716012Y2347307D01*
X6707054Y2368934D01*
X6692804Y2387504D01*
X6674234Y2401754D01*
X6652607Y2410712D01*
X6629400Y2413767D01*
X6606193Y2410712D01*
X6584566Y2401754D01*
X6565996Y2387504D01*
X6551746Y2368934D01*
X6542788Y2347307D01*
X6539733Y2324100D01*
X6542788Y2300893D01*
X6551746Y2279266D01*
X6553172Y2277409D01*
X6501832Y2226069D01*
X6493411Y2213466D01*
X6490454Y2198600D01*
Y1945754D01*
X6477753Y1938304D01*
X6477000Y1938454D01*
Y1831938D01*
X6451600D01*
Y1938454D01*
X6450847Y1938304D01*
X6438146Y1945754D01*
Y2326100D01*
X6442900D01*
Y2461900D01*
X6257100D01*
Y2326100D01*
X6360453D01*
Y2042278D01*
X6348720Y2037417D01*
X6332532Y2053605D01*
X6335012Y2059593D01*
X6338067Y2082800D01*
X6335012Y2106007D01*
X6326054Y2127634D01*
X6311804Y2146204D01*
X6293234Y2160454D01*
X6271607Y2169412D01*
X6248400Y2172467D01*
X6225193Y2169412D01*
X6203566Y2160454D01*
X6184996Y2146204D01*
X6170746Y2127634D01*
X6161788Y2106007D01*
X6158733Y2082800D01*
X6161788Y2059593D01*
X6170746Y2037966D01*
X6184996Y2019396D01*
X6203566Y2005146D01*
X6225193Y1996188D01*
X6248400Y1993133D01*
X6271607Y1996188D01*
X6277595Y1998668D01*
X6295453Y1980809D01*
Y1945754D01*
X6282753Y1938304D01*
X6282000Y1938454D01*
Y1831939D01*
X6269300D01*
Y1819239D01*
X6223991D01*
Y1768205D01*
X6227440Y1750866D01*
X6232879Y1742726D01*
Y1729275D01*
X6235836Y1714409D01*
X6244257Y1701806D01*
X6308631Y1637431D01*
X6321234Y1629011D01*
X6336100Y1626054D01*
X6360453D01*
Y1559678D01*
X6348720Y1554817D01*
X5842747Y2060791D01*
Y2300700D01*
X5896800D01*
Y2436500D01*
X5711000D01*
Y2300700D01*
X5765053D01*
Y2044700D01*
X5768011Y2029834D01*
X5776431Y2017231D01*
X6298453Y1495209D01*
Y1436093D01*
X6298411Y1436029D01*
X6295453Y1421163D01*
Y1380677D01*
X6282753Y1373228D01*
X6269300Y1375904D01*
X6251961Y1372455D01*
X6237262Y1362633D01*
X6233325Y1356742D01*
X6080034D01*
X5589109Y1847667D01*
X5593969Y1859400D01*
X5674100D01*
Y2050200D01*
X5463300D01*
Y1870785D01*
X5239052D01*
X5162170Y1947667D01*
X5167031Y1959400D01*
X5244100D01*
Y2170200D01*
X4905087D01*
Y2463800D01*
Y2616300D01*
X4901176Y2635965D01*
X4890036Y2652636D01*
X4760493Y2782179D01*
X4765353Y2793913D01*
X4892733D01*
X4900746Y2774566D01*
X4914996Y2755996D01*
X4933566Y2741746D01*
X4955193Y2732788D01*
X4978400Y2729733D01*
X5001607Y2732788D01*
X5023234Y2741746D01*
X5041804Y2755996D01*
X5056054Y2774566D01*
X5065012Y2796193D01*
X5068067Y2819400D01*
X5065012Y2842607D01*
X5056054Y2864234D01*
X5041804Y2882804D01*
X5023234Y2897054D01*
X5001607Y2906012D01*
X4978400Y2909067D01*
X4955193Y2906012D01*
X4933566Y2897054D01*
X4931425Y2895411D01*
X4925007Y2896687D01*
X4717600D01*
Y2912800D01*
X4531800D01*
Y2777000D01*
X4620328D01*
X4802313Y2595015D01*
Y2515187D01*
X3581400D01*
X3561735Y2511276D01*
X3545064Y2500136D01*
X3241464Y2196536D01*
X3230324Y2179865D01*
X3227544Y2165887D01*
X3194700D01*
Y2182400D01*
X3008900D01*
Y2046600D01*
X3194700D01*
Y2063113D01*
X3226413D01*
Y1549987D01*
X3094685D01*
X3018780Y1625892D01*
X3023332Y1639301D01*
X3033107Y1640588D01*
X3054734Y1649546D01*
X3073304Y1663796D01*
X3087554Y1682366D01*
X3096512Y1703993D01*
X3099567Y1727200D01*
X3096512Y1750407D01*
X3087554Y1772034D01*
X3073304Y1790604D01*
X3054734Y1804854D01*
X3033107Y1813812D01*
X3009900Y1816867D01*
X2986693Y1813812D01*
X2981007Y1811457D01*
X2949302Y1843162D01*
X2954423Y1856001D01*
X2964526Y1858011D01*
X2977128Y1866432D01*
X2991550Y1880853D01*
X3072000D01*
X3075753Y1881600D01*
X3194700D01*
Y2017400D01*
X3008900D01*
Y1958547D01*
X2975460D01*
X2960594Y1955589D01*
X2947991Y1947169D01*
X2939974Y1939151D01*
X2936466Y1939610D01*
X2924594Y1943900D01*
X2921846Y1957712D01*
X2914371Y1968900D01*
X2921846Y1980088D01*
X2924594Y1993900D01*
X2921846Y2007712D01*
X2914371Y2018900D01*
X2921846Y2030088D01*
X2924594Y2043900D01*
X2921846Y2057712D01*
X2914371Y2068900D01*
X2921846Y2080088D01*
X2924594Y2093900D01*
X2921846Y2107712D01*
X2914371Y2118900D01*
X2921846Y2130088D01*
X2924594Y2143900D01*
X2921846Y2157712D01*
X2914022Y2169422D01*
X2902312Y2177246D01*
X2888500Y2179994D01*
X2813500D01*
X2799688Y2177246D01*
X2797975Y2176102D01*
X2794601Y2176021D01*
X2785621Y2185001D01*
X2785702Y2188375D01*
X2786846Y2190088D01*
X2789594Y2203900D01*
Y2278900D01*
X2786846Y2292712D01*
X2779022Y2304422D01*
X2767312Y2312246D01*
X2753500Y2314994D01*
X2739688Y2312246D01*
X2728500Y2304771D01*
X2717312Y2312246D01*
X2703500Y2314994D01*
X2689688Y2312246D01*
X2678500Y2304771D01*
X2667312Y2312246D01*
X2653500Y2314994D01*
X2639688Y2312246D01*
X2628500Y2304771D01*
X2617312Y2312246D01*
X2603500Y2314994D01*
X2589688Y2312246D01*
X2578500Y2304771D01*
X2567312Y2312246D01*
X2553500Y2314994D01*
X2539688Y2312246D01*
X2528500Y2304771D01*
X2517312Y2312246D01*
X2503500Y2314994D01*
X2492225Y2312751D01*
X2485945Y2320548D01*
X2484738Y2323225D01*
X2599167Y2437653D01*
X2971800D01*
X2986666Y2440611D01*
X2999269Y2449031D01*
X3165691Y2615453D01*
X3553099D01*
X3567965Y2618411D01*
X3580568Y2626831D01*
X3845336Y2891600D01*
X3973200D01*
Y3077400D01*
X3906136D01*
X3459046Y3524491D01*
Y3530300D01*
X3458299Y3534054D01*
Y3618753D01*
X3797300D01*
X3812166Y3621711D01*
X3824769Y3630131D01*
X3885599Y3690962D01*
X3898299Y3687580D01*
D02*
G37*
G36*
X3327499Y3487200D02*
X3388542D01*
X3392731Y3480931D01*
X3837400Y3036262D01*
Y2993538D01*
X3537008Y2693147D01*
X3149600D01*
X3134734Y2690189D01*
X3122131Y2681769D01*
X2955709Y2515347D01*
X2583076D01*
X2568211Y2512389D01*
X2555608Y2503969D01*
X2242932Y2191292D01*
X2234511Y2178690D01*
X2231554Y2163824D01*
Y2073977D01*
X2234094Y2061203D01*
X2228770Y2056268D01*
X2223620Y2053717D01*
X2201100Y2076237D01*
Y2157100D01*
X2015300D01*
Y2021300D01*
X2146163D01*
X2161430Y2006033D01*
X2156569Y1994300D01*
X2015300D01*
Y1858500D01*
X2201100D01*
Y1905054D01*
X2274615D01*
X2282672Y1895236D01*
X2282407Y1893900D01*
X2285154Y1880088D01*
X2292629Y1868900D01*
X2289944Y1864881D01*
X2271231Y1846169D01*
X2262811Y1833566D01*
X2259853Y1818700D01*
Y1816997D01*
X2259730Y1816377D01*
Y1591490D01*
X2194186Y1525946D01*
X2129643D01*
X2128811Y1538646D01*
X2131407Y1538988D01*
X2153034Y1547946D01*
X2171604Y1562196D01*
X2185854Y1580766D01*
X2194812Y1602393D01*
X2197867Y1625600D01*
X2194812Y1648807D01*
X2185854Y1670434D01*
X2177900Y1680800D01*
X2184163Y1693500D01*
X2201100D01*
Y1829300D01*
X2015300D01*
Y1693500D01*
X2032237D01*
X2038500Y1680800D01*
X2030546Y1670434D01*
X2021588Y1648807D01*
X2018533Y1625600D01*
X2021588Y1602393D01*
X2030546Y1580766D01*
X2044796Y1562196D01*
X2063366Y1547946D01*
X2084993Y1538988D01*
X2087589Y1538646D01*
X2086757Y1525946D01*
X2034191D01*
X1931147Y1628991D01*
Y2435009D01*
X2048091Y2551953D01*
X2876099D01*
X2890965Y2554911D01*
X2903568Y2563331D01*
X3259937Y2919700D01*
X3378299D01*
Y3105500D01*
X3279936D01*
X3080046Y3305391D01*
Y3545809D01*
X3125766Y3591529D01*
X3137499Y3586668D01*
Y3487200D01*
X3164053D01*
Y3266079D01*
X3167010Y3251213D01*
X3175431Y3238610D01*
X3190310Y3223731D01*
X3202912Y3215311D01*
X3217778Y3212353D01*
X3311309D01*
X3410622Y3113041D01*
X3407499Y3105500D01*
X3407499D01*
Y2919700D01*
X3543299D01*
Y3105500D01*
X3517314D01*
X3515689Y3113666D01*
X3507269Y3126269D01*
X3354869Y3278669D01*
X3342266Y3287089D01*
X3327400Y3290047D01*
X3241746D01*
Y3487200D01*
X3268299D01*
Y3618753D01*
X3327499D01*
Y3487200D01*
D02*
G37*
G36*
X6830063Y2973400D02*
X6702209Y2845547D01*
X6465577D01*
X6460717Y2857280D01*
X6517169Y2913732D01*
X6525589Y2926334D01*
X6528547Y2941200D01*
Y2986100D01*
X6827530D01*
X6830063Y2973400D01*
D02*
G37*
G36*
X4634526Y2404239D02*
X4635219Y2399713D01*
X4621346Y2381634D01*
X4612388Y2360007D01*
X4609333Y2336800D01*
X4610428Y2328482D01*
X4598523Y2321611D01*
X4587814Y2328766D01*
X4570100Y2332290D01*
X4570099Y2332289D01*
X4051301D01*
X4051300Y2332290D01*
X4033586Y2328766D01*
X4018568Y2318732D01*
X4018568Y2318731D01*
X3889790Y2189953D01*
X3888600Y2190190D01*
X3810907D01*
Y2237331D01*
X3740318D01*
Y2143900D01*
Y2050469D01*
X3810907D01*
Y2097611D01*
X3825109D01*
Y1798889D01*
X3798207D01*
Y1846031D01*
X3727618D01*
Y1752600D01*
Y1659169D01*
X3798207D01*
Y1706311D01*
X3825109D01*
Y1591873D01*
X3511426Y1278189D01*
X3427212D01*
X3422901Y1290889D01*
X3428904Y1295496D01*
X3443154Y1314066D01*
X3452112Y1335693D01*
X3454150Y1351178D01*
X3583136Y1480164D01*
X3594276Y1496835D01*
X3598187Y1516500D01*
X3597441Y1520250D01*
X3598187Y1524000D01*
Y1659169D01*
X3702218D01*
Y1752600D01*
Y1846031D01*
X3598187D01*
Y1943100D01*
Y2050469D01*
X3714918D01*
Y2143900D01*
Y2237331D01*
X3478893D01*
Y2050469D01*
X3495413D01*
Y2019104D01*
X3482713Y2012841D01*
X3473834Y2019654D01*
X3452207Y2028612D01*
X3429000Y2031667D01*
X3405793Y2028612D01*
X3384166Y2019654D01*
X3365596Y2005404D01*
X3351346Y1986834D01*
X3342388Y1965208D01*
X3341887Y1961401D01*
X3329187Y1962234D01*
Y2108200D01*
Y2138915D01*
X3602685Y2412413D01*
X4631751D01*
X4634526Y2404239D01*
D02*
G37*
G36*
X2421379Y1802799D02*
X2421298Y1799425D01*
X2420154Y1797712D01*
X2417407Y1783900D01*
Y1708900D01*
X2420154Y1695088D01*
X2427978Y1683378D01*
X2439688Y1675554D01*
X2453500Y1672807D01*
X2460636Y1674226D01*
X2466892Y1662522D01*
X2263798Y1459427D01*
X2256487Y1460413D01*
X2251953Y1473839D01*
X2326045Y1547931D01*
X2334466Y1560534D01*
X2337423Y1575400D01*
Y1802486D01*
X2339991Y1805054D01*
X2356000D01*
X2369841Y1807807D01*
X2393500D01*
X2407312Y1810554D01*
X2409025Y1811698D01*
X2412399Y1811779D01*
X2421379Y1802799D01*
D02*
G37*
G36*
X3342388Y1918793D02*
X3351346Y1897167D01*
X3365596Y1878596D01*
X3384166Y1864346D01*
X3405793Y1855388D01*
X3429000Y1852333D01*
X3452207Y1855388D01*
X3473834Y1864346D01*
X3482713Y1871160D01*
X3495413Y1864896D01*
Y1846031D01*
X3466193D01*
Y1659169D01*
X3495413D01*
Y1537785D01*
X3398912Y1441285D01*
X3388707Y1445512D01*
X3365500Y1448567D01*
X3342293Y1445512D01*
X3320666Y1436554D01*
X3302096Y1422304D01*
X3287846Y1403734D01*
X3278888Y1382107D01*
X3275833Y1358900D01*
X3278888Y1335693D01*
X3287846Y1314066D01*
X3302096Y1295496D01*
X3308099Y1290889D01*
X3303788Y1278189D01*
X3209001D01*
X3209000Y1278190D01*
X3191286Y1274666D01*
X3176268Y1264632D01*
X3176268Y1264631D01*
X3116868Y1205232D01*
X3106834Y1190214D01*
X3103310Y1172500D01*
X3103311Y1172499D01*
Y1097800D01*
X3052746D01*
Y1393000D01*
X3049789Y1407866D01*
X3041369Y1420469D01*
X3005132Y1456705D01*
X3007612Y1462693D01*
X3008899Y1472468D01*
X3022308Y1477020D01*
X3037064Y1462264D01*
X3053735Y1451124D01*
X3073400Y1447213D01*
X3277800D01*
X3297465Y1451124D01*
X3314136Y1462264D01*
X3325276Y1478935D01*
X3329187Y1498600D01*
Y1921767D01*
X3341887Y1922599D01*
X3342388Y1918793D01*
D02*
G37*
G36*
X4646400Y1959400D02*
X4802313D01*
Y1801100D01*
X4806225Y1781435D01*
X4817364Y1764764D01*
X5043110Y1539017D01*
X5041133Y1524000D01*
X5044188Y1500793D01*
X5053146Y1479166D01*
X5067396Y1460596D01*
X5085966Y1446346D01*
X5107593Y1437388D01*
X5119303Y1435847D01*
X5118471Y1423147D01*
X4946091D01*
X4562547Y1806691D01*
Y1959400D01*
X4621000D01*
Y2064800D01*
X4646400D01*
Y1959400D01*
D02*
G37*
G36*
X2539253Y1601783D02*
Y1548292D01*
X2530293Y1547112D01*
X2508667Y1538154D01*
X2490096Y1523904D01*
X2475846Y1505334D01*
X2466888Y1483707D01*
X2463833Y1460500D01*
X2466888Y1437293D01*
X2475846Y1415666D01*
X2490096Y1397096D01*
X2508667Y1382846D01*
X2530293Y1373888D01*
X2553500Y1370833D01*
X2576708Y1373888D01*
X2598334Y1382846D01*
X2613542Y1394516D01*
X2623973Y1386512D01*
X2616888Y1369407D01*
X2613833Y1346200D01*
X2616888Y1322993D01*
X2625846Y1301366D01*
X2640096Y1282796D01*
X2658667Y1268546D01*
X2680293Y1259588D01*
X2703500Y1256533D01*
X2726708Y1259588D01*
X2748334Y1268546D01*
X2753685Y1272652D01*
X2776368Y1249969D01*
X2776368Y1249968D01*
X2791386Y1239934D01*
X2809100Y1236410D01*
X2809101Y1236411D01*
X2836147D01*
X2839711Y1232847D01*
Y1117069D01*
X2837210Y1104500D01*
X2837211Y1104499D01*
Y1088055D01*
X2824511Y1081792D01*
X2813273Y1090415D01*
X2810189Y1091693D01*
Y1148090D01*
X2806666Y1165804D01*
X2796632Y1180822D01*
X2796631Y1180822D01*
X2772222Y1205232D01*
X2757205Y1215266D01*
X2739490Y1218790D01*
X2739489Y1218789D01*
X2090989D01*
Y1363411D01*
X2272324D01*
X2290038Y1366934D01*
X2305055Y1376968D01*
X2315090Y1391986D01*
X2315643Y1394766D01*
X2527520Y1606643D01*
X2539253Y1601783D01*
D02*
G37*
G36*
X9976469Y1107851D02*
Y996212D01*
Y951490D01*
X9579301D01*
X9579300Y951490D01*
X9561586Y947966D01*
X9554400Y943165D01*
X9541700Y949953D01*
Y1077500D01*
X9490047D01*
Y1089800D01*
X9487089Y1104666D01*
X9478669Y1117269D01*
X9453684Y1142253D01*
X9458944Y1154953D01*
X9929366D01*
X9976469Y1107851D01*
D02*
G37*
G36*
X3156600Y912000D02*
X3189300D01*
Y922734D01*
X3202000Y928997D01*
X3214527Y919384D01*
X3217611Y918107D01*
Y866629D01*
X3214300Y855300D01*
X3126600D01*
Y734900D01*
X3101200D01*
Y855300D01*
X2926600D01*
Y734900D01*
X2901200D01*
Y855300D01*
X2813500D01*
X2810189Y866629D01*
Y918107D01*
X2813273Y919384D01*
X2825800Y928997D01*
X2838500Y922734D01*
Y912000D01*
X3131200D01*
Y1004900D01*
X3156600D01*
Y912000D01*
D02*
G37*
G36*
X3423900Y689900D02*
X3373901D01*
Y779903D01*
X3423898D01*
X3423900Y689900D01*
D02*
G37*
G36*
X2653899Y689897D02*
X2603902D01*
X2603900Y779900D01*
X2653899D01*
Y689897D01*
D02*
G37*
G36*
X3373900Y639900D02*
X3243900D01*
Y829900D01*
X3373900D01*
Y639900D01*
D02*
G37*
G36*
X2783900D02*
X2653900D01*
Y829900D01*
X2783900D01*
Y639900D01*
D02*
G37*
%LPC*%
G36*
X3566575Y8045811D02*
X3498600D01*
Y7950200D01*
X3566575D01*
Y8045811D01*
D02*
G37*
G36*
X3473200D02*
X3405225D01*
Y7950200D01*
X3473200D01*
Y8045811D01*
D02*
G37*
G36*
X2540799Y7976058D02*
X2512412Y7972321D01*
X2485960Y7961364D01*
X2463245Y7943934D01*
X2445815Y7921219D01*
X2434858Y7894767D01*
X2431121Y7866380D01*
X2434858Y7837993D01*
X2445815Y7811541D01*
X2463245Y7788826D01*
X2485960Y7771396D01*
X2512412Y7760439D01*
X2540799Y7756702D01*
X2569186Y7760439D01*
X2595638Y7771396D01*
X2618353Y7788826D01*
X2635783Y7811541D01*
X2646740Y7837993D01*
X2650477Y7866380D01*
X2646740Y7894767D01*
X2635783Y7921219D01*
X2618353Y7943934D01*
X2595638Y7961364D01*
X2569186Y7972321D01*
X2540799Y7976058D01*
D02*
G37*
G36*
X4514460Y8250490D02*
X4514459Y8250489D01*
X3898900D01*
X3881186Y8246966D01*
X3866168Y8236932D01*
X3866168Y8236931D01*
X3726468Y8097232D01*
X3716434Y8082214D01*
X3712910Y8064500D01*
X3712911Y8064499D01*
Y7765006D01*
X3700211Y7761016D01*
X3566575Y7894652D01*
Y7924800D01*
X3405225D01*
Y7829189D01*
X3458911D01*
Y7772737D01*
X3441796Y7759604D01*
X3427546Y7741034D01*
X3418588Y7719407D01*
X3417205Y7708900D01*
X3505200D01*
Y7683500D01*
X3417205D01*
X3418588Y7672993D01*
X3420140Y7669247D01*
X3413084Y7658687D01*
X3124200D01*
X3104535Y7654776D01*
X3087864Y7643636D01*
X2721915Y7277687D01*
X2681452D01*
X2676592Y7289421D01*
X3216361Y7829189D01*
X3311302D01*
Y8045811D01*
X3149953D01*
Y7906633D01*
X3145452Y7903625D01*
X2576867Y7335040D01*
X2432059D01*
Y7117560D01*
X2649539D01*
Y7174913D01*
X2743200D01*
X2762865Y7178824D01*
X2779536Y7189964D01*
X3145485Y7555913D01*
X3243000D01*
Y7437689D01*
X3213100D01*
X3195386Y7434166D01*
X3180368Y7424132D01*
X3180368Y7424131D01*
X3098668Y7342432D01*
X3088634Y7327414D01*
X3085110Y7309700D01*
X3085110Y7309699D01*
Y6575800D01*
X3006000D01*
Y6175000D01*
X3256800D01*
Y6575800D01*
X3177689D01*
Y7290526D01*
X3232274Y7345111D01*
X3337580D01*
X3344617Y7333905D01*
X3340393Y7324100D01*
X3243000D01*
Y7193300D01*
X3251610D01*
Y6975302D01*
X3251609Y6975301D01*
X3255133Y6957587D01*
X3265167Y6942569D01*
X3623768Y6583969D01*
X3623768Y6583968D01*
X3638786Y6573934D01*
X3656500Y6570410D01*
X3656501Y6570411D01*
X3735925D01*
X3801367Y6504968D01*
X3816385Y6494934D01*
X3834099Y6491410D01*
X3834100Y6491411D01*
X3906000D01*
Y6175000D01*
X4144711D01*
Y6115174D01*
X4057526Y6027989D01*
X3390901D01*
X3390900Y6027990D01*
X3373186Y6024466D01*
X3358168Y6014432D01*
X3358168Y6014431D01*
X3080033Y5736297D01*
X3066730D01*
X3060864Y5740216D01*
X3043150Y5743740D01*
X3025436Y5740216D01*
X3010418Y5730182D01*
X2913668Y5633432D01*
X2903634Y5618414D01*
X2900110Y5600700D01*
X2900111Y5600699D01*
Y5573810D01*
X2865800D01*
Y5388010D01*
X3001600D01*
Y5573810D01*
X3001600D01*
X2997673Y5586510D01*
X3069767Y5658604D01*
X3083070D01*
X3088936Y5654684D01*
X3106650Y5651160D01*
X3124364Y5654684D01*
X3139382Y5664718D01*
X3410074Y5935411D01*
X3897459D01*
X3901447Y5922711D01*
X3638426Y5659689D01*
X3211366D01*
X3211365Y5659690D01*
X3193651Y5656166D01*
X3178633Y5646132D01*
X3178633Y5646131D01*
X3111400Y5578898D01*
Y5480910D01*
Y5388010D01*
X3166600D01*
Y5434621D01*
X3293176D01*
X3302096Y5422996D01*
X3320666Y5408746D01*
X3342293Y5399788D01*
X3352800Y5398405D01*
Y5486400D01*
X3365500D01*
Y5499100D01*
X3453495D01*
X3452112Y5509607D01*
X3443154Y5531234D01*
X3428904Y5549804D01*
X3422901Y5554411D01*
X3427212Y5567111D01*
X3657599D01*
X3657600Y5567110D01*
X3675314Y5570634D01*
X3690332Y5580668D01*
X3956174Y5846511D01*
X4153698D01*
X4153699Y5846510D01*
X4171413Y5850034D01*
X4186431Y5860068D01*
X4325331Y5998969D01*
X4325332Y5998969D01*
X4335366Y6013987D01*
X4338889Y6031701D01*
Y6959599D01*
X4338890Y6959600D01*
X4335366Y6977314D01*
X4325332Y6992332D01*
X4325331Y6992332D01*
X4211889Y7105774D01*
Y7168596D01*
X4217786Y7177420D01*
X4222085Y7199036D01*
Y7266336D01*
X4165600D01*
X4109115D01*
Y7199036D01*
X4113414Y7177420D01*
X4119311Y7168596D01*
Y7086601D01*
X4119310Y7086600D01*
X4122345Y7071342D01*
X4115049Y7065314D01*
X4111871Y7063856D01*
X4082653Y7093074D01*
Y7165249D01*
X4090786Y7177420D01*
X4095085Y7199036D01*
Y7359036D01*
X4090786Y7380652D01*
X4078541Y7398977D01*
X4060216Y7411222D01*
X4038600Y7415521D01*
X4016984Y7411222D01*
X3998659Y7398977D01*
X3986414Y7380652D01*
X3982115Y7359036D01*
Y7199036D01*
X3986414Y7177420D01*
X3990074Y7171942D01*
Y7073901D01*
X3990074Y7073900D01*
X3993598Y7056186D01*
X4003632Y7041168D01*
X4144711Y6900090D01*
Y6575800D01*
X3968797D01*
X3961814Y6580466D01*
X3944100Y6583990D01*
X3853273D01*
X3805489Y6631773D01*
Y8045326D01*
X3918074Y8157911D01*
X4051622D01*
X4057885Y8145211D01*
X4049846Y8134734D01*
X4040888Y8113107D01*
X4037833Y8089900D01*
X4040888Y8066693D01*
X4049846Y8045066D01*
X4064096Y8026496D01*
X4064347Y8022657D01*
X4008895Y7967205D01*
X4000474Y7954602D01*
X3997517Y7939736D01*
Y7877269D01*
X3986414Y7860652D01*
X3982115Y7839036D01*
Y7679036D01*
X3986414Y7657420D01*
X3998659Y7639095D01*
X4016984Y7626850D01*
X4038600Y7622551D01*
X4060216Y7626850D01*
X4078541Y7639095D01*
X4090786Y7657420D01*
X4095085Y7679036D01*
Y7839036D01*
X4090786Y7860652D01*
X4078541Y7878977D01*
X4075210Y7881203D01*
Y7923646D01*
X4135528Y7983964D01*
X4143949Y7996566D01*
X4145141Y8002555D01*
X4150707Y8003288D01*
X4172334Y8012246D01*
X4190904Y8026496D01*
X4205154Y8045066D01*
X4214112Y8066693D01*
X4217167Y8089900D01*
X4214112Y8113107D01*
X4205154Y8134734D01*
X4197115Y8145211D01*
X4203378Y8157911D01*
X4332488D01*
X4336799Y8145211D01*
X4330796Y8140604D01*
X4316546Y8122034D01*
X4311204Y8109136D01*
X4291595Y8105236D01*
X4274924Y8094096D01*
X4256264Y8075436D01*
X4245124Y8058765D01*
X4241213Y8039100D01*
Y7861847D01*
X4240414Y7860652D01*
X4236115Y7839036D01*
Y7679036D01*
X4240414Y7657420D01*
X4252659Y7639095D01*
X4270984Y7626850D01*
X4292600Y7622551D01*
X4314216Y7626850D01*
X4332541Y7639095D01*
X4333379Y7640349D01*
X4390079D01*
X4688064Y7342364D01*
X4704735Y7331224D01*
X4724400Y7327313D01*
X5246680D01*
X5247513Y7314613D01*
X5234593Y7312912D01*
X5212966Y7303954D01*
X5194396Y7289704D01*
X5180146Y7271134D01*
X5171188Y7249507D01*
X5168865Y7231862D01*
X5158385Y7223894D01*
X5155727Y7223237D01*
X5154200Y7223812D01*
Y7255700D01*
X5099000D01*
Y7162800D01*
Y7069900D01*
X5154200D01*
Y7119075D01*
X5199416D01*
X5199417Y7119075D01*
X5217132Y7122599D01*
X5232149Y7132633D01*
X5238668Y7139152D01*
X5245100Y7138305D01*
Y7226300D01*
X5257800D01*
Y7239000D01*
X5345795D01*
X5344412Y7249507D01*
X5335454Y7271134D01*
X5321204Y7289704D01*
X5302634Y7303954D01*
X5281007Y7312912D01*
X5268087Y7314613D01*
X5268920Y7327313D01*
X5602215D01*
X5663100Y7266427D01*
Y7163300D01*
X5739653D01*
Y5880100D01*
X5742611Y5865234D01*
X5749350Y5855148D01*
X5739485Y5847052D01*
X5626847Y5959691D01*
Y6832600D01*
X5623889Y6847466D01*
X5615469Y6860069D01*
X5570532Y6905005D01*
X5573012Y6910993D01*
X5576067Y6934200D01*
X5573012Y6957407D01*
X5564054Y6979034D01*
X5549804Y6997604D01*
X5531234Y7011854D01*
X5509607Y7020812D01*
X5486400Y7023867D01*
X5463193Y7020812D01*
X5441566Y7011854D01*
X5422996Y6997604D01*
X5408746Y6979034D01*
X5399788Y6957407D01*
X5396733Y6934200D01*
X5399788Y6910993D01*
X5408746Y6889366D01*
X5422996Y6870796D01*
X5441566Y6856546D01*
X5463193Y6847588D01*
X5486400Y6844533D01*
X5509607Y6847588D01*
X5515595Y6850068D01*
X5549153Y6816509D01*
Y5943600D01*
X5552111Y5928734D01*
X5560531Y5916131D01*
X5688853Y5787809D01*
Y5350091D01*
X5473995Y5135232D01*
X5465574Y5122630D01*
X5462617Y5107764D01*
Y5076702D01*
X5459000Y5065500D01*
X5323200D01*
Y4879700D01*
X5459000D01*
Y4933754D01*
X5498028D01*
X5512893Y4936711D01*
X5525496Y4945132D01*
X5528932Y4948567D01*
X5537353Y4961170D01*
X5540310Y4976036D01*
Y5091673D01*
X5755169Y5306531D01*
X5763589Y5319134D01*
X5766547Y5334000D01*
Y5803900D01*
X5763589Y5818766D01*
X5756850Y5828852D01*
X5766715Y5836948D01*
X6129431Y5474231D01*
X6142034Y5465811D01*
X6156900Y5462853D01*
X6694100D01*
Y5411300D01*
X6894900D01*
Y5592100D01*
X6694100D01*
Y5540546D01*
X6172991D01*
X5817347Y5896191D01*
Y7163300D01*
X5893900D01*
Y7334876D01*
X5905867Y7340870D01*
X6015705Y7231032D01*
X6030722Y7220998D01*
X6048436Y7217474D01*
X6048438Y7217474D01*
X6165489D01*
Y7183089D01*
X6261100D01*
Y7263764D01*
Y7344438D01*
X6165489D01*
Y7310053D01*
X6067610D01*
X5893900Y7483764D01*
Y7493500D01*
X5663100D01*
Y7428130D01*
X5650400Y7421342D01*
X5643165Y7426176D01*
X5623500Y7430087D01*
X4745685D01*
X4447700Y7728072D01*
X4431029Y7739212D01*
X4411364Y7743123D01*
X4349085D01*
Y7839036D01*
X4344786Y7860652D01*
X4343987Y7861847D01*
Y7988332D01*
X4356688Y7996514D01*
X4370993Y7990588D01*
X4394200Y7987533D01*
X4417407Y7990588D01*
X4439034Y7999546D01*
X4457604Y8013796D01*
X4471854Y8032366D01*
X4480812Y8053993D01*
X4483867Y8077200D01*
X4480812Y8100407D01*
X4471854Y8122034D01*
X4457604Y8140604D01*
X4451601Y8145211D01*
X4455912Y8157911D01*
X4495286D01*
X4601911Y8051286D01*
Y8034000D01*
X4571900D01*
Y7663200D01*
X4794700D01*
Y8034000D01*
X4694489D01*
Y8070460D01*
X4690966Y8088174D01*
X4680932Y8103192D01*
X4680931Y8103192D01*
X4547192Y8236932D01*
X4532174Y8246966D01*
X4514460Y8250490D01*
D02*
G37*
G36*
X7624900Y7659200D02*
X7376100D01*
Y7555400D01*
X7624900D01*
Y7659200D01*
D02*
G37*
G36*
X5879195Y7683500D02*
X5703205D01*
X5704588Y7672993D01*
X5713546Y7651366D01*
X5727796Y7632796D01*
X5744911Y7619663D01*
Y7594100D01*
X5663100D01*
Y7518900D01*
X5893900D01*
Y7594100D01*
X5837489D01*
Y7619663D01*
X5854604Y7632796D01*
X5868854Y7651366D01*
X5877812Y7672993D01*
X5879195Y7683500D01*
D02*
G37*
G36*
X8117900Y7532200D02*
X7869100D01*
Y7428400D01*
X8117900D01*
Y7532200D01*
D02*
G37*
G36*
X7487800Y7405200D02*
X7376100D01*
Y7366000D01*
X7487800D01*
Y7405200D01*
D02*
G37*
G36*
X8117900D02*
X7869100D01*
Y7301400D01*
X8117900D01*
Y7405200D01*
D02*
G37*
G36*
X7487800Y7340600D02*
X7376100D01*
Y7301400D01*
X7487800D01*
Y7340600D01*
D02*
G37*
G36*
X6382111Y7344438D02*
X6286500D01*
Y7276464D01*
X6382111D01*
Y7344438D01*
D02*
G37*
G36*
X4989200Y7255700D02*
X4853400D01*
Y7201647D01*
X4803650D01*
X4802054Y7205499D01*
X4787804Y7224069D01*
X4769234Y7238319D01*
X4747607Y7247277D01*
X4724400Y7250332D01*
X4701193Y7247277D01*
X4679566Y7238319D01*
X4660996Y7224069D01*
X4646746Y7205499D01*
X4637788Y7183873D01*
X4634733Y7160665D01*
X4637788Y7137458D01*
X4646746Y7115832D01*
X4660996Y7097261D01*
X4679566Y7083011D01*
X4701193Y7074053D01*
X4724400Y7070998D01*
X4747607Y7074053D01*
X4769234Y7083011D01*
X4787804Y7097261D01*
X4802054Y7115832D01*
X4805418Y7123953D01*
X4853400D01*
Y7069900D01*
X4887554D01*
Y6972300D01*
X4890511Y6957434D01*
X4898932Y6944831D01*
X4978853Y6864910D01*
Y6612263D01*
X4970849Y6608948D01*
X4951443Y6594057D01*
X4936552Y6574651D01*
X4927191Y6552052D01*
X4923998Y6527800D01*
X4927191Y6503548D01*
X4930507Y6495544D01*
X4795956Y6360993D01*
X4787952Y6364309D01*
X4763700Y6367502D01*
X4739448Y6364309D01*
X4716849Y6354948D01*
X4697443Y6340057D01*
X4682552Y6320651D01*
X4673191Y6298052D01*
X4669998Y6273800D01*
X4673191Y6249548D01*
X4682552Y6226949D01*
X4697443Y6207543D01*
X4716849Y6192652D01*
X4739448Y6183291D01*
X4763700Y6180098D01*
X4787952Y6183291D01*
X4810551Y6192652D01*
X4829957Y6207543D01*
X4844848Y6226949D01*
X4854209Y6249548D01*
X4857402Y6273800D01*
X4854209Y6298052D01*
X4850893Y6306056D01*
X4985444Y6440607D01*
X4993448Y6437291D01*
X5017700Y6434098D01*
X5041952Y6437291D01*
X5064551Y6446652D01*
X5083957Y6461543D01*
X5098848Y6480949D01*
X5108209Y6503548D01*
X5111402Y6527800D01*
X5108209Y6552052D01*
X5098848Y6574651D01*
X5083957Y6594057D01*
X5064551Y6608948D01*
X5056546Y6612263D01*
Y6881000D01*
X5053589Y6895866D01*
X5045168Y6908469D01*
X4965247Y6988391D01*
Y7069900D01*
X4989200D01*
Y7255700D01*
D02*
G37*
G36*
X3911600Y7415521D02*
X3889984Y7411222D01*
X3871659Y7398977D01*
X3859414Y7380652D01*
X3855115Y7359036D01*
Y7199036D01*
X3859414Y7177420D01*
X3871659Y7159095D01*
X3889984Y7146850D01*
X3911600Y7142551D01*
X3933216Y7146850D01*
X3951541Y7159095D01*
X3963786Y7177420D01*
X3968085Y7199036D01*
Y7359036D01*
X3963786Y7380652D01*
X3951541Y7398977D01*
X3933216Y7411222D01*
X3911600Y7415521D01*
D02*
G37*
G36*
X5345795Y7213600D02*
X5270500D01*
Y7138305D01*
X5281007Y7139688D01*
X5302634Y7148646D01*
X5321204Y7162896D01*
X5335454Y7181466D01*
X5344412Y7203093D01*
X5345795Y7213600D01*
D02*
G37*
G36*
X5472160Y7277867D02*
X5448952Y7274812D01*
X5427326Y7265854D01*
X5408756Y7251604D01*
X5394506Y7233034D01*
X5385548Y7211407D01*
X5382493Y7188200D01*
X5384470Y7173183D01*
X5235364Y7024076D01*
X5224224Y7007405D01*
X5220313Y6987740D01*
Y6366700D01*
X5178800D01*
Y6180900D01*
X5364600D01*
Y6366700D01*
X5323087D01*
Y6966455D01*
X5457142Y7100510D01*
X5472160Y7098533D01*
X5495367Y7101588D01*
X5516993Y7110546D01*
X5535564Y7124796D01*
X5549814Y7143366D01*
X5558771Y7164993D01*
X5561827Y7188200D01*
X5558771Y7211407D01*
X5549814Y7233034D01*
X5535564Y7251604D01*
X5516993Y7265854D01*
X5495367Y7274812D01*
X5472160Y7277867D01*
D02*
G37*
G36*
X5073600Y7255700D02*
X5018400D01*
Y7194305D01*
X5010899Y7183079D01*
X5007376Y7165365D01*
X5010899Y7147651D01*
X5018400Y7136425D01*
Y7069900D01*
X5073600D01*
Y7162800D01*
Y7255700D01*
D02*
G37*
G36*
X10418000Y6919600D02*
X10232200D01*
Y6783800D01*
X10273713D01*
Y6676085D01*
X10200417Y6602790D01*
X10185400Y6604767D01*
X10162193Y6601712D01*
X10140566Y6592754D01*
X10121996Y6578504D01*
X10107746Y6559934D01*
X10098788Y6538307D01*
X10095733Y6515100D01*
X10098788Y6491893D01*
X10107746Y6470266D01*
X10121996Y6451696D01*
X10140566Y6437446D01*
X10162193Y6428488D01*
X10185400Y6425433D01*
X10208607Y6428488D01*
X10230234Y6437446D01*
X10248804Y6451696D01*
X10263054Y6470266D01*
X10272012Y6491893D01*
X10275067Y6515100D01*
X10273090Y6530117D01*
X10361436Y6618464D01*
X10372576Y6635135D01*
X10376487Y6654800D01*
Y6783800D01*
X10418000D01*
Y6919600D01*
D02*
G37*
G36*
X8902700Y6615795D02*
X8892193Y6614412D01*
X8870566Y6605454D01*
X8851996Y6591204D01*
X8837746Y6572634D01*
X8828788Y6551007D01*
X8827405Y6540500D01*
X8902700D01*
Y6615795D01*
D02*
G37*
G36*
X9003395Y6515100D02*
X8928100D01*
Y6439805D01*
X8938607Y6441188D01*
X8960234Y6450146D01*
X8978804Y6464396D01*
X8993054Y6482966D01*
X9002012Y6504593D01*
X9003395Y6515100D01*
D02*
G37*
G36*
X8902700D02*
X8827405D01*
X8828788Y6504593D01*
X8837746Y6482966D01*
X8851996Y6464396D01*
X8870566Y6450146D01*
X8892193Y6441188D01*
X8902700Y6439805D01*
Y6515100D01*
D02*
G37*
G36*
X9740900Y6514195D02*
X9730393Y6512812D01*
X9708766Y6503854D01*
X9690196Y6489604D01*
X9675946Y6471034D01*
X9666988Y6449407D01*
X9665605Y6438900D01*
X9740900D01*
Y6514195D01*
D02*
G37*
G36*
X9841595Y6413500D02*
X9766300D01*
Y6338205D01*
X9776807Y6339588D01*
X9798434Y6348546D01*
X9817004Y6362796D01*
X9831254Y6381366D01*
X9840212Y6402993D01*
X9841595Y6413500D01*
D02*
G37*
G36*
X9740900D02*
X9665605D01*
X9666988Y6402993D01*
X9675946Y6381366D01*
X9690196Y6362796D01*
X9708766Y6348546D01*
X9730393Y6339588D01*
X9740900Y6338205D01*
Y6413500D01*
D02*
G37*
G36*
X2489200Y6262625D02*
Y6172200D01*
X2579625D01*
X2577726Y6186623D01*
X2567256Y6211898D01*
X2550602Y6233602D01*
X2528898Y6250256D01*
X2503623Y6260726D01*
X2489200Y6262625D01*
D02*
G37*
G36*
X2463800D02*
X2449377Y6260726D01*
X2424102Y6250256D01*
X2402398Y6233602D01*
X2385744Y6211898D01*
X2375274Y6186623D01*
X2373375Y6172200D01*
X2463800D01*
Y6262625D01*
D02*
G37*
G36*
X7491800Y6159500D02*
X7439100D01*
Y6106800D01*
X7491800D01*
Y6159500D01*
D02*
G37*
G36*
X7567200Y6620700D02*
X7431400D01*
Y6501753D01*
X7430653Y6498000D01*
Y6431491D01*
X7325831Y6326669D01*
X7317411Y6314066D01*
X7314453Y6299200D01*
Y6237600D01*
X7289100D01*
Y6106800D01*
X7419900D01*
Y6237600D01*
X7392147D01*
Y6283109D01*
X7496968Y6387931D01*
X7505389Y6400534D01*
X7508346Y6415400D01*
Y6434900D01*
X7567200D01*
Y6620700D01*
D02*
G37*
G36*
X2579625Y6146800D02*
X2489200D01*
Y6056375D01*
X2503623Y6058274D01*
X2528898Y6068744D01*
X2550602Y6085398D01*
X2567256Y6107102D01*
X2577726Y6132377D01*
X2579625Y6146800D01*
D02*
G37*
G36*
X2463800D02*
X2373375D01*
X2375274Y6132377D01*
X2377804Y6126268D01*
X2088168Y5836632D01*
X2078134Y5821614D01*
X2074610Y5803900D01*
X2074611Y5803899D01*
Y4978401D01*
X2074610Y4978400D01*
X2074611Y4978399D01*
Y4335800D01*
X2074610Y4335799D01*
X2078134Y4318085D01*
X2088168Y4303067D01*
X2154510Y4236726D01*
Y3729900D01*
X2135399D01*
Y3632200D01*
X2266199D01*
Y3729900D01*
X2247089D01*
Y4255899D01*
X2247089Y4255900D01*
X2243565Y4273614D01*
X2233531Y4288632D01*
X2233530Y4288632D01*
X2167189Y4354973D01*
Y4959226D01*
X2257974Y5050010D01*
X2338000D01*
X2355714Y5053534D01*
X2362698Y5058200D01*
X2387600D01*
Y5145900D01*
X2279900D01*
Y5142589D01*
X2238801D01*
X2238800Y5142590D01*
X2221086Y5139066D01*
X2206068Y5129032D01*
X2206068Y5129031D01*
X2178923Y5101886D01*
X2167189Y5106746D01*
Y5784726D01*
X2443268Y6060804D01*
X2449377Y6058274D01*
X2463800Y6056375D01*
Y6146800D01*
D02*
G37*
G36*
X6698006Y5981815D02*
X6641700D01*
Y5918900D01*
X6698006D01*
Y5981815D01*
D02*
G37*
G36*
Y5893500D02*
X6641700D01*
Y5830585D01*
X6698006D01*
Y5893500D01*
D02*
G37*
G36*
X8128000Y5594181D02*
X8047269D01*
Y5523593D01*
X8128000D01*
Y5594181D01*
D02*
G37*
G36*
X3086000Y5573810D02*
X3030800D01*
Y5493610D01*
X3086000D01*
Y5573810D01*
D02*
G37*
G36*
X3453495Y5473700D02*
X3378200D01*
Y5398405D01*
X3388707Y5399788D01*
X3410334Y5408746D01*
X3428904Y5422996D01*
X3443154Y5441566D01*
X3452112Y5463193D01*
X3453495Y5473700D01*
D02*
G37*
G36*
X3086000Y5468210D02*
X3030800D01*
Y5388010D01*
X3086000D01*
Y5468210D01*
D02*
G37*
G36*
X5408300Y5503100D02*
X5272500D01*
Y5449047D01*
X5180400D01*
X5165534Y5446089D01*
X5152932Y5437669D01*
X4936863Y5221600D01*
X4861000D01*
Y5090800D01*
X4991800D01*
Y5166663D01*
X5196491Y5371353D01*
X5272500D01*
Y5317300D01*
X5408300D01*
Y5503100D01*
D02*
G37*
G36*
X6097500Y5282000D02*
X6019800D01*
Y5194300D01*
X6097500D01*
Y5282000D01*
D02*
G37*
G36*
X5994400D02*
X5916700D01*
Y5194300D01*
X5994400D01*
Y5282000D01*
D02*
G37*
G36*
X2387600Y5259000D02*
X2279900D01*
Y5171300D01*
X2387600D01*
Y5259000D01*
D02*
G37*
G36*
X6097500Y5168900D02*
X6019800D01*
Y5081200D01*
X6097500D01*
Y5168900D01*
D02*
G37*
G36*
X4316900Y5586800D02*
X4136100D01*
Y5386000D01*
X4180211D01*
Y5325001D01*
X4180210Y5325000D01*
X4183734Y5307286D01*
X4193768Y5292268D01*
X4333849Y5152188D01*
X4331033Y5130800D01*
X4334088Y5107593D01*
X4343046Y5085966D01*
X4357296Y5067396D01*
X4375867Y5053146D01*
X4397493Y5044188D01*
X4420700Y5041133D01*
X4443908Y5044188D01*
X4465534Y5053146D01*
X4484104Y5067396D01*
X4498354Y5085966D01*
X4507312Y5107593D01*
X4510367Y5130800D01*
X4507312Y5154007D01*
X4498354Y5175634D01*
X4484104Y5194204D01*
X4465534Y5208454D01*
X4443908Y5217412D01*
X4420700Y5220467D01*
X4399312Y5217651D01*
X4272790Y5344174D01*
Y5386000D01*
X4316900D01*
Y5586800D01*
D02*
G37*
G36*
X3555095Y5080000D02*
X3479800D01*
Y5004705D01*
X3490307Y5006088D01*
X3511934Y5015046D01*
X3530504Y5029296D01*
X3544754Y5047866D01*
X3553712Y5069493D01*
X3555095Y5080000D01*
D02*
G37*
G36*
X5294000Y5065500D02*
X5158200D01*
Y4996689D01*
X5152932Y4993169D01*
X4924163Y4764400D01*
X4848300D01*
Y4633600D01*
X4979100D01*
Y4709463D01*
X5146158Y4876521D01*
X5158200Y4879700D01*
Y4879700D01*
X5158201Y4879700D01*
X5294000D01*
Y5065500D01*
D02*
G37*
G36*
X6250000Y4603400D02*
X6137300D01*
Y4545700D01*
X6250000D01*
Y4603400D01*
D02*
G37*
G36*
X2563500Y4783300D02*
X2427700D01*
Y4673173D01*
X2299918Y4545390D01*
X2284900Y4547367D01*
X2261693Y4544312D01*
X2240067Y4535354D01*
X2221496Y4521104D01*
X2207246Y4502534D01*
X2198288Y4480907D01*
X2195233Y4457700D01*
X2198288Y4434493D01*
X2207246Y4412866D01*
X2221496Y4394296D01*
X2240067Y4380046D01*
X2261693Y4371088D01*
X2284900Y4368033D01*
X2308108Y4371088D01*
X2329734Y4380046D01*
X2348304Y4394296D01*
X2362554Y4412866D01*
X2371512Y4434493D01*
X2374567Y4457700D01*
X2372590Y4472717D01*
X2497373Y4597500D01*
X2563500D01*
Y4783300D01*
D02*
G37*
G36*
X5582100Y4237900D02*
X5451300D01*
Y4017100D01*
X5582100D01*
Y4088653D01*
X5698366D01*
X5700846Y4082666D01*
X5715096Y4064096D01*
X5733666Y4049846D01*
X5755293Y4040888D01*
X5778500Y4037833D01*
X5801707Y4040888D01*
X5823334Y4049846D01*
X5841904Y4064096D01*
X5856154Y4082666D01*
X5865112Y4104293D01*
X5868167Y4127500D01*
X5865112Y4150707D01*
X5856154Y4172334D01*
X5841904Y4190904D01*
X5823334Y4205154D01*
X5801707Y4214112D01*
X5778500Y4217167D01*
X5755293Y4214112D01*
X5733666Y4205154D01*
X5715096Y4190904D01*
X5700846Y4172334D01*
X5698366Y4166347D01*
X5582100D01*
Y4237900D01*
D02*
G37*
G36*
X4605725Y4076700D02*
X4535136D01*
Y3995969D01*
X4605725D01*
Y4076700D01*
D02*
G37*
G36*
X7067500Y3865300D02*
X6988300D01*
Y3786100D01*
X7067500D01*
Y3865300D01*
D02*
G37*
G36*
X5242100Y4237900D02*
X5111300D01*
Y4017100D01*
X5130411D01*
Y3488600D01*
X5098600D01*
Y3487989D01*
X4877137D01*
X4864004Y3505104D01*
X4845434Y3519354D01*
X4823807Y3528312D01*
X4800600Y3531367D01*
X4777393Y3528312D01*
X4755766Y3519354D01*
X4737196Y3505104D01*
X4722946Y3486534D01*
X4713988Y3464907D01*
X4710933Y3441700D01*
X4713988Y3418493D01*
X4722946Y3396866D01*
X4737196Y3378296D01*
X4755766Y3364046D01*
X4777393Y3355088D01*
X4800600Y3352033D01*
X4823807Y3355088D01*
X4845434Y3364046D01*
X4864004Y3378296D01*
X4877137Y3395411D01*
X5098600D01*
Y3267800D01*
X5229400D01*
Y3488600D01*
X5222990D01*
Y4017100D01*
X5242100D01*
Y4237900D01*
D02*
G37*
G36*
X2266199Y3606800D02*
X2135399D01*
Y3509100D01*
X2154510D01*
Y3107600D01*
X2135399D01*
Y3043489D01*
X1917701D01*
X1917700Y3043490D01*
X1899986Y3039966D01*
X1884968Y3029932D01*
X1884968Y3029931D01*
X1685088Y2830051D01*
X1676400Y2831195D01*
Y2755900D01*
X1751695D01*
X1750551Y2764588D01*
X1936874Y2950911D01*
X2135399D01*
Y2886800D01*
X2188099D01*
Y2997200D01*
X2200799D01*
Y3009900D01*
X2266199D01*
Y3107600D01*
X2247089D01*
Y3509100D01*
X2266199D01*
Y3606800D01*
D02*
G37*
G36*
X2606199Y3107600D02*
X2475399D01*
Y2886800D01*
X2606199D01*
Y2945653D01*
X2713866D01*
X2716346Y2939666D01*
X2730596Y2921096D01*
X2749166Y2906846D01*
X2770793Y2897888D01*
X2794000Y2894833D01*
X2817207Y2897888D01*
X2838834Y2906846D01*
X2857404Y2921096D01*
X2871654Y2939666D01*
X2880612Y2961293D01*
X2883667Y2984500D01*
X2880612Y3007707D01*
X2871654Y3029334D01*
X2857404Y3047904D01*
X2838834Y3062154D01*
X2817207Y3071112D01*
X2794000Y3074167D01*
X2770793Y3071112D01*
X2749166Y3062154D01*
X2730596Y3047904D01*
X2716346Y3029334D01*
X2713866Y3023347D01*
X2606199D01*
Y3107600D01*
D02*
G37*
G36*
X2266199Y2984500D02*
X2213499D01*
Y2886800D01*
X2266199D01*
Y2984500D01*
D02*
G37*
G36*
X1651000Y2831195D02*
X1640493Y2829812D01*
X1618866Y2820854D01*
X1600296Y2806604D01*
X1586046Y2788034D01*
X1577088Y2766407D01*
X1575705Y2755900D01*
X1651000D01*
Y2831195D01*
D02*
G37*
G36*
X1751695Y2730500D02*
X1676400D01*
Y2655205D01*
X1686907Y2656588D01*
X1708534Y2665546D01*
X1727104Y2679796D01*
X1741354Y2698366D01*
X1750312Y2719993D01*
X1751695Y2730500D01*
D02*
G37*
G36*
X1651000D02*
X1575705D01*
X1577088Y2719993D01*
X1586046Y2698366D01*
X1600296Y2679796D01*
X1618866Y2665546D01*
X1640493Y2656588D01*
X1651000Y2655205D01*
Y2730500D01*
D02*
G37*
G36*
X1020600Y2057324D02*
Y1955300D01*
X1122624D01*
X1120329Y1972725D01*
X1108701Y2000798D01*
X1090204Y2024904D01*
X1066098Y2043401D01*
X1038025Y2055029D01*
X1020600Y2057324D01*
D02*
G37*
G36*
X995200D02*
X977775Y2055029D01*
X949702Y2043401D01*
X925596Y2024904D01*
X907099Y2000798D01*
X895470Y1972725D01*
X893176Y1955300D01*
X995200D01*
Y2057324D01*
D02*
G37*
G36*
X4191600Y2040200D02*
X4020800D01*
Y1849400D01*
X4191600D01*
Y2040200D01*
D02*
G37*
G36*
X995200Y1929900D02*
X893176D01*
X895470Y1912474D01*
X907099Y1884402D01*
X925596Y1860296D01*
X949702Y1841798D01*
X977775Y1830170D01*
X995200Y1827876D01*
Y1929900D01*
D02*
G37*
G36*
X3276600Y1101973D02*
Y1017600D01*
X3360973D01*
X3359280Y1030457D01*
X3349415Y1054272D01*
X3333723Y1074723D01*
X3313273Y1090415D01*
X3289457Y1100280D01*
X3276600Y1101973D01*
D02*
G37*
G36*
X5806600Y1137700D02*
X5635800D01*
Y866900D01*
X5806600D01*
Y1137700D01*
D02*
G37*
G36*
X4191600D02*
X4020800D01*
Y866900D01*
X4191600D01*
Y1137700D01*
D02*
G37*
G36*
X5218700Y1059777D02*
X5192177Y1056285D01*
X5167462Y1046047D01*
X5146238Y1029762D01*
X5129952Y1008538D01*
X5119715Y983823D01*
X5116223Y957300D01*
X5119715Y930777D01*
X5129952Y906061D01*
X5146238Y884838D01*
X5167462Y868552D01*
X5192177Y858315D01*
X5218700Y854823D01*
X5245223Y858315D01*
X5269938Y868552D01*
X5291162Y884838D01*
X5307448Y906061D01*
X5317685Y930777D01*
X5321177Y957300D01*
X5317685Y983823D01*
X5307448Y1008538D01*
X5291162Y1029762D01*
X5269938Y1046047D01*
X5245223Y1056285D01*
X5218700Y1059777D01*
D02*
G37*
G36*
X4420700D02*
X4394177Y1056285D01*
X4369462Y1046047D01*
X4348238Y1029762D01*
X4331952Y1008538D01*
X4321715Y983823D01*
X4318223Y957300D01*
X4321715Y930777D01*
X4331952Y906061D01*
X4348238Y884838D01*
X4369462Y868552D01*
X4394177Y858315D01*
X4420700Y854823D01*
X4447223Y858315D01*
X4471938Y868552D01*
X4493162Y884838D01*
X4509448Y906061D01*
X4519685Y930777D01*
X4523177Y957300D01*
X4519685Y983823D01*
X4509448Y1008538D01*
X4493162Y1029762D01*
X4471938Y1046047D01*
X4447223Y1056285D01*
X4420700Y1059777D01*
D02*
G37*
%LPD*%
G36*
X3712911Y7403132D02*
Y6662989D01*
X3675674D01*
X3344189Y6994475D01*
Y7193300D01*
X3378200D01*
Y7258700D01*
X3403600D01*
Y7193300D01*
X3440953D01*
Y7125184D01*
X3443911Y7110318D01*
X3452331Y7097715D01*
X3465505Y7084542D01*
X3460188Y7071707D01*
X3457133Y7048500D01*
X3460188Y7025293D01*
X3469146Y7003666D01*
X3483396Y6985096D01*
X3501967Y6970846D01*
X3523593Y6961888D01*
X3546800Y6958833D01*
X3570008Y6961888D01*
X3591634Y6970846D01*
X3610204Y6985096D01*
X3624454Y7003666D01*
X3633412Y7025293D01*
X3636467Y7048500D01*
X3633412Y7071707D01*
X3624454Y7093334D01*
X3610204Y7111904D01*
X3591634Y7126154D01*
X3570008Y7135112D01*
X3546800Y7138167D01*
X3529094Y7135836D01*
X3518647Y7145325D01*
Y7193300D01*
X3538800D01*
Y7324100D01*
X3548058Y7332411D01*
X3606799D01*
X3606800Y7332410D01*
X3624514Y7335934D01*
X3639532Y7345968D01*
X3699531Y7405968D01*
X3699532Y7405968D01*
X3700211Y7406984D01*
X3712911Y7403132D01*
D02*
G37*
%LPC*%
G36*
X8084100Y4936900D02*
X8026400D01*
Y4824200D01*
X8084100D01*
Y4936900D01*
D02*
G37*
G36*
X10210800Y4878896D02*
X10180675Y4874930D01*
X10152602Y4863301D01*
X10128496Y4844804D01*
X10109999Y4820698D01*
X10098370Y4792625D01*
X10094404Y4762500D01*
X10098370Y4732375D01*
X10109999Y4704302D01*
X10128496Y4680196D01*
X10152602Y4661699D01*
X10180675Y4650070D01*
X10210800Y4646104D01*
X10240925Y4650070D01*
X10268998Y4661699D01*
X10293104Y4680196D01*
X10311601Y4704302D01*
X10323230Y4732375D01*
X10327195Y4762500D01*
X10323230Y4792625D01*
X10311601Y4820698D01*
X10293104Y4844804D01*
X10268998Y4863301D01*
X10240925Y4874930D01*
X10210800Y4878896D01*
D02*
G37*
G36*
X9956800D02*
X9926675Y4874930D01*
X9898602Y4863301D01*
X9874496Y4844804D01*
X9855999Y4820698D01*
X9844370Y4792625D01*
X9840404Y4762500D01*
X9844370Y4732375D01*
X9855999Y4704302D01*
X9874496Y4680196D01*
X9898602Y4661699D01*
X9926675Y4650070D01*
X9956800Y4646104D01*
X9986925Y4650070D01*
X10014998Y4661699D01*
X10039104Y4680196D01*
X10057601Y4704302D01*
X10069230Y4732375D01*
X10073195Y4762500D01*
X10069230Y4792625D01*
X10057601Y4820698D01*
X10039104Y4844804D01*
X10014998Y4863301D01*
X9986925Y4874930D01*
X9956800Y4878896D01*
D02*
G37*
G36*
X9818200Y4877900D02*
X9587400D01*
Y4688954D01*
X9586653Y4685200D01*
Y4637791D01*
X9256231Y4307369D01*
X9247811Y4294766D01*
X9244853Y4279900D01*
Y4131434D01*
X9238866Y4128954D01*
X9220296Y4114704D01*
X9206046Y4096134D01*
X9197088Y4074507D01*
X9194033Y4051300D01*
X9197088Y4028093D01*
X9206046Y4006466D01*
X9220296Y3987896D01*
X9238866Y3973646D01*
X9260493Y3964688D01*
X9283700Y3961633D01*
X9306907Y3964688D01*
X9328534Y3973646D01*
X9347104Y3987896D01*
X9361354Y4006466D01*
X9370312Y4028093D01*
X9373367Y4051300D01*
X9370312Y4074507D01*
X9361354Y4096134D01*
X9347104Y4114704D01*
X9328534Y4128954D01*
X9322547Y4131434D01*
Y4263809D01*
X9652969Y4594231D01*
X9661389Y4606834D01*
X9664346Y4621700D01*
Y4647100D01*
X9818200D01*
Y4877900D01*
D02*
G37*
G36*
X9830900Y3950800D02*
X9600100D01*
Y3720000D01*
X9830900D01*
Y3950800D01*
D02*
G37*
G36*
X10223500Y3951796D02*
X10193375Y3947830D01*
X10165302Y3936201D01*
X10141196Y3917704D01*
X10122699Y3893598D01*
X10111070Y3865525D01*
X10107104Y3835400D01*
X10111070Y3805275D01*
X10122699Y3777202D01*
X10141196Y3753096D01*
X10165302Y3734599D01*
X10193375Y3722970D01*
X10223500Y3719004D01*
X10253625Y3722970D01*
X10281698Y3734599D01*
X10305804Y3753096D01*
X10324301Y3777202D01*
X10335930Y3805275D01*
X10339895Y3835400D01*
X10335930Y3865525D01*
X10324301Y3893598D01*
X10305804Y3917704D01*
X10281698Y3936201D01*
X10253625Y3947830D01*
X10223500Y3951796D01*
D02*
G37*
G36*
X9969500D02*
X9939375Y3947830D01*
X9911302Y3936201D01*
X9887196Y3917704D01*
X9868699Y3893598D01*
X9857070Y3865525D01*
X9853104Y3835400D01*
X9857070Y3805275D01*
X9868699Y3777202D01*
X9887196Y3753096D01*
X9911302Y3734599D01*
X9939375Y3722970D01*
X9969500Y3719004D01*
X9999625Y3722970D01*
X10027698Y3734599D01*
X10051804Y3753096D01*
X10070301Y3777202D01*
X10081930Y3805275D01*
X10085895Y3835400D01*
X10081930Y3865525D01*
X10070301Y3893598D01*
X10051804Y3917704D01*
X10027698Y3936201D01*
X9999625Y3947830D01*
X9969500Y3951796D01*
D02*
G37*
G36*
X8762701Y4887401D02*
X8132701D01*
X8122790Y4885430D01*
X8114388Y4879816D01*
X8108774Y4871414D01*
X8106803Y4861503D01*
Y3061503D01*
X8108774Y3051593D01*
X8114388Y3043191D01*
X8122790Y3037577D01*
X8132701Y3035606D01*
X8762701D01*
X8772611Y3037577D01*
X8781013Y3043191D01*
X8786627Y3051593D01*
X8788598Y3061503D01*
Y4861503D01*
X8786627Y4871414D01*
X8781013Y4879816D01*
X8772611Y4885430D01*
X8762701Y4887401D01*
D02*
G37*
G36*
X9627507Y2811231D02*
X9556918D01*
Y2730500D01*
X9627507D01*
Y2811231D01*
D02*
G37*
G36*
X9779000Y2595095D02*
Y2519800D01*
X9854295D01*
X9852912Y2530307D01*
X9843954Y2551933D01*
X9829704Y2570504D01*
X9811134Y2584754D01*
X9789507Y2593712D01*
X9779000Y2595095D01*
D02*
G37*
G36*
X9854295Y2494400D02*
X9779000D01*
Y2419105D01*
X9789507Y2420488D01*
X9811134Y2429446D01*
X9829704Y2443696D01*
X9843954Y2462266D01*
X9852912Y2483892D01*
X9854295Y2494400D01*
D02*
G37*
G36*
X8407400Y2056495D02*
X8396893Y2055112D01*
X8375266Y2046154D01*
X8356696Y2031904D01*
X8342446Y2013334D01*
X8333488Y1991707D01*
X8332105Y1981200D01*
X8407400D01*
Y2056495D01*
D02*
G37*
G36*
Y1955800D02*
X8332105D01*
X8333488Y1945293D01*
X8342446Y1923666D01*
X8356696Y1905096D01*
X8375266Y1890846D01*
X8396893Y1881888D01*
X8407400Y1880505D01*
Y1955800D01*
D02*
G37*
G36*
X9346295Y1801500D02*
X9271000D01*
Y1726205D01*
X9281507Y1727588D01*
X9303134Y1736546D01*
X9321704Y1750796D01*
X9335954Y1769366D01*
X9344912Y1790992D01*
X9346295Y1801500D01*
D02*
G37*
G36*
X9245600D02*
X9170305D01*
X9171688Y1790992D01*
X9180646Y1769366D01*
X9194896Y1750796D01*
X9213466Y1736546D01*
X9235093Y1727588D01*
X9245600Y1726205D01*
Y1801500D01*
D02*
G37*
G36*
X7496100Y1829900D02*
X7391400D01*
Y1725200D01*
X7496100D01*
Y1829900D01*
D02*
G37*
G36*
X7366000D02*
X7261300D01*
Y1725200D01*
X7366000D01*
Y1829900D01*
D02*
G37*
G36*
X8937236Y1225911D02*
X8869262D01*
Y1130300D01*
X8937236D01*
Y1225911D01*
D02*
G37*
G36*
X9232900Y1103995D02*
Y1028700D01*
X9308195D01*
X9306812Y1039207D01*
X9297854Y1060834D01*
X9283604Y1079404D01*
X9265034Y1093654D01*
X9243407Y1102612D01*
X9232900Y1103995D01*
D02*
G37*
G36*
X9030611Y1225911D02*
X8962636D01*
Y1117600D01*
Y1009289D01*
X9030611D01*
Y1078753D01*
X9102509D01*
X9136068Y1045195D01*
X9133588Y1039207D01*
X9132205Y1028700D01*
X9207500D01*
Y1103995D01*
X9196993Y1102612D01*
X9191005Y1100132D01*
X9146069Y1145069D01*
X9133466Y1153489D01*
X9118600Y1156447D01*
X9030611D01*
Y1225911D01*
D02*
G37*
G36*
X8937236Y1104900D02*
X8869262D01*
Y1009289D01*
X8937236D01*
Y1104900D01*
D02*
G37*
G36*
X9308195Y1003300D02*
X9232900D01*
Y928005D01*
X9243407Y929388D01*
X9265034Y938346D01*
X9283604Y952596D01*
X9297854Y971166D01*
X9306812Y992793D01*
X9308195Y1003300D01*
D02*
G37*
G36*
X10163331Y901363D02*
X10082600D01*
Y830775D01*
X10163331D01*
Y901363D01*
D02*
G37*
G36*
X7065200Y2601500D02*
X6879400D01*
Y2465700D01*
X7065200D01*
Y2468263D01*
X7077900Y2473523D01*
X7151457Y2399966D01*
X7149470Y2383992D01*
X7137496Y2374804D01*
X7123246Y2356234D01*
X7114288Y2334607D01*
X7111233Y2311400D01*
X7114288Y2288193D01*
X7123246Y2266566D01*
X7137496Y2247996D01*
X7156066Y2233746D01*
X7177693Y2224788D01*
X7200900Y2221733D01*
X7224107Y2224788D01*
X7245734Y2233746D01*
X7264304Y2247996D01*
X7278554Y2266566D01*
X7287512Y2288193D01*
X7290567Y2311400D01*
X7287512Y2334607D01*
X7278554Y2356234D01*
X7264304Y2374804D01*
X7245734Y2389054D01*
X7239747Y2391534D01*
Y2405461D01*
X7236789Y2420326D01*
X7228369Y2432929D01*
X7109629Y2551669D01*
X7097026Y2560089D01*
X7082161Y2563046D01*
X7065200D01*
Y2601500D01*
D02*
G37*
G36*
X6883400Y2043795D02*
Y1968500D01*
X6958695D01*
X6957312Y1979007D01*
X6948354Y2000634D01*
X6934104Y2019204D01*
X6915534Y2033454D01*
X6893907Y2042412D01*
X6883400Y2043795D01*
D02*
G37*
G36*
X6858000D02*
X6847493Y2042412D01*
X6825866Y2033454D01*
X6807296Y2019204D01*
X6793046Y2000634D01*
X6784088Y1979007D01*
X6782705Y1968500D01*
X6858000D01*
Y2043795D01*
D02*
G37*
G36*
X6958695Y1943100D02*
X6883400D01*
Y1867805D01*
X6893907Y1869188D01*
X6915534Y1878146D01*
X6934104Y1892396D01*
X6948354Y1910966D01*
X6957312Y1932593D01*
X6958695Y1943100D01*
D02*
G37*
G36*
X6256600Y1938454D02*
X6251961Y1937532D01*
X6237262Y1927710D01*
X6227440Y1913011D01*
X6223991Y1895672D01*
Y1844639D01*
X6256600D01*
Y1938454D01*
D02*
G37*
G36*
X2120900Y2515367D02*
X2097693Y2512312D01*
X2076066Y2503354D01*
X2057496Y2489104D01*
X2043246Y2470534D01*
X2034288Y2448907D01*
X2031233Y2425700D01*
X2034288Y2402493D01*
X2043246Y2380866D01*
X2057496Y2362296D01*
X2076066Y2348046D01*
X2082053Y2345566D01*
Y2322100D01*
X2015300D01*
Y2186300D01*
X2201100D01*
Y2322100D01*
X2159747D01*
Y2345566D01*
X2165734Y2348046D01*
X2184304Y2362296D01*
X2198554Y2380866D01*
X2207512Y2402493D01*
X2210567Y2425700D01*
X2207512Y2448907D01*
X2198554Y2470534D01*
X2184304Y2489104D01*
X2165734Y2503354D01*
X2144107Y2512312D01*
X2120900Y2515367D01*
D02*
G37*
%LPD*%
D10*
X3398900Y689900D02*
G03*
X3398900Y689900I-25000J0D01*
G01*
X2678900Y689900D02*
G03*
X2678900Y689900I-25000J0D01*
G01*
X2663900Y756987D02*
G03*
X2678900Y779900I-10000J22913D01*
G01*
X3363900Y756987D02*
G03*
X3398900Y779900I10000J22913D01*
G01*
X3363900Y802813D02*
G03*
X3363900Y756987I10000J-22913D01*
G01*
X3398900Y779900D02*
G03*
X3363900Y802813I-25000J0D01*
G01*
X2678900Y779900D02*
G03*
X2664588Y802500I-25000J0D01*
G01*
D02*
G03*
X2663900Y802813I-10688J-22600D01*
G01*
X2651800Y754988D02*
G03*
X2663900Y756987I2100J24912D01*
G01*
X2651800Y804811D02*
G03*
X2651800Y754988I2100J-24912D01*
G01*
X2663900Y802813D02*
G03*
X2651800Y804811I-10000J-22913D01*
G01*
X9372600Y5572450D02*
X9452950D01*
X9084650D02*
X9372600D01*
X7671200Y1751000D02*
Y2089200D01*
X4853700Y2064800D02*
Y2463800D01*
Y1801100D02*
Y2064800D01*
X4458600Y4406000D02*
X6262700D01*
X4127500Y4737100D02*
X4458600Y4406000D01*
X4025900Y4737100D02*
X4127500D01*
X3546800Y1524000D02*
Y1943100D01*
X3124200Y7607300D02*
X3429000D01*
X7480300Y5778500D02*
X7886700Y5372100D01*
Y4811500D02*
Y5372100D01*
X10172700Y698500D02*
X10414000Y939800D01*
X8267700Y698500D02*
X10172700D01*
X7632700Y1333500D02*
X8267700Y698500D01*
X3277800Y2108200D02*
Y2160200D01*
Y1498600D02*
Y2108200D01*
X3101800Y2114500D02*
X3271500D01*
X3073400Y1498600D02*
X3277800D01*
X10185400Y6515100D02*
X10325100Y6654800D01*
Y6851700D01*
X9995118Y7016700D02*
X10325100D01*
X9664700Y5386100D02*
Y5629582D01*
X9652000Y5373400D02*
X9818400Y5207000D01*
X9452950Y5572450D02*
X9652000Y5373400D01*
X8926950Y5572450D02*
X9064450D01*
X8599600Y5245100D02*
X8926950Y5572450D01*
X8143550Y5775168D02*
X8458200D01*
X7748200Y5930900D02*
X7906781Y5772318D01*
X8140700D01*
X9664700Y7016918D02*
X9994900D01*
X9347200D02*
X9664700D01*
X9017000Y7029618D02*
X9334500D01*
X8901793Y7074807D02*
X8971812D01*
X7327900Y7226300D02*
X7500500D01*
X7235818Y7318382D02*
X7327900Y7226300D01*
X6870700Y7318382D02*
X7235818D01*
X6858000Y6565200D02*
X7304500D01*
X7785100Y7226300D02*
X7993500D01*
X7732121Y7785100D02*
X7785100Y7732121D01*
Y7226300D02*
Y7732121D01*
X1261900Y6913400D02*
X2667000Y8318500D01*
X1261900Y6913400D02*
X1261900Y1942600D01*
X6858000Y5803900D02*
X6883400Y5778500D01*
X6858000Y5803900D02*
Y5906200D01*
X2284900Y4457700D02*
X2477700Y4650500D01*
X4853700Y2463800D02*
Y2616300D01*
X3581400Y2463800D02*
X4853700D01*
X3277800Y2160200D02*
X3581400Y2463800D01*
X4853700Y1801100D02*
X5130800Y1524000D01*
X7632700Y1333500D02*
Y1712500D01*
X10414000Y939800D02*
Y5105400D01*
X10312400Y5207000D02*
X10414000Y5105400D01*
X9818400Y5207000D02*
X10312400D01*
X6743700Y977900D02*
Y1182462D01*
X5271700Y6987740D02*
X5472160Y7188200D01*
X5271700Y6273800D02*
Y6987740D01*
X3546800Y1943100D02*
Y2124800D01*
X3429000Y1942000D02*
X3545700D01*
X2171700Y7327900D02*
X2390140Y7546340D01*
X2540799D01*
X2171700Y6718300D02*
Y7327900D01*
Y6718300D02*
X2476500Y6413500D01*
X4634700Y2845300D02*
X4925007D01*
X6883400Y5778500D02*
X7480300D01*
X7899400Y5245100D02*
X8599600D01*
X6858000Y5906200D02*
Y6565200D01*
X7518400Y5930900D02*
X7912100Y6324600D01*
X9376535D01*
X7518400Y5930900D02*
X7748200D01*
X7099350Y5918550D02*
X7506050D01*
X753900Y1942600D02*
Y6762786D01*
X2436614Y8445500D01*
X5943600D01*
X6604000Y7785100D01*
X7732121D01*
X2667000Y8318500D02*
X5715000D01*
X6273800Y7759700D01*
Y7519036D02*
Y7759700D01*
X7993500Y6691714D02*
Y7226300D01*
X6870772Y7480300D02*
X7500500D01*
X8369300Y7607300D02*
X8901793Y7074807D01*
X7993500Y7607300D02*
X8369300D01*
X5324300Y7774600D02*
X5472160Y7626740D01*
X5324300Y7848600D02*
X5916600D01*
X6246164Y7519036D01*
X4292600Y8039100D02*
X4311260Y8057760D01*
X4374760D01*
X3174130Y8179670D02*
X3569570D01*
X2540799Y7226300D02*
X3181788Y7867289D01*
X2540799Y7546340D02*
X3174130Y8179670D01*
X2743200Y7226300D02*
X3124200Y7607300D01*
X2540799Y7226300D02*
X2743200D01*
X4292600Y7759036D02*
Y8039100D01*
Y7279036D02*
X4406900Y7164736D01*
Y5755700D02*
Y7164736D01*
Y5755700D02*
X4498400Y5664200D01*
X4724400Y7378700D02*
X5623500D01*
X5751000Y7251200D01*
X4411364Y7691736D02*
X4724400Y7378700D01*
X4308583Y7691736D02*
X4411364D01*
X4498400Y5664200D02*
X4536500Y5626100D01*
X4051300Y5664200D02*
X4498400D01*
X3619500Y5232400D02*
X4051300Y5664200D01*
X2781300Y5232400D02*
X3619500D01*
X2555100Y5458600D02*
X2781300Y5232400D01*
X2400300Y5458600D02*
X2555100D01*
X3908699Y7581900D02*
Y7756135D01*
Y7581900D02*
X4010227Y7480372D01*
X4178300D01*
X4292600Y7366072D01*
X4536500Y5486400D02*
Y5626100D01*
X4634700Y2835300D02*
X4853700Y2616300D01*
X2946400Y1625600D02*
X3073400Y1498600D01*
X2781300Y1625600D02*
X2946400D01*
X3389200Y1358900D02*
X3546800Y1516500D01*
D11*
X7504500Y6172200D02*
D03*
X7354500D02*
D03*
X4776400Y5156200D02*
D03*
X4926400D02*
D03*
X4763700Y4699000D02*
D03*
X4913700D02*
D03*
D12*
X3714918Y1752600D02*
D03*
X3549482D02*
D03*
X8921918Y889000D02*
D03*
X8756482D02*
D03*
X4357000Y4089400D02*
D03*
X4522437D02*
D03*
X3562182Y2143900D02*
D03*
X3727618D02*
D03*
X9544218Y2717800D02*
D03*
X9378782D02*
D03*
D13*
X7696200Y2254200D02*
D03*
Y2089200D02*
D03*
X3101800Y1949500D02*
D03*
Y2114500D02*
D03*
X2108200Y2254200D02*
D03*
Y2089200D02*
D03*
Y1761400D02*
D03*
Y1926400D02*
D03*
X10325100Y6851700D02*
D03*
Y7016700D02*
D03*
X4624700Y2844900D02*
D03*
Y3009900D02*
D03*
X6972300Y2533600D02*
D03*
Y2368600D02*
D03*
X9603100Y1695500D02*
D03*
Y1860500D02*
D03*
X6350000Y2559000D02*
D03*
Y2394000D02*
D03*
X10083800Y1695500D02*
D03*
Y1860500D02*
D03*
X5803900Y2533600D02*
D03*
Y2368600D02*
D03*
X9448800Y844600D02*
D03*
Y1009600D02*
D03*
D14*
X5778500Y7251200D02*
D03*
Y7506200D02*
D03*
D15*
X3295900Y7258700D02*
D03*
X3390900D02*
D03*
X3485900D02*
D03*
Y7498700D02*
D03*
X3390900D02*
D03*
X3295900D02*
D03*
D16*
X3113900Y734900D02*
D03*
X2913900D02*
D03*
D17*
X3143900Y1004900D02*
D03*
X3078900D02*
D03*
X3013900D02*
D03*
X2948900D02*
D03*
X2883900D02*
D03*
D18*
X8013700Y4811500D02*
D03*
X7886700D02*
D03*
X7759700D02*
D03*
X7632700D02*
D03*
X7505700D02*
D03*
X7378700D02*
D03*
X7251700D02*
D03*
X7124700D02*
D03*
X6997700D02*
D03*
X6870700D02*
D03*
X6743700D02*
D03*
X6616700D02*
D03*
X6489700D02*
D03*
X6362700D02*
D03*
Y3111500D02*
D03*
X6489700D02*
D03*
X6616700D02*
D03*
X6743700D02*
D03*
X6870700D02*
D03*
X6997700D02*
D03*
X7124700D02*
D03*
X7251700D02*
D03*
X7378700D02*
D03*
X7505700D02*
D03*
X7632700D02*
D03*
X7759700D02*
D03*
X7886700D02*
D03*
X8013700D02*
D03*
D19*
X6262700Y4533000D02*
D03*
Y4406000D02*
D03*
Y4279000D02*
D03*
Y4152000D02*
D03*
Y4025000D02*
D03*
Y3898000D02*
D03*
Y3771000D02*
D03*
Y3644000D02*
D03*
Y3517000D02*
D03*
Y3390000D02*
D03*
D20*
X7447200Y4245000D02*
D03*
Y4061500D02*
D03*
Y3878000D02*
D03*
X7263700Y4245000D02*
D03*
Y4061500D02*
D03*
Y3878000D02*
D03*
X7080200Y4245000D02*
D03*
Y4061500D02*
D03*
Y3878000D02*
D03*
D21*
X8694664Y1117600D02*
D03*
X8949936D02*
D03*
X3485900Y7937500D02*
D03*
X3230628D02*
D03*
D22*
X9093200Y5574664D02*
D03*
Y5829936D02*
D03*
X6273800Y7263764D02*
D03*
Y7519036D02*
D03*
D23*
X3098700Y5480910D02*
D03*
X2933700D02*
D03*
X5505400Y5410200D02*
D03*
X5340400D02*
D03*
X5391100Y4972600D02*
D03*
X5226100D02*
D03*
X5086300Y7162800D02*
D03*
X4921300D02*
D03*
X2495600Y4690400D02*
D03*
X2660600D02*
D03*
X3310399Y3012600D02*
D03*
X3475399D02*
D03*
X3905300Y2984500D02*
D03*
X4070300D02*
D03*
X6331000Y822800D02*
D03*
X6496000D02*
D03*
X7334300Y6527800D02*
D03*
X7499300D02*
D03*
D24*
X7993500Y6648618D02*
D03*
Y6483182D02*
D03*
X9017000Y7029618D02*
D03*
Y6864182D02*
D03*
X9664700Y7016918D02*
D03*
Y6851482D02*
D03*
X9994900Y7016918D02*
D03*
Y6851482D02*
D03*
X9334500Y7029618D02*
D03*
Y6864182D02*
D03*
X6870700Y7483818D02*
D03*
Y7318382D02*
D03*
X8458200Y5775168D02*
D03*
Y5609731D02*
D03*
X8140700Y5772318D02*
D03*
Y5606882D02*
D03*
X10069900Y1079500D02*
D03*
Y914063D02*
D03*
D25*
X9664700Y5629582D02*
D03*
Y5775018D02*
D03*
X9372600Y5620363D02*
D03*
Y5765800D02*
D03*
D26*
X2540799Y3619500D02*
D03*
X2200799D02*
D03*
X2540799Y2997200D02*
D03*
X2200799D02*
D03*
X5164000Y3378200D02*
D03*
X5504000D02*
D03*
X5176700Y4127500D02*
D03*
X5516700D02*
D03*
D27*
X2603500Y1993900D02*
D03*
D28*
X2356000Y1843900D02*
D03*
Y1893900D02*
D03*
Y1943900D02*
D03*
Y1993900D02*
D03*
Y2043900D02*
D03*
Y2093900D02*
D03*
Y2143900D02*
D03*
X2851000D02*
D03*
Y2093900D02*
D03*
Y2043900D02*
D03*
Y1993900D02*
D03*
Y1943900D02*
D03*
Y1893900D02*
D03*
Y1843900D02*
D03*
D29*
X2453500Y2241400D02*
D03*
X2503500D02*
D03*
X2553500D02*
D03*
X2603500D02*
D03*
X2653500D02*
D03*
X2703500D02*
D03*
X2753500D02*
D03*
Y1746400D02*
D03*
X2703500D02*
D03*
X2653500D02*
D03*
X2603500D02*
D03*
X2553500D02*
D03*
X2503500D02*
D03*
X2453500D02*
D03*
D30*
X3202899Y3557600D02*
D03*
X3392899D02*
D03*
X3297899Y3757600D02*
D03*
X4153699Y3732200D02*
D03*
X3963699D02*
D03*
X4058699Y3532200D02*
D03*
D31*
X6659300Y1266862D02*
D03*
X6594300D02*
D03*
X6529300D02*
D03*
X6464300D02*
D03*
X6399300D02*
D03*
X6334300D02*
D03*
X6269300D02*
D03*
Y1831938D02*
D03*
X6334300D02*
D03*
X6399300D02*
D03*
X6464300D02*
D03*
X6529300D02*
D03*
X6594300D02*
D03*
D32*
X6659300D02*
D03*
D33*
X8877300Y1841500D02*
D03*
D34*
X9077300Y1716500D02*
D03*
Y1766500D02*
D03*
Y1816500D02*
D03*
Y1866500D02*
D03*
Y1916500D02*
D03*
Y1966500D02*
D03*
X8677300Y1716500D02*
D03*
Y1766500D02*
D03*
Y1816500D02*
D03*
Y1866500D02*
D03*
Y1916500D02*
D03*
Y1966500D02*
D03*
D35*
X9002300Y2039000D02*
D03*
X8952300D02*
D03*
X8902300D02*
D03*
X8852300D02*
D03*
X8802300D02*
D03*
X8752300D02*
D03*
X9002300Y1644000D02*
D03*
X8952300D02*
D03*
X8902300D02*
D03*
X8852300D02*
D03*
X8802300D02*
D03*
X8752300D02*
D03*
D36*
X6794500Y5501700D02*
D03*
Y5191700D02*
D03*
D37*
X6317100Y5181600D02*
D03*
X6007100D02*
D03*
X4226500Y5486400D02*
D03*
X4536500D02*
D03*
D38*
X2400300Y5158600D02*
D03*
Y5458600D02*
D03*
D39*
X3911600Y7279036D02*
D03*
X4038600D02*
D03*
X4165600D02*
D03*
X4292600D02*
D03*
X3911600Y7759036D02*
D03*
X4038600D02*
D03*
X4165600D02*
D03*
X4292600D02*
D03*
D40*
X7993500Y7607300D02*
D03*
Y7480300D02*
D03*
Y7353300D02*
D03*
Y7226300D02*
D03*
X7500500D02*
D03*
Y7353300D02*
D03*
Y7480300D02*
D03*
Y7607300D02*
D03*
D41*
X4683300Y7848600D02*
D03*
X5324300D02*
D03*
D42*
X3131400Y6375400D02*
D03*
X4031400D02*
D03*
D43*
X6858000Y6565200D02*
D03*
D44*
X7087000Y5906200D02*
D03*
X6858000D02*
D03*
D45*
X6629000D02*
D03*
D46*
X2120900Y4335799D02*
Y4978400D01*
Y4335799D02*
X2200799Y4255900D01*
Y3619500D02*
Y4255900D01*
X9007300Y6858000D02*
X9658182D01*
X9664700Y5829300D02*
X9944100D01*
X8904900D02*
X9372600D01*
X9664700D01*
X7835900Y6477000D02*
X8200886D01*
X9624675Y2627200D02*
X9755538Y2496337D01*
X9579300Y905200D02*
X10099500D01*
X9087100Y812800D02*
X9559021D01*
X5053665Y7165365D02*
X5199417D01*
X3078875Y5480910D02*
X3211365Y5613400D01*
X9585800Y1691500D02*
X10069900D01*
X8688648Y914063D02*
X8773019D01*
X3144300Y1004900D02*
X3263900D01*
X2883500D02*
Y1104500D01*
X3485900Y7498700D02*
Y7550400D01*
X3429000Y7607300D02*
X3485900Y7550400D01*
X6659300Y1266862D02*
X7187062D01*
X6635100Y1447800D02*
X7114000D01*
X6594300Y1407000D02*
X6635100Y1447800D01*
X7187062Y1266862D02*
X7632700Y1712500D01*
X6659300Y1266862D02*
X6743700Y1182462D01*
X3390900Y7315200D02*
X3454400Y7378700D01*
X3390900Y7258700D02*
Y7315200D01*
X8974700Y897564D02*
X9101764D01*
X2781300Y734900D02*
X2913900D01*
X2663900D02*
X2781300D01*
X2763900Y752300D02*
Y1004900D01*
X2739490Y1172500D02*
X2763900Y1148090D01*
Y1004900D02*
Y1148090D01*
X3113900Y734900D02*
X3263900D01*
X2913900D02*
X3113900D01*
X2651800D02*
X2663900D01*
X3263900D02*
Y1004900D01*
X3149600Y1010200D02*
Y1172500D01*
X3144300Y1004900D02*
X3149600Y1010200D01*
X2883500Y1104500D02*
X2883900Y1104900D01*
X2057400Y1172500D02*
X2739490D01*
X2886000Y1107000D02*
Y1252021D01*
X2855321Y1282700D02*
X2886000Y1252021D01*
X2809100Y1282700D02*
X2855321D01*
X2765040Y1326760D02*
X2809100Y1282700D01*
X2898200Y1828800D02*
X2999800Y1727200D01*
X8420100Y1117600D02*
X8694664D01*
X8227600D02*
X8420100D01*
Y1244600D01*
X7632700Y1712500D02*
X8227600Y1117600D01*
X8688648Y914063D02*
Y1111584D01*
X8694664Y1117600D01*
X8688648Y914063D02*
X8694664Y920079D01*
X9613100Y1654200D02*
X9632560Y1634740D01*
X9573900Y899800D02*
X9579300Y905200D01*
X9544218Y2707657D02*
X9624675Y2627200D01*
X4235834Y4445000D02*
X4522437Y4158398D01*
X3360010Y4445000D02*
X4235834D01*
X3263900Y4541110D02*
Y4737100D01*
Y4541110D02*
X3360010Y4445000D01*
X3871399Y1752600D02*
Y2106099D01*
Y1572699D02*
Y1752600D01*
X3714918D02*
X3871399D01*
X3898900Y2133600D02*
X4051300Y2286000D01*
X3871399Y2106099D02*
X3898900Y2133600D01*
X3727618Y2143900D02*
X3888600D01*
X4051300Y2286000D02*
X4570100D01*
X3530600Y1231900D02*
X3871399Y1572699D01*
X3098700Y5480910D02*
X3360010D01*
X3078875D02*
X3098700D01*
X8200886Y6477000D02*
X8575500Y6851614D01*
X2946400Y5493610D02*
Y5600700D01*
X3043150Y5697450D01*
X9664700Y5775018D02*
Y5829300D01*
X9372600Y5765800D02*
Y5829300D01*
Y5572450D02*
Y5620363D01*
X9064450Y5572450D02*
X9084650D01*
X6529000Y6705600D02*
X7766014D01*
X9944100Y5829300D02*
Y6604000D01*
X8657900Y5582300D02*
X8904900Y5829300D01*
X8485631Y5582300D02*
X8657900D01*
X8458200Y5609731D02*
X8485631Y5582300D01*
X8140700Y5606882D02*
X8455350D01*
X9658182Y6858000D02*
X9664700Y6851482D01*
X9994900D01*
X7820007Y6492893D02*
X7835900Y6477000D01*
X7804114Y6508786D02*
X7820007Y6492893D01*
X7504500Y6172200D02*
X7820007Y6487707D01*
X3209000Y1231900D02*
X3530600D01*
X3149600Y1172500D02*
X3209000Y1231900D01*
X7645400Y7353300D02*
X7670800Y7327900D01*
Y6819900D02*
Y7327900D01*
X7500500Y7353300D02*
X7645400D01*
X6745300Y6819900D02*
X7670800D01*
Y6733179D02*
Y6819900D01*
X6301436Y7263764D02*
X6745300Y6819900D01*
X5199417Y7165365D02*
X5257800Y7223748D01*
X4570100Y2286000D02*
X4633700Y2222400D01*
Y2124800D02*
Y2222400D01*
X8915400Y6527800D02*
X9007300Y6619700D01*
Y6858000D01*
X9944100Y6604000D02*
Y6829600D01*
X9766300Y6426200D02*
X9944100Y6604000D01*
X8013700Y2959100D02*
Y3111500D01*
Y2959100D02*
X8064500Y2908300D01*
X7645400Y4279900D02*
X8013700Y4648200D01*
X7482100Y4279900D02*
X7645400D01*
X8013700Y4648200D02*
Y4811500D01*
X4638200Y4495800D02*
X5321300D01*
X5944800Y5119300D01*
X4587400Y4546600D02*
X4638200Y4495800D01*
X4587400Y4546600D02*
Y4690400D01*
X4350200Y4927600D02*
X4587400Y4690400D01*
X3797300Y4927600D02*
X4350200D01*
X3606800Y4737100D02*
X3797300Y4927600D01*
X3263900Y4737100D02*
X3606800D01*
X7766014Y6705600D02*
X7804114Y6667500D01*
X6351200Y6527800D02*
X6529000Y6705600D01*
X6351200Y6021379D02*
X6428864Y5943715D01*
X6598093D01*
X6351200Y6021379D02*
Y6527800D01*
X9101764Y897564D02*
X9220200Y1016000D01*
X9245600Y2476500D02*
X9735700D01*
X8813800Y2908300D02*
X9245600Y2476500D01*
X8064500Y2908300D02*
X8813800D01*
X7114000Y1447800D02*
X7378700Y1712500D01*
X3505200Y7890564D02*
X3670300Y7725464D01*
X3505200Y7696200D02*
Y7890564D01*
X3666800Y7438700D02*
Y7721964D01*
X3606800Y7378700D02*
X3666800Y7438700D01*
X3454400Y7378700D02*
X3606800D01*
X3656500Y6616700D02*
X3755099D01*
X3297899Y6975301D02*
X3656500Y6616700D01*
X3297899Y6975301D02*
Y7256701D01*
X3759200Y6616700D02*
Y8064500D01*
X3755099Y6616700D02*
X3834099Y6537700D01*
X3759200Y8064500D02*
X3898900Y8204200D01*
X5791200Y7518900D02*
Y7696200D01*
X1663700Y2743200D02*
X1917700Y2997200D01*
X2200799D01*
X1778000Y1172500D02*
X2044700D01*
Y1185200D02*
Y1409700D01*
X2272324D01*
X8420100Y1244600D02*
X8597900Y1422400D01*
X2200799Y2997200D02*
Y3619500D01*
X1007900Y1942600D02*
X1778000Y1172500D01*
X2563000Y5158600D02*
X2628900Y5092700D01*
X3467100D01*
X2400300Y5158600D02*
X2563000D01*
X3263900Y4889500D02*
X3467100Y5092700D01*
X3263900Y4737100D02*
Y4889500D01*
X3390900Y5981700D02*
X4076700D01*
X3106650Y5697450D02*
X3390900Y5981700D01*
X3657600Y5613400D02*
X3937000Y5892800D01*
X3211365Y5613400D02*
X3657600D01*
X2120900Y4978400D02*
Y5803900D01*
X2476500Y6159500D01*
X2120900Y4978400D02*
X2238800Y5096300D01*
X2338000D01*
X4800600Y3441700D02*
X5136700D01*
X9632560Y1556140D02*
Y1634740D01*
X9559021Y812800D02*
X9573900Y827679D01*
X9007400Y892500D02*
X9087100Y812800D01*
X9573900Y827679D02*
Y899800D01*
X5806000Y7506200D02*
X6048436Y7263764D01*
X6273800D01*
X7804114Y6508786D02*
Y6667500D01*
X8575500Y6851614D02*
X9000914D01*
X6792200Y4533000D02*
X7080200Y4245000D01*
X6262700Y4533000D02*
X6792200D01*
X4514460Y8204200D02*
X4648200Y8070460D01*
X3898900Y8204200D02*
X4514460D01*
X4648200Y7883700D02*
Y8070460D01*
X3390900Y7498700D02*
X3485900D01*
X4165600Y7086600D02*
Y7279036D01*
Y7086600D02*
X4292600Y6959600D01*
Y6031701D02*
Y6959600D01*
X4153699Y5892800D02*
X4292600Y6031701D01*
X3937000Y5892800D02*
X4153699D01*
X4036364Y7073900D02*
Y7276800D01*
Y7073900D02*
X4191000Y6919264D01*
Y6096000D02*
Y6919264D01*
X4076700Y5981700D02*
X4191000Y6096000D01*
X3390900Y7429500D02*
Y7498700D01*
X3352800Y7391400D02*
X3390900Y7429500D01*
X3213100Y7391400D02*
X3352800D01*
X3131400Y7309700D02*
X3213100Y7391400D01*
X3131400Y6375400D02*
Y7309700D01*
X3834099Y6537700D02*
X3944100D01*
X4226500Y5325000D02*
X4420700Y5130800D01*
X4226500Y5325000D02*
Y5486400D01*
X5176700Y3390900D02*
Y4127500D01*
X7447200Y3878000D02*
X7602800D01*
X8013700Y3467100D01*
Y3111500D02*
Y3467100D01*
X2753500Y1653400D02*
X2781300Y1625600D01*
D47*
X5053665Y7162800D02*
Y7165365D01*
X2651800Y754988D02*
Y804811D01*
Y734900D02*
Y754988D01*
X9585800Y1691500D02*
X9613100Y1664200D01*
X8694664Y920079D02*
X8767003D01*
X4634700Y2835300D02*
Y2845300D01*
X4624700D02*
X4634700D01*
X4607400Y2872600D02*
X4634700Y2845300D01*
X7099300Y5016500D02*
X7289800D01*
X6997700Y4914900D02*
X7099300Y5016500D01*
X6997700Y4811500D02*
Y4914900D01*
X6870700Y4940300D02*
X6972300Y5041900D01*
X6870700Y4811500D02*
Y4940300D01*
X5073700Y1790600D02*
Y1809700D01*
X4963700Y1919700D02*
X5073700Y1809700D01*
X4963700Y1919700D02*
Y2124800D01*
X5073700Y1981200D02*
Y2124800D01*
X4523700Y1790600D02*
Y2124800D01*
X5738900Y1384300D02*
X6323100Y800100D01*
X6351200Y812800D02*
Y822800D01*
X6328500Y800100D02*
X6351200Y822800D01*
X5073700Y1981200D02*
X5222962Y1831938D01*
X5549900D01*
X6063943Y1317895D01*
X6263444D01*
X3143900Y1004900D02*
X3144300D01*
X6596725Y1269287D02*
Y1348826D01*
X4699000Y2309307D02*
Y2336800D01*
Y2309307D02*
X4743700Y2264607D01*
Y2124800D02*
Y2264607D01*
X2763900Y752300D02*
X2781300Y734900D01*
X2044700Y1185200D02*
X2057400Y1172500D01*
X2948900Y1004900D02*
Y1280000D01*
X2653500Y1575400D02*
X2948900Y1280000D01*
X2883900Y1104900D02*
X2886000Y1107000D01*
X3013900Y1004900D02*
Y1393000D01*
X2722940Y1326760D02*
X2765040D01*
X2703500Y1346200D02*
X2722940Y1326760D01*
X2921000Y1485900D02*
X3013900Y1393000D01*
X2120900Y2266900D02*
Y2425700D01*
X2108200Y2254200D02*
X2120900Y2266900D01*
X2578100Y1626400D02*
X2602700Y1651000D01*
X2578100Y1485100D02*
Y1626400D01*
X2553500Y1460500D02*
X2578100Y1485100D01*
X2602700Y1651000D02*
Y1711600D01*
X2270400Y2163824D02*
X2583076Y2476500D01*
X2319779Y1994700D02*
X2320079Y1995000D01*
X2227700Y1994700D02*
X2319779D01*
X2270400Y2073977D02*
X2298577Y2045800D01*
X2354100D01*
X2133200Y2089200D02*
X2227700Y1994700D01*
X2108200Y2089200D02*
X2133200D01*
X2108200Y1926400D02*
X2125700Y1943900D01*
X2356000D01*
X2704300Y1746400D02*
X2753500D01*
X2553500Y1943900D02*
X2603500Y1993900D01*
X2553500Y1746400D02*
Y1943900D01*
X2108200Y1761400D02*
X2133200D01*
X3908699Y2999900D02*
Y3009900D01*
X2354100Y2045800D02*
X2356000Y2043900D01*
X2270400Y2073977D02*
Y2163824D01*
X2583076Y2476500D02*
X2971800D01*
X2108200Y1625600D02*
Y1761400D01*
X7632700Y1712500D02*
X7671200Y1751000D01*
Y2089200D02*
X7696200D01*
Y2254200D02*
X7721200D01*
X7770100Y2303100D01*
Y2398000D01*
X7835900Y2463800D01*
X3297899Y3012600D02*
Y3032600D01*
X2210277Y1487100D02*
X2298577Y1575400D01*
X2018100Y1487100D02*
X2210277D01*
X1892300Y1612900D02*
X2018100Y1487100D01*
X1892300Y1612900D02*
Y2451100D01*
X2298577Y1575400D02*
Y1816377D01*
X2032000Y2590800D02*
X2876099D01*
X1892300Y2451100D02*
X2032000Y2590800D01*
X2298700Y1818700D02*
X2323900Y1843900D01*
X2298700Y1816500D02*
Y1818700D01*
X2298577Y1816377D02*
X2298700Y1816500D01*
X3271500Y2114500D02*
X3277800Y2108200D01*
X2999800Y1727200D02*
X3009900D01*
X2949660Y1893900D02*
X2975460Y1919700D01*
X2851000Y1893900D02*
X2949660D01*
X2975460Y1919700D02*
X3072000D01*
X3101800Y1949500D01*
X8767003Y920079D02*
X8773019Y914063D01*
X8747619Y897863D02*
X8756482Y889000D01*
X9118600Y1117600D02*
X9220200Y1016000D01*
X8949936Y1117600D02*
X9118600D01*
X9609400Y1854200D02*
X9834572D01*
X9603100Y1860500D02*
X9609400Y1854200D01*
X9594800Y1860500D02*
X9603100D01*
X9575800Y1841500D02*
X9594800Y1860500D01*
X9565800Y1841500D02*
X9575800D01*
X9184800Y2222500D02*
X9565800Y1841500D01*
X10058800Y1860500D02*
X10083800D01*
X9914500Y2004800D02*
X10058800Y1860500D01*
X9526800Y2004800D02*
X9914500D01*
X9613100Y1654200D02*
Y1664200D01*
X9575800Y1691500D02*
X9585800D01*
X8921918Y2222500D02*
X9184800D01*
X8915400Y1282700D02*
X9258300D01*
X8852300Y1345800D02*
X8915400Y1282700D01*
X9448800Y1193800D02*
X9945457D01*
X10059757Y1079500D01*
X10069900D01*
X9436100Y2895600D02*
X9626600D01*
X9378782Y2838282D02*
X9436100Y2895600D01*
X9378782Y2717800D02*
Y2838282D01*
X9735700Y2476500D02*
X9755538Y2496337D01*
X9544218Y2707657D02*
Y2717800D01*
X4522437Y4089400D02*
Y4158398D01*
X3327400Y3251200D02*
X3479800Y3098800D01*
X3217778Y3251200D02*
X3327400D01*
X3479800Y3017001D02*
Y3098800D01*
X3475399Y3012600D02*
X3479800Y3017001D01*
X2667000Y4597400D02*
X2690900D01*
X2667000Y4616450D02*
Y4635500D01*
X2671850Y4616450D02*
X2690900Y4597400D01*
X2667000Y4616450D02*
X2671850D01*
X2698000Y4604500D02*
X2699500D01*
X2939660Y4364340D01*
X2690900Y4597400D02*
X2698000Y4604500D01*
X2405399Y4335799D02*
X2667000Y4597400D01*
X3162300Y4102100D02*
X4344300D01*
X4357000Y4089400D01*
X2959100Y4305300D02*
X3162300Y4102100D01*
X3888600Y2143900D02*
X3898900Y2133600D01*
X9994900Y7016918D02*
X9995118Y7016700D01*
X2933700Y5480910D02*
X2946400Y5493610D01*
X3043150Y5697450D02*
X3106650D01*
X5180400Y4965700D02*
X5219200D01*
X4913700Y4699000D02*
X5180400Y4965700D01*
X5219200D02*
X5226100Y4972600D01*
X5498028D02*
X5501464Y4976036D01*
X5391100Y4972600D02*
X5498028D01*
X5501464Y4976036D02*
Y5107764D01*
X4926400Y5156200D02*
X5180400Y5410200D01*
X5340400D01*
X9652000Y5373400D02*
X9664700Y5386100D01*
X5778500Y7506200D02*
X5806000D01*
X8455350Y5606882D02*
X8458200Y5609731D01*
X8140700Y5772318D02*
X8143550Y5775168D01*
X9334500Y7029618D02*
X9347200Y7016918D01*
X8971812Y7074807D02*
X9017000Y7029618D01*
X7820007Y6487707D02*
Y6492893D01*
X7353300Y6173400D02*
Y6299200D01*
Y6173400D02*
X7354500Y6172200D01*
X7353300Y6299200D02*
X7469500Y6415400D01*
Y6498000D01*
X7499300Y6527800D01*
X7304500Y6565200D02*
X7334300Y6535400D01*
Y6527800D02*
Y6535400D01*
X4921300Y7162800D02*
X4928535D01*
X4726535D02*
X4921300D01*
X4724400Y7160665D02*
X4726535Y7162800D01*
X7670800Y6733179D02*
X7695768Y6708211D01*
X5778500Y7200400D02*
X5829300Y7251200D01*
X5257800Y7223748D02*
Y7226300D01*
X9410700Y1564500D02*
Y1892300D01*
Y1564500D02*
X9565500Y1409700D01*
X9156700Y2146300D02*
X9410700Y1892300D01*
X6323100Y800100D02*
X6328500D01*
X6501200Y812800D02*
Y927100D01*
X6529300Y955200D01*
Y1266862D01*
X9753600Y6426200D02*
X9766300D01*
X2477700Y4650500D02*
Y4686300D01*
X7447200Y4245000D02*
X7482100Y4279900D01*
X7263700Y4245000D02*
X7447200D01*
X7080200Y4061500D02*
X7263700D01*
X7447200D01*
Y3878000D02*
Y4061500D01*
X7263700Y3878000D02*
Y4061500D01*
X7080200D02*
Y4245000D01*
Y3878000D02*
Y4061500D01*
Y4245000D02*
X7263700D01*
X2044700Y1172500D02*
X2057400D01*
X5944800Y5119300D02*
X5954800D01*
X6007100Y5171600D01*
Y5181600D01*
X7763403Y6708211D02*
X7766014Y6705600D01*
X6598093Y5943715D02*
X6629000Y5912808D01*
Y5906200D02*
Y5912808D01*
X8952300Y1580118D02*
X8957858Y1574560D01*
X8902300Y1563400D02*
X8903100Y1562600D01*
Y1422400D02*
Y1562600D01*
X8852300Y1345800D02*
Y1644000D01*
X8902300Y1563400D02*
Y1644000D01*
X9271000Y1371600D02*
X9448800Y1193800D01*
X8903100Y1422400D02*
X8953900Y1371600D01*
X9271000D01*
X9258300Y1282700D02*
X9451200Y1089800D01*
X9078300Y5578800D02*
X9084650Y5572450D01*
X9070800Y5578800D02*
X9078300D01*
X9283700Y4051300D02*
Y4279900D01*
X9625500Y4621700D01*
X10287000Y1600200D02*
Y2235200D01*
X9626600Y2895600D02*
X10287000Y2235200D01*
X9220200Y2311400D02*
X9526800Y2004800D01*
X8915400Y2311400D02*
X9220200D01*
X8432800Y2467800D02*
Y2743200D01*
Y2467800D02*
X8703500Y2197100D01*
X6388100Y1664900D02*
X6479179D01*
X6336100D02*
X6388100D01*
X6399300Y1653700D01*
Y1266862D02*
Y1653700D01*
X4930000Y1384300D02*
X5738900D01*
X4523700Y1790600D02*
X4930000Y1384300D01*
X6594300Y1266862D02*
X6596725Y1269287D01*
X6746838Y1831938D02*
X6870700Y1955800D01*
X6659300Y1831938D02*
X6746838D01*
X3505200Y7890564D02*
Y7918200D01*
X3485900Y7937500D02*
X3505200Y7918200D01*
X3666800Y7721964D02*
X3670300Y7725464D01*
X3479800Y7125184D02*
Y7252600D01*
X3485900Y7258700D01*
X3479800Y7125184D02*
X3546800Y7058184D01*
Y7048500D02*
Y7058184D01*
X3755099Y6616700D02*
X3759200D01*
X5778500Y7506200D02*
X5791200Y7518900D01*
X2551600Y1688977D02*
Y1744500D01*
X2553500Y1746400D01*
X9207500Y1562100D02*
Y1586300D01*
X8597900Y1422400D02*
X8610600Y1435100D01*
X8801100Y1562200D02*
X8802300Y1563400D01*
X8420100Y1968500D02*
X8421100Y1967500D01*
X8676300D02*
X8677300Y1966500D01*
X3545700Y1942000D02*
X3546800Y1943100D01*
X3076310Y5480910D02*
X3078875D01*
X3360010D02*
X3365500Y5486400D01*
X2338000Y5096300D02*
X2400300Y5158600D01*
X5136700Y3441700D02*
X5164000Y3414400D01*
Y3378200D02*
Y3414400D01*
X4950907Y2819400D02*
X4978400D01*
X4925007Y2845300D02*
X4950907Y2819400D01*
X4597400Y2872600D02*
X4624700Y2845300D01*
X9632560Y1556140D02*
X9652000Y1536700D01*
X6273800Y7263764D02*
X6301436D01*
X7695768Y6708211D02*
X7763403D01*
X9000914Y6851614D02*
X9007300Y6858000D01*
X9944100Y6829600D02*
X9947100Y6832600D01*
X6045200Y3390900D02*
X6261800D01*
X6262700Y3390000D01*
X5969000Y3314700D02*
X6045200Y3390900D01*
X4589000Y3024200D02*
X6330400D01*
X5797400Y3111500D02*
X6362700D01*
X5721200Y3187700D02*
X5797400Y3111500D01*
X7759700Y4811500D02*
Y5257800D01*
X7416800Y5600700D02*
X7759700Y5257800D01*
X6489700Y2941200D02*
Y3111500D01*
X6418700Y2870200D02*
X6489700Y2941200D01*
X5600700Y2870200D02*
X6418700D01*
X7378700Y2946400D02*
Y3111500D01*
X7315200Y2882900D02*
X7378700Y2946400D01*
X7315200Y2743200D02*
Y2882900D01*
X7366000Y2184400D02*
Y2413000D01*
X7124700Y2654300D02*
X7366000Y2413000D01*
X7124700Y2654300D02*
Y3111500D01*
X9625500Y4621700D02*
Y4685200D01*
X9702800Y4762500D01*
X7620000Y4824200D02*
Y5133200D01*
Y4824200D02*
X7632700Y4811500D01*
X7076300Y5676900D02*
X7620000Y5133200D01*
X6743700Y4811500D02*
Y4965700D01*
X6553200Y5156200D02*
X6743700Y4965700D01*
X6626800Y5359400D02*
X6794500Y5191700D01*
X6494900Y5359400D02*
X6626800D01*
X6317100Y5181600D02*
X6494900Y5359400D01*
X6972300Y5041900D02*
Y5067300D01*
X7759700Y4811500D02*
X7761879Y4813679D01*
X6794500Y5191700D02*
X6822500Y5219700D01*
X6936800Y5234579D02*
Y5334000D01*
X6921921Y5219700D02*
X6936800Y5234579D01*
X6822500Y5219700D02*
X6921921D01*
X7160200Y5334000D02*
X7505700Y4988500D01*
X6936800Y5334000D02*
X7160200D01*
X4587400Y3022600D02*
X4589000Y3024200D01*
X6330400D02*
X6362700Y3056500D01*
X4570100Y2995300D02*
X4597400Y3022600D01*
X6362700Y3056500D02*
Y3111500D01*
X4587400Y3022600D02*
X4597400D01*
X5504000Y3378200D02*
X5826100D01*
X5956300Y3508400D01*
X6254100D01*
X9064450Y5572450D02*
X9070800Y5578800D01*
X7506050Y5918550D02*
X7518400Y5930900D01*
X7087000Y5906200D02*
X7099350Y5918550D01*
X7969286Y6667500D02*
X7993500Y6691714D01*
X6870700Y7480372D02*
X6870772Y7480300D01*
X4763700Y6273800D02*
X5017700Y6527800D01*
X5093900Y6070600D02*
X5510865Y5653635D01*
X4699000Y6070600D02*
X5093900D01*
X4495800Y6273800D02*
X4699000Y6070600D01*
X5517760Y7626740D02*
X5537200Y7607300D01*
X5472160Y7626740D02*
X5517760D01*
X5324300Y7774600D02*
Y7848600D01*
X4926400Y6972300D02*
Y7160665D01*
Y6972300D02*
X5017700Y6881000D01*
Y6527800D02*
Y6881000D01*
X6246164Y7519036D02*
X6273800D01*
X4374760Y8057760D02*
X4394200Y8077200D01*
X3569570Y8179670D02*
X3581400Y8191500D01*
X4648200Y7883700D02*
X4683300Y7848600D01*
X3230628Y7909864D02*
Y7937500D01*
X3188053Y7867289D02*
X3230628Y7909864D01*
X3181788Y7867289D02*
X3188053D01*
X5751000Y7251200D02*
X5778500D01*
X4292600Y7707719D02*
X4308583Y7691736D01*
X4292600Y7707719D02*
Y7759036D01*
X4036364Y7276800D02*
X4038600Y7279036D01*
X3295900Y7258700D02*
X3297899Y7256701D01*
X3944100Y6537700D02*
X4031400Y6450400D01*
Y6375400D02*
Y6450400D01*
X4763700Y5143500D02*
X4776400Y5156200D01*
X4763700Y4699000D02*
Y5143500D01*
X4108060Y8011432D02*
Y8070460D01*
X4036364Y7939736D02*
X4108060Y8011432D01*
X4036364Y7761272D02*
Y7939736D01*
Y7761272D02*
X4038600Y7759036D01*
X4108060Y8070460D02*
X4127500Y8089900D01*
X5486400Y6934200D02*
X5588000Y6832600D01*
Y5943600D02*
Y6832600D01*
Y5943600D02*
X5727700Y5803900D01*
Y5334000D02*
Y5803900D01*
X5501464Y5107764D02*
X5727700Y5334000D01*
X4776400Y5156200D02*
Y5236500D01*
X4536500Y5476400D02*
X4776400Y5236500D01*
X4536500Y5476400D02*
Y5486400D01*
X4165600Y7581900D02*
X4203700Y7543800D01*
X4165600Y7581900D02*
Y7759036D01*
X4203700Y7543800D02*
X4330700D01*
X4495800Y7378700D01*
Y6273800D02*
Y7378700D01*
X5510865Y5397500D02*
Y5653635D01*
X3908699Y7756135D02*
X3911600Y7759036D01*
X4292600Y7279036D02*
Y7366072D01*
X5842000Y4610100D02*
X6043400Y4811500D01*
X6362700D01*
X5516700Y4127500D02*
X5778500D01*
X6254100Y3508400D02*
X6262700Y3517000D01*
X5164000Y3378200D02*
X5176700Y3390900D01*
X5778500Y5880100D02*
Y7200400D01*
Y5880100D02*
X6156900Y5501700D01*
X6794500D01*
X7505700Y4811500D02*
Y4988500D01*
X6311900Y5676900D02*
X7076300D01*
X5982300Y6006500D02*
X6311900Y5676900D01*
X5982300Y6006500D02*
Y6616700D01*
X7886700Y2946400D02*
X8216900Y2616200D01*
X7886700Y2946400D02*
Y3111500D01*
X8703500Y2197100D02*
X8752300Y2148300D01*
X8293100Y2197100D02*
X8703500D01*
X8140700Y2044700D02*
X8293100Y2197100D01*
X8140700Y1712500D02*
Y2044700D01*
X8952300Y2039000D02*
Y2107000D01*
X8991600Y2146300D01*
X9156700D01*
X9565500Y1409700D02*
X10096500D01*
X10287000Y1600200D01*
X8802300Y2102881D02*
X8921918Y2222500D01*
X8752300Y2148300D02*
X8915400Y2311400D01*
X8852300Y1644000D02*
X8852300Y1644000D01*
X9451200Y1041400D02*
Y1089800D01*
X8752300Y2039000D02*
Y2148300D01*
X8802300Y2039000D02*
Y2102881D01*
X6718300Y1536700D02*
X7366000Y2184400D01*
X6594300Y1536700D02*
X6718300D01*
X6464300Y1406700D02*
X6594300Y1536700D01*
X6464300Y1266862D02*
Y1406700D01*
X6263444Y1317895D02*
X6269300Y1312039D01*
Y1266862D02*
Y1312039D01*
X6334300Y1831938D02*
Y1996900D01*
X6248400Y2082800D02*
X6334300Y1996900D01*
X6529300Y2198600D02*
X6629400Y2298700D01*
Y2324100D01*
X6529300Y1831938D02*
Y2198600D01*
X6271725Y1729275D02*
X6336100Y1664900D01*
X6271725Y1729275D02*
Y1829513D01*
X6269300Y1831938D02*
X6271725Y1829513D01*
X6659300Y1689100D02*
Y1831938D01*
X6635100Y1664900D02*
X6659300Y1689100D01*
X6479179Y1664900D02*
X6635100D01*
X6464300Y1679779D02*
X6479179Y1664900D01*
X6464300Y1679779D02*
Y1831938D01*
X7082161Y2524200D02*
X7200900Y2405461D01*
X6974200Y2524200D02*
X7082161D01*
X6946900Y2551500D02*
X6974200Y2524200D01*
X7200900Y2311400D02*
Y2405461D01*
X7759700Y2870200D02*
Y3111500D01*
Y2870200D02*
X8051800Y2578100D01*
Y2298700D02*
Y2578100D01*
X7886700Y2133600D02*
X8051800Y2298700D01*
X7886700Y1712500D02*
Y2133600D01*
X6350000Y2538800D02*
Y2603500D01*
X6451600Y2705100D01*
X6794500D01*
X6997700Y2908300D01*
Y3111500D01*
X6032500Y2806700D02*
X6718300D01*
X5803900Y2578100D02*
X6032500Y2806700D01*
X5803900Y2538800D02*
Y2578100D01*
X6718300Y2806700D02*
X6870700Y2959100D01*
Y3111500D01*
X6528500Y1266061D02*
X6529300Y1266862D01*
X6337300Y1424163D02*
Y1511300D01*
X6334300Y1421163D02*
X6337300Y1424163D01*
X6334300Y1266862D02*
Y1421163D01*
X5803900Y2044700D02*
X6337300Y1511300D01*
X5803900Y2044700D02*
Y2388800D01*
X6350000D02*
X6360000D01*
X6399300Y2349500D01*
Y1831938D02*
Y2349500D01*
X6594300Y2046200D02*
X6936900Y2388800D01*
X6594300Y1831938D02*
Y2046200D01*
X6936900Y2388800D02*
X6946900D01*
X2939660Y4324740D02*
X2959100Y4305300D01*
X2939660Y4324740D02*
Y4364340D01*
X2405399Y3799900D02*
X2540799Y3664500D01*
Y3619500D02*
Y3664500D01*
X2405399Y3799900D02*
Y4335799D01*
X3101800Y3784600D02*
X3270899D01*
X3297899Y3757600D01*
X2936700Y3619500D02*
X3101800Y3784600D01*
X2540799Y3619500D02*
X2936700D01*
X4597400Y2872600D02*
X4607400D01*
X4318000Y2972600D02*
X4345493D01*
X4368193Y2995300D01*
X4570100D01*
X2553499Y2984500D02*
X2794000D01*
X2540799Y2997200D02*
X2553499Y2984500D01*
X4058699Y3527200D02*
Y3532200D01*
Y3527200D02*
X4085999Y3499900D01*
X4110100D01*
X4587400Y3022600D01*
X4058699Y3009900D02*
Y3256501D01*
X3987800Y3632200D02*
X4053699D01*
X4121399Y3699900D01*
X4126399D01*
X4153699Y3727200D01*
Y3732200D01*
X3911600Y3556000D02*
X3987800Y3632200D01*
X3911600Y3403600D02*
Y3556000D01*
Y3403600D02*
X4058699Y3256501D01*
X3041199Y3289300D02*
Y3561899D01*
X3797300Y3657600D02*
X3871900Y3732200D01*
X3963699D01*
X3136900Y3657600D02*
X3797300D01*
X3041199Y3561899D02*
X3136900Y3657600D01*
X3041199Y3289300D02*
X3297899Y3032600D01*
X3392899Y3557600D02*
X3420199Y3530300D01*
Y3508400D02*
Y3530300D01*
Y3508400D02*
X3908699Y3019900D01*
Y3009900D02*
Y3019900D01*
X3202899Y3266079D02*
X3217778Y3251200D01*
X3202899Y3266079D02*
Y3557600D01*
X7632700Y2844800D02*
Y3111500D01*
Y2844800D02*
X7835900Y2641600D01*
Y2463800D02*
Y2641600D01*
X7500500Y2819400D02*
Y3106300D01*
X7505700Y3111500D01*
X7500500Y2819400D02*
X7581900Y2738000D01*
Y2463800D02*
Y2738000D01*
X2323900Y1843900D02*
X2356000D01*
X2971800Y2476500D02*
X3149600Y2654300D01*
X3553099D01*
X3871399Y2972600D01*
X3881399D01*
X3908699Y2999900D01*
X2876099Y2590800D02*
X3297899Y3012600D01*
X3365500Y1358900D02*
X3389200D01*
X3546800Y1516500D02*
Y1524000D01*
X2653500Y1575400D02*
Y1746400D01*
D48*
X6594300Y1266862D02*
Y1407000D01*
X2876099Y1828800D02*
X2898200D01*
X8957858Y1558942D02*
Y1574560D01*
Y1558942D02*
X9029700Y1487100D01*
X8952300Y1580118D02*
Y1644000D01*
X2272324Y1409700D02*
X2551600Y1688977D01*
X9077300Y1716500D02*
X9207500Y1586300D01*
X8610600Y1435100D02*
X8699500D01*
X8801100Y1536700D01*
Y1562200D01*
X9258300Y1814200D02*
Y1918500D01*
X9210300Y1966500D02*
X9258300Y1918500D01*
X9077300Y1966500D02*
X9210300D01*
X8421100Y1967500D02*
X8676300D01*
X8802300Y1563400D02*
Y1644000D01*
X2753500Y1653400D02*
Y1746400D01*
D49*
X2763900Y1004900D02*
D03*
X3263900D02*
D03*
D50*
X9702800Y4762500D02*
D03*
X1261900Y1942600D02*
D03*
X9715500Y3835400D02*
D03*
D51*
X9956800Y4762500D02*
D03*
X10210800D02*
D03*
X753900Y1942600D02*
D03*
X1007900D02*
D03*
X10223500Y3835400D02*
D03*
X9969500D02*
D03*
D52*
X4763700Y6273800D02*
D03*
X5017700Y6527800D02*
D03*
D53*
X5271700Y6273800D02*
D03*
D54*
X3263900Y4737100D02*
D03*
D55*
X4025900D02*
D03*
D56*
X5982300Y6616700D02*
D03*
D57*
X4420700Y957300D02*
D03*
X5218700D02*
D03*
D58*
X4106200Y1002300D02*
D03*
X5721200D02*
D03*
D59*
X5568700Y1954800D02*
D03*
D60*
X4106200Y1944800D02*
D03*
D61*
X5073700Y2064800D02*
D03*
X5183700D02*
D03*
X4853700D02*
D03*
X4523700D02*
D03*
X4413700D02*
D03*
X4303700D02*
D03*
X4743700D02*
D03*
X4633700D02*
D03*
X4963700D02*
D03*
D62*
X8140700Y1712500D02*
D03*
X7886700D02*
D03*
X7632700D02*
D03*
D63*
X7378700D02*
D03*
D64*
X7581900Y2463800D02*
D03*
X2476500Y6159500D02*
D03*
D65*
X7835900Y2463800D02*
D03*
D66*
X2476500Y6413500D02*
D03*
D67*
X2540799Y7866380D02*
D03*
Y7546340D02*
D03*
D68*
Y7226300D02*
D03*
D69*
X5073700Y1790600D02*
D03*
X2921000Y1485900D02*
D03*
X2703500Y1346200D02*
D03*
X2553500Y1460500D02*
D03*
X2108200Y1625600D02*
D03*
X2120900Y2425700D02*
D03*
X9834572Y1854200D02*
D03*
X9376535Y6324600D02*
D03*
X10185400Y6515100D02*
D03*
X8915400Y6527800D02*
D03*
X9753600Y6426200D02*
D03*
X9220200Y1016000D02*
D03*
X9029700Y1487100D02*
D03*
X9283700Y4051300D02*
D03*
X8432800Y2743200D02*
D03*
X9766300Y2507100D02*
D03*
X6743700Y977900D02*
D03*
X5130800Y1524000D02*
D03*
X6870700Y1955800D02*
D03*
X3505200Y7696200D02*
D03*
X4724400Y7160665D02*
D03*
X3546800Y7048500D02*
D03*
X5257800Y7226300D02*
D03*
X5472160Y7188200D02*
D03*
X5791200Y7696200D02*
D03*
X1663700Y2743200D02*
D03*
X9207500Y1562100D02*
D03*
X8597900Y1422400D02*
D03*
X9258300Y1814200D02*
D03*
X8420100Y1968500D02*
D03*
X3429000Y1942000D02*
D03*
X3009900Y1727200D02*
D03*
X3467100Y5092700D02*
D03*
X3365500Y5486400D02*
D03*
X2284900Y4457700D02*
D03*
X4800600Y3441700D02*
D03*
X4978400Y2819400D02*
D03*
X9652000Y1536700D02*
D03*
X5969000Y3314700D02*
D03*
X7416800Y5600700D02*
D03*
X7315200Y2743200D02*
D03*
X5600700Y2870200D02*
D03*
X5721200Y3187700D02*
D03*
X6553200Y5156200D02*
D03*
X6972300Y5067300D02*
D03*
X7289800Y5016500D02*
D03*
X7518400Y5930900D02*
D03*
X5537200Y7607300D02*
D03*
X3581400Y8191500D02*
D03*
X4394200Y8077200D02*
D03*
X5486400Y6934200D02*
D03*
X4127500Y8089900D02*
D03*
X4420700Y5130800D02*
D03*
X5842000Y4610100D02*
D03*
X5778500Y4127500D02*
D03*
X8216900Y2616200D02*
D03*
X6248400Y2082800D02*
D03*
X4699000Y2336800D02*
D03*
X6629400Y2324100D02*
D03*
X7200900Y2311400D02*
D03*
X2959100Y4305300D02*
D03*
X2794000Y2984500D02*
D03*
X4318000Y2972600D02*
D03*
X3365500Y1358900D02*
D03*
D70*
X2713500Y2103900D02*
D03*
Y1993900D02*
D03*
Y1883900D02*
D03*
X2603500Y2103900D02*
D03*
Y1993900D02*
D03*
Y1883900D02*
D03*
X2493500Y2103900D02*
D03*
Y1993900D02*
D03*
Y1883900D02*
D03*
X8822300Y1896500D02*
D03*
X8932300D02*
D03*
Y1786500D02*
D03*
X8822300D02*
D03*
%TF.MD5,5ce091d999f72a0b0a6e07b576393b48*%
M02*
