%TF.GenerationSoftware,Altium Limited,Altium Designer,19.0.15 (446)*%
G04 Layer_Color=16711935*
%FSLAX45Y45*%
%MOMM*%
%TF.FileFunction,Other,Mechanical_13*%
%TF.Part,Single*%
G01*
G75*
%TA.AperFunction,NonConductor*%
%ADD105C,0.10000*%
D105*
X4329900Y4737100D02*
G03*
X4329900Y4737100I-685000J0D01*
G01*
X2493500Y1833900D02*
G03*
X2493500Y1833900I-50000J0D01*
G01*
X3992100Y7409036D02*
G03*
X3992100Y7409036I-50000J0D01*
G01*
X7768700Y2061700D02*
Y2281700D01*
X7623700Y2061700D02*
Y2281700D01*
X7768700D01*
X7623700Y2061700D02*
X7768700D01*
X5683500Y7203700D02*
Y7553700D01*
X5873500Y7203700D02*
Y7553700D01*
X5683500Y7203700D02*
X5873500D01*
X5683500Y7553700D02*
X5873500D01*
X3029300Y1922000D02*
Y2142000D01*
X3174300Y1922000D02*
Y2142000D01*
X3029300Y1922000D02*
X3174300D01*
X3029300Y2142000D02*
X3174300D01*
X2180700Y2061700D02*
Y2281700D01*
X2035700Y2061700D02*
Y2281700D01*
X2180700D01*
X2035700Y2061700D02*
X2180700D01*
X2035700Y1733900D02*
Y1953900D01*
X2180700Y1733900D02*
Y1953900D01*
X2035700Y1733900D02*
X2180700D01*
X2035700Y1953900D02*
X2180700D01*
X3388430Y519900D02*
Y989902D01*
X2638899D02*
X3388430D01*
X2639370Y519900D02*
Y989430D01*
Y519900D02*
X3388430D01*
X3126200Y5408410D02*
Y5553410D01*
X2906200Y5408410D02*
Y5553410D01*
Y5408410D02*
X3126200D01*
X2906200Y5553410D02*
X3126200D01*
X10252600Y6824200D02*
X10397600D01*
X10252600Y7044200D02*
X10397600D01*
X10252600Y6824200D02*
Y7044200D01*
X10397600Y6824200D02*
Y7044200D01*
X5532900Y5337700D02*
Y5482700D01*
X5312900Y5337700D02*
Y5482700D01*
Y5337700D02*
X5532900D01*
X5312900Y5482700D02*
X5532900D01*
X5418600Y4900100D02*
Y5045100D01*
X5198600Y4900100D02*
Y5045100D01*
Y4900100D02*
X5418600D01*
X5198600Y5045100D02*
X5418600D01*
X5113800Y7090300D02*
Y7235300D01*
X4893800Y7090300D02*
Y7235300D01*
Y7090300D02*
X5113800D01*
X4893800Y7235300D02*
X5113800D01*
X2468100Y4617900D02*
Y4762900D01*
X2688100Y4617900D02*
Y4762900D01*
X2468100D02*
X2688100D01*
X2468100Y4617900D02*
X2688100D01*
X3282899Y2940100D02*
Y3085100D01*
X3502899Y2940100D02*
Y3085100D01*
X3282899D02*
X3502899D01*
X3282899Y2940100D02*
X3502899D01*
X3877800Y2912000D02*
Y3057000D01*
X4097800Y2912000D02*
Y3057000D01*
X3877800D02*
X4097800D01*
X3877800Y2912000D02*
X4097800D01*
X4552200Y2817400D02*
X4697200D01*
X4552200Y3037400D02*
X4697200D01*
X4552200Y2817400D02*
Y3037400D01*
X4697200Y2817400D02*
Y3037400D01*
X6899800Y2561100D02*
X7044800D01*
X6899800Y2341100D02*
X7044800D01*
Y2561100D01*
X6899800Y2341100D02*
Y2561100D01*
X9530600Y1668000D02*
X9675600D01*
X9530600Y1888000D02*
X9675600D01*
X9530600Y1668000D02*
Y1888000D01*
X9675600Y1668000D02*
Y1888000D01*
X6277500Y2586500D02*
X6422500D01*
X6277500Y2366500D02*
X6422500D01*
Y2586500D01*
X6277500Y2366500D02*
Y2586500D01*
X10011300Y1668000D02*
X10156300D01*
X10011300Y1888000D02*
X10156300D01*
X10011300Y1668000D02*
Y1888000D01*
X10156300Y1668000D02*
Y1888000D01*
X5731400Y2561100D02*
X5876400D01*
X5731400Y2341100D02*
X5876400D01*
Y2561100D01*
X5731400Y2341100D02*
Y2561100D01*
X6303500Y750300D02*
Y895300D01*
X6523500Y750300D02*
Y895300D01*
X6303500D02*
X6523500D01*
X6303500Y750300D02*
X6523500D01*
X9376300Y817100D02*
X9521300D01*
X9376300Y1037100D02*
X9521300D01*
X9376300Y817100D02*
Y1037100D01*
X9521300Y817100D02*
Y1037100D01*
X7306800Y6455300D02*
Y6600300D01*
X7526800Y6455300D02*
Y6600300D01*
X7306800D02*
X7526800D01*
X7306800Y6455300D02*
X7526800D01*
X9575800Y4444500D02*
X10337800D01*
X9575800D02*
Y5016500D01*
X10337800D01*
Y4444500D02*
Y5016500D01*
X626900Y1688600D02*
Y2260600D01*
Y1688600D02*
X1388900D01*
Y2260600D01*
X626900D02*
X1388900D01*
X5494200Y5795012D02*
Y6748800D01*
X4541200Y5795012D02*
Y6748800D01*
X4779450Y5795012D02*
X5255950D01*
X4541200Y6748800D02*
X5494200D01*
X5255950Y5795012D02*
X5494200D01*
X4541200D02*
X4779450D01*
X2853500Y1743900D02*
Y2243900D01*
X2353500Y1743900D02*
Y2243900D01*
X2853500D01*
X2353500Y1743900D02*
X2853500D01*
X3151899Y3592600D02*
X3443899D01*
X3151899Y3722600D02*
X3443899D01*
X3151899Y3592600D02*
Y3722600D01*
X3443899Y3592600D02*
Y3722600D01*
X3912699Y3697200D02*
X4204699D01*
X3912699Y3567200D02*
X4204699D01*
Y3697200D01*
X3912699Y3567200D02*
Y3697200D01*
X9077300Y1641500D02*
Y2041500D01*
X8677300Y1641500D02*
X9077300D01*
X8677300D02*
Y2041500D01*
X9077300D01*
X10350500Y3517400D02*
Y4089400D01*
X9588500D02*
X10350500D01*
X9588500Y3517400D02*
Y4089400D01*
Y3517400D02*
X10350500D01*
X2310300Y5138600D02*
X2490300D01*
X2310300Y5478600D02*
X2490300D01*
X2310300Y5138600D02*
Y5478600D01*
X2490300Y5138600D02*
Y5478600D01*
X3852100Y7319036D02*
X4352100D01*
X3852100Y7719036D02*
X4352100D01*
X3852100Y7319036D02*
Y7719036D01*
X4352100Y7319036D02*
Y7719036D01*
X3056400Y5860400D02*
Y6890400D01*
X4106400Y5860400D02*
Y6890400D01*
X3056400D02*
X4106400D01*
X3056400Y5860400D02*
X4106400D01*
%TF.MD5,20450012caefe5390e3de3b9acf42445*%
M02*
