%TF.GenerationSoftware,Altium Limited,Altium Designer,19.0.15 (446)*%
G04 Layer_Color=0*
%FSLAX45Y45*%
%MOMM*%
%TF.FileFunction,Other,Top_Component_Center*%
%TF.Part,Single*%
G01*
G75*
%TA.AperFunction,NonConductor*%
%ADD105C,0.10000*%
D105*
X7379500Y6172200D02*
X7479500D01*
X7429500Y6122200D02*
Y6222200D01*
X3582200Y1752600D02*
X3682200D01*
X3632200Y1702600D02*
Y1802600D01*
X3390900Y7328700D02*
Y7428700D01*
X3340900Y7378700D02*
X3440900D01*
X7487700Y3911500D02*
Y4011500D01*
X7437700Y3961500D02*
X7537700D01*
X8772300Y1117600D02*
X8872300D01*
X8822300Y1067600D02*
Y1167600D01*
X8789200Y889000D02*
X8889200D01*
X8839200Y839000D02*
Y939000D01*
X9043200Y5702300D02*
X9143200D01*
X9093200Y5652300D02*
Y5752300D01*
X7943500Y6565900D02*
X8043500D01*
X7993500Y6515900D02*
Y6615900D01*
X8967000Y6946900D02*
X9067000D01*
X9017000Y6896900D02*
Y6996900D01*
X9614700Y6934200D02*
X9714700D01*
X9664700Y6884200D02*
Y6984200D01*
X9944900Y6934200D02*
X10044900D01*
X9994900Y6884200D02*
Y6984200D01*
X9284500Y6946900D02*
X9384500D01*
X9334500Y6896900D02*
Y6996900D01*
X6820700Y7401100D02*
X6920700D01*
X6870700Y7351100D02*
Y7451100D01*
X8408200Y5692450D02*
X8508200D01*
X8458200Y5642450D02*
Y5742450D01*
X8090700Y5689600D02*
X8190700D01*
X8140700Y5639600D02*
Y5739600D01*
X4439718Y4039400D02*
Y4139400D01*
X4389718Y4089400D02*
X4489718D01*
X3644900Y2093900D02*
Y2193900D01*
X3594900Y2143900D02*
X3694900D01*
X9461500Y2667800D02*
Y2767800D01*
X9411500Y2717800D02*
X9511500D01*
X10019900Y996782D02*
X10119900D01*
X10069900Y946782D02*
Y1046781D01*
X9614700Y5702300D02*
X9714700D01*
X9664700Y5652300D02*
Y5752300D01*
X9322600Y5693082D02*
X9422600D01*
X9372600Y5643082D02*
Y5743081D01*
X5982300Y6566700D02*
Y6666700D01*
X5932300Y6616700D02*
X6032300D01*
X2370799Y3569500D02*
Y3669500D01*
X2320799Y3619500D02*
X2420799D01*
X2370799Y2947200D02*
Y3047200D01*
X2320799Y2997200D02*
X2420799D01*
X6414300Y1549400D02*
X6514300D01*
X6464300Y1499400D02*
Y1599400D01*
X6744500Y5346700D02*
X6844500D01*
X6794500Y5296700D02*
Y5396700D01*
X6162100Y5131600D02*
Y5231600D01*
X6112100Y5181600D02*
X6212100D01*
X5334000Y3328200D02*
Y3428200D01*
X5284000Y3378200D02*
X5384000D01*
X5346700Y4077500D02*
Y4177500D01*
X5296700Y4127500D02*
X5396700D01*
X7759700Y1664500D02*
Y1764500D01*
X7709700Y1714500D02*
X7809700D01*
X7708900Y2413800D02*
Y2513800D01*
X7658900Y2463800D02*
X7758900D01*
X4381500Y5436400D02*
Y5536400D01*
X4331500Y5486400D02*
X4431500D01*
X2426500Y6286500D02*
X2526500D01*
X2476500Y6236500D02*
Y6336500D01*
X4851400Y5106200D02*
Y5206200D01*
X4801400Y5156200D02*
X4901400D01*
X4838700Y4649000D02*
Y4749000D01*
X4788700Y4699000D02*
X4888700D01*
X7747000Y7366800D02*
Y7466800D01*
X7697000Y7416800D02*
X7797000D01*
X5003800Y7798600D02*
Y7898600D01*
X4953800Y7848600D02*
X5053800D01*
X2490799Y7546340D02*
X2590799D01*
X2540799Y7496340D02*
Y7596340D01*
X3358264Y7887500D02*
Y7987500D01*
X3308264Y7937500D02*
X3408264D01*
X6808000Y6235700D02*
X6908000D01*
X6858000Y6185700D02*
Y6285700D01*
X6223800Y7391400D02*
X6323800D01*
X6273800Y7341400D02*
Y7441400D01*
%TF.MD5,5dd08fc138cd5056f0d3d3aa6f13276e*%
M02*
