%TF.GenerationSoftware,Altium Limited,Altium Designer,19.0.15 (446)*%
G04 Layer_Color=16711935*
%FSLAX45Y45*%
%MOMM*%
%TF.FileFunction,Other,Mechanical_1*%
%TF.Part,Single*%
G01*
G75*
%TA.AperFunction,NonConductor*%
%ADD105C,0.10000*%
D105*
X2543900Y589900D02*
X3460400D01*
X2293900Y579900D02*
Y609890D01*
X2308896D01*
X2313894Y604892D01*
Y594895D01*
X2308896Y589897D01*
X2293900D01*
X2343884Y604892D02*
X2338886Y609890D01*
X2328889D01*
X2323891Y604892D01*
Y584898D01*
X2328889Y579900D01*
X2338886D01*
X2343884Y584898D01*
X2353881Y609890D02*
Y579900D01*
X2368876D01*
X2373875Y584898D01*
Y589897D01*
X2368876Y594895D01*
X2353881D01*
X2368876D01*
X2373875Y599894D01*
Y604892D01*
X2368876Y609890D01*
X2353881D01*
X2433855D02*
X2413862D01*
Y579900D01*
X2433855D01*
X2413862Y594895D02*
X2423858D01*
X2443852Y609890D02*
Y579900D01*
X2458847D01*
X2463845Y584898D01*
Y604892D01*
X2458847Y609890D01*
X2443852D01*
X2493836Y604892D02*
X2488837Y609890D01*
X2478841D01*
X2473842Y604892D01*
Y584898D01*
X2478841Y579900D01*
X2488837D01*
X2493836Y584898D01*
Y594895D01*
X2483839D01*
X2523826Y609890D02*
X2503832D01*
Y579900D01*
X2523826D01*
X2503832Y594895D02*
X2513829D01*
%TF.MD5,e09ef385a1f67a8f37c9e1098b48219f*%
M02*
