%TF.GenerationSoftware,Altium Limited,Altium Designer,19.0.15 (446)*%
G04 Layer_Color=32768*
%FSLAX45Y45*%
%MOMM*%
%TF.FileFunction,Other,Mechanical_15*%
%TF.Part,Single*%
G01*
G75*
%TA.AperFunction,NonConductor*%
%ADD105C,0.10000*%
%ADD106C,0.05000*%
D105*
X7646200Y2171700D02*
X7746200D01*
X7696200Y2121700D02*
Y2221700D01*
X5728500Y7378700D02*
X5828500D01*
X5778500Y7328700D02*
Y7428700D01*
X3051800Y2032000D02*
X3151800D01*
X3101800Y1982000D02*
Y2082000D01*
X2058200Y2171700D02*
X2158200D01*
X2108200Y2121700D02*
Y2221700D01*
X2058200Y1843900D02*
X2158200D01*
X2108200Y1793900D02*
Y1893900D01*
X3013900Y819900D02*
Y919900D01*
X2963900Y869900D02*
X3063900D01*
X2966200Y5480910D02*
X3066200D01*
X3016200Y5430910D02*
Y5530910D01*
X10325100Y6884200D02*
Y6984200D01*
X10275100Y6934200D02*
X10375100D01*
X5372900Y5410200D02*
X5472900D01*
X5422900Y5360200D02*
Y5460200D01*
X5258600Y4972600D02*
X5358600D01*
X5308600Y4922600D02*
Y5022600D01*
X4953800Y7162800D02*
X5053800D01*
X5003800Y7112800D02*
Y7212800D01*
X2528100Y4690400D02*
X2628100D01*
X2578100Y4640400D02*
Y4740400D01*
X3342899Y3012600D02*
X3442899D01*
X3392899Y2962600D02*
Y3062600D01*
X3937800Y2984500D02*
X4037800D01*
X3987800Y2934500D02*
Y3034500D01*
X4624700Y2877400D02*
Y2977400D01*
X4574700Y2927400D02*
X4674700D01*
X6972300Y2401100D02*
Y2501100D01*
X6922300Y2451100D02*
X7022300D01*
X9603100Y1728000D02*
Y1828000D01*
X9553100Y1778000D02*
X9653100D01*
X6350000Y2426500D02*
Y2526500D01*
X6300000Y2476500D02*
X6400000D01*
X10083800Y1728000D02*
Y1828000D01*
X10033800Y1778000D02*
X10133800D01*
X5803900Y2401100D02*
Y2501100D01*
X5753900Y2451100D02*
X5853900D01*
X6363500Y822800D02*
X6463500D01*
X6413500Y772800D02*
Y872800D01*
X9448800Y877100D02*
Y977100D01*
X9398800Y927100D02*
X9498800D01*
X7366800Y6527800D02*
X7466800D01*
X7416800Y6477800D02*
Y6577800D01*
X9906800Y4762500D02*
X10006800D01*
X9956800Y4712500D02*
Y4812500D01*
X1007900Y1892600D02*
Y1992600D01*
X957900Y1942600D02*
X1057900D01*
X4967700Y6400800D02*
X5067700D01*
X5017700Y6350800D02*
Y6450800D01*
X3644900Y4687100D02*
Y4787100D01*
X3594900Y4737100D02*
X3694900D01*
X2553500Y1993900D02*
X2653500D01*
X2603500Y1943900D02*
Y2043900D01*
X3297899Y3607600D02*
Y3707600D01*
X3247899Y3657600D02*
X3347899D01*
X4058699Y3582200D02*
Y3682200D01*
X4008699Y3632200D02*
X4108699D01*
X8877300Y1791500D02*
Y1891500D01*
X8827300Y1841500D02*
X8927300D01*
X9969500Y3785400D02*
Y3885400D01*
X9919500Y3835400D02*
X10019500D01*
X2400300Y5258600D02*
Y5358600D01*
X2350300Y5308600D02*
X2450300D01*
X4102100Y7469036D02*
Y7569036D01*
X4052100Y7519036D02*
X4152100D01*
X2981400Y5830400D02*
Y6920400D01*
X4181400Y5830400D02*
Y6920400D01*
X2981400D02*
X4181400D01*
X2981400Y5830400D02*
X4181400D01*
X3531400Y6375400D02*
X3631400D01*
X3581400Y6325400D02*
Y6425400D01*
D106*
X4339900Y4737100D02*
G03*
X4339900Y4737100I-695000J0D01*
G01*
X7781200Y2036700D02*
Y2306700D01*
X7611200Y2036700D02*
Y2306700D01*
X7781200D01*
X7611200Y2036700D02*
X7781200D01*
X5673500Y7178700D02*
Y7578700D01*
X5883500Y7178700D02*
Y7578700D01*
X5673500Y7178700D02*
X5883500D01*
X5673500Y7578700D02*
X5883500D01*
X3016800Y1897000D02*
Y2167000D01*
X3186800Y1897000D02*
Y2167000D01*
X3016800Y1897000D02*
X3186800D01*
X3016800Y2167000D02*
X3186800D01*
X2193200Y2036700D02*
Y2306700D01*
X2023200Y2036700D02*
Y2306700D01*
X2193200D01*
X2023200Y2036700D02*
X2193200D01*
X2023200Y1708900D02*
Y1978900D01*
X2193200Y1708900D02*
Y1978900D01*
X2023200Y1708900D02*
X2193200D01*
X2023200Y1978900D02*
X2193200D01*
X2593900Y469900D02*
Y1087400D01*
Y469900D02*
X3433899D01*
Y1087400D01*
X2593900D02*
X3433899D01*
X3151200Y5395910D02*
Y5565910D01*
X2881200Y5395910D02*
Y5565910D01*
Y5395910D02*
X3151200D01*
X2881200Y5565910D02*
X3151200D01*
X10240100Y6799200D02*
X10410100D01*
X10240100Y7069200D02*
X10410100D01*
X10240100Y6799200D02*
Y7069200D01*
X10410100Y6799200D02*
Y7069200D01*
X5557900Y5325200D02*
Y5495200D01*
X5287900Y5325200D02*
Y5495200D01*
Y5325200D02*
X5557900D01*
X5287900Y5495200D02*
X5557900D01*
X5443600Y4887600D02*
Y5057600D01*
X5173600Y4887600D02*
Y5057600D01*
Y4887600D02*
X5443600D01*
X5173600Y5057600D02*
X5443600D01*
X5138800Y7077800D02*
Y7247800D01*
X4868800Y7077800D02*
Y7247800D01*
Y7077800D02*
X5138800D01*
X4868800Y7247800D02*
X5138800D01*
X2443100Y4605400D02*
Y4775400D01*
X2713100Y4605400D02*
Y4775400D01*
X2443100D02*
X2713100D01*
X2443100Y4605400D02*
X2713100D01*
X3257899Y2927600D02*
Y3097600D01*
X3527899Y2927600D02*
Y3097600D01*
X3257899D02*
X3527899D01*
X3257899Y2927600D02*
X3527899D01*
X3852800Y2899500D02*
Y3069500D01*
X4122800Y2899500D02*
Y3069500D01*
X3852800D02*
X4122800D01*
X3852800Y2899500D02*
X4122800D01*
X4539700Y2792400D02*
X4709700D01*
X4539700Y3062400D02*
X4709700D01*
X4539700Y2792400D02*
Y3062400D01*
X4709700Y2792400D02*
Y3062400D01*
X6887300Y2586100D02*
X7057300D01*
X6887300Y2316100D02*
X7057300D01*
Y2586100D01*
X6887300Y2316100D02*
Y2586100D01*
X9518100Y1643000D02*
X9688100D01*
X9518100Y1913000D02*
X9688100D01*
X9518100Y1643000D02*
Y1913000D01*
X9688100Y1643000D02*
Y1913000D01*
X6265000Y2611500D02*
X6435000D01*
X6265000Y2341500D02*
X6435000D01*
Y2611500D01*
X6265000Y2341500D02*
Y2611500D01*
X9998800Y1643000D02*
X10168800D01*
X9998800Y1913000D02*
X10168800D01*
X9998800Y1643000D02*
Y1913000D01*
X10168800Y1643000D02*
Y1913000D01*
X5718900Y2586100D02*
X5888900D01*
X5718900Y2316100D02*
X5888900D01*
Y2586100D01*
X5718900Y2316100D02*
Y2586100D01*
X6278500Y737800D02*
Y907800D01*
X6548500Y737800D02*
Y907800D01*
X6278500D02*
X6548500D01*
X6278500Y737800D02*
X6548500D01*
X9363800Y792100D02*
X9533800D01*
X9363800Y1062100D02*
X9533800D01*
X9363800Y792100D02*
Y1062100D01*
X9533800Y792100D02*
Y1062100D01*
X7281800Y6442800D02*
Y6612800D01*
X7551800Y6442800D02*
Y6612800D01*
X7281800D02*
X7551800D01*
X7281800Y6442800D02*
X7551800D01*
X10347800Y4434500D02*
Y5026500D01*
X9565800D02*
X10347800D01*
X9565800Y4434500D02*
Y5026500D01*
Y4434500D02*
X10347800D01*
X616900Y2270600D02*
X1398900D01*
Y1678600D02*
Y2270600D01*
X616900Y1678600D02*
X1398900D01*
X616900D02*
Y2270600D01*
X4531200Y5785800D02*
Y6758800D01*
X5504200Y5785800D02*
Y6758800D01*
X4531200Y5785800D02*
X5504200D01*
X4531200Y6758800D02*
X5504200D01*
X2948500Y1648900D02*
Y2338900D01*
X2258500Y1648900D02*
Y2338900D01*
X2948500D01*
X2258500Y1648900D02*
X2948500D01*
X3141899Y3502600D02*
X3453899D01*
X3141899Y3812600D02*
X3453899D01*
X3141899Y3502600D02*
Y3812600D01*
X3453899Y3502600D02*
Y3812600D01*
X3902699Y3787200D02*
X4214699D01*
X3902699Y3477200D02*
X4214699D01*
Y3787200D01*
X3902699Y3477200D02*
Y3787200D01*
X8627300Y1591500D02*
Y2091500D01*
Y1591500D02*
X9127300D01*
Y2091500D01*
X8627300D02*
X9127300D01*
X9578500Y3507400D02*
X10360500D01*
X9578500D02*
Y4099400D01*
X10360500D01*
Y3507400D02*
Y4099400D01*
X2255300Y5033600D02*
X2545300D01*
X2255300Y5583600D02*
X2545300D01*
X2255300Y5033600D02*
Y5583600D01*
X2545300Y5033600D02*
Y5583600D01*
X3822100Y7144036D02*
X4382100D01*
X3822100Y7894036D02*
X4382100D01*
X3822100Y7144036D02*
Y7894036D01*
X4382100Y7144036D02*
Y7894036D01*
%TF.MD5,a0aa28985b6a354e69736b5377a71dbd*%
M02*
