%TF.GenerationSoftware,Altium Limited,Altium Designer,19.0.15 (446)*%
G04 Layer_Color=32768*
%FSLAX45Y45*%
%MOMM*%
%TF.FileFunction,Other,Top_Courtyard*%
%TF.Part,Single*%
G01*
G75*
%TA.AperFunction,NonConductor*%
%ADD86C,0.20000*%
D86*
X7304500Y6117200D02*
X7554500D01*
X7304500D02*
Y6227200D01*
X7554500D01*
Y6117200D02*
Y6227200D01*
X3466594Y1659569D02*
X3797806D01*
X3466594D02*
Y1845631D01*
X3797806D01*
Y1659569D02*
Y1845631D01*
X3225900Y7208700D02*
Y7548700D01*
X3555900D01*
Y7208700D02*
Y7548700D01*
X3225900Y7208700D02*
X3555900D01*
X8777700Y3001500D02*
Y4921500D01*
X6152700Y3001500D02*
X8777700D01*
X6152700D02*
Y4921500D01*
X8777700D01*
X8629389Y1215100D02*
X9015211D01*
Y1020100D02*
Y1215100D01*
X8629389Y1020100D02*
X9015211D01*
X8629389D02*
Y1215100D01*
X8673594Y795969D02*
X9004806D01*
X8673594D02*
Y982031D01*
X9004806D01*
Y795969D02*
Y982031D01*
X8995700Y5895211D02*
X9190700D01*
X8995700Y5509389D02*
Y5895211D01*
Y5509389D02*
X9190700D01*
Y5895211D01*
X7900469Y6400294D02*
X8086531D01*
Y6731506D01*
X7900469D02*
X8086531D01*
X7900469Y6400294D02*
Y6731506D01*
X8923969Y6781294D02*
X9110031D01*
Y7112506D01*
X8923969D02*
X9110031D01*
X8923969Y6781294D02*
Y7112506D01*
X9571669Y6768594D02*
X9757731D01*
Y7099806D01*
X9571669D02*
X9757731D01*
X9571669Y6768594D02*
Y7099806D01*
X9901869Y6768594D02*
X10087931D01*
Y7099806D01*
X9901869D02*
X10087931D01*
X9901869Y6768594D02*
Y7099806D01*
X9241469Y6781294D02*
X9427531D01*
Y7112506D01*
X9241469D02*
X9427531D01*
X9241469Y6781294D02*
Y7112506D01*
X6777669Y7235494D02*
X6963731D01*
Y7566706D01*
X6777669D02*
X6963731D01*
X6777669Y7235494D02*
Y7566706D01*
X8365169Y5526843D02*
X8551231D01*
Y5858056D01*
X8365169D02*
X8551231D01*
X8365169Y5526843D02*
Y5858056D01*
X8047669Y5523994D02*
X8233731D01*
Y5855206D01*
X8047669D02*
X8233731D01*
X8047669Y5523994D02*
Y5855206D01*
X4605325Y3996369D02*
Y4182431D01*
X4274112D02*
X4605325D01*
X4274112Y3996369D02*
Y4182431D01*
Y3996369D02*
X4605325D01*
X3810506Y2050869D02*
Y2236932D01*
X3479294D02*
X3810506D01*
X3479294Y2050869D02*
Y2236932D01*
Y2050869D02*
X3810506D01*
X9295894Y2624769D02*
Y2810831D01*
Y2624769D02*
X9627106D01*
Y2810831D01*
X9295894D02*
X9627106D01*
X9976869Y831175D02*
X10162931D01*
Y1162388D01*
X9976869D02*
X10162931D01*
X9976869Y831175D02*
Y1162388D01*
X9587200Y5832907D02*
X9742200D01*
X9587200Y5571693D02*
Y5832907D01*
Y5571693D02*
X9742200D01*
Y5832907D01*
X9295100Y5823688D02*
X9450100D01*
X9295100Y5562475D02*
Y5823688D01*
Y5562475D02*
X9450100D01*
Y5823688D01*
X5872300Y6501700D02*
Y6731700D01*
Y6501700D02*
X6092300D01*
Y6731700D01*
X5872300D02*
X6092300D01*
X2150799Y3474500D02*
Y3764500D01*
Y3474500D02*
X2590799D01*
Y3764500D01*
X2150799D02*
X2590799D01*
X2150799Y2852200D02*
Y3142200D01*
Y2852200D02*
X2590799D01*
Y3142200D01*
X2150799D02*
X2590799D01*
X6189300Y1939710D02*
X6739300D01*
X6189300Y1159090D02*
Y1939710D01*
Y1159090D02*
X6739300D01*
Y1939710D01*
X6697000Y5116700D02*
X6892000D01*
Y5576700D01*
X6697000D02*
X6892000D01*
X6697000Y5116700D02*
Y5576700D01*
X5932100Y5084100D02*
Y5279100D01*
Y5084100D02*
X6392100D01*
Y5279100D01*
X5932100D02*
X6392100D01*
X5554000Y3233200D02*
Y3523200D01*
X5114000D02*
X5554000D01*
X5114000Y3233200D02*
Y3523200D01*
Y3233200D02*
X5554000D01*
X5566700Y3982500D02*
Y4272500D01*
X5126700D02*
X5566700D01*
X5126700Y3982500D02*
Y4272500D01*
Y3982500D02*
X5566700D01*
X8290200Y1397000D02*
Y2032000D01*
X7229200D02*
X8290200D01*
X7229200Y1397000D02*
Y2032000D01*
Y1397000D02*
X8290200D01*
X7991900Y2320300D02*
Y2607300D01*
X7425900D02*
X7991900D01*
X7425900Y2320300D02*
Y2607300D01*
Y2320300D02*
X7991900D01*
X4611500Y5388900D02*
Y5583900D01*
X4151500D02*
X4611500D01*
X4151500Y5388900D02*
Y5583900D01*
Y5388900D02*
X4611500D01*
X2333000Y6569500D02*
X2620000D01*
X2333000Y6003500D02*
Y6569500D01*
Y6003500D02*
X2620000D01*
Y6569500D01*
X4976400Y5101200D02*
Y5211200D01*
X4726400D02*
X4976400D01*
X4726400Y5101200D02*
Y5211200D01*
Y5101200D02*
X4976400D01*
X4963700Y4644000D02*
Y4754000D01*
X4713700D02*
X4963700D01*
X4713700Y4644000D02*
Y4754000D01*
Y4644000D02*
X4963700D01*
X7391500Y7141800D02*
Y7691800D01*
Y7141800D02*
X8102500D01*
Y7691800D01*
X7391500D02*
X8102500D01*
X5420300Y7527600D02*
Y8169600D01*
X4587300D02*
X5420300D01*
X4587300Y7527600D02*
Y8169600D01*
Y7527600D02*
X5420300D01*
X2238699Y6973730D02*
X2842899D01*
Y8118950D01*
X2238699D02*
X2842899D01*
X2238699Y6973730D02*
Y8118950D01*
X3165353Y7840000D02*
Y8035000D01*
Y7840000D02*
X3551175D01*
Y8035000D01*
X3165353D02*
X3551175D01*
X6522750Y5845985D02*
X7193250D01*
Y6625415D01*
X6522750D02*
X7193250D01*
X6522750Y5845985D02*
Y6625415D01*
X6176300Y7584311D02*
X6371300D01*
X6176300Y7198489D02*
Y7584311D01*
Y7198489D02*
X6371300D01*
Y7584311D01*
%TF.MD5,57f54f8d5b5291165f60744a376c2bca*%
M02*
