M48
;Layer_Color=9474304
;FILE_FORMAT=4:4
METRIC,LZ
;TYPE=PLATED
T1F00S00C0.2000
T3F00S00C0.7112
T4F00S00C0.8500
T5F00S00C0.8900
T6F00S00C1.0000
T7F00S00C1.0200
T8F00S00C1.0500
T9F00S00C1.0668
T10F00S00C1.1900
T11F00S00C1.2700
%
T01
X0024935Y0018839
X0026035
Y0019939
X0024935
Y0021039
X0026035
X0027135
Y0019939
Y0018839
X0088223Y0018965
X0089323
Y0017865
X0088223
T03
X0021082Y0016256
X0025535Y0014605
X0027035Y0013462
X002921Y0014859
X0030099Y0017272
X003429Y001942
X0033655Y0013589
X002794Y0029845
X0021209Y0024257
X0016637Y0027432
X004318Y0029726
X0049784Y0028194
X0056007Y0028702
X0057212Y0031877
X005969Y0033147
X0048006Y0034417
X004699Y0023368
X0050737Y0017906
X0051308Y001524
X0062484Y0020828
X0066294Y0023241
X0072009Y0023114
X0073152Y0027432
X0068707Y0019558
X0067437Y0009779
X0085979Y0014224
X0090297Y0014871
X0092075Y0015621
X0092583Y0018142
X00983457Y0018542
X009652Y0015367
X0092202Y001016
X0084201Y0019685
X0084328Y0027432
X0082169Y0026162
X0097663Y0025071
X0092837Y0040513
X00937654Y0063246
X0097536Y0064262
X0101854Y0065151
X0089154Y0065278
X0075184Y0059309
X0074168Y0056007
X0072898Y0050165
X0069723Y0050673
X0065532Y0051562
X005842Y0046101
X0057785Y0041275
X0044207Y0051308
X0047244Y00716067
X0052578Y0072263
X00547216Y0071882
X0054864Y0069342
X0055372Y0076073
X0057912Y0076962
X0035052
X0035468Y0070485
X0033655Y0054864
X0034671Y0050927
X0029591Y0043053
X0022849Y0044577
X0035814Y0081915
X0041275Y0080899
X0043942Y0080772
T04
X0027639Y0010049
X0032639
X0047637Y0062738
X0052717
X0050177Y0065278
T05
X0059823Y0066167
T06
X0044207Y0009573
X0052187
T07
X0075819Y0024638
X0078359
X0024765Y0061595
Y0064135
T08
X0040259Y0047371
X0032639
T09
X0025408Y0072263
Y00754634
Y00786638
T10
X0073787Y0017125
X0076327
X0078867
X0081407
T11
X0007539Y0019426
X0010079
X0012619
X0097155Y0038354
X0099695
X0102235
X0102108Y0047625
X0099568
X0097028
M30
